<svg xmlns="http://www.w3.org/2000/svg" xmlns:xlink="http://www.w3.org/1999/xlink" width="574" zoomAndPan="magnify" viewBox="0 0 430.5 195.750001" height="261" preserveAspectRatio="xMidYMid meet" version="1.2"><defs><clipPath id="8c0b2f3103"><path d="M 36 0 L 325 0 L 325 195.5 L 36 195.5 Z M 36 0 "/></clipPath><clipPath id="a705d5596e"><path d="M 322 139 L 409.988281 139 L 409.988281 172 L 322 172 Z M 322 139 "/></clipPath></defs><g id="eef596e04a"><path style=" stroke:none;fill-rule:evenodd;fill:#3e473a;fill-opacity:1;" d="M 29.480469 36.890625 C 25.410156 32.441406 19.734375 23.886719 20.535156 17.652344 C 21.167969 12.699219 25.398438 8.984375 30.398438 8.984375 C 35.394531 8.984375 39.625 12.699219 40.257812 17.652344 C 41.058594 23.886719 35.382812 32.445312 31.3125 36.890625 C 31.066406 37.15625 30.757812 37.292969 30.398438 37.292969 C 30.035156 37.292969 29.726562 37.15625 29.480469 36.890625 Z M 30.398438 38.503906 C 34.445312 38.503906 37.730469 39.375 37.730469 40.449219 C 37.730469 41.523438 34.445312 42.394531 30.398438 42.394531 C 26.347656 42.394531 23.0625 41.523438 23.0625 40.449219 C 23.0625 39.375 26.347656 38.503906 30.398438 38.503906 Z M 30.398438 39.855469 C 31.308594 39.855469 32.050781 40.121094 32.050781 40.449219 C 32.050781 40.777344 31.308594 41.042969 30.398438 41.042969 C 29.484375 41.042969 28.742188 40.777344 28.742188 40.449219 C 28.742188 40.121094 29.484375 39.855469 30.398438 39.855469 Z M 30.398438 14.96875 C 32.621094 14.96875 34.425781 16.773438 34.425781 19 C 34.425781 21.226562 32.621094 23.03125 30.398438 23.03125 C 28.171875 23.03125 26.367188 21.226562 26.367188 19 C 26.367188 16.773438 28.171875 14.96875 30.398438 14.96875 Z M 30.398438 14.96875 "/><g clip-rule="nonzero" clip-path="url(#8c0b2f3103)"><path style=" stroke:none;fill-rule:nonzero;fill:#3e473a;fill-opacity:1;" d="M 42.378906 27.945312 C 40.285156 29.773438 38.285156 31.769531 36.472656 33.878906 L 39.550781 36.507812 C 41.238281 34.546875 43.113281 32.679688 45.0625 30.976562 Z M 317.152344 165.65625 L 314.335938 167.140625 L 316.222656 170.722656 L 319.035156 169.238281 Z M 310.761719 169.003906 C 308.371094 170.242188 305.976562 171.449219 303.570312 172.648438 L 305.363281 176.277344 C 307.796875 175.078125 310.210938 173.847656 312.621094 172.601562 Z M 299.953125 174.410156 C 297.539062 175.570312 295.105469 176.71875 292.65625 177.808594 L 294.316406 181.503906 C 296.785156 180.363281 299.25 179.242188 301.703125 178.0625 Z M 288.980469 179.4375 C 286.523438 180.503906 284.050781 181.527344 281.558594 182.515625 L 283.050781 186.28125 C 285.578125 185.273438 288.089844 184.238281 290.589844 183.152344 Z M 277.824219 183.953125 C 275.320312 184.882812 272.808594 185.765625 270.265625 186.585938 L 271.492188 190.445312 C 274.097656 189.585938 276.65625 188.707031 279.230469 187.75 Z M 266.449219 187.757812 C 263.902344 188.492188 261.339844 189.160156 258.746094 189.710938 L 259.578125 193.675781 C 262.265625 193.101562 264.925781 192.414062 267.570312 191.648438 Z M 254.867188 190.445312 C 252.167969 190.871094 249.816406 191.0625 247.101562 191.214844 L 247.164062 195.261719 C 249.988281 195.1875 252.714844 194.886719 255.5 194.445312 Z M 243.257812 191.121094 C 240.84375 190.933594 238.277344 190.453125 236.050781 189.484375 L 234.40625 193.183594 C 237.082031 194.339844 240.019531 194.929688 242.914062 195.15625 Z M 232.96875 187.703125 C 231.082031 186.296875 229.707031 184.324219 228.796875 182.175781 L 225.035156 183.667969 C 226.199219 186.476562 228.042969 189.085938 230.5 190.910156 Z M 227.785156 178.738281 C 227.390625 176.292969 227.714844 173.929688 228.335938 171.546875 L 224.421875 170.503906 C 223.664062 173.429688 223.296875 176.332031 223.78125 179.34375 Z M 229.550781 167.953125 C 230.484375 165.589844 231.75 163.191406 233.054688 161.011719 L 229.582031 158.929688 C 228.171875 161.296875 226.8125 163.867188 225.796875 166.433594 Z M 235.160156 157.675781 C 236.621094 155.476562 238.195312 153.320312 239.824219 151.242188 L 236.640625 148.742188 C 234.949219 150.90625 233.320312 153.128906 231.796875 155.417969 Z M 242.328125 148.132812 C 244.035156 146.070312 245.789062 144.078125 247.574219 142.085938 L 244.578125 139.359375 C 242.746094 141.378906 240.949219 143.445312 239.214844 145.542969 Z M 250.296875 139.136719 C 252.117188 137.195312 254.117188 135.316406 255.894531 133.378906 L 253.042969 130.507812 C 251.117188 132.335938 249.171875 134.417969 247.351562 136.359375 Z M 258.761719 130.554688 C 260.6875 128.683594 262.632812 126.835938 264.601562 125.011719 L 261.851562 122.042969 C 259.859375 123.886719 257.886719 125.757812 255.945312 127.648438 Z M 267.570312 122.289062 C 269.554688 120.484375 271.558594 118.683594 273.585938 116.925781 L 270.921875 113.875 C 268.878906 115.660156 266.855469 117.464844 264.847656 119.289062 Z M 276.628906 114.28125 C 278.667969 112.523438 280.71875 110.789062 282.785156 109.0625 L 280.191406 105.953125 C 278.109375 107.691406 276.042969 109.441406 273.988281 111.207031 L 276.628906 114.277344 Z M 285.890625 106.488281 C 287.96875 104.78125 290.054688 103.082031 292.15625 101.402344 L 289.625 98.242188 C 287.515625 99.941406 285.410156 101.644531 283.316406 103.363281 Z M 295.3125 98.882812 C 297.371094 97.25 299.878906 95.46875 301.75 93.65625 L 298.9375 90.746094 C 297.160156 92.457031 294.746094 94.164062 292.796875 95.710938 Z M 304.671875 90.753906 C 306.59375 88.78125 308.4375 86.734375 310.191406 84.609375 L 307.0625 82.039062 C 305.371094 84.078125 303.609375 86.039062 301.761719 87.941406 Z M 312.753906 81.351562 C 314.410156 79.132812 315.984375 76.8125 317.371094 74.417969 L 313.859375 72.394531 C 312.589844 74.636719 311.046875 76.871094 309.503906 78.9375 Z M 319.351562 70.734375 C 320.601562 68.203125 321.65625 65.605469 322.476562 62.902344 L 318.589844 61.757812 C 317.820312 64.257812 316.875 66.605469 315.71875 68.949219 Z M 323.5 58.78125 C 324.011719 56.09375 324.347656 52.988281 324.179688 50.253906 L 320.136719 50.445312 C 320.226562 53.035156 320.007812 55.480469 319.523438 58.023438 Z M 323.734375 45.972656 C 323.257812 43.179688 322.394531 40.324219 321.1875 37.757812 L 317.519531 39.472656 C 318.582031 41.796875 319.320312 44.160156 319.75 46.679688 Z M 319.144531 33.980469 C 317.601562 31.523438 315.851562 29.371094 313.808594 27.308594 L 310.953125 30.179688 C 312.785156 32.03125 314.3125 33.917969 315.710938 36.121094 Z M 310.660156 24.457031 C 309.144531 23.214844 307.617188 22.148438 305.976562 21.066406 C 305.234375 20.59375 304.492188 20.132812 303.734375 19.683594 L 301.707031 23.1875 C 303.9375 24.503906 306.101562 25.953125 308.105469 27.597656 Z M 300.054688 17.695312 C 297.558594 16.445312 294.933594 15.398438 292.285156 14.523438 L 291.054688 18.382812 C 293.507812 19.1875 295.957031 20.171875 298.265625 21.328125 Z M 288.273438 13.363281 C 285.527344 12.691406 282.855469 12.207031 280.046875 11.871094 L 279.59375 15.894531 C 282.222656 16.210938 284.71875 16.660156 287.289062 17.289062 Z M 275.875 11.519531 C 273.078125 11.375 270.378906 11.390625 267.585938 11.519531 L 267.800781 15.5625 C 270.464844 15.4375 273.03125 15.425781 275.695312 15.5625 Z M 263.4375 11.839844 C 260.6875 12.121094 257.988281 12.515625 255.269531 13.015625 L 256.015625 16.992188 C 258.632812 16.515625 261.226562 16.136719 263.875 15.863281 Z M 251.234375 13.835938 C 248.570312 14.421875 245.882812 15.121094 243.261719 15.882812 L 244.40625 19.765625 C 246.925781 19.023438 249.546875 18.351562 252.117188 17.789062 Z M 239.335938 17.074219 C 236.738281 17.902344 234.152344 18.792969 231.597656 19.742188 L 233.011719 23.539062 C 235.515625 22.609375 238.035156 21.738281 240.582031 20.929688 Z M 227.777344 21.199219 C 225.242188 22.199219 222.730469 23.242188 220.230469 24.320312 L 221.84375 28.03125 C 224.300781 26.96875 226.777344 25.945312 229.269531 24.964844 Z M 216.5 25.964844 C 214.023438 27.078125 211.558594 28.222656 209.113281 29.394531 L 210.867188 33.042969 C 213.285156 31.882812 215.71875 30.753906 218.167969 29.652344 Z M 205.453125 31.167969 C 203.019531 32.355469 200.601562 33.570312 198.183594 34.792969 L 200.015625 38.40625 C 202.414062 37.191406 204.820312 35.984375 207.238281 34.800781 Z M 194.570312 36.636719 C 192.160156 37.855469 189.765625 39.113281 187.367188 40.355469 L 189.226562 43.953125 C 191.621094 42.714844 194.011719 41.457031 196.417969 40.242188 Z M 183.773438 42.214844 C 181.382812 43.449219 178.984375 44.679688 176.582031 45.886719 L 178.398438 49.503906 C 180.816406 48.285156 183.222656 47.054688 185.628906 45.8125 Z M 172.976562 47.683594 C 170.570312 48.863281 168.15625 50.007812 165.714844 51.113281 L 167.371094 54.804688 C 169.855469 53.683594 172.308594 52.519531 174.753906 51.320312 Z M 162.054688 52.695312 C 159.621094 53.703125 157.167969 54.636719 154.644531 55.410156 L 155.808594 59.289062 C 158.453125 58.480469 161.042969 57.496094 163.597656 56.4375 Z M 150.90625 56.390625 C 148.726562 56.851562 145.878906 57.230469 143.667969 56.808594 L 142.878906 60.777344 C 145.753906 61.296875 148.875 60.957031 151.714844 60.359375 Z M 140.609375 55.707031 C 138.667969 54.488281 137.523438 52.515625 136.863281 50.363281 L 132.976562 51.503906 C 133.273438 52.453125 133.632812 53.316406 134.066406 54.214844 L 134.5625 55.117188 L 135.113281 55.964844 L 135.714844 56.746094 L 136.035156 57.117188 L 136.367188 57.46875 L 136.714844 57.804688 L 137.070312 58.121094 L 137.4375 58.425781 L 137.816406 58.710938 L 138.386719 59.089844 Z M 136.078125 46.730469 C 135.734375 44.160156 135.707031 41.585938 135.816406 38.992188 L 131.773438 38.800781 C 131.65625 41.617188 131.6875 44.429688 132.058594 47.226562 Z M 136.097656 35.066406 C 136.363281 32.296875 136.78125 29.65625 136.886719 26.871094 L 132.839844 26.730469 C 132.730469 29.425781 132.328125 31.972656 132.066406 34.652344 L 136.09375 35.066406 Z M 136.824219 22.605469 C 136.621094 19.699219 136.070312 16.832031 135.003906 14.117188 L 131.242188 15.617188 C 132.160156 17.941406 132.613281 20.421875 132.785156 22.902344 Z M 132.953125 10.15625 C 131.046875 7.488281 129.316406 5.707031 126.484375 3.996094 L 124.421875 7.480469 C 124.621094 7.585938 124.859375 7.753906 125.054688 7.882812 C 127.050781 9.234375 128.1875 10.449219 129.578125 12.394531 Z M 122.511719 2.089844 C 119.734375 1.0625 117.046875 0.539062 114.113281 0.230469 L 113.734375 4.261719 C 116.316406 4.539062 118.660156 4.980469 121.105469 5.886719 Z M 109.878906 0.0234375 C 107.089844 0.0234375 104.308594 0.21875 101.542969 0.59375 L 102.078125 4.609375 C 104.679688 4.257812 107.257812 4.074219 109.882812 4.074219 L 109.882812 0.0234375 Z M 97.4375 1.253906 C 94.742188 1.761719 92.015625 2.390625 89.378906 3.144531 L 90.480469 7.039062 C 93.074219 6.363281 95.546875 5.730469 98.1875 5.234375 Z M 85.4375 4.328125 C 82.832031 5.140625 80.230469 6.097656 77.6875 7.09375 L 79.171875 10.859375 C 81.636719 9.898438 84.144531 8.972656 86.667969 8.183594 Z M 73.882812 8.664062 C 71.363281 9.742188 68.886719 10.910156 66.433594 12.132812 L 68.257812 15.75 C 70.597656 14.546875 73.066406 13.417969 75.488281 12.378906 L 73.878906 8.664062 Z M 62.792969 14.035156 C 60.394531 15.320312 57.980469 16.714844 55.675781 18.167969 L 57.832031 21.59375 C 60.097656 20.199219 62.375 18.851562 64.71875 17.59375 L 62.792969 14.03125 Z M 52.222656 20.40625 C 50.074219 21.863281 47.507812 23.597656 45.554688 25.28125 L 48.089844 28.4375 C 50.246094 26.824219 52.25 25.28125 54.492188 23.757812 Z M 52.222656 20.40625 "/></g><g clip-rule="nonzero" clip-path="url(#a705d5596e)"><path style=" stroke:none;fill-rule:evenodd;fill:#3e473a;fill-opacity:1;" d="M 403.128906 168.089844 L 392.285156 168.101562 C 392.582031 167.308594 392.746094 166.445312 392.746094 165.539062 C 392.742188 161.769531 389.890625 158.722656 386.378906 158.726562 C 382.863281 158.730469 380.019531 161.785156 380.023438 165.550781 C 380.023438 166.457031 380.191406 167.324219 380.492188 168.113281 L 351.023438 168.144531 C 351.324219 167.355469 351.488281 166.488281 351.488281 165.582031 C 351.484375 161.816406 348.632812 158.765625 345.117188 158.769531 C 341.605469 158.773438 338.757812 161.832031 338.761719 165.597656 C 338.765625 166.503906 338.929688 167.367188 339.230469 168.160156 L 326.289062 168.171875 C 324.363281 168.175781 322.785156 166.488281 322.78125 164.421875 L 322.757812 143.050781 C 322.757812 140.988281 324.332031 139.296875 326.257812 139.292969 L 395.488281 139.21875 C 399.710938 139.214844 402.464844 140.984375 404.273438 143.71875 C 406.820312 143.558594 408.113281 144.082031 408.660156 144.414062 C 409.597656 144.980469 409.765625 145.785156 409.851562 146.878906 C 409.902344 147.550781 409.988281 148.519531 409.339844 149.214844 C 408.804688 149.792969 408.679688 148.914062 408.609375 147.980469 L 408.535156 146.996094 L 408.460938 146.007812 C 408.417969 145.441406 408.617188 144.832031 408.285156 144.695312 C 406.957031 144.144531 405.5625 144.175781 404.636719 144.292969 C 407.433594 149.054688 407.71875 156.34375 407.90625 162.457031 C 408.039062 166.816406 407.792969 168.082031 403.128906 168.089844 Z M 345.121094 163.59375 C 344.09375 163.597656 343.261719 164.488281 343.265625 165.589844 C 343.265625 166.691406 344.097656 167.585938 345.125 167.585938 C 346.152344 167.582031 346.984375 166.6875 346.984375 165.585938 C 346.984375 164.484375 346.148438 163.59375 345.121094 163.59375 Z M 345.117188 159.894531 C 342.183594 159.898438 339.808594 162.449219 339.8125 165.59375 C 339.816406 168.738281 342.195312 171.285156 345.128906 171.285156 C 348.0625 171.28125 350.441406 168.726562 350.4375 165.582031 C 350.433594 162.4375 348.050781 159.890625 345.117188 159.894531 Z M 345.121094 162.617188 C 343.589844 162.617188 342.351562 163.949219 342.351562 165.59375 C 342.355469 167.234375 343.597656 168.5625 345.128906 168.5625 C 346.660156 168.558594 347.898438 167.226562 347.898438 165.585938 C 347.894531 163.945312 346.652344 162.617188 345.121094 162.617188 Z M 386.382812 163.550781 C 385.355469 163.550781 384.523438 164.445312 384.523438 165.546875 C 384.527344 166.648438 385.359375 167.539062 386.386719 167.539062 C 387.414062 167.539062 388.246094 166.644531 388.246094 165.542969 C 388.246094 164.441406 387.410156 163.546875 386.382812 163.550781 Z M 386.378906 159.851562 C 383.445312 159.851562 381.070312 162.40625 381.074219 165.550781 C 381.078125 168.695312 383.457031 171.242188 386.390625 171.238281 C 389.324219 171.234375 391.699219 168.683594 391.695312 165.539062 C 391.695312 162.394531 389.3125 159.847656 386.378906 159.851562 Z M 386.382812 162.570312 C 384.851562 162.574219 383.609375 163.90625 383.613281 165.546875 C 383.613281 167.1875 384.859375 168.519531 386.390625 168.515625 C 387.921875 168.515625 389.160156 167.183594 389.15625 165.542969 C 389.15625 163.898438 387.914062 162.570312 386.382812 162.570312 Z M 404.449219 143.988281 C 404.507812 144.078125 404.5625 144.171875 404.617188 144.261719 C 404.5625 144.171875 404.507812 144.078125 404.449219 143.988281 Z M 324.265625 161.417969 C 324.964844 161.84375 324.953125 162.488281 324.953125 162.9375 C 324.953125 163.386719 324.96875 164.03125 324.269531 164.457031 C 323.691406 164.808594 323.632812 164.21875 323.632812 163.597656 L 323.632812 162.28125 C 323.632812 161.660156 323.6875 161.066406 324.265625 161.417969 Z M 406.152344 161.328125 C 405.453125 161.753906 405.46875 162.402344 405.46875 162.847656 C 405.46875 163.296875 405.457031 163.945312 406.152344 164.367188 C 406.734375 164.71875 406.789062 164.128906 406.789062 163.507812 L 406.789062 162.191406 C 406.785156 161.566406 406.730469 160.976562 406.152344 161.328125 Z M 396.796875 140.699219 C 403.320312 141.621094 405.484375 147.453125 406.304688 154.199219 C 406.347656 154.566406 406.378906 154.941406 406.425781 155.316406 C 407.238281 161.855469 396.171875 156.878906 394.316406 152.996094 C 394.011719 152.363281 394.066406 152.03125 394.0625 151.355469 L 394.054688 143.296875 C 394.128906 141.5625 393.78125 140.273438 396.796875 140.699219 Z M 336.773438 152.238281 C 329.246094 152.46875 324.851562 149.65625 324.9375 141.921875 C 324.945312 141.25 325.449219 140.699219 326.078125 140.699219 L 336.761719 140.6875 C 337.386719 140.6875 337.902344 141.234375 337.902344 141.910156 L 337.914062 151.011719 C 337.914062 151.683594 337.398438 152.21875 336.773438 152.238281 Z M 355.125 152.21875 L 340.152344 152.234375 C 339.523438 152.234375 339.007812 151.683594 339.007812 151.011719 L 339 141.910156 C 338.996094 141.234375 339.511719 140.683594 340.140625 140.683594 L 355.113281 140.667969 C 355.738281 140.664062 356.253906 141.214844 356.253906 141.890625 L 356.265625 150.992188 C 356.265625 151.664062 355.753906 152.214844 355.125 152.21875 Z M 373.476562 152.195312 L 358.503906 152.214844 C 357.875 152.214844 357.359375 151.664062 357.359375 150.992188 L 357.351562 141.886719 C 357.347656 141.214844 357.863281 140.664062 358.488281 140.664062 L 373.464844 140.648438 C 374.089844 140.644531 374.605469 141.195312 374.605469 141.871094 L 374.617188 150.972656 C 374.617188 151.644531 374.101562 152.195312 373.476562 152.199219 Z M 391.828125 152.175781 L 376.855469 152.191406 C 376.226562 152.195312 375.710938 151.644531 375.710938 150.96875 L 375.703125 141.867188 C 375.699219 141.195312 376.214844 140.644531 376.84375 140.644531 L 391.816406 140.625 C 392.445312 140.625 392.957031 141.175781 392.957031 141.847656 L 392.96875 150.953125 C 392.96875 151.625 392.457031 152.175781 391.828125 152.175781 Z M 391.828125 152.175781 "/></g><g style="fill:#3e473a;fill-opacity:1;"><g transform="translate(213.404497, 28.493884)"><path style="stroke:none" d="M 1.359375 -1.390625 C 1.671875 -1.390625 1.78125 -1.234375 1.6875 -0.921875 C 1.644531 -0.804688 1.597656 -0.691406 1.546875 -0.578125 C 1.492188 -0.484375 1.421875 -0.421875 1.328125 -0.390625 C 1.234375 -0.367188 1.132812 -0.378906 1.03125 -0.421875 C 0.945312 -0.453125 0.898438 -0.515625 0.890625 -0.609375 C 0.878906 -0.742188 0.882812 -0.882812 0.90625 -1.03125 C 0.925781 -1.28125 1.078125 -1.398438 1.359375 -1.390625 Z M 1.359375 -1.390625 "/></g></g></g></svg>