<svg xmlns="http://www.w3.org/2000/svg" xmlns:xlink="http://www.w3.org/1999/xlink" width="353" zoomAndPan="magnify" viewBox="0 0 264.75 131.999998" height="176" preserveAspectRatio="xMidYMid meet" version="1.2"><defs><clipPath id="ba63eff8b1"><path d="M 241 22 L 246.933594 22 L 246.933594 45 L 241 45 Z M 241 22 "/></clipPath><clipPath id="a4bd369974"><path d="M 87 0.0625 L 163 0.0625 L 163 14 L 87 14 Z M 87 0.0625 "/></clipPath><clipPath id="80389f2fa8"><path d="M 106.855469 69 L 231 69 L 231 131.1875 L 106.855469 131.1875 Z M 106.855469 69 "/></clipPath></defs><g id="744e4af498"><g style="fill:#3e473a;fill-opacity:1;"><g transform="translate(130.478153, 115.503802)"><path style="stroke:none" d="M 1.359375 -1.390625 C 1.671875 -1.390625 1.78125 -1.234375 1.6875 -0.921875 C 1.644531 -0.804688 1.597656 -0.691406 1.546875 -0.578125 C 1.492188 -0.484375 1.421875 -0.421875 1.328125 -0.390625 C 1.234375 -0.367188 1.132812 -0.378906 1.03125 -0.421875 C 0.945312 -0.453125 0.898438 -0.515625 0.890625 -0.609375 C 0.878906 -0.742188 0.882812 -0.882812 0.90625 -1.03125 C 0.925781 -1.28125 1.078125 -1.398438 1.359375 -1.390625 Z M 1.359375 -1.390625 "/></g></g><path style=" stroke:none;fill-rule:nonzero;fill:#3e473a;fill-opacity:1;" d="M 226.09375 23.25 C 224.117188 23.308594 222.136719 23.210938 220.195312 22.828125 C 219.734375 22.746094 219.265625 22.695312 218.804688 22.632812 C 219.050781 22.550781 219.296875 22.480469 219.542969 22.40625 C 222.664062 21.78125 225.917969 21.582031 229.089844 21.890625 C 231.226562 22.207031 233.390625 22.417969 235.507812 22.8125 C 235.203125 22.425781 234.90625 22.035156 234.609375 21.648438 C 238.183594 24.105469 239.414062 24.382812 240.332031 28.949219 C 241.3125 33.160156 242.050781 37.421875 242.488281 41.722656 C 242.542969 42.367188 242.574219 43.019531 242.621094 43.660156 C 242.230469 42.878906 241.921875 42.058594 241.636719 41.238281 C 240.746094 38.867188 240.292969 36.375 239.929688 33.875 C 239.726562 32.589844 239.296875 31.351562 239.042969 30.078125 C 238.792969 28.703125 238.46875 27.34375 237.960938 26.039062 C 237.714844 25.425781 237.289062 24.914062 236.847656 24.4375 C 236.421875 23.953125 236.011719 23.453125 235.613281 22.945312 C 232.449219 23.128906 229.261719 23.089844 226.09375 23.25 "/><path style=" stroke:none;fill-rule:nonzero;fill:#3e473a;fill-opacity:1;" d="M 241.789062 21.824219 C 241.425781 21.253906 240.847656 20.878906 240.28125 20.535156 C 238.582031 19.488281 236.558594 19.398438 234.621094 19.289062 C 228.714844 18.710938 222.757812 19.027344 216.851562 18.570312 C 220.097656 17.890625 223.421875 17.546875 226.738281 17.480469 C 231.335938 17.785156 239.714844 16.433594 241.929688 21.535156 C 242.015625 21.992188 242.15625 22.683594 241.789062 21.824219 "/><g clip-rule="nonzero" clip-path="url(#ba63eff8b1)"><path style=" stroke:none;fill-rule:nonzero;fill:#3e473a;fill-opacity:1;" d="M 244.992188 36.292969 C 245.152344 31.519531 244.464844 26.539062 241.90625 22.425781 C 245.855469 25.273438 246.492188 30.574219 246.652344 35.09375 C 246.667969 37.949219 246.875 40.773438 244.539062 42.871094 C 244.054688 43.347656 243.4375 43.664062 242.921875 44.09375 C 243.371094 43.351562 243.992188 42.730469 244.332031 41.921875 C 245.300781 40.183594 245.066406 38.199219 244.992188 36.292969 "/></g><path style=" stroke:none;fill-rule:nonzero;fill:#3e473a;fill-opacity:1;" d="M 240.71875 22.59375 C 239.453125 22.425781 238.265625 21.910156 237.070312 21.484375 C 235.304688 20.863281 233.976562 20.667969 236.84375 20.714844 C 238.472656 20.691406 239.839844 21.558594 241.152344 22.410156 C 241.148438 22.40625 241.144531 22.40625 241.144531 22.40625 C 241.148438 22.40625 241.160156 22.410156 241.164062 22.414062 C 241.164062 22.414062 241.160156 22.410156 241.15625 22.410156 C 241.761719 22.617188 241.011719 22.597656 240.71875 22.59375 "/><path style=" stroke:none;fill-rule:nonzero;fill:#3e473a;fill-opacity:1;" d="M 224.394531 40.480469 C 224.398438 40.496094 224.402344 40.507812 224.40625 40.519531 C 224.398438 40.503906 224.398438 40.484375 224.394531 40.46875 C 224.394531 40.472656 224.394531 40.476562 224.394531 40.480469 "/><path style=" stroke:none;fill-rule:nonzero;fill:#3e473a;fill-opacity:1;" d="M 224.070312 39.113281 C 224.109375 39.269531 224.144531 39.421875 224.179688 39.574219 C 224.179688 39.5625 224.175781 39.554688 224.171875 39.542969 C 224.210938 39.714844 224.253906 39.886719 224.296875 40.058594 C 224.28125 39.996094 224.265625 39.9375 224.253906 39.878906 C 224.269531 39.945312 224.285156 40.011719 224.300781 40.078125 C 224.296875 40.066406 224.296875 40.054688 224.292969 40.039062 C 224.304688 40.101562 224.320312 40.160156 224.332031 40.21875 C 224.328125 40.203125 224.324219 40.183594 224.320312 40.167969 C 224.324219 40.1875 224.332031 40.210938 224.335938 40.230469 C 224.332031 40.214844 224.328125 40.203125 224.324219 40.183594 C 224.339844 40.246094 224.355469 40.304688 224.367188 40.363281 C 224.367188 40.351562 224.363281 40.34375 224.359375 40.335938 C 224.363281 40.351562 224.367188 40.367188 224.371094 40.378906 C 224.367188 40.355469 224.359375 40.328125 224.355469 40.308594 C 224.367188 40.355469 224.378906 40.402344 224.390625 40.453125 C 224.390625 40.453125 224.386719 40.453125 224.386719 40.449219 C 224.398438 40.496094 224.410156 40.542969 224.421875 40.589844 C 224.417969 40.566406 224.410156 40.542969 224.40625 40.519531 C 224.410156 40.535156 224.410156 40.550781 224.414062 40.5625 C 224.414062 40.5625 224.414062 40.558594 224.414062 40.558594 C 225.976562 46.855469 227.265625 53.222656 228.171875 59.648438 C 228.929688 63.363281 229.660156 67.089844 229.832031 70.886719 C 229.980469 72.742188 229.753906 74.589844 229.71875 76.4375 C 229.429688 75.828125 229.273438 75.15625 229.128906 74.492188 C 228.261719 71.023438 227.898438 67.472656 227.453125 63.933594 C 226.242188 56.660156 225.191406 49.351562 223.417969 42.183594 C 222.507812 38.175781 221.46875 34.195312 220.09375 30.320312 C 218.492188 26.171875 217.105469 21.945312 216.0625 17.621094 C 220.015625 24.265625 222.132812 31.855469 224.109375 39.28125 C 224.097656 39.226562 224.085938 39.167969 224.070312 39.113281 "/><path style=" stroke:none;fill-rule:nonzero;fill:#3e473a;fill-opacity:1;" d="M 224.386719 40.441406 C 224.378906 40.421875 224.378906 40.402344 224.371094 40.378906 C 224.378906 40.402344 224.382812 40.421875 224.386719 40.445312 C 224.386719 40.449219 224.390625 40.453125 224.390625 40.460938 C 224.390625 40.457031 224.386719 40.453125 224.386719 40.445312 C 224.386719 40.445312 224.386719 40.449219 224.386719 40.449219 C 224.386719 40.445312 224.386719 40.441406 224.386719 40.4375 C 224.386719 40.4375 224.386719 40.441406 224.386719 40.441406 "/><path style=" stroke:none;fill-rule:nonzero;fill:#3e473a;fill-opacity:1;" d="M 221.914062 74.871094 C 221.519531 74.6875 221.113281 74.523438 220.714844 74.34375 C 221.53125 74.359375 222.359375 74.503906 223.171875 74.625 C 224.875 74.824219 231.207031 76.492188 231.617188 78.214844 C 231.765625 78.585938 231.652344 78.976562 231.527344 79.335938 C 231.484375 79.160156 231.457031 78.96875 231.398438 78.792969 C 230.996094 77.875 229.832031 77.847656 228.988281 77.625 C 226.511719 77.046875 224.226562 75.898438 221.914062 74.871094 "/><path style=" stroke:none;fill-rule:nonzero;fill:#3e473a;fill-opacity:1;" d="M 222.695312 75.914062 C 224.890625 76.585938 227.097656 77.296875 229.136719 78.371094 C 229.851562 78.777344 230.617188 79.21875 231.039062 79.945312 C 230.632812 79.746094 230.207031 79.609375 229.765625 79.515625 C 227.128906 78.957031 224.785156 77.566406 222.695312 75.914062 "/><path style=" stroke:none;fill-rule:nonzero;fill:#3e473a;fill-opacity:1;" d="M 220.964844 73.140625 C 221.769531 73.160156 222.582031 73.152344 223.382812 73.175781 C 221.8125 73.824219 220.132812 74.125 218.449219 74.292969 C 215.832031 74.671875 213.1875 74.480469 210.558594 74.613281 C 206.851562 75.050781 203.144531 74.597656 199.433594 74.558594 C 197.476562 74.785156 200.511719 74.082031 201.121094 74.097656 C 203.257812 73.925781 205.402344 73.84375 207.539062 73.667969 C 207.492188 73.671875 207.445312 73.671875 207.394531 73.675781 C 211.902344 73.191406 216.433594 73.035156 220.964844 73.140625 "/><path style=" stroke:none;fill-rule:nonzero;fill:#3e473a;fill-opacity:1;" d="M 216.878906 81.488281 C 212.707031 81.539062 208.53125 81.636719 204.359375 81.515625 C 197.15625 81.453125 189.933594 82.167969 182.753906 81.347656 C 181.796875 81.242188 180.828125 81.183594 179.875 81.113281 C 180.84375 80.84375 181.84375 80.726562 182.847656 80.648438 C 185.980469 80.433594 189.121094 80.441406 192.257812 80.457031 C 196.25 80.25 200.242188 80.277344 204.238281 80.179688 C 209.71875 80.324219 215.1875 79.789062 220.660156 79.699219 C 222.960938 79.703125 225.25 79.921875 227.546875 80.023438 C 224.898438 81.238281 220.277344 81.34375 216.878906 81.488281 "/><path style=" stroke:none;fill-rule:nonzero;fill:#3e473a;fill-opacity:1;" d="M 215.171875 82.101562 C 217.953125 81.59375 220.796875 81.316406 223.628906 81.359375 C 223.585938 81.359375 223.542969 81.359375 223.503906 81.355469 C 225.554688 81.257812 227.773438 81.742188 229.71875 80.980469 C 229.746094 80.917969 229.773438 80.855469 229.804688 80.789062 C 229.808594 80.835938 229.816406 80.890625 229.820312 80.9375 C 229.902344 80.90625 229.984375 80.871094 230.0625 80.832031 C 229.992188 80.921875 229.914062 81.007812 229.839844 81.089844 C 230.09375 83.390625 230.15625 85.761719 230.140625 88.070312 C 230.085938 88.8125 229.734375 91.625 229.582031 89.382812 C 229.027344 86.476562 228.457031 84.140625 229.550781 81.367188 C 226.355469 84.207031 218.960938 82.625 215.171875 82.101562 "/><path style=" stroke:none;fill-rule:nonzero;fill:#3e473a;fill-opacity:1;" d="M 168.730469 82.066406 C 171.398438 82.136719 174.03125 82.632812 176.667969 83.027344 C 174.109375 83.421875 171.5 83.425781 168.925781 83.652344 C 165.585938 83.773438 161.746094 84.558594 158.921875 82.3125 C 162.171875 83.117188 165.449219 81.847656 168.730469 82.066406 "/><path style=" stroke:none;fill-rule:nonzero;fill:#3e473a;fill-opacity:1;" d="M 176.75 82.675781 C 178.378906 82.777344 179.996094 82.363281 181.621094 82.261719 C 184.203125 81.980469 186.800781 81.863281 189.398438 81.910156 C 192.234375 81.949219 195.027344 82.433594 197.824219 82.847656 C 196.113281 83.117188 194.378906 83.105469 192.652344 83.183594 C 190.109375 83.351562 187.570312 83.546875 185.023438 83.683594 C 182.4375 83.683594 178.582031 83.929688 176.34375 82.605469 C 176.472656 82.625 176.613281 82.65625 176.75 82.675781 "/><path style=" stroke:none;fill-rule:nonzero;fill:#3e473a;fill-opacity:1;" d="M 172.941406 79.636719 C 172.488281 81.796875 173.9375 80.984375 175.160156 80.378906 C 177.035156 79.4375 178.789062 78.273438 180.613281 77.230469 C 183.707031 75.421875 186.898438 73.769531 190.347656 72.761719 C 188.28125 74.527344 186.039062 76.074219 183.671875 77.410156 C 182.3125 78.03125 170.179688 85.039062 172.941406 79.636719 "/><path style=" stroke:none;fill-rule:nonzero;fill:#3e473a;fill-opacity:1;" d="M 172.726562 79.738281 C 173.234375 78.628906 174.414062 78.039062 175.390625 77.394531 C 180.074219 74.703125 185.21875 72.910156 190.234375 70.980469 C 185.742188 74.25 180.808594 76.859375 175.484375 78.472656 C 174.546875 78.839844 173.480469 79.023438 172.726562 79.738281 "/><path style=" stroke:none;fill-rule:nonzero;fill:#3e473a;fill-opacity:1;" d="M 192.292969 68.40625 C 198.257812 68.53125 204.277344 68.070312 210.179688 69.148438 C 211.117188 69.320312 212.042969 69.550781 212.976562 69.757812 C 211.253906 70.042969 209.480469 70.183594 207.726562 70.191406 C 205.15625 70.238281 202.613281 69.824219 200.054688 69.699219 C 194.066406 69.253906 188.011719 69.371094 182.058594 68.617188 C 185.46875 68.464844 188.878906 68.339844 192.292969 68.40625 "/><path style=" stroke:none;fill-rule:nonzero;fill:#3e473a;fill-opacity:1;" d="M 196.96875 70.527344 C 195.761719 71.003906 194.449219 71.027344 193.183594 70.796875 C 192.914062 70.773438 192.644531 70.734375 192.378906 70.699219 C 192.816406 70.480469 193.269531 70.296875 193.742188 70.203125 C 195.074219 69.886719 196.453125 70.058594 197.804688 70.042969 C 197.828125 70.039062 197.851562 70.039062 197.871094 70.027344 C 197.898438 69.992188 197.878906 69.945312 197.871094 69.914062 C 198.167969 70.226562 197.152344 70.402344 196.96875 70.527344 "/><path style=" stroke:none;fill-rule:nonzero;fill:#3e473a;fill-opacity:1;" d="M 216.539062 74.894531 C 217.601562 75.179688 218.742188 74.644531 219.839844 74.789062 C 220.414062 74.828125 220.996094 74.929688 221.539062 75.117188 C 219.988281 75.582031 217.875 76.058594 216.539062 74.894531 "/><path style=" stroke:none;fill-rule:nonzero;fill:#3e473a;fill-opacity:1;" d="M 175.4375 14.324219 C 175.851562 16.882812 175.9375 19.464844 175.96875 22.054688 C 176.058594 23.332031 175.933594 24.609375 175.898438 25.886719 C 175.902344 28.425781 175.835938 31.199219 174.488281 33.433594 C 174.023438 34.183594 173.304688 34.742188 172.535156 35.152344 C 173.035156 34.542969 173.519531 33.898438 173.78125 33.148438 C 174.414062 31.167969 174.222656 29.011719 174.171875 26.960938 C 174.0625 25.289062 174.328125 23.617188 174.21875 21.945312 C 174.253906 19.515625 173.980469 17.105469 173.898438 14.679688 C 173.949219 12.550781 173.269531 10.484375 171.914062 8.839844 C 173.957031 9.929688 175.179688 12.058594 175.4375 14.324219 "/><path style=" stroke:none;fill-rule:nonzero;fill:#3e473a;fill-opacity:1;" d="M 171.183594 35.546875 C 167.675781 35.507812 165.257812 32.390625 164.308594 29.28125 C 163.660156 26.792969 163.304688 24.207031 163.0625 21.644531 C 163.0625 20.007812 162.886719 18.382812 162.753906 16.75 C 162.667969 15.886719 162.6875 14.96875 162.511719 14.105469 C 161.773438 12.738281 159.878906 12.046875 159.195312 10.707031 C 158.550781 10.867188 157.898438 10.984375 157.242188 11.089844 C 154.339844 11.523438 151.449219 12.058594 148.535156 12.429688 C 146.042969 12.828125 141.347656 12.914062 140.65625 9.796875 C 142.722656 12.640625 147.542969 10.5625 150.425781 10.410156 C 152.824219 10.203125 155.226562 10.226562 157.621094 10.4375 C 158.117188 10.476562 158.617188 10.503906 159.117188 10.535156 C 158.976562 10.203125 158.914062 9.832031 158.957031 9.402344 C 159.886719 10.996094 162.285156 11.679688 162.597656 13.605469 C 163.9375 15.695312 164.660156 20.351562 164.84375 22.484375 C 165.546875 26.503906 166.070312 31.097656 169.246094 34.003906 C 169.804688 34.402344 170.390625 34.78125 171.027344 35.039062 C 172.136719 35.429688 173.070312 35.453125 171.183594 35.546875 "/><path style=" stroke:none;fill-rule:nonzero;fill:#3e473a;fill-opacity:1;" d="M 170.425781 8.695312 C 167.890625 8.542969 165.347656 8.457031 162.824219 8.136719 C 161.75 7.984375 160.675781 7.800781 159.589844 7.8125 C 158.960938 7.765625 159.007812 8.640625 158.832031 9.074219 C 158.765625 9.394531 158.765625 9.734375 158.753906 10.050781 C 158.554688 9.605469 158.394531 9.140625 158.351562 8.648438 C 158.167969 7.511719 158.394531 6.835938 159.644531 6.714844 C 161.125 6.449219 162.640625 6.566406 164.128906 6.675781 C 165.875 6.828125 167.625 7.09375 169.292969 7.652344 C 170.140625 7.9375 170.953125 8.324219 171.777344 8.660156 C 171.332031 8.699219 170.875 8.703125 170.425781 8.695312 "/><path style=" stroke:none;fill-rule:nonzero;fill:#3e473a;fill-opacity:1;" d="M 172.71875 7.644531 C 172.769531 8.089844 172.71875 8.542969 172.652344 8.976562 C 172.523438 8.425781 172.359375 7.875 172.058594 7.390625 C 170.441406 4.851562 168.113281 4.601562 165.367188 4.398438 C 163.628906 4.195312 161.882812 3.996094 160.132812 4.027344 C 157.769531 4.003906 155.480469 4.625 153.160156 4.976562 C 151.039062 5.238281 149.019531 5.992188 146.90625 6.304688 C 144.839844 6.726562 142.183594 6.167969 140.417969 7.441406 C 140.113281 7.871094 139.828125 8.480469 139.96875 9.003906 C 139.738281 8.757812 139.742188 8.390625 139.730469 8.074219 C 139.53125 5.445312 144.136719 5.269531 145.988281 4.871094 C 147.648438 4.621094 149.277344 4.199219 150.914062 3.828125 C 155.125 3.113281 159.363281 2.164062 163.664062 2.566406 C 167.5 2.738281 171.785156 3.128906 172.71875 7.644531 "/><path style=" stroke:none;fill-rule:nonzero;fill:#3e473a;fill-opacity:1;" d="M 145.085938 9.816406 C 143.757812 9.742188 142.410156 9.667969 141.117188 9.355469 C 141.503906 9.332031 141.910156 9.269531 142.300781 9.21875 C 146.769531 8.773438 151.152344 7.511719 155.664062 7.558594 C 159.40625 7.988281 157.304688 7.886719 155.257812 8.511719 C 151.9375 9.382812 148.535156 10.085938 145.085938 9.816406 "/><path style=" stroke:none;fill-rule:nonzero;fill:#3e473a;fill-opacity:1;" d="M 198.332031 11.042969 C 202.296875 12.066406 206.425781 12.542969 210.253906 14.035156 C 211.804688 14.695312 213.171875 15.742188 214.453125 16.820312 C 214.636719 17 214.832031 17.183594 215 17.371094 C 213.246094 16.601562 211.464844 15.855469 209.640625 15.277344 C 203.472656 13.785156 197.351562 12.078125 191.109375 10.902344 C 185.605469 9.746094 179.894531 9.664062 174.582031 7.660156 C 174.261719 7.582031 173.9375 7.507812 173.621094 7.429688 C 174.207031 7.332031 174.8125 7.253906 175.414062 7.25 C 175.882812 7.261719 176.34375 7.277344 176.808594 7.316406 C 184.085938 7.835938 191.222656 9.480469 198.332031 11.042969 "/><path style=" stroke:none;fill-rule:nonzero;fill:#3e473a;fill-opacity:1;" d="M 203.101562 10.230469 C 200.585938 9.386719 197.992188 8.800781 195.425781 8.121094 C 190 6.835938 184.617188 5.328125 179.128906 4.328125 C 177.921875 4.167969 159.601562 0.988281 165.929688 1.550781 C 174.398438 1.898438 182.515625 3.6875 190.722656 5.664062 C 194.574219 6.558594 198.441406 7.417969 202.257812 8.453125 C 206.101562 9.539062 209.96875 10.914062 213.097656 13.472656 C 213.957031 14.167969 214.691406 14.996094 215.40625 15.832031 C 214.621094 15.429688 213.835938 14.996094 213.046875 14.585938 C 209.800781 12.992188 206.519531 11.4375 203.101562 10.230469 "/><g clip-rule="nonzero" clip-path="url(#a4bd369974)"><path style=" stroke:none;fill-rule:nonzero;fill:#3e473a;fill-opacity:1;" d="M 146.953125 1.941406 C 141.1875 1.871094 135.417969 2.277344 129.6875 2.867188 C 125.210938 3.347656 120.769531 4.105469 116.378906 5.085938 C 114.078125 5.542969 111.757812 5.929688 109.511719 6.632812 C 105.253906 7.992188 101.027344 9.457031 96.820312 10.96875 C 93.867188 11.910156 90.875 12.929688 87.832031 13.488281 C 94.378906 9.886719 101.5 7.566406 108.632812 5.421875 C 112.613281 4.261719 116.726562 3.660156 120.777344 2.804688 C 132.019531 0.84375 143.488281 0.0585938 154.890625 0.421875 C 157.425781 0.503906 159.894531 1.261719 162.421875 1.3125 C 161.472656 1.753906 160.425781 1.90625 159.386719 1.957031 C 155.246094 2.21875 151.097656 1.800781 146.953125 1.941406 "/></g><path style=" stroke:none;fill-rule:nonzero;fill:#3e473a;fill-opacity:1;" d="M 46.5625 27.613281 C 43.152344 28.847656 39.757812 30.117188 36.355469 31.363281 C 32.183594 32.941406 27.945312 34.542969 23.496094 35.066406 C 27.078125 32.902344 31.070312 31.566406 35.054688 30.351562 C 39.132812 29.046875 43.21875 27.753906 47.285156 26.40625 C 56.308594 23.328125 65.339844 20.265625 74.34375 17.128906 C 79.019531 15.421875 83.710938 13.636719 88.601562 12.667969 C 84.863281 14.542969 80.886719 15.90625 76.910156 17.171875 C 66.753906 20.535156 56.667969 24.109375 46.5625 27.613281 "/><path style=" stroke:none;fill-rule:nonzero;fill:#3e473a;fill-opacity:1;" d="M 19.214844 88.203125 C 18.355469 83.921875 18.433594 79.53125 18.335938 75.183594 C 18.214844 69.230469 18.066406 63.257812 18.59375 57.316406 C 18.878906 52.648438 19.445312 48.007812 20.054688 43.375 C 20.277344 41.589844 20.640625 39.824219 20.972656 38.050781 C 21.164062 36.855469 21.734375 35.605469 23.050781 35.390625 C 22.4375 35.835938 21.996094 36.453125 22.011719 37.238281 C 22.007812 37.410156 22.003906 37.578125 22.003906 37.75 C 23.785156 36.769531 25.578125 35.8125 27.457031 35.035156 C 33.085938 32.773438 38.949219 31.136719 44.738281 29.332031 C 52.289062 26.921875 59.894531 24.6875 67.488281 22.425781 C 72.191406 21 76.882812 19.394531 81.75 18.660156 C 82.238281 18.417969 82.726562 18.183594 83.214844 17.949219 C 91.960938 13.832031 101.433594 11.472656 110.792969 9.195312 C 115.25 8.046875 119.769531 7.191406 124.304688 6.425781 C 128.75 5.601562 133.265625 4.898438 137.800781 5.105469 C 139.03125 5.15625 140.253906 5.375 141.453125 5.625 C 140.660156 5.777344 139.863281 5.914062 139.066406 6.042969 C 135.648438 6.804688 132.167969 7.113281 128.691406 7.445312 C 126.25 7.730469 123.832031 8.1875 121.398438 8.550781 C 113.074219 10.039062 104.875 12.148438 96.761719 14.511719 C 96.582031 16.957031 96.320312 19.394531 96.082031 21.832031 C 95.671875 25.246094 94.992188 28.625 94.804688 32.066406 C 94.425781 36.25 94.378906 40.460938 93.960938 44.636719 C 93.6875 46.863281 93.140625 49.042969 92.6875 51.234375 C 92.6875 51.246094 92.683594 51.257812 92.679688 51.265625 C 92.683594 51.257812 92.683594 51.253906 92.683594 51.246094 C 92.46875 53.195312 92.140625 48.539062 92.125 48.03125 C 92.128906 48.085938 92.128906 48.140625 92.132812 48.195312 C 91.964844 43.941406 92.699219 39.730469 93.089844 35.507812 C 93.839844 28.464844 94.632812 21.324219 96.707031 14.527344 C 96.097656 14.707031 95.492188 14.882812 94.886719 15.0625 C 90.433594 16.390625 86.21875 18.410156 81.714844 19.585938 C 80.664062 19.863281 79.617188 20.167969 78.546875 20.378906 C 78.816406 20.21875 79.085938 20.0625 79.359375 19.90625 C 70.597656 23.328125 61.320312 25.296875 52.425781 28.351562 C 46.046875 30.457031 39.628906 32.441406 33.328125 34.777344 C 30.050781 36.046875 26.695312 37.191406 23.207031 37.734375 C 22.808594 37.792969 22.40625 37.851562 22.003906 37.902344 C 22.003906 38.933594 22.054688 39.964844 21.972656 40.996094 C 21.839844 43.898438 21.332031 46.757812 20.898438 49.625 C 20.484375 52.703125 20.140625 55.792969 19.925781 58.890625 C 22.847656 58.210938 25.855469 57.824219 28.847656 57.558594 C 49.8125 56.054688 70.769531 54.46875 91.726562 52.824219 C 99.71875 52.191406 107.703125 51.433594 115.691406 50.722656 C 118.984375 50.402344 122.285156 50.050781 125.601562 50.183594 C 126.71875 50.222656 127.835938 50.328125 128.9375 50.464844 C 122.273438 52.398438 115.25 52.160156 108.390625 52.773438 C 81.765625 54.566406 55.175781 56.898438 28.582031 59.105469 C 25.695312 59.296875 22.792969 59.359375 19.90625 59.152344 C 19.742188 61.582031 19.660156 64.007812 19.683594 66.445312 C 19.660156 71.082031 19.949219 75.71875 19.898438 80.355469 C 19.851562 83.019531 19.585938 85.667969 19.445312 88.324219 C 19.445312 88.316406 19.449219 88.304688 19.449219 88.296875 C 19.445312 88.34375 19.441406 88.390625 19.4375 88.4375 C 20.882812 89.824219 23.695312 90.582031 25.164062 91.21875 C 26.722656 91.851562 28.183594 92.679688 29.6875 93.417969 C 30.28125 93.6875 30.882812 93.929688 31.496094 94.160156 C 31.375 94.164062 31.257812 94.164062 31.136719 94.164062 C 31.382812 94.265625 31.628906 94.375 31.882812 94.453125 C 31.230469 91.320312 31.320312 88.074219 31.972656 84.949219 C 32.429688 83.402344 32.554688 81.191406 34.226562 80.480469 C 34.195312 80.507812 34.167969 80.535156 34.136719 80.5625 C 33.121094 81.949219 33.371094 83.84375 33.054688 85.464844 C 32.902344 87.53125 32.601562 89.589844 32.550781 91.660156 C 32.554688 92.566406 32.453125 93.476562 32.550781 94.378906 C 32.804688 95.414062 31.804688 95.082031 31.40625 94.535156 C 31.277344 94.410156 31.148438 94.285156 31.015625 94.160156 C 30.34375 94.140625 29.671875 94.027344 29.015625 93.882812 C 26.304688 93.046875 23.300781 92.714844 20.9375 91.050781 C 19.546875 90.078125 17.703125 88.5 18.539062 86.621094 C 18.554688 87.222656 18.808594 87.746094 19.214844 88.203125 "/><path style=" stroke:none;fill-rule:nonzero;fill:#3e473a;fill-opacity:1;" d="M 36.003906 93.796875 C 36.269531 91.90625 36.28125 89.96875 35.871094 88.101562 C 36.921875 90.0625 37.230469 94.421875 35.742188 96.207031 C 35.550781 96.410156 35.214844 96.574219 34.96875 96.371094 C 35.019531 96.371094 35.082031 96.375 35.136719 96.355469 C 35.132812 96.355469 35.128906 96.359375 35.125 96.359375 C 35.882812 95.839844 35.796875 94.621094 36.003906 93.796875 "/><path style=" stroke:none;fill-rule:nonzero;fill:#3e473a;fill-opacity:1;" d="M 35.195312 87.234375 C 35.277344 87.273438 35.355469 87.328125 35.410156 87.398438 C 35.28125 87.339844 35.121094 87.332031 34.992188 87.394531 C 33.644531 89.109375 34.339844 92.488281 34.078125 94.597656 C 33.101562 93.40625 33.269531 87.261719 35.195312 87.234375 "/><path style=" stroke:none;fill-rule:nonzero;fill:#3e473a;fill-opacity:1;" d="M 36.714844 84.828125 C 37.367188 84.910156 37.75 85.53125 38.027344 86.070312 C 39.53125 89.300781 39.371094 93.203125 38.160156 96.503906 C 37.886719 97.285156 36.957031 98.851562 36.175781 98.3125 C 38.246094 98.414062 38.035156 86.257812 36.632812 85.332031 C 36.261719 85.125 35.898438 85.523438 35.65625 85.761719 C 35.8125 85.289062 36.164062 84.765625 36.714844 84.828125 "/><path style=" stroke:none;fill-rule:nonzero;fill:#3e473a;fill-opacity:1;" d="M 38.054688 86.117188 C 38.046875 86.101562 38.039062 86.085938 38.027344 86.070312 C 38.023438 86.0625 38.019531 86.050781 38.019531 86.042969 C 38.03125 86.070312 38.042969 86.09375 38.054688 86.117188 "/><path style=" stroke:none;fill-rule:nonzero;fill:#3e473a;fill-opacity:1;" d="M 36.46875 81.199219 C 36.464844 81.199219 36.460938 81.199219 36.453125 81.199219 C 36.636719 81.144531 37.320312 81.664062 37 81.554688 C 37 81.558594 37.003906 81.558594 37.003906 81.558594 C 35.421875 81.082031 34.894531 84.839844 34.109375 85.851562 C 33.890625 84.214844 34.445312 81.324219 36.46875 81.199219 "/><path style=" stroke:none;fill-rule:nonzero;fill:#3e473a;fill-opacity:1;" d="M 35.511719 99.8125 C 35.820312 100.648438 36.308594 102.132812 37.394531 101.847656 C 38.261719 100.6875 38.519531 99.152344 39.25 97.90625 C 39.339844 99.332031 38.996094 101.378906 37.480469 101.898438 C 36.417969 102.894531 35.113281 101.15625 34.710938 100.183594 C 34.085938 98.851562 33.839844 97.316406 34.054688 95.859375 C 34.667969 97.125 35.046875 98.488281 35.511719 99.8125 "/><path style=" stroke:none;fill-rule:nonzero;fill:#3e473a;fill-opacity:1;" d="M 39.691406 101.785156 C 40.523438 101.808594 41.332031 102.015625 42.144531 102.183594 C 43.957031 101.199219 43.925781 100.15625 45.0625 98.839844 C 43.605469 98.523438 42.117188 98.316406 40.730469 97.761719 C 39.859375 97.566406 39.753906 96.921875 39.773438 96.207031 C 39.550781 95.746094 39.246094 94.289062 39.25 93.972656 C 39.179688 93.015625 39.40625 92.0625 39.628906 91.144531 C 39.820312 91.730469 39.863281 92.339844 39.929688 92.945312 C 40.0625 93.9375 40.144531 94.957031 39.992188 95.953125 C 39.996094 95.941406 39.996094 95.925781 40 95.914062 C 39.988281 96.085938 39.972656 96.203125 39.949219 96.273438 C 40.300781 97.207031 40.636719 97.039062 41.835938 97.183594 C 43.546875 97.289062 45.257812 97.453125 46.917969 97.886719 C 49.386719 98.480469 51.699219 99.550781 54.007812 100.578125 C 54.1875 100.679688 54.863281 100.957031 55.519531 101.234375 C 55.683594 101.261719 55.84375 101.292969 56.007812 101.324219 C 64.039062 102.9375 71.761719 105.785156 79.707031 107.761719 C 84.84375 109.257812 90.152344 110.410156 94.960938 112.804688 C 94.976562 112.75 94.988281 112.6875 95.003906 112.632812 C 95.796875 114.300781 95.066406 116.015625 94.550781 117.648438 C 95.046875 117.714844 95.550781 117.742188 96.050781 117.796875 C 96.855469 117.441406 97.789062 117.40625 98.625 117.6875 C 97.898438 118 97.101562 118.03125 96.328125 117.925781 C 95.484375 118.21875 94.503906 118.859375 93.679688 118.382812 C 93.109375 117.796875 93.957031 115.867188 94.21875 115.160156 C 94.640625 114.4375 94.769531 113.617188 94.957031 112.816406 C 86.769531 111.941406 79.050781 108.761719 71.09375 106.816406 C 66.558594 105.460938 61.917969 104.453125 57.453125 102.878906 C 55.691406 102.269531 53.941406 101.585938 52.261719 100.792969 C 50.207031 100.214844 48.164062 99.582031 46.089844 99.085938 C 45.792969 99.003906 45.492188 98.933594 45.195312 98.867188 C 45 100.269531 44.582031 101.394531 43.578125 101.960938 C 43.859375 101.90625 44.234375 101.84375 44.707031 101.78125 C 45.0625 101.738281 45.417969 101.703125 45.777344 101.703125 C 46.457031 101.742188 47.148438 101.71875 47.832031 101.761719 C 48.367188 101.339844 48.957031 100.847656 48.988281 100.132812 C 49.445312 100.847656 48.890625 101.546875 48.199219 101.789062 C 48.359375 101.804688 48.519531 101.824219 48.679688 101.851562 C 47.542969 102.316406 46.332031 102.558594 45.105469 102.558594 C 43.902344 102.492188 42.9375 102.390625 42.859375 102.242188 C 42.738281 102.273438 42.613281 102.296875 42.484375 102.3125 C 42.277344 102.425781 41.722656 102.46875 41.457031 102.503906 C 40.023438 102.578125 38.492188 102.730469 37.132812 102.183594 C 37.972656 101.984375 38.820312 101.757812 39.691406 101.785156 "/><path style=" stroke:none;fill-rule:nonzero;fill:#3e473a;fill-opacity:1;" d="M 44.730469 101.777344 C 44.722656 101.78125 44.714844 101.78125 44.707031 101.78125 C 44.707031 101.78125 44.703125 101.78125 44.703125 101.78125 C 44.710938 101.78125 44.722656 101.78125 44.730469 101.777344 "/><path style=" stroke:none;fill-rule:nonzero;fill:#3e473a;fill-opacity:1;" d="M 36.464844 80.359375 C 37.355469 80.503906 37.78125 81.519531 37.792969 82.328125 C 37.472656 81.835938 37.066406 81.390625 36.5625 81.082031 C 35.820312 80.832031 34.980469 80.914062 34.269531 80.550781 C 34.980469 80.386719 35.730469 80.273438 36.464844 80.359375 "/><path style=" stroke:none;fill-rule:nonzero;fill:#3e473a;fill-opacity:1;" d="M 37.828125 82.179688 C 37.828125 82.179688 37.828125 82.179688 37.828125 82.183594 C 37.832031 82.183594 37.832031 82.1875 37.832031 82.191406 C 37.832031 82.1875 37.828125 82.183594 37.828125 82.179688 "/><path style=" stroke:none;fill-rule:nonzero;fill:#3e473a;fill-opacity:1;" d="M 39.464844 89.464844 C 38.964844 87.96875 38.484375 86.445312 38.207031 84.890625 C 38.054688 83.988281 38.105469 83.0625 37.828125 82.183594 C 37.804688 82.09375 37.773438 81.996094 37.757812 81.910156 C 38.679688 82.6875 38.964844 83.890625 39.277344 85.003906 C 39.683594 86.445312 39.75 87.996094 39.464844 89.464844 "/><path style=" stroke:none;fill-rule:nonzero;fill:#3e473a;fill-opacity:1;" d="M 39.285156 85.035156 C 39.285156 85.027344 39.28125 85.015625 39.277344 85.003906 C 39.273438 84.988281 39.269531 84.96875 39.261719 84.953125 C 39.273438 84.980469 39.28125 85.007812 39.285156 85.035156 "/><path style=" stroke:none;fill-rule:nonzero;fill:#3e473a;fill-opacity:1;" d="M 105.265625 103.515625 C 103.621094 100.503906 102.101562 100.355469 100.679688 103.609375 C 100.480469 104.015625 100.277344 104.433594 100.078125 104.832031 C 100.058594 104.597656 100.042969 104.363281 100.050781 104.128906 C 100.132812 102.441406 100.886719 100.097656 102.84375 99.90625 C 104.789062 100.039062 105.394531 102.25 105.617188 103.9375 C 106.921875 107.0625 107.058594 110.738281 106.0625 113.964844 C 105.265625 116.894531 102.320312 118.050781 100.855469 114.867188 C 100.050781 113.3125 99.710938 111.511719 99.890625 109.769531 C 100.101562 110.449219 100.316406 111.140625 100.546875 111.816406 C 101.675781 115.457031 103.605469 116.804688 105.03125 112.375 C 105.84375 109.644531 105.925781 106.726562 105.472656 103.921875 C 105.40625 103.785156 105.335938 103.648438 105.265625 103.515625 "/><path style=" stroke:none;fill-rule:nonzero;fill:#3e473a;fill-opacity:1;" d="M 105.167969 96.6875 C 105.167969 96.6875 105.164062 96.6875 105.164062 96.6875 C 106.332031 96.464844 107.390625 97.34375 108.085938 98.195312 C 111.511719 102.507812 111.828125 113.140625 108.15625 117.375 C 107.546875 118.046875 106.671875 118.628906 105.726562 118.40625 C 106.566406 118.328125 107.191406 117.671875 107.609375 116.988281 C 109.292969 113.617188 109.429688 109.617188 109.121094 105.925781 C 108.769531 103.503906 107.855469 96.488281 104.421875 97.101562 C 103.933594 97.257812 104.9375 96.65625 105.167969 96.6875 "/><path style=" stroke:none;fill-rule:nonzero;fill:#3e473a;fill-opacity:1;" d="M 97.929688 104.828125 C 97.707031 100.558594 98.144531 96 100.511719 92.332031 C 101.402344 91 102.675781 89.617188 104.375 89.515625 C 104.316406 89.542969 104.257812 89.574219 104.199219 89.605469 C 100.328125 92.070312 99.339844 100.878906 98.757812 105.222656 C 98.640625 106.289062 98.550781 107.367188 98.433594 108.429688 C 98.164062 107.25 98 106.035156 97.929688 104.828125 "/><path style=" stroke:none;fill-rule:nonzero;fill:#3e473a;fill-opacity:1;" d="M 106.546875 123.566406 C 109.574219 122.429688 110.738281 118.957031 111.976562 116.203125 C 112.03125 115.203125 112.089844 114.199219 112.117188 113.195312 C 112.117188 113.214844 112.117188 113.230469 112.117188 113.25 C 112.117188 113.210938 112.117188 113.167969 112.117188 113.128906 C 112.117188 113.144531 112.117188 113.164062 112.117188 113.179688 C 112.132812 107.28125 112.050781 101.21875 109.847656 95.65625 C 109.03125 93.5625 108.21875 91.199219 106.246094 89.917969 C 105.824219 89.671875 105.359375 89.484375 104.867188 89.433594 C 105.394531 89.277344 105.953125 89.285156 106.488281 89.425781 C 112.605469 91.777344 113.476562 101.449219 113.734375 107.132812 C 113.773438 110.222656 113.226562 113.363281 112.09375 116.246094 C 111.835938 119.832031 110.476562 125.085938 106.308594 125.445312 C 100.859375 125.128906 98.496094 116.644531 98.828125 112.101562 C 100.183594 115.121094 102.289062 124.257812 106.546875 123.566406 "/><g clip-rule="nonzero" clip-path="url(#80389f2fa8)"><path style=" stroke:none;fill-rule:nonzero;fill:#3e473a;fill-opacity:1;" d="M 228.199219 112.386719 C 228.199219 112.386719 228.195312 112.386719 228.195312 112.386719 C 228.203125 112.390625 228.210938 112.394531 228.21875 112.394531 C 228.210938 112.394531 228.207031 112.390625 228.199219 112.386719 Z M 228.015625 112.230469 C 228.015625 112.230469 228.019531 112.234375 228.019531 112.238281 C 228.019531 112.234375 228.015625 112.230469 228.015625 112.230469 Z M 113.226562 124.597656 C 114.386719 124.53125 115.546875 124.441406 116.710938 124.488281 C 116.691406 124.488281 116.675781 124.488281 116.660156 124.484375 C 117.851562 124.628906 118.929688 124.132812 120.003906 123.6875 C 120.140625 123.480469 120.269531 123.265625 120.378906 123.039062 C 120.367188 123.058594 120.351562 123.082031 120.339844 123.105469 C 120.742188 122.410156 121.214844 121.710938 121.878906 121.261719 C 121.242188 121.078125 120.609375 120.882812 119.980469 120.667969 C 118.65625 120.238281 117.296875 119.878906 116.042969 119.273438 C 115.613281 118.964844 115.613281 118.425781 115.640625 117.914062 C 115.640625 117.933594 115.636719 117.953125 115.636719 117.972656 C 115.023438 116.46875 115.019531 114.777344 114.765625 113.183594 C 114.550781 110.773438 114.308594 108.3125 114.714844 105.914062 C 116.445312 110.277344 115.984375 113.121094 115.675781 117.40625 C 116.035156 118.617188 116.113281 118.828125 117.445312 118.933594 C 119.101562 119.164062 120.761719 119.382812 122.398438 119.746094 C 125.269531 120.390625 128.136719 121.058594 131.007812 121.703125 C 131.21875 121.75 131.425781 121.792969 131.632812 121.839844 C 131.5 121.417969 131.382812 120.984375 131.292969 120.546875 C 130.640625 115.976562 130.867188 111.3125 131.394531 106.734375 C 131.742188 102.734375 131.875 98.714844 131.945312 94.699219 C 132.003906 90.140625 131.894531 85.585938 131.683594 81.03125 C 131.605469 78.703125 131.5625 76.371094 131.691406 74.042969 C 131.78125 72.394531 131.710938 70.675781 132.453125 69.160156 C 132.359375 70.644531 132.800781 72.0625 132.960938 73.527344 C 133.101562 74.695312 133.148438 75.871094 133.171875 77.046875 C 133.429688 86.652344 133.328125 96.265625 132.84375 105.863281 C 132.546875 110.296875 132.644531 114.765625 131.933594 119.160156 C 131.796875 120.054688 131.765625 120.964844 131.734375 121.863281 C 134.113281 122.402344 136.492188 123.003906 138.6875 124.082031 C 139.414062 124.441406 140.140625 124.792969 140.921875 125.03125 C 141.109375 125.042969 141.300781 125.054688 141.488281 125.070312 C 146.230469 125.507812 150.71875 127.28125 155.128906 128.988281 C 155.515625 129.148438 155.90625 129.3125 156.292969 129.488281 C 156.128906 129.113281 155.976562 128.734375 155.847656 128.34375 C 154.914062 125.402344 155.261719 122.277344 155.382812 119.246094 C 155.410156 116.226562 155.707031 113.21875 155.746094 110.199219 C 156.042969 105.046875 155.902344 99.886719 155.675781 94.730469 C 155.65625 91.402344 155.414062 87.992188 156.160156 84.730469 C 156.554688 87.023438 157.003906 89.3125 157.15625 91.636719 C 157.296875 96.160156 157.191406 100.695312 157.195312 105.21875 C 156.996094 110.804688 156.746094 116.378906 156.808594 121.964844 C 156.792969 122.96875 156.726562 123.964844 156.65625 124.964844 C 156.550781 126.578125 156.710938 128.179688 156.886719 129.777344 C 156.988281 129.828125 157.089844 129.882812 157.191406 129.9375 C 157.09375 129.925781 157 129.90625 156.902344 129.890625 C 156.914062 129.992188 156.925781 130.09375 156.9375 130.195312 C 157.511719 130.40625 158.09375 130.585938 158.699219 130.359375 C 166.070312 129.042969 173.476562 127.921875 180.90625 127.050781 C 185.148438 126.257812 189.453125 125.523438 193.785156 125.765625 C 193.902344 125.773438 194.023438 125.785156 194.144531 125.789062 C 194.171875 125.785156 194.203125 125.777344 194.230469 125.769531 C 197.636719 124.964844 200.992188 124 204.449219 123.445312 C 209.5 122.609375 214.609375 122.164062 219.605469 121.023438 C 221.210938 120.746094 222.777344 120.230469 224.414062 120.140625 C 226.144531 120.054688 227.964844 119.953125 228.539062 118.015625 C 228.511719 117.277344 228.5 116.53125 228.484375 115.789062 C 228.5 115.230469 228.53125 114.667969 228.570312 114.109375 C 228.476562 114.441406 228.375 114.730469 228.316406 114.921875 C 227.539062 116.480469 225.457031 116.488281 223.960938 116.808594 C 225.402344 115.675781 226.238281 115.441406 226.898438 114.660156 C 226.535156 114.238281 226.480469 113.082031 227.199219 112.648438 C 227.082031 113.097656 227.015625 113.554688 227.023438 114.023438 C 227.023438 114.007812 227.023438 113.992188 227.027344 113.972656 C 227.023438 114.152344 227.027344 114.328125 227.023438 114.503906 C 227.363281 114.054688 227.660156 113.425781 227.984375 112.40625 C 227.648438 112.4375 227.308594 112.457031 226.976562 112.449219 C 227.421875 112.226562 227.820312 111.792969 228.320312 111.746094 C 228.523438 111.804688 228.652344 111.941406 228.730469 112.121094 C 228.878906 110.394531 229.023438 108.671875 228.96875 106.9375 C 228.96875 105.25 229.417969 103.601562 229.710938 101.949219 C 229.949219 100.753906 229.9375 99.503906 230.316406 98.34375 C 230.324219 98.53125 230.332031 98.71875 230.339844 98.90625 C 230.578125 101.027344 230.652344 103.152344 230.570312 105.285156 C 230.566406 106.457031 230.742188 107.621094 230.664062 108.789062 C 230.628906 109.644531 230.394531 110.464844 230.175781 111.28125 C 229.988281 112.707031 229.699219 114.113281 229.339844 115.503906 C 229.15625 116.433594 228.914062 117.34375 228.582031 118.226562 C 228.625 121.019531 225.289062 121.4375 223.125 121.949219 C 219.03125 123.0625 214.769531 123.457031 210.570312 124 C 205.425781 124.394531 200.421875 125.746094 195.292969 126.207031 C 194.886719 126.242188 194.480469 126.269531 194.074219 126.292969 C 193.445312 126.464844 192.796875 126.574219 192.171875 126.722656 C 189.847656 127.234375 187.496094 127.628906 185.132812 127.886719 C 180.738281 128.726562 176.285156 129.113281 171.882812 129.878906 C 169.273438 130.195312 166.6875 130.652344 164.082031 130.980469 C 162.132812 131.175781 160.175781 131.121094 158.222656 131.203125 C 157.742188 131.210938 157.355469 130.957031 156.988281 130.652344 C 156.996094 130.722656 157.003906 130.796875 157.011719 130.867188 C 157.015625 130.941406 157.027344 131.015625 157.027344 131.085938 C 156.925781 130.863281 156.816406 130.640625 156.710938 130.414062 C 156.496094 130.226562 156.285156 130.039062 156.054688 129.898438 C 156.21875 129.9375 156.378906 129.992188 156.539062 130.050781 C 156.503906 129.96875 156.46875 129.886719 156.429688 129.804688 C 156.277344 129.777344 156.125 129.746094 155.972656 129.71875 C 152.1875 128.945312 148.339844 128.355469 144.707031 127 C 143.1875 126.496094 141.742188 125.820312 140.300781 125.136719 C 139.660156 125.136719 139.015625 125.042969 138.390625 124.902344 C 133.039062 123.53125 127.515625 122.851562 122.203125 121.355469 C 121.503906 122.699219 121.125 124.320312 119.648438 125.023438 C 119.316406 125.207031 118.972656 125.398438 118.625 125.542969 C 118.785156 125.316406 118.957031 125.09375 119.132812 124.875 C 118.332031 125.457031 117.4375 125.851562 116.339844 125.855469 C 113.21875 126.445312 110.058594 125.953125 106.945312 125.570312 C 108.949219 124.761719 111.089844 124.582031 113.226562 124.597656 "/></g><path style=" stroke:none;fill-rule:nonzero;fill:#3e473a;fill-opacity:1;" d="M 230.148438 90.976562 C 230.65625 92.648438 230.972656 94.386719 230.621094 96.125 C 230.5 96.933594 230.390625 97.804688 229.929688 98.496094 C 229.929688 98.371094 229.929688 98.246094 229.925781 98.121094 C 228.796875 99.5 226.925781 99.894531 225.222656 99.59375 C 225.179688 99.648438 225.132812 99.703125 225.085938 99.757812 C 225.101562 99.695312 225.113281 99.636719 225.125 99.574219 C 225.046875 99.5625 224.96875 99.542969 224.890625 99.523438 C 224.976562 99.496094 225.066406 99.46875 225.15625 99.4375 C 225.507812 97.761719 225.578125 96.035156 225.847656 94.34375 C 225.84375 94.359375 225.839844 94.375 225.839844 94.390625 C 225.847656 94.351562 225.851562 94.3125 225.859375 94.273438 C 225.960938 93.59375 226.222656 92.949219 226.511719 92.332031 C 226.480469 92.175781 226.445312 91.992188 226.402344 91.78125 C 226.609375 90.785156 229.339844 90.757812 230.171875 90.953125 C 229.160156 91.464844 228.042969 91.71875 226.929688 91.914062 C 226.816406 92.449219 226.746094 92.71875 226.6875 92.789062 C 226.964844 95.074219 226.796875 97.46875 225.40625 99.359375 C 226.898438 98.878906 228.410156 98.441406 229.925781 98.058594 C 229.859375 95.703125 229.355469 93.265625 230.148438 90.976562 "/><path style=" stroke:none;fill-rule:nonzero;fill:#3e473a;fill-opacity:1;" d="M 173.644531 92.628906 C 176.089844 92.722656 178.535156 93.035156 180.941406 93.457031 C 181.132812 93.429688 181.464844 93.433594 181.617188 93.425781 C 182.78125 93.511719 184.597656 99.9375 184.75 101.167969 C 184.855469 101.792969 184.851562 102.425781 184.785156 103.050781 C 184.59375 102.652344 184.40625 102.242188 184.195312 101.847656 C 183.335938 100.101562 182.511719 98.300781 182.175781 96.371094 C 181.898438 95.53125 182.113281 93.820312 181.050781 93.625 C 180.859375 93.570312 180.789062 93.53125 180.792969 93.503906 C 178.6875 93.996094 176.484375 94.039062 174.328125 94.046875 C 174.347656 94.046875 174.367188 94.046875 174.386719 94.046875 C 170.347656 94.132812 166.339844 93.546875 162.316406 93.285156 C 166.03125 92.558594 169.871094 92.660156 173.644531 92.628906 "/><path style=" stroke:none;fill-rule:nonzero;fill:#3e473a;fill-opacity:1;" d="M 164.511719 99.90625 C 163.316406 98.289062 161.929688 95.710938 162.222656 93.671875 C 162.90625 95.996094 164.675781 97.84375 166.320312 99.554688 C 168.9375 101.632812 172.378906 102.480469 175.675781 102.539062 C 178.175781 102.558594 180.6875 102.28125 183.152344 102.8125 C 183.742188 102.921875 184.945312 103.089844 185.144531 103.433594 C 185.148438 103.433594 185.148438 103.433594 185.148438 103.433594 C 181.664062 103.078125 178.179688 104.328125 174.679688 104.039062 C 171.269531 103.882812 166.539062 102.894531 164.511719 99.90625 "/><path style=" stroke:none;fill-rule:nonzero;fill:#3e473a;fill-opacity:1;" d="M 170.390625 99.890625 C 170.710938 100.0625 171.039062 100.234375 171.351562 100.410156 C 170.066406 100.28125 168.675781 100.132812 167.605469 99.359375 C 166.171875 98.265625 166.929688 95.410156 168.847656 95.542969 C 169.421875 95.496094 168.277344 95.878906 168.132812 96.347656 C 167.09375 98.1875 168.988281 99.191406 170.390625 99.890625 "/><path style=" stroke:none;fill-rule:nonzero;fill:#3e473a;fill-opacity:1;" d="M 175.703125 122.445312 C 174.957031 121.648438 174.332031 120.613281 174.3125 119.496094 C 174.265625 118.742188 174.730469 117.886719 175.59375 118.085938 C 176.992188 118.140625 178.378906 118.371094 179.757812 118.585938 C 178.535156 119.09375 177.214844 119.277344 175.902344 119.347656 C 176.027344 120.304688 176.375 121.53125 177.363281 121.90625 C 178.269531 122.261719 179.246094 122.394531 180.148438 122.753906 C 179.730469 122.792969 179.300781 122.828125 178.882812 122.878906 C 177.824219 123.007812 176.578125 123.195312 175.703125 122.445312 "/><path style=" stroke:none;fill-rule:nonzero;fill:#3e473a;fill-opacity:1;" d="M 178.699219 122.089844 C 179.398438 121.289062 180.394531 120.34375 179.785156 119.210938 C 181.363281 120.210938 180.046875 121.773438 178.699219 122.089844 "/><path style=" stroke:none;fill-rule:nonzero;fill:#3e473a;fill-opacity:1;" d="M 185.367188 117.449219 C 190.644531 116.132812 196.128906 116.386719 201.5 115.726562 C 206.234375 115.417969 210.882812 114.457031 215.5625 113.742188 C 215.550781 113.742188 215.539062 113.746094 215.527344 113.746094 C 215.570312 113.742188 215.617188 113.734375 215.664062 113.730469 C 217.949219 113.402344 220.269531 113.601562 222.5625 113.476562 C 215.074219 115.570312 207.289062 116.515625 199.570312 117.363281 C 194.699219 117.820312 189.800781 118.570312 184.898438 118.214844 C 181.902344 117.914062 183.710938 117.933594 185.367188 117.449219 "/><path style=" stroke:none;fill-rule:nonzero;fill:#3e473a;fill-opacity:1;" d="M 213.183594 119.757812 C 207.71875 120.539062 202.242188 121.242188 196.828125 122.332031 C 193.097656 123.027344 189.289062 123.574219 185.503906 123.007812 C 187.121094 122.527344 188.808594 122.246094 190.449219 121.839844 C 197.480469 120.457031 204.621094 119.742188 211.707031 118.722656 C 215.496094 118.109375 219.34375 118.03125 223.132812 117.507812 C 221.625 118.269531 219.917969 118.527344 218.28125 118.894531 C 216.582031 119.1875 214.898438 119.558594 213.183594 119.757812 "/><path style=" stroke:none;fill-rule:nonzero;fill:#3e473a;fill-opacity:1;" d="M 187.3125 103.582031 C 192.699219 102.125 198.347656 102.394531 203.863281 101.910156 C 210.136719 101.414062 216.402344 100.765625 222.671875 100.324219 C 217.132812 102.296875 211.246094 102.664062 205.445312 103.28125 C 199.425781 103.839844 193.324219 104.449219 187.3125 103.582031 "/><path style=" stroke:none;fill-rule:nonzero;fill:#3e473a;fill-opacity:1;" d="M 190.097656 93.277344 C 189.441406 93.148438 188.777344 93.03125 188.105469 93.023438 C 189.117188 92.613281 190.230469 92.578125 191.308594 92.449219 C 195.566406 91.953125 199.863281 92.085938 204.144531 91.90625 C 209.234375 91.824219 214.320312 91.453125 219.414062 91.585938 C 220.304688 91.582031 221.191406 91.597656 222.082031 91.664062 C 220.449219 92.03125 218.785156 92.328125 217.121094 92.523438 C 212.007812 93.136719 206.84375 93.097656 201.710938 93.457031 C 197.84375 93.648438 193.933594 93.933594 190.097656 93.277344 "/><path style=" stroke:none;fill-rule:nonzero;fill:#3e473a;fill-opacity:1;" d="M 161.023438 68.570312 C 160.382812 62.242188 159.871094 55.902344 159.359375 49.558594 C 158.765625 42.175781 157.53125 34.863281 156.421875 27.542969 C 155.714844 22.53125 154.261719 17.433594 155.125 12.363281 C 155.808594 15.339844 156.632812 18.289062 157.054688 21.324219 C 157.558594 25.675781 158.121094 30.019531 158.632812 34.371094 C 159.925781 43.261719 160.71875 52.203125 161.496094 61.144531 C 162.203125 66.929688 163.019531 72.703125 163.78125 78.480469 C 163.777344 78.445312 163.769531 78.410156 163.761719 78.375 C 163.785156 79.035156 164.097656 79.597656 164.636719 79.910156 C 165.179688 79.90625 165.722656 79.925781 166.261719 79.984375 C 167.511719 80.121094 168.746094 80.410156 169.902344 80.910156 C 169.226562 80.996094 168.539062 81.085938 167.863281 81.167969 C 167.875 81.167969 167.882812 81.164062 167.894531 81.164062 C 165.722656 81.441406 163.523438 81.515625 161.355469 81.132812 C 160.570312 81.128906 159.125 80.519531 158.578125 81.15625 C 158.804688 80.148438 160.386719 80.367188 161.191406 80.160156 C 162.152344 80.058594 163.117188 79.957031 164.082031 79.921875 C 164.019531 79.898438 163.960938 79.867188 163.902344 79.835938 C 161.804688 78.035156 161.371094 71.359375 161.023438 68.570312 "/><path style=" stroke:none;fill-rule:nonzero;fill:#3e473a;fill-opacity:1;" d="M 153.824219 41.917969 C 153.171875 36.382812 152.105469 30.839844 152.511719 25.253906 C 153.871094 29.167969 154.515625 33.3125 154.730469 37.4375 C 155.019531 41.355469 155.507812 45.253906 155.714844 49.171875 C 156.128906 56.089844 156.582031 63 156.75 69.925781 C 157.054688 73.378906 157.644531 76.839844 157.261719 80.308594 C 157.140625 82.011719 157.011719 83.730469 156.675781 85.398438 C 156.523438 84.132812 156.351562 82.867188 156.214844 81.597656 C 155.875 77.710938 155.886719 73.800781 155.621094 69.90625 C 155.574219 67.289062 155.703125 64.664062 155.472656 62.046875 C 155.039062 55.332031 154.75 48.589844 153.824219 41.917969 "/><path style=" stroke:none;fill-rule:nonzero;fill:#3e473a;fill-opacity:1;" d="M 149.828125 25.34375 C 150.644531 25.355469 151.46875 25.375 152.28125 25.421875 C 149.394531 26.542969 146.316406 26.847656 143.28125 27.289062 C 140.882812 27.824219 138.390625 28.050781 136.058594 28.820312 C 135.792969 28.949219 135.445312 29.027344 135.277344 29.285156 C 135.175781 29.929688 135.058594 30.570312 134.898438 31.199219 C 134.695312 32.253906 134.441406 33.296875 134.164062 34.332031 C 133.929688 35.421875 133.714844 36.519531 133.496094 37.609375 C 133.390625 36.789062 133.304688 35.972656 133.261719 35.148438 C 133.164062 33.570312 133.214844 31.984375 133.230469 30.402344 C 133.273438 29.460938 133.027344 28.1875 134.058594 27.695312 C 136.695312 27.246094 139.386719 26.722656 142.003906 26.054688 C 144.558594 25.445312 147.207031 25.351562 149.828125 25.34375 "/><path style=" stroke:none;fill-rule:nonzero;fill:#3e473a;fill-opacity:1;" d="M 131.734375 51.894531 C 132.089844 47.320312 132.085938 42.660156 133.382812 38.230469 C 134.082031 43.316406 133.375 48.433594 133.082031 53.523438 C 132.542969 58.355469 132.699219 65.605469 131.839844 69.234375 C 130.871094 63.488281 131.316406 57.664062 131.734375 51.894531 "/><path style=" stroke:none;fill-rule:nonzero;fill:#3e473a;fill-opacity:1;" d="M 139.785156 31.699219 C 138.246094 31.882812 137.742188 32.195312 137.398438 33.746094 C 137.148438 34.863281 136.984375 36.015625 136.691406 37.121094 C 136.566406 35.660156 136.1875 34.199219 136.300781 32.726562 C 136.351562 30.296875 138.195312 30.285156 140.101562 30.027344 C 142.191406 29.792969 144.300781 29.5625 146.410156 29.648438 C 147.722656 29.679688 149.035156 29.867188 150.324219 30.113281 C 148.675781 30.496094 147.007812 30.800781 145.328125 31.007812 C 143.488281 31.300781 141.636719 31.507812 139.785156 31.699219 "/><path style=" stroke:none;fill-rule:nonzero;fill:#3e473a;fill-opacity:1;" d="M 152.605469 63.734375 C 152.207031 59.929688 151.894531 56.121094 151.566406 52.3125 C 150.949219 45.210938 149.429688 38.179688 149.886719 31.023438 C 150.695312 32.816406 151.035156 34.761719 151.328125 36.691406 C 152.027344 41.566406 152.277344 46.488281 152.75 51.386719 C 153.28125 59.371094 154.171875 67.324219 154.507812 75.324219 C 153.25 71.605469 152.988281 67.621094 152.605469 63.734375 "/><path style=" stroke:none;fill-rule:nonzero;fill:#3e473a;fill-opacity:1;" d="M 154.757812 82.046875 C 154.40625 83.339844 152.761719 82.984375 151.914062 82.40625 C 150.253906 81.285156 149.066406 79.574219 148.054688 77.875 C 149.414062 78.800781 150.785156 79.707031 152.132812 80.648438 C 152.082031 80.609375 152.027344 80.570312 151.972656 80.53125 C 152.4375 80.847656 152.933594 81.140625 153.46875 81.328125 C 153.558594 80.144531 153.785156 78.972656 154.105469 77.832031 C 154.28125 78.480469 154.417969 79.132812 154.515625 79.796875 C 154.585938 80.542969 154.839844 81.296875 154.757812 82.046875 "/><path style=" stroke:none;fill-rule:nonzero;fill:#3e473a;fill-opacity:1;" d="M 154.519531 79.808594 C 154.515625 79.804688 154.515625 79.800781 154.515625 79.796875 C 154.515625 79.796875 154.515625 79.792969 154.515625 79.789062 C 154.515625 79.796875 154.515625 79.804688 154.519531 79.808594 "/><path style=" stroke:none;fill-rule:nonzero;fill:#3e473a;fill-opacity:1;" d="M 137.800781 66.84375 C 137.101562 65.574219 136.171875 64.441406 135.59375 63.109375 C 134.675781 61.171875 135.632812 57.207031 135.8125 54.988281 C 135.894531 55.332031 135.960938 55.671875 136.027344 56.015625 C 136.0625 54.789062 136.164062 53.558594 136.261719 52.335938 C 136.316406 47.898438 136.207031 43.417969 136.917969 39.023438 C 138.859375 46.125 137.480469 53.5 137.496094 60.734375 C 137.4375 61.277344 137.390625 61.824219 137.351562 62.371094 C 138.042969 63.691406 138.871094 64.929688 139.546875 66.253906 C 140.722656 68.464844 142.410156 70.339844 143.804688 72.410156 C 144.734375 73.738281 145.664062 75.078125 146.464844 76.488281 C 143.019531 73.859375 139.882812 70.667969 137.800781 66.84375 "/><path style=" stroke:none;fill-rule:nonzero;fill:#3e473a;fill-opacity:1;" d="M 136.414062 7.8125 C 135.792969 11.058594 135.742188 14.359375 135.460938 17.640625 C 135.273438 20.644531 134.316406 23.578125 134.191406 26.574219 C 132.316406 21.207031 134.164062 12.914062 136.414062 7.8125 "/><path style=" stroke:none;fill-rule:nonzero;fill:#3e473a;fill-opacity:1;" d="M 63.746094 53.355469 C 62.929688 50.695312 63.289062 46.375 63.46875 43.144531 C 63.941406 37.605469 64.742188 32.03125 66.503906 26.742188 C 66.148438 31.242188 65.601562 35.726562 65.253906 40.226562 C 65.109375 42.496094 65.195312 44.777344 64.9375 47.035156 C 64.65625 49.164062 64.109375 51.242188 63.746094 53.355469 "/><path style=" stroke:none;fill-rule:nonzero;fill:#3e473a;fill-opacity:1;" d="M 43.484375 55.003906 C 41.839844 49.25 43.128906 39.71875 45.265625 34.140625 C 45.261719 34.175781 45.261719 34.207031 45.257812 34.238281 C 45.25 34.300781 45.246094 34.363281 45.242188 34.425781 C 45.242188 34.421875 45.242188 34.417969 45.242188 34.414062 C 44.828125 37.597656 44.890625 40.804688 44.683594 44 C 44.484375 47.691406 43.953125 51.351562 43.484375 55.003906 "/><path style=" stroke:none;fill-rule:nonzero;fill:#3e473a;fill-opacity:1;" d="M 32.144531 45.871094 C 32.566406 42.726562 33.667969 39.730469 34.359375 36.652344 C 34.578125 38.792969 34.046875 40.921875 33.972656 43.058594 C 33.710938 47.574219 33.324219 52.160156 31.601562 56.382812 C 31.527344 52.878906 31.621094 49.339844 32.144531 45.871094 "/><path style=" stroke:none;fill-rule:nonzero;fill:#3e473a;fill-opacity:1;" d="M 209.464844 24.078125 C 206.449219 23.207031 203.433594 22.332031 200.367188 21.648438 C 195.074219 20.390625 189.746094 19.300781 184.382812 18.382812 C 181.976562 17.941406 179.628906 17.234375 177.203125 16.917969 C 177.203125 16.917969 177.203125 16.917969 177.207031 16.917969 C 175.675781 16.734375 178.878906 16.714844 179.363281 16.800781 C 186.695312 17.535156 193.914062 19.050781 201.144531 20.421875 C 206.734375 21.699219 213.097656 22.25 217.425781 26.386719 C 214.863281 25.328125 212.121094 24.835938 209.464844 24.078125 "/><path style=" stroke:none;fill-rule:nonzero;fill:#3e473a;fill-opacity:1;" d="M 161.710938 17.433594 C 162.015625 17.515625 162.320312 17.605469 162.613281 17.714844 C 161.707031 17.960938 160.761719 18.109375 159.820312 18.121094 C 158.964844 18.113281 158.117188 17.964844 157.28125 17.808594 C 156.054688 17.699219 157.347656 17.492188 157.835938 17.339844 C 159.113281 17.023438 160.449219 17.066406 161.710938 17.433594 "/></g></svg>