<svg xmlns="http://www.w3.org/2000/svg" xmlns:xlink="http://www.w3.org/1999/xlink" width="606" zoomAndPan="magnify" viewBox="0 0 454.5 325.499995" height="434" preserveAspectRatio="xMidYMid meet" version="1.2"><defs><clipPath id="d2b2a0665d"><path d="M 116 63 L 424 63 L 424 243 L 116 243 Z M 116 63 "/></clipPath><clipPath id="b374b27df2"><path d="M 180.207031 0 L 429.246094 65.339844 L 364.976562 310.324219 L 115.933594 244.984375 Z M 180.207031 0 "/></clipPath><clipPath id="319b66211e"><path d="M 180.207031 0 L 429.246094 65.339844 L 364.976562 310.324219 L 115.933594 244.984375 Z M 180.207031 0 "/></clipPath><clipPath id="43f5a838cd"><path d="M 181.273438 -4.058594 L 430.195312 61.246094 L 364.886719 310.167969 L 115.96875 244.863281 Z M 181.273438 -4.058594 "/></clipPath><clipPath id="e25aa4e72f"><path d="M 197 69 L 428 69 L 428 267 L 197 267 Z M 197 69 "/></clipPath><clipPath id="bde429d860"><path d="M 180.207031 0 L 429.246094 65.339844 L 364.976562 310.324219 L 115.933594 244.984375 Z M 180.207031 0 "/></clipPath><clipPath id="22c4e41500"><path d="M 180.207031 0 L 429.246094 65.339844 L 364.976562 310.324219 L 115.933594 244.984375 Z M 180.207031 0 "/></clipPath><clipPath id="05799f1f0c"><path d="M 181.273438 -4.058594 L 430.195312 61.246094 L 364.886719 310.167969 L 115.96875 244.863281 Z M 181.273438 -4.058594 "/></clipPath><clipPath id="05d284cecc"><path d="M 376 87 L 389 87 L 389 99 L 376 99 Z M 376 87 "/></clipPath><clipPath id="ace3546898"><path d="M 180.207031 0 L 429.246094 65.339844 L 364.976562 310.324219 L 115.933594 244.984375 Z M 180.207031 0 "/></clipPath><clipPath id="17f058f50d"><path d="M 180.207031 0 L 429.246094 65.339844 L 364.976562 310.324219 L 115.933594 244.984375 Z M 180.207031 0 "/></clipPath><clipPath id="987b3609f0"><path d="M 181.273438 -4.058594 L 430.195312 61.246094 L 364.886719 310.167969 L 115.96875 244.863281 Z M 181.273438 -4.058594 "/></clipPath><clipPath id="fa248d4b52"><path d="M 326 117 L 360 117 L 360 171 L 326 171 Z M 326 117 "/></clipPath><clipPath id="08b55e40a8"><path d="M 180.207031 0 L 429.246094 65.339844 L 364.976562 310.324219 L 115.933594 244.984375 Z M 180.207031 0 "/></clipPath><clipPath id="a9f2348d2f"><path d="M 180.207031 0 L 429.246094 65.339844 L 364.976562 310.324219 L 115.933594 244.984375 Z M 180.207031 0 "/></clipPath><clipPath id="2f917d240d"><path d="M 181.273438 -4.058594 L 430.195312 61.246094 L 364.886719 310.167969 L 115.96875 244.863281 Z M 181.273438 -4.058594 "/></clipPath><clipPath id="c83cce744e"><path d="M 307 183 L 315 183 L 315 190 L 307 190 Z M 307 183 "/></clipPath><clipPath id="2b64d857d4"><path d="M 180.207031 0 L 429.246094 65.339844 L 364.976562 310.324219 L 115.933594 244.984375 Z M 180.207031 0 "/></clipPath><clipPath id="3e25258023"><path d="M 180.207031 0 L 429.246094 65.339844 L 364.976562 310.324219 L 115.933594 244.984375 Z M 180.207031 0 "/></clipPath><clipPath id="567e7cdab9"><path d="M 181.273438 -4.058594 L 430.195312 61.246094 L 364.886719 310.167969 L 115.96875 244.863281 Z M 181.273438 -4.058594 "/></clipPath><clipPath id="65e8953034"><path d="M 287 199 L 294 199 L 294 205 L 287 205 Z M 287 199 "/></clipPath><clipPath id="874f7af6e1"><path d="M 180.207031 0 L 429.246094 65.339844 L 364.976562 310.324219 L 115.933594 244.984375 Z M 180.207031 0 "/></clipPath><clipPath id="35466e658d"><path d="M 180.207031 0 L 429.246094 65.339844 L 364.976562 310.324219 L 115.933594 244.984375 Z M 180.207031 0 "/></clipPath><clipPath id="2013442f1f"><path d="M 181.273438 -4.058594 L 430.195312 61.246094 L 364.886719 310.167969 L 115.96875 244.863281 Z M 181.273438 -4.058594 "/></clipPath><clipPath id="afd74c7a23"><path d="M 246 215 L 262 215 L 262 222 L 246 222 Z M 246 215 "/></clipPath><clipPath id="2180e38c10"><path d="M 180.207031 0 L 429.246094 65.339844 L 364.976562 310.324219 L 115.933594 244.984375 Z M 180.207031 0 "/></clipPath><clipPath id="affb8fa054"><path d="M 180.207031 0 L 429.246094 65.339844 L 364.976562 310.324219 L 115.933594 244.984375 Z M 180.207031 0 "/></clipPath><clipPath id="279fd0ccc7"><path d="M 181.273438 -4.058594 L 430.195312 61.246094 L 364.886719 310.167969 L 115.96875 244.863281 Z M 181.273438 -4.058594 "/></clipPath><clipPath id="2d9a010e4a"><path d="M 224 223 L 231 223 L 231 228 L 224 228 Z M 224 223 "/></clipPath><clipPath id="10a00005d5"><path d="M 180.207031 0 L 429.246094 65.339844 L 364.976562 310.324219 L 115.933594 244.984375 Z M 180.207031 0 "/></clipPath><clipPath id="e3cec66415"><path d="M 180.207031 0 L 429.246094 65.339844 L 364.976562 310.324219 L 115.933594 244.984375 Z M 180.207031 0 "/></clipPath><clipPath id="96151757cf"><path d="M 181.273438 -4.058594 L 430.195312 61.246094 L 364.886719 310.167969 L 115.96875 244.863281 Z M 181.273438 -4.058594 "/></clipPath><clipPath id="beb8c9b93a"><path d="M 197 227 L 215 227 L 215 235 L 197 235 Z M 197 227 "/></clipPath><clipPath id="5304cf3162"><path d="M 180.207031 0 L 429.246094 65.339844 L 364.976562 310.324219 L 115.933594 244.984375 Z M 180.207031 0 "/></clipPath><clipPath id="201d6336b2"><path d="M 180.207031 0 L 429.246094 65.339844 L 364.976562 310.324219 L 115.933594 244.984375 Z M 180.207031 0 "/></clipPath><clipPath id="44a4575d42"><path d="M 181.273438 -4.058594 L 430.195312 61.246094 L 364.886719 310.167969 L 115.96875 244.863281 Z M 181.273438 -4.058594 "/></clipPath><clipPath id="d87c5f07d1"><path d="M 174 235 L 190 235 L 190 244 L 174 244 Z M 174 235 "/></clipPath><clipPath id="9b43dd3b10"><path d="M 180.207031 0 L 429.246094 65.339844 L 364.976562 310.324219 L 115.933594 244.984375 Z M 180.207031 0 "/></clipPath><clipPath id="7fa2d6f052"><path d="M 180.207031 0 L 429.246094 65.339844 L 364.976562 310.324219 L 115.933594 244.984375 Z M 180.207031 0 "/></clipPath><clipPath id="8878808c3b"><path d="M 181.273438 -4.058594 L 430.195312 61.246094 L 364.886719 310.167969 L 115.96875 244.863281 Z M 181.273438 -4.058594 "/></clipPath><clipPath id="1c9bd959a0"><path d="M 223 165 L 252 165 L 252 176 L 223 176 Z M 223 165 "/></clipPath><clipPath id="0d0c0bccef"><path d="M 180.207031 0 L 429.246094 65.339844 L 364.976562 310.324219 L 115.933594 244.984375 Z M 180.207031 0 "/></clipPath><clipPath id="e42b9f548f"><path d="M 180.207031 0 L 429.246094 65.339844 L 364.976562 310.324219 L 115.933594 244.984375 Z M 180.207031 0 "/></clipPath><clipPath id="405304aaa5"><path d="M 181.273438 -4.058594 L 430.195312 61.246094 L 364.886719 310.167969 L 115.96875 244.863281 Z M 181.273438 -4.058594 "/></clipPath><clipPath id="2e762e8135"><path d="M 222 155 L 267 155 L 267 177 L 222 177 Z M 222 155 "/></clipPath><clipPath id="bf54d91998"><path d="M 180.207031 0 L 429.246094 65.339844 L 364.976562 310.324219 L 115.933594 244.984375 Z M 180.207031 0 "/></clipPath><clipPath id="24d17c2208"><path d="M 180.207031 0 L 429.246094 65.339844 L 364.976562 310.324219 L 115.933594 244.984375 Z M 180.207031 0 "/></clipPath><clipPath id="f4e49e340e"><path d="M 181.273438 -4.058594 L 430.195312 61.246094 L 364.886719 310.167969 L 115.96875 244.863281 Z M 181.273438 -4.058594 "/></clipPath><clipPath id="3b665db9ea"><path d="M 233 170 L 238 170 L 238 203 L 233 203 Z M 233 170 "/></clipPath><clipPath id="4d48e03183"><path d="M 180.207031 0 L 429.246094 65.339844 L 364.976562 310.324219 L 115.933594 244.984375 Z M 180.207031 0 "/></clipPath><clipPath id="49da9074dd"><path d="M 180.207031 0 L 429.246094 65.339844 L 364.976562 310.324219 L 115.933594 244.984375 Z M 180.207031 0 "/></clipPath><clipPath id="56d9fd5d15"><path d="M 181.273438 -4.058594 L 430.195312 61.246094 L 364.886719 310.167969 L 115.96875 244.863281 Z M 181.273438 -4.058594 "/></clipPath><clipPath id="1a84bdb2d8"><path d="M 39.5625 244.636719 L 196.824219 244.636719 L 196.824219 324.3125 L 39.5625 324.3125 Z M 39.5625 244.636719 "/></clipPath></defs><g id="5b59848e34"><g style="fill:#3e473a;fill-opacity:1;"><g transform="translate(225.311353, 253.3588)"><path style="stroke:none" d="M 1.359375 -1.390625 C 1.671875 -1.390625 1.78125 -1.234375 1.6875 -0.921875 C 1.644531 -0.804688 1.597656 -0.691406 1.546875 -0.578125 C 1.492188 -0.484375 1.421875 -0.421875 1.328125 -0.390625 C 1.234375 -0.367188 1.132812 -0.378906 1.03125 -0.421875 C 0.945312 -0.453125 0.898438 -0.515625 0.890625 -0.609375 C 0.878906 -0.742188 0.882812 -0.882812 0.90625 -1.03125 C 0.925781 -1.28125 1.078125 -1.398438 1.359375 -1.390625 Z M 1.359375 -1.390625 "/></g></g><g clip-rule="nonzero" clip-path="url(#d2b2a0665d)"><g clip-rule="nonzero" clip-path="url(#b374b27df2)"><g clip-rule="nonzero" clip-path="url(#319b66211e)"><g clip-rule="nonzero" clip-path="url(#43f5a838cd)"><path style=" stroke:none;fill-rule:evenodd;fill:#3e473a;fill-opacity:1;" d="M 421.5 63.75 C 394.101562 68.199219 365.3125 82.660156 345.640625 102.71875 C 332.980469 115.625 324.21875 131.730469 314.625 146.824219 C 304.933594 162.070312 290.261719 174.703125 275.367188 184.621094 C 249.207031 202.046875 217.527344 202.640625 187.597656 207.519531 C 161.566406 211.765625 138.226562 224.445312 117.503906 240.199219 C 116.875 240.679688 116.75 241.582031 117.230469 242.214844 C 117.710938 242.847656 118.613281 242.96875 119.246094 242.488281 C 139.59375 227.015625 162.496094 214.527344 188.0625 210.359375 C 218.390625 205.414062 250.453125 204.671875 276.960938 187.011719 C 292.179688 176.878906 307.148438 163.945312 317.050781 148.367188 C 326.539062 133.441406 335.171875 117.496094 347.691406 104.730469 C 366.953125 85.09375 395.136719 70.941406 421.960938 66.585938 C 422.742188 66.460938 423.273438 65.71875 423.148438 64.9375 C 423.019531 64.15625 422.28125 63.621094 421.5 63.75 Z M 421.5 63.75 "/></g></g></g></g><g clip-rule="nonzero" clip-path="url(#e25aa4e72f)"><g clip-rule="nonzero" clip-path="url(#bde429d860)"><g clip-rule="nonzero" clip-path="url(#22c4e41500)"><g clip-rule="nonzero" clip-path="url(#05799f1f0c)"><path style=" stroke:none;fill-rule:evenodd;fill:#3e473a;fill-opacity:1;" d="M 425.84375 69.414062 C 420.070312 70.898438 413.53125 75.398438 407.238281 81.019531 C 398.019531 89.253906 389.292969 99.859375 384.25 106.339844 C 375.445312 117.648438 367.605469 128.695312 360.964844 141.453125 C 349.707031 163.074219 342.296875 188.789062 325.5625 207.078125 C 307.222656 227.121094 286.703125 235.609375 265.222656 241.90625 C 243.425781 248.296875 220.648438 252.457031 198.097656 263.8125 C 197.390625 264.167969 197.105469 265.03125 197.460938 265.742188 C 197.816406 266.449219 198.683594 266.734375 199.390625 266.378906 C 221.777344 255.109375 244.394531 251.011719 266.03125 244.664062 C 287.988281 238.230469 308.9375 229.503906 327.683594 209.019531 C 344.585938 190.546875 352.144531 164.617188 363.515625 142.78125 C 370.074219 130.179688 377.824219 119.273438 386.519531 108.105469 C 391.488281 101.722656 400.074219 91.269531 409.152344 83.164062 C 415.054688 77.890625 421.144531 73.589844 426.558594 72.199219 C 427.328125 72 427.789062 71.214844 427.59375 70.449219 C 427.394531 69.679688 426.609375 69.214844 425.84375 69.414062 Z M 425.84375 69.414062 "/></g></g></g></g><g clip-rule="nonzero" clip-path="url(#05d284cecc)"><g clip-rule="nonzero" clip-path="url(#ace3546898)"><g clip-rule="nonzero" clip-path="url(#17f058f50d)"><g clip-rule="nonzero" clip-path="url(#987b3609f0)"><path style=" stroke:none;fill-rule:evenodd;fill:#3e473a;fill-opacity:1;" d="M 386.507812 87.621094 C 382.980469 89.546875 379.011719 93.300781 376.6875 95.949219 C 376.164062 96.542969 376.222656 97.453125 376.820312 97.976562 C 377.414062 98.5 378.324219 98.441406 378.847656 97.84375 C 380.988281 95.402344 384.632812 91.917969 387.882812 90.144531 C 388.582031 89.765625 388.835938 88.890625 388.457031 88.195312 C 388.078125 87.5 387.203125 87.242188 386.507812 87.621094 Z M 386.507812 87.621094 "/></g></g></g></g><g clip-rule="nonzero" clip-path="url(#fa248d4b52)"><g clip-rule="nonzero" clip-path="url(#08b55e40a8)"><g clip-rule="nonzero" clip-path="url(#a9f2348d2f)"><g clip-rule="nonzero" clip-path="url(#2f917d240d)"><path style=" stroke:none;fill-rule:evenodd;fill:#3e473a;fill-opacity:1;" d="M 357.023438 117.882812 C 352.152344 122.007812 347.863281 128.820312 343.851562 136.390625 C 338.011719 147.40625 332.726562 160.050781 326.792969 167.890625 C 326.3125 168.523438 326.4375 169.425781 327.070312 169.902344 C 327.703125 170.382812 328.605469 170.257812 329.085938 169.625 C 334.105469 162.992188 338.691406 152.984375 343.507812 143.355469 C 348.183594 134.007812 353.058594 125.007812 358.878906 120.074219 C 359.484375 119.5625 359.5625 118.652344 359.046875 118.050781 C 358.535156 117.445312 357.628906 117.367188 357.023438 117.882812 Z M 357.023438 117.882812 "/></g></g></g></g><g clip-rule="nonzero" clip-path="url(#c83cce744e)"><g clip-rule="nonzero" clip-path="url(#2b64d857d4)"><g clip-rule="nonzero" clip-path="url(#3e25258023)"><g clip-rule="nonzero" clip-path="url(#567e7cdab9)"><path style=" stroke:none;fill-rule:evenodd;fill:#3e473a;fill-opacity:1;" d="M 312.300781 183.511719 C 310.910156 184.652344 309.84375 186.25 308.46875 187.472656 C 307.875 188 307.820312 188.910156 308.347656 189.5 C 308.875 190.09375 309.785156 190.148438 310.378906 189.621094 C 311.726562 188.425781 312.761719 186.851562 314.125 185.734375 C 314.738281 185.230469 314.828125 184.324219 314.324219 183.710938 C 313.820312 183.097656 312.914062 183.007812 312.300781 183.511719 Z M 312.300781 183.511719 "/></g></g></g></g><g clip-rule="nonzero" clip-path="url(#65e8953034)"><g clip-rule="nonzero" clip-path="url(#874f7af6e1)"><g clip-rule="nonzero" clip-path="url(#35466e658d)"><g clip-rule="nonzero" clip-path="url(#2013442f1f)"><path style=" stroke:none;fill-rule:evenodd;fill:#3e473a;fill-opacity:1;" d="M 291.113281 200.34375 C 290.367188 201.058594 289.058594 201.691406 288.074219 202.027344 C 287.324219 202.285156 286.925781 203.105469 287.183594 203.855469 C 287.441406 204.605469 288.261719 205.003906 289.011719 204.746094 C 290.339844 204.289062 292.085938 203.390625 293.097656 202.425781 C 293.671875 201.878906 293.691406 200.964844 293.144531 200.394531 C 292.597656 199.820312 291.6875 199.796875 291.113281 200.34375 Z M 291.113281 200.34375 "/></g></g></g></g><g clip-rule="nonzero" clip-path="url(#afd74c7a23)"><g clip-rule="nonzero" clip-path="url(#2180e38c10)"><g clip-rule="nonzero" clip-path="url(#affb8fa054)"><g clip-rule="nonzero" clip-path="url(#279fd0ccc7)"><path style=" stroke:none;fill-rule:evenodd;fill:#3e473a;fill-opacity:1;" d="M 260.117188 215.425781 C 256.253906 215.949219 251.496094 217.734375 247.632812 219.0625 C 246.882812 219.320312 246.484375 220.140625 246.742188 220.890625 C 247 221.640625 247.820312 222.039062 248.570312 221.78125 C 252.265625 220.507812 256.808594 218.777344 260.503906 218.273438 C 261.292969 218.164062 261.84375 217.4375 261.734375 216.652344 C 261.628906 215.867188 260.902344 215.316406 260.117188 215.425781 Z M 260.117188 215.425781 "/></g></g></g></g><g clip-rule="nonzero" clip-path="url(#2d9a010e4a)"><g clip-rule="nonzero" clip-path="url(#10a00005d5)"><g clip-rule="nonzero" clip-path="url(#e3cec66415)"><g clip-rule="nonzero" clip-path="url(#96151757cf)"><path style=" stroke:none;fill-rule:evenodd;fill:#3e473a;fill-opacity:1;" d="M 228.636719 223.460938 C 227.382812 223.804688 226.066406 223.980469 224.964844 224.625 C 224.28125 225.027344 224.046875 225.90625 224.449219 226.589844 C 224.847656 227.277344 225.730469 227.507812 226.414062 227.105469 C 227.304688 226.585938 228.386719 226.507812 229.394531 226.234375 C 230.160156 226.023438 230.613281 225.230469 230.402344 224.46875 C 230.195312 223.703125 229.402344 223.25 228.636719 223.460938 Z M 228.636719 223.460938 "/></g></g></g></g><g clip-rule="nonzero" clip-path="url(#beb8c9b93a)"><g clip-rule="nonzero" clip-path="url(#5304cf3162)"><g clip-rule="nonzero" clip-path="url(#201d6336b2)"><g clip-rule="nonzero" clip-path="url(#44a4575d42)"><path style=" stroke:none;fill-rule:evenodd;fill:#3e473a;fill-opacity:1;" d="M 213.210938 227.652344 C 208.972656 227.554688 202.078125 229.820312 198.390625 231.976562 C 197.703125 232.375 197.472656 233.257812 197.871094 233.941406 C 198.273438 234.625 199.152344 234.859375 199.839844 234.457031 C 203.152344 232.519531 209.335938 230.4375 213.144531 230.527344 C 213.9375 230.542969 214.597656 229.914062 214.617188 229.121094 C 214.632812 228.328125 214.003906 227.671875 213.210938 227.652344 Z M 213.210938 227.652344 "/></g></g></g></g><g clip-rule="nonzero" clip-path="url(#d87c5f07d1)"><g clip-rule="nonzero" clip-path="url(#9b43dd3b10)"><g clip-rule="nonzero" clip-path="url(#7fa2d6f052)"><g clip-rule="nonzero" clip-path="url(#8878808c3b)"><path style=" stroke:none;fill-rule:evenodd;fill:#3e473a;fill-opacity:1;" d="M 187.386719 235.3125 C 183.757812 237.234375 179.464844 239.234375 175.480469 240.398438 C 174.71875 240.621094 174.28125 241.417969 174.503906 242.179688 C 174.726562 242.941406 175.523438 243.378906 176.285156 243.15625 C 180.449219 241.941406 184.9375 239.863281 188.734375 237.851562 C 189.433594 237.480469 189.703125 236.613281 189.332031 235.910156 C 188.960938 235.210938 188.089844 234.941406 187.386719 235.3125 Z M 187.386719 235.3125 "/></g></g></g></g><g clip-rule="nonzero" clip-path="url(#1c9bd959a0)"><g clip-rule="nonzero" clip-path="url(#0d0c0bccef)"><g clip-rule="nonzero" clip-path="url(#e42b9f548f)"><g clip-rule="nonzero" clip-path="url(#405304aaa5)"><path style=" stroke:none;fill-rule:evenodd;fill:#3e473a;fill-opacity:1;" d="M 225.433594 175.480469 C 227.460938 174.804688 229.691406 174.058594 231.449219 173.597656 C 237.789062 171.941406 244.179688 170.480469 250.425781 168.535156 C 251.179688 168.300781 251.605469 167.492188 251.367188 166.734375 C 251.132812 165.980469 250.328125 165.554688 249.570312 165.792969 C 243.367188 167.722656 237.015625 169.171875 230.722656 170.816406 C 228.910156 171.289062 226.613281 172.058594 224.527344 172.753906 C 223.773438 173.003906 223.367188 173.816406 223.617188 174.570312 C 223.867188 175.324219 224.683594 175.730469 225.433594 175.480469 Z M 225.433594 175.480469 "/></g></g></g></g><g clip-rule="nonzero" clip-path="url(#2e762e8135)"><g clip-rule="nonzero" clip-path="url(#bf54d91998)"><g clip-rule="nonzero" clip-path="url(#24d17c2208)"><g clip-rule="nonzero" clip-path="url(#f4e49e340e)"><path style=" stroke:none;fill-rule:evenodd;fill:#3e473a;fill-opacity:1;" d="M 247.058594 162.257812 C 241.453125 164.113281 234.933594 163.863281 229.175781 165.070312 C 228.324219 165.25 227.113281 165.277344 226.019531 165.429688 C 225.058594 165.5625 224.179688 165.792969 223.546875 166.160156 C 223.164062 166.382812 222.730469 166.898438 222.636719 167.765625 C 222.511719 168.914062 222.988281 171.355469 223.042969 171.730469 C 223.082031 171.988281 223.257812 174.054688 223.386719 174.46875 C 223.679688 175.4375 224.472656 175.542969 224.75 175.554688 C 225.542969 175.582031 226.207031 174.960938 226.234375 174.167969 C 226.242188 173.957031 226.203125 173.757812 226.128906 173.578125 C 226.09375 173.242188 225.914062 171.503906 225.886719 171.304688 C 225.84375 171.035156 225.492188 169.457031 225.480469 168.445312 C 225.902344 168.320312 226.417969 168.269531 226.9375 168.214844 C 227.953125 168.105469 228.996094 168.046875 229.765625 167.886719 C 235.722656 166.632812 242.472656 166.875 248.242188 164.890625 C 248.953125 164.644531 249.445312 164.144531 249.726562 163.417969 C 249.964844 162.796875 250.023438 161.933594 249.949219 160.988281 C 249.898438 160.277344 249.78125 159.507812 249.714844 158.808594 L 249.703125 158.675781 C 251.796875 159.589844 256.308594 161.554688 257.96875 162.21875 C 259.421875 162.800781 260.976562 163.152344 262.421875 163.738281 C 259.960938 165.898438 255.515625 169.476562 253.660156 171.019531 C 253.320312 171.304688 252.6875 171.875 252.019531 172.40625 C 251.769531 170.453125 251.449219 167.753906 251.320312 167.117188 C 251.058594 165.796875 249.792969 165.816406 249.652344 165.839844 C 249.347656 165.886719 248.703125 166.03125 248.472656 166.90625 C 248.398438 167.199219 248.417969 167.496094 248.511719 167.761719 C 248.605469 168.480469 249.285156 173.90625 249.460938 174.859375 C 249.574219 175.46875 249.863281 175.75 249.921875 175.808594 C 250.359375 176.230469 250.824219 176.261719 251.21875 176.179688 C 251.625 176.097656 252.191406 175.828125 252.792969 175.417969 C 253.785156 174.742188 254.972656 173.667969 255.5 173.230469 C 257.621094 171.464844 263.0625 167.078125 265.246094 165.058594 C 265.785156 164.558594 266.152344 164.164062 266.304688 163.949219 C 266.464844 163.71875 266.539062 163.519531 266.574219 163.382812 C 266.585938 163.347656 266.789062 161.964844 265.507812 161.617188 C 265.25 161.542969 263.820312 161.175781 263.644531 161.132812 C 262.152344 160.515625 260.542969 160.152344 259.039062 159.550781 C 257.046875 158.753906 252.183594 156.433594 250.101562 155.664062 C 249.480469 155.433594 249.011719 155.335938 248.789062 155.328125 C 248.390625 155.3125 248.113281 155.429688 247.933594 155.535156 C 247.488281 155.792969 247.148438 156.207031 246.960938 156.796875 C 246.757812 157.421875 246.773438 158.394531 246.894531 159.460938 C 246.96875 160.132812 247.074219 160.855469 247.101562 161.503906 C 247.113281 161.742188 247.078125 162.074219 247.058594 162.257812 Z M 250.105469 168.6875 C 249.808594 168.75 249.488281 168.726562 249.167969 168.527344 C 249.269531 168.585938 249.382812 168.628906 249.5 168.660156 C 249.703125 168.714844 249.910156 168.722656 250.105469 168.6875 Z M 251.230469 167.722656 C 251.121094 168.046875 250.90625 168.3125 250.632812 168.484375 C 250.839844 168.363281 251.09375 168.148438 251.230469 167.722656 Z M 251.230469 167.722656 "/></g></g></g></g><g clip-rule="nonzero" clip-path="url(#3b665db9ea)"><g clip-rule="nonzero" clip-path="url(#4d48e03183)"><g clip-rule="nonzero" clip-path="url(#49da9074dd)"><g clip-rule="nonzero" clip-path="url(#56d9fd5d15)"><path style=" stroke:none;fill-rule:evenodd;fill:#3e473a;fill-opacity:1;" d="M 233.453125 171.941406 C 233.476562 172.066406 233.558594 172.523438 233.578125 172.679688 C 233.679688 173.496094 233.730469 174.316406 233.8125 175.125 C 234.046875 177.402344 234.378906 179.476562 234.292969 181.785156 C 234.160156 185.277344 233.851562 188.90625 233.8125 192.367188 C 233.800781 193.234375 233.847656 194.199219 233.894531 195.1875 C 233.988281 197.199219 233.550781 199.421875 233.816406 201.21875 C 233.929688 202.003906 234.660156 202.546875 235.445312 202.433594 C 236.230469 202.316406 236.773438 201.585938 236.660156 200.800781 C 236.40625 199.089844 236.855469 196.972656 236.765625 195.054688 C 236.722656 194.125 236.675781 193.21875 236.6875 192.402344 C 236.726562 188.964844 237.035156 185.363281 237.164062 181.894531 C 237.257812 179.449219 236.917969 177.246094 236.671875 174.832031 C 236.585938 174.003906 236.53125 173.160156 236.429688 172.324219 C 236.390625 172.023438 236.253906 171.273438 236.214844 171.140625 C 235.902344 170.074219 234.933594 170.085938 234.78125 170.089844 C 234.441406 170.101562 234.105469 170.214844 233.808594 170.515625 C 233.425781 170.902344 233.304688 171.453125 233.453125 171.941406 Z M 233.453125 171.941406 "/></g></g></g></g><g clip-rule="nonzero" clip-path="url(#1a84bdb2d8)"><path style=" stroke:none;fill-rule:nonzero;fill:#3e473a;fill-opacity:1;" d="M 53.21875 314.523438 L 63.320312 314.523438 C 63.292969 314.210938 63.277344 313.890625 63.277344 313.570312 C 63.277344 307.6875 68.0625 302.902344 73.941406 302.902344 C 79.824219 302.902344 84.609375 307.6875 84.609375 313.570312 C 84.609375 313.890625 84.59375 314.210938 84.5625 314.523438 L 154.929688 314.523438 C 154.902344 314.210938 154.886719 313.890625 154.886719 313.570312 C 154.886719 307.6875 159.671875 302.902344 165.554688 302.902344 C 171.433594 302.902344 176.21875 307.6875 176.21875 313.570312 C 176.21875 313.890625 176.203125 314.210938 176.175781 314.523438 L 188.988281 314.523438 C 192.257812 314.523438 194.722656 312.300781 194.722656 309.347656 L 194.722656 304.808594 L 194.570312 304.808594 C 190.824219 304.808594 187.78125 301.761719 187.78125 298.019531 C 187.78125 295.730469 189.644531 293.867188 191.933594 293.867188 L 194.722656 293.867188 L 194.722656 288.660156 L 193.628906 288.660156 C 185.804688 288.660156 184.726562 275.191406 184.011719 266.28125 C 183.941406 265.394531 183.871094 264.5625 183.804688 263.808594 C 183.671875 262.386719 184.148438 260.964844 185.105469 259.917969 C 185.503906 259.480469 185.976562 259.128906 186.488281 258.867188 C 184.355469 256.15625 181.820312 253.925781 178.921875 252.238281 C 174.425781 249.613281 170.175781 247.136719 156.832031 247.136719 L 60.8125 247.136719 C 53.859375 247.136719 49.242188 250.195312 46.285156 256.761719 C 43.488281 262.972656 42.140625 272.296875 42.066406 286.046875 L 44.246094 286.042969 C 47.359375 286.042969 50.089844 288.753906 50.089844 291.84375 L 50.089844 292.734375 C 50.089844 296.65625 47.046875 300.589844 42.851562 302.273438 C 44.324219 310.324219 47.835938 314.523438 53.21875 314.523438 Z M 73.941406 321.734375 C 78.445312 321.734375 82.105469 318.070312 82.105469 313.570312 C 82.105469 309.070312 78.445312 305.40625 73.941406 305.40625 C 69.441406 305.40625 65.777344 309.070312 65.777344 313.570312 C 65.777344 318.070312 69.441406 321.734375 73.941406 321.734375 Z M 165.554688 321.734375 C 169.378906 321.734375 172.597656 319.089844 173.476562 315.53125 C 173.480469 315.523438 173.480469 315.515625 173.484375 315.507812 C 173.636719 314.886719 173.71875 314.238281 173.71875 313.570312 C 173.71875 309.070312 170.054688 305.40625 165.554688 305.40625 C 161.050781 305.40625 157.386719 309.070312 157.386719 313.570312 C 157.386719 314.238281 157.472656 314.890625 157.625 315.511719 C 157.625 315.519531 157.625 315.523438 157.628906 315.527344 C 158.507812 319.085938 161.726562 321.734375 165.554688 321.734375 Z M 194.722656 296.371094 L 191.933594 296.371094 C 191.023438 296.371094 190.285156 297.109375 190.285156 298.019531 C 190.285156 300.382812 192.207031 302.304688 194.570312 302.304688 L 194.722656 302.304688 Z M 187.988281 260.945312 C 187.601562 261.0625 187.246094 261.285156 186.953125 261.605469 C 186.46875 262.136719 186.230469 262.855469 186.296875 263.582031 C 186.367188 264.34375 186.433594 265.183594 186.507812 266.082031 C 187.109375 273.589844 188.117188 286.15625 193.628906 286.15625 L 194.710938 286.15625 C 194.585938 279.828125 193.453125 269.285156 187.988281 260.945312 Z M 42.464844 299.703125 C 45.167969 298.398438 47.589844 295.722656 47.589844 292.734375 L 47.589844 291.84375 C 47.589844 290.289062 46.160156 288.546875 44.246094 288.546875 L 42.058594 288.550781 L 42.058594 292.222656 C 42.058594 294.960938 42.195312 297.457031 42.464844 299.703125 Z M 39.558594 287.300781 C 39.558594 272.492188 40.96875 262.464844 44.003906 255.734375 C 47.367188 248.265625 52.867188 244.632812 60.8125 244.632812 L 156.832031 244.632812 C 170.851562 244.632812 175.59375 247.398438 180.183594 250.074219 C 183.878906 252.226562 187.035156 255.171875 189.574219 258.824219 C 189.589844 258.84375 189.609375 258.867188 189.625 258.890625 C 189.625 258.894531 189.628906 258.894531 189.628906 258.898438 C 189.632812 258.902344 189.632812 258.90625 189.636719 258.90625 C 196.238281 268.464844 197.226562 280.863281 197.226562 287.40625 L 197.226562 295.066406 C 197.226562 295.082031 197.230469 295.101562 197.230469 295.121094 C 197.230469 295.140625 197.226562 295.15625 197.226562 295.175781 L 197.226562 309.347656 C 197.226562 313.65625 193.609375 317.027344 188.988281 317.027344 L 175.640625 317.027344 C 174.203125 321.214844 170.226562 324.238281 165.554688 324.238281 C 160.878906 324.238281 156.902344 321.214844 155.464844 317.027344 L 84.03125 317.027344 C 82.59375 321.214844 78.617188 324.238281 73.941406 324.238281 C 69.269531 324.238281 65.292969 321.214844 63.851562 317.027344 L 53.21875 317.027344 C 49.359375 317.027344 46.113281 315.269531 43.832031 311.941406 C 42.113281 309.441406 40.914062 306.015625 40.230469 301.71875 C 40.214844 301.652344 40.203125 301.589844 40.199219 301.523438 C 39.773438 298.773438 39.558594 295.671875 39.558594 292.222656 L 39.558594 287.300781 "/></g><path style=" stroke:none;fill-rule:nonzero;fill:#3e473a;fill-opacity:1;" d="M 155.40625 286.089844 L 159.496094 286.089844 C 160.1875 286.089844 160.746094 286.648438 160.746094 287.339844 C 160.746094 288.03125 160.1875 288.59375 159.496094 288.59375 L 155.40625 288.59375 C 154.714844 288.59375 154.15625 288.03125 154.15625 287.339844 C 154.15625 286.648438 154.714844 286.089844 155.40625 286.089844 "/><path style=" stroke:none;fill-rule:nonzero;fill:#3e473a;fill-opacity:1;" d="M 165.554688 315.117188 C 166.40625 315.117188 167.101562 314.421875 167.101562 313.570312 C 167.101562 312.71875 166.40625 312.023438 165.554688 312.023438 C 164.699219 312.023438 164.007812 312.71875 164.007812 313.570312 C 164.007812 314.421875 164.699219 315.117188 165.554688 315.117188 Z M 165.554688 309.519531 C 167.789062 309.519531 169.601562 311.335938 169.601562 313.570312 C 169.601562 315.804688 167.789062 317.621094 165.554688 317.621094 C 163.320312 317.621094 161.503906 315.804688 161.503906 313.570312 C 161.503906 311.335938 163.320312 309.519531 165.554688 309.519531 "/><path style=" stroke:none;fill-rule:nonzero;fill:#3e473a;fill-opacity:1;" d="M 73.941406 315.117188 C 74.796875 315.117188 75.488281 314.421875 75.488281 313.570312 C 75.488281 312.71875 74.796875 312.023438 73.941406 312.023438 C 73.089844 312.023438 72.394531 312.71875 72.394531 313.570312 C 72.394531 314.421875 73.089844 315.117188 73.941406 315.117188 Z M 73.941406 309.519531 C 76.175781 309.519531 77.992188 311.335938 77.992188 313.570312 C 77.992188 315.804688 76.175781 317.621094 73.941406 317.621094 C 71.710938 317.621094 69.894531 315.804688 69.894531 313.570312 C 69.894531 311.335938 71.710938 309.519531 73.941406 309.519531 "/><path style=" stroke:none;fill-rule:nonzero;fill:#3e473a;fill-opacity:1;" d="M 51.542969 278.015625 C 52.03125 278.570312 52.660156 278.875 53.3125 278.875 L 78.386719 278.875 L 78.386719 261.078125 L 57.367188 261.078125 C 54.527344 261.078125 52.0625 263.675781 51.636719 267.121094 L 50.671875 274.960938 C 50.53125 276.097656 50.855469 277.238281 51.542969 278.015625 Z M 142.207031 277.164062 L 142.207031 262.792969 C 142.207031 261.863281 141.636719 261.078125 140.957031 261.078125 L 113.738281 261.078125 L 113.738281 278.875 L 140.957031 278.875 C 141.636719 278.875 142.207031 278.089844 142.207031 277.164062 Z M 80.890625 261.078125 L 80.890625 278.875 L 111.238281 278.875 L 111.238281 261.078125 Z M 49.664062 279.671875 C 48.496094 278.351562 47.957031 276.519531 48.1875 274.65625 L 49.152344 266.8125 C 49.730469 262.117188 53.261719 258.578125 57.367188 258.578125 L 79.355469 258.578125 C 79.449219 258.554688 79.542969 258.539062 79.640625 258.539062 C 79.738281 258.539062 79.832031 258.554688 79.921875 258.578125 L 112.207031 258.578125 C 112.296875 258.554688 112.390625 258.539062 112.488281 258.539062 C 112.585938 258.539062 112.679688 258.554688 112.773438 258.578125 L 140.957031 258.578125 C 143.027344 258.578125 144.710938 260.46875 144.710938 262.792969 L 144.710938 277.164062 C 144.710938 279.488281 143.027344 281.378906 140.957031 281.378906 L 53.3125 281.378906 C 51.933594 281.378906 50.640625 280.773438 49.664062 279.671875 "/><path style=" stroke:none;fill-rule:nonzero;fill:#3e473a;fill-opacity:1;" d="M 151.699219 277.164062 C 151.699219 278.089844 152.273438 278.875 152.949219 278.875 L 174.808594 278.875 C 175.539062 278.875 176.03125 278.390625 176.253906 278.101562 C 176.816406 277.390625 177.019531 276.351562 176.785156 275.394531 L 175.539062 270.289062 C 174.1875 264.734375 169.890625 260.851562 165.089844 260.851562 L 152.949219 260.851562 C 152.273438 260.851562 151.699219 261.640625 151.699219 262.566406 Z M 152.949219 258.351562 L 165.089844 258.351562 C 171.046875 258.351562 176.34375 263.015625 177.972656 269.695312 L 179.21875 274.804688 C 179.632812 276.515625 179.265625 278.324219 178.222656 279.648438 C 177.359375 280.746094 176.117188 281.378906 174.808594 281.378906 L 152.949219 281.378906 C 150.878906 281.378906 149.195312 279.488281 149.195312 277.164062 L 149.195312 262.566406 C 149.195312 260.242188 150.878906 258.351562 152.949219 258.351562 "/><path style=" stroke:none;fill-rule:nonzero;fill:#3e473a;fill-opacity:1;" d="M 147.070312 283.390625 C 147.761719 283.390625 148.320312 283.953125 148.320312 284.644531 L 148.320312 309.042969 C 148.320312 309.734375 147.761719 310.296875 147.070312 310.296875 C 146.378906 310.296875 145.816406 309.734375 145.816406 309.042969 L 145.816406 284.644531 C 145.816406 283.953125 146.378906 283.390625 147.070312 283.390625 "/></g></svg>