<svg xmlns="http://www.w3.org/2000/svg" xmlns:xlink="http://www.w3.org/1999/xlink" width="500" zoomAndPan="magnify" viewBox="0 0 375 201.000001" height="268" preserveAspectRatio="xMidYMid meet" version="1.2"><defs/><g id="6daeb84565"><g style="fill:#3e473a;fill-opacity:1;"><g transform="translate(113.300849, 144.643597)"><path style="stroke:none" d="M 1.34375 -1.375 C 1.664062 -1.375 1.78125 -1.222656 1.6875 -0.921875 C 1.644531 -0.796875 1.59375 -0.679688 1.53125 -0.578125 C 1.488281 -0.484375 1.421875 -0.421875 1.328125 -0.390625 C 1.234375 -0.367188 1.132812 -0.378906 1.03125 -0.421875 C 0.9375 -0.453125 0.890625 -0.507812 0.890625 -0.59375 C 0.878906 -0.726562 0.878906 -0.867188 0.890625 -1.015625 C 0.921875 -1.273438 1.070312 -1.394531 1.34375 -1.375 Z M 1.34375 -1.375 "/></g></g><path style=" stroke:none;fill-rule:nonzero;fill:#3e473a;fill-opacity:1;" d="M 84.9375 139.949219 C 80.308594 141.328125 75.679688 142.707031 71.050781 144.09375 C 68.148438 144.960938 65.167969 145.191406 62.160156 145.199219 C 61.6875 145.199219 61.097656 145.113281 61.074219 144.5 C 61.050781 143.871094 61.648438 143.828125 62.109375 143.765625 C 63.550781 143.582031 65.003906 143.503906 66.429688 143.230469 C 81.039062 140.429688 94.265625 135.035156 104.160156 123.304688 C 105.277344 121.976562 106.574219 120.773438 107.914062 119.679688 C 109.347656 118.503906 110.710938 117.417969 111.332031 115.523438 C 111.800781 114.089844 113.179688 113.324219 114.535156 112.734375 C 116.511719 111.875 118.597656 111.4375 120.742188 111.394531 C 125.1875 111.300781 128.628906 109.039062 131.910156 106.390625 C 132.476562 105.929688 132.84375 105.460938 132.675781 104.664062 C 131.988281 101.445312 133.878906 99.8125 136.445312 98.632812 C 137.152344 98.3125 137.855469 97.914062 138.609375 97.789062 C 140.722656 97.453125 141.167969 96.089844 141.082031 94.195312 C 139.964844 93.804688 139.199219 94.402344 138.425781 94.929688 C 137.050781 95.882812 135.527344 96.503906 133.925781 96.902344 C 132.007812 97.367188 130.1875 97.222656 129.074219 95.328125 C 128.382812 94.164062 127.550781 94.164062 126.375 94.394531 C 118.957031 95.859375 111.675781 97.683594 104.695312 100.710938 C 99.722656 102.863281 94.371094 103.171875 89 102.855469 C 88.089844 102.800781 87.085938 102.878906 85.882812 101.707031 C 87.925781 101.707031 89.429688 101.683594 90.9375 101.714844 C 95.960938 101.796875 100.742188 100.710938 105.339844 98.753906 C 111.070312 96.320312 116.988281 94.609375 123.210938 93.949219 C 125.625 93.699219 127.832031 92.570312 130.109375 91.75 C 130.859375 91.484375 131.21875 91.03125 131.050781 90.21875 C 130.851562 89.238281 130.207031 89.054688 129.320312 89.167969 C 126.820312 89.496094 124.324219 89.75 121.824219 90.09375 C 117.210938 90.730469 112.558594 90.863281 107.914062 90.992188 C 102.050781 91.160156 96.378906 92.289062 90.886719 94.289062 C 89.144531 94.921875 87.660156 96.042969 86.148438 97.09375 C 80.675781 100.925781 75.136719 104.664062 69.765625 108.625 C 64.421875 112.566406 58.308594 114.183594 51.914062 114.925781 C 38.089844 116.542969 24.273438 116.097656 10.476562 114.457031 C 7.894531 114.152344 6.90625 113.746094 5.144531 112.636719 C 5.304688 111.945312 5.863281 112.113281 6.285156 112.183594 C 10.308594 112.839844 14.363281 113.035156 18.433594 113.179688 C 23.46875 113.355469 28.488281 113.691406 33.523438 113.851562 C 40.503906 114.074219 47.46875 113.792969 54.375 112.71875 C 59.703125 111.890625 64.636719 110.027344 69.082031 106.878906 C 73.503906 103.738281 78.101562 100.847656 82.472656 97.636719 C 88.847656 92.953125 96.089844 90.839844 103.808594 90.011719 C 107.851562 89.582031 111.914062 89.328125 115.992188 89.375 C 119.679688 89.414062 123.351562 89.214844 127.003906 88.816406 C 128.046875 88.699219 129.113281 88.65625 130.039062 87.804688 C 129.082031 85.257812 127.617188 83.023438 126.0625 80.792969 C 122.292969 75.394531 118.566406 69.976562 116.574219 63.570312 C 114.527344 56.988281 114.191406 50.480469 116.628906 43.921875 C 117.710938 41.015625 118.660156 38.058594 120.101562 35.316406 C 125.59375 24.855469 131.988281 14.90625 137.804688 4.636719 C 139.820312 1.074219 142.425781 0 146.363281 0.359375 C 160.726562 1.671875 173.953125 6.140625 186.078125 13.949219 C 188.023438 15.203125 188.945312 16.835938 188.980469 19.234375 C 189.179688 31.820312 189.328125 44.410156 188.308594 56.964844 C 187.273438 69.75 180.335938 78.453125 168.863281 83.726562 C 163.59375 86.148438 158.121094 88.148438 152.945312 90.808594 C 151.757812 91.421875 150.609375 92.117188 149.605469 92.6875 C 149.367188 93.820312 150.132812 94.125 150.519531 94.625 C 151.996094 96.5625 153.222656 98.648438 154.019531 100.957031 C 155.332031 104.734375 153.9375 107.976562 150.164062 109.386719 C 148.714844 109.929688 148.242188 110.605469 148.304688 112.074219 C 148.464844 115.761719 147.492188 118.996094 144.179688 121.109375 C 143.390625 121.609375 143.296875 122.222656 143.421875 123.082031 C 143.589844 124.320312 143.726562 125.601562 143.628906 126.835938 C 143.328125 130.4375 141.910156 133.378906 138.316406 134.8125 C 137.257812 135.234375 136.453125 135.664062 136.578125 137.058594 C 136.953125 141.488281 133.011719 145.75 128.070312 146.578125 C 127.59375 146.65625 127.097656 146.882812 126.644531 146.816406 C 123.578125 146.371094 122.714844 148.242188 122.085938 150.746094 C 120.957031 155.246094 119.417969 159.636719 118.414062 164.175781 C 118.328125 164.550781 118.167969 164.894531 117.730469 165.0625 C 116.597656 164.195312 117.25 163.132812 117.496094 162.164062 C 118.734375 157.191406 120.015625 152.234375 121.289062 147.261719 C 121.1875 147.136719 121.089844 146.875 120.964844 146.867188 C 119.332031 146.714844 117.511719 145.6875 116.167969 146.394531 C 114.78125 147.128906 114.902344 149.289062 114.304688 150.800781 C 112.78125 154.671875 111.394531 158.59375 109.90625 162.488281 C 109.578125 163.355469 109.410156 164.367188 108.304688 165.101562 C 108.152344 163.5 108.644531 162.160156 108.8125 160.792969 C 108.925781 159.851562 108.703125 159.359375 107.683594 159.199219 C 103.238281 158.480469 98.871094 158.347656 94.511719 159.898438 C 89.253906 161.757812 88.179688 165.292969 91.152344 170.144531 C 92.910156 173.019531 95.589844 174.902344 98.566406 176.464844 C 105.433594 180.070312 112.695312 182.328125 120.4375 182.765625 C 125.105469 183.035156 129.703125 182.335938 134.171875 180.867188 C 134.777344 180.667969 135.320312 180.136719 136.308594 180.527344 C 134.339844 182.460938 131.964844 183.117188 129.542969 183.609375 C 117.179688 186.101562 106.023438 182.675781 95.316406 176.75 C 92.089844 174.964844 89.867188 172.519531 88.488281 169.171875 C 86.695312 164.800781 88.730469 161.054688 92.097656 159.390625 C 96.304688 157.316406 100.625 157.070312 105.117188 157.621094 C 106.550781 157.796875 108.246094 158.570312 109.332031 158.050781 C 110.78125 157.351562 110.765625 155.238281 111.285156 153.703125 C 112.074219 151.421875 112.605469 149.054688 113.210938 146.714844 C 113.601562 145.207031 113.15625 144.339844 112.113281 143.464844 C 111.300781 142.785156 110.382812 142.203125 109.90625 141.207031 C 108.863281 139.042969 109.25 137.847656 111.855469 135.28125 C 111.070312 134.507812 109.992188 134.398438 109.070312 134.015625 C 107.042969 133.167969 105.675781 131.847656 105.484375 129.527344 C 105.277344 127.097656 106.089844 125.195312 108.113281 123.769531 C 109.332031 122.910156 110.726562 122.597656 112.097656 122.214844 C 112.113281 121.066406 111.148438 120.519531 110.949219 119.683594 C 109.9375 119.464844 109.59375 120.175781 109.164062 120.621094 C 107.339844 122.492188 105.46875 124.328125 103.777344 126.324219 C 99.4375 131.425781 94.289062 135.410156 88.1875 138.195312 C 87.046875 138.714844 85.980469 139.382812 84.878906 139.980469 Z M 119.753906 116.144531 C 118.382812 116.335938 117.109375 115.648438 115.761719 115.667969 C 114.703125 115.691406 113.585938 115.632812 112.988281 116.765625 C 112.414062 117.863281 112.8125 119.449219 113.738281 120.488281 C 115.273438 122.207031 116.972656 121.632812 118.75 121.035156 C 120.707031 120.382812 121.089844 118.957031 120.851562 117.15625 C 122.160156 118.589844 122.269531 119.078125 121.210938 120.183594 C 120.460938 120.972656 119.554688 121.609375 118.382812 122.605469 C 122.078125 123.109375 125.335938 123.378906 128.605469 123.59375 C 132.460938 123.847656 136.0625 123.097656 139.671875 121.800781 C 144.410156 120.097656 146.878906 116.910156 147.207031 111.890625 C 147.304688 110.433594 146.894531 110.015625 145.527344 109.96875 C 143.015625 109.882812 140.460938 109.90625 138.054688 109.109375 C 136.660156 108.648438 135.433594 108.789062 134.667969 109.898438 C 132.613281 112.871094 129.773438 112.964844 126.589844 112.640625 C 124.390625 112.421875 122.144531 112.671875 119.925781 112.6875 C 118.742188 112.695312 117.625 113.011719 116.519531 113.355469 C 115.902344 113.546875 115.179688 113.714844 115.21875 114.75 C 116.78125 114.988281 118.542969 114.75 119.753906 116.144531 Z M 160.75 85.058594 C 158.375 85.464844 156.019531 86.003906 153.628906 86.265625 C 145.445312 87.144531 137.773438 85.910156 131.328125 80.292969 C 126.960938 76.492188 123.394531 72 121.25 66.628906 C 119.179688 61.457031 118.351562 56.039062 119.503906 50.414062 C 119.953125 48.199219 121.242188 47.269531 123.195312 46.949219 C 125.964844 46.496094 128.738281 46.058594 131.527344 45.785156 C 145.097656 44.425781 158.585938 44.742188 171.90625 48.019531 C 174.121094 48.566406 174.121094 48.527344 174.390625 46.351562 C 175.058594 40.96875 175.578125 35.582031 175.671875 30.148438 C 175.6875 29.097656 175.523438 27.910156 176.445312 27.070312 C 177.101562 27.460938 177.203125 27.941406 177.21875 28.417969 C 177.289062 30.640625 177.339844 32.863281 177.386719 35.09375 C 177.480469 39.160156 177.058594 43.214844 176.726562 47.261719 C 176.613281 48.726562 176.996094 49.617188 178.46875 50.113281 C 179.648438 50.519531 180.789062 51.109375 181.832031 51.792969 C 184.882812 53.785156 186.117188 56.835938 184.765625 60.0625 C 181.609375 67.625 177.648438 74.683594 170.886719 79.742188 C 170.429688 80.085938 169.800781 80.339844 169.492188 81.574219 C 174.660156 78.621094 178.859375 75.472656 181.785156 70.859375 C 185.433594 65.125 186.589844 58.703125 187.019531 52.058594 C 187.480469 45 187.304688 37.9375 187.34375 30.871094 C 187.359375 27.382812 187.394531 23.902344 187.433594 20.417969 C 187.449219 19.367188 187.351562 18.585938 185.941406 18.484375 C 179.355469 18.019531 172.886719 16.714844 166.535156 15.027344 C 157.476562 12.621094 148.339844 10.238281 140.945312 3.929688 C 140.832031 3.832031 140.585938 3.886719 140.332031 3.863281 C 140.125 4.144531 139.863281 4.4375 139.6875 4.773438 C 135.878906 12.070312 131.625 19.113281 127.410156 26.179688 C 123.328125 33.03125 120.085938 40.242188 118.015625 47.960938 C 117.441406 50.121094 116.964844 52.3125 117.148438 54.550781 C 117.601562 59.898438 118.796875 65.074219 121.472656 69.792969 C 123.378906 73.160156 125.464844 76.421875 127.386719 79.78125 C 129.242188 83.023438 131.234375 86.210938 132.179688 89.882812 C 132.414062 90.824219 133.007812 90.753906 133.726562 90.632812 C 135.25 90.378906 136.777344 90.058594 138.316406 89.980469 C 140.570312 89.867188 141.859375 90.984375 142.601562 93.113281 C 142.960938 94.148438 142.632812 95.222656 142.808594 96.417969 C 147.675781 90.457031 154.777344 88.683594 160.75 85.058594 Z M 182.660156 58.667969 C 180.605469 59.59375 178.636719 59.890625 176.636719 59.976562 C 175.640625 60.015625 175.050781 60.566406 174.851562 61.5625 C 174.734375 62.128906 174.574219 62.691406 174.414062 63.25 C 173.59375 66.132812 172.804688 69.027344 171.667969 71.808594 C 171.386719 72.5 171.164062 73.585938 170.253906 73.328125 C 169.277344 73.050781 169.808594 72.070312 169.984375 71.371094 C 170.152344 70.714844 170.375 70.078125 170.542969 69.417969 C 171.164062 66.980469 171.769531 64.542969 172.390625 62.105469 C 172.660156 61.050781 172.390625 60.40625 171.164062 60.453125 C 170.582031 60.476562 170 60.429688 169.425781 60.453125 C 161.246094 60.695312 153.207031 59.617188 145.253906 57.871094 C 137.335938 56.128906 129.25 55.003906 121.832031 51.4375 C 120.859375 50.972656 120.621094 51.617188 120.550781 52.359375 C 120.382812 54.207031 120.652344 56.023438 120.957031 57.839844 C 121.679688 62.144531 122.414062 66.628906 124.714844 70.253906 C 127.941406 75.335938 132.378906 79.519531 138.125 81.855469 C 145.980469 85.054688 154.050781 85.320312 161.898438 82.140625 C 171.085938 78.410156 177.417969 71.496094 181.617188 62.605469 C 182.117188 61.515625 182.644531 60.34375 182.660156 58.667969 Z M 121.878906 49.03125 C 123.761719 50.65625 125.765625 51.085938 127.6875 51.59375 C 139.28125 54.652344 150.992188 57.117188 162.980469 58.070312 C 165.777344 58.289062 168.566406 58.589844 171.378906 58.589844 C 172.558594 58.589844 173.164062 58.175781 173.273438 56.957031 C 173.410156 55.316406 173.59375 53.683594 173.847656 52.058594 C 174.078125 50.582031 173.402344 49.898438 172.039062 49.683594 C 171.65625 49.625 171.285156 49.492188 170.910156 49.410156 C 157.546875 46.457031 144.019531 46.34375 130.460938 47.230469 C 127.695312 47.414062 124.867188 47.644531 121.878906 49.03125 Z M 115.164062 130.84375 C 115.308594 127.703125 115.140625 127.441406 112.191406 126.558594 C 111.824219 126.453125 111.449219 126.328125 111.070312 126.261719 C 109.855469 126.046875 108.480469 125.519531 107.515625 126.605469 C 106.457031 127.792969 106.765625 129.363281 107.070312 130.765625 C 107.378906 132.183594 108.664062 132.621094 109.890625 132.960938 C 113.714844 134.015625 117.59375 134.859375 121.539062 135.195312 C 126.460938 135.617188 131.398438 135.792969 136.171875 134.109375 C 141.097656 132.367188 142.882812 129.59375 142.5 124.414062 C 142.363281 122.605469 142.242188 122.511719 140.355469 122.980469 C 136.617188 123.921875 132.898438 125.089844 128.96875 124.742188 C 124.644531 124.359375 120.285156 124.527344 116.007812 123.554688 C 113.609375 123.011719 111.332031 123.386719 108.949219 125.171875 C 110.496094 125.457031 111.609375 125.609375 112.703125 125.863281 C 115.753906 126.589844 116.222656 127.535156 115.164062 130.84375 Z M 185.195312 16.03125 C 176.605469 7.894531 151.820312 0.238281 142.265625 2.636719 C 155.261719 11.242188 169.808594 14.992188 185.195312 16.03125 Z M 124.675781 145.519531 C 126.308594 145.34375 127.957031 145.375 129.550781 144.898438 C 132.414062 144.042969 135.199219 140.628906 135.414062 137.648438 C 135.519531 136.171875 135.28125 135.863281 133.824219 136.085938 C 127.949219 136.996094 122.09375 136.652344 116.230469 135.878906 C 114 135.585938 111.484375 136.992188 111.027344 138.652344 C 110.613281 140.171875 111.832031 142.085938 113.886719 143.230469 C 117.257812 145.113281 120.921875 145.550781 124.675781 145.519531 Z M 133.886719 103.507812 C 135.621094 102.957031 136.667969 102.464844 137.765625 102.304688 C 139 102.121094 140.277344 102.136719 141.519531 102.242188 C 144.707031 102.527344 145.933594 104.375 145.0625 107.414062 C 144.9375 107.835938 144.472656 108.242188 145.046875 108.75 C 146.148438 108.664062 147.320312 108.679688 148.449219 108.464844 C 151.53125 107.867188 153.546875 104.925781 152.753906 102.035156 C 152.011719 99.316406 150.59375 96.878906 149 94.554688 C 148.65625 94.050781 148.21875 93.71875 147.535156 93.988281 C 146.296875 94.472656 145.304688 95.167969 144.730469 96.65625 C 148.832031 95.941406 148.832031 95.941406 150.433594 99.957031 C 147.445312 99.628906 144.914062 97.359375 141.734375 98.441406 C 138.882812 99.414062 135.933594 100.074219 133.886719 103.507812 Z M 175.691406 56.621094 C 175.632812 58.429688 175.832031 58.667969 177.25 58.320312 C 178.542969 58.007812 179.855469 57.722656 181.148438 57.402344 C 183.171875 56.902344 183.535156 55.0625 181.9375 53.753906 C 181.132812 53.09375 180.167969 52.605469 179.226562 52.152344 C 176.925781 51.054688 176.183594 50.582031 176.113281 53.730469 C 176.078125 54.78125 175.808594 55.824219 175.691406 56.621094 Z M 140.070312 103.492188 C 138.640625 103.539062 137.167969 103.476562 135.933594 104.402344 C 134.824219 105.238281 134.753906 106.183594 135.8125 107 C 137.472656 108.28125 139.414062 108.804688 141.496094 108.605469 C 142.824219 108.472656 143.964844 107.117188 143.988281 105.84375 C 144.011719 104.585938 143.183594 103.8125 141.511719 103.570312 C 141.039062 103.5 140.554688 103.515625 140.070312 103.492188 Z M 130.078125 93.8125 C 130.792969 95.328125 131.78125 95.914062 133.191406 95.636719 C 135.007812 95.277344 136.675781 94.511719 138.277344 93.628906 C 138.839844 93.3125 139.519531 92.777344 139.253906 92.042969 C 138.984375 91.328125 138.171875 91.269531 137.488281 91.421875 C 135.050781 91.980469 132.621094 92.59375 130.078125 93.8125 Z M 128.171875 110.871094 C 129.992188 111.515625 131.203125 111.484375 132.015625 110 C 132.492188 109.125 133.035156 108.382812 134.246094 108.589844 C 134.636719 108.65625 135.023438 108.3125 134.867188 107.882812 C 134.753906 107.5625 134.421875 107.261719 134.117188 107.085938 C 133.617188 106.796875 133.21875 107.171875 132.835938 107.453125 C 131.375 108.519531 129.917969 109.59375 128.171875 110.871094 Z M 128.171875 110.871094 "/><path style=" stroke:none;fill-rule:nonzero;fill:#3e473a;fill-opacity:1;" d="M 1.058594 160.808594 C 22.671875 152.648438 44.8125 152.945312 67.34375 156.855469 C 66.371094 158.164062 65.179688 157.714844 64.085938 157.636719 C 58.007812 157.222656 51.9375 156.792969 45.867188 156.371094 C 33.898438 155.550781 22.15625 157.230469 10.46875 159.53125 C 7.367188 160.136719 4.316406 161.125 1.058594 160.808594 Z M 1.058594 160.808594 "/><path style=" stroke:none;fill-rule:nonzero;fill:#3e473a;fill-opacity:1;" d="M 109.785156 147.871094 C 107.660156 148.464844 105.867188 148.671875 104.050781 148.707031 C 96.242188 148.882812 88.6875 150.265625 81.527344 153.492188 C 80.449219 153.980469 79.359375 154.304688 78.179688 153.789062 C 83.429688 149.054688 100.011719 145.871094 109.785156 147.871094 Z M 109.785156 147.871094 "/><path style=" stroke:none;fill-rule:nonzero;fill:#3e473a;fill-opacity:1;" d="M 92.910156 168.863281 C 99.109375 173.253906 106.265625 175.46875 113.21875 178.199219 C 110.765625 179.132812 108.597656 178.121094 106.441406 177.371094 C 98.75 174.703125 94.625 172.144531 92.910156 168.863281 Z M 92.910156 168.863281 "/><path style=" stroke:none;fill-rule:nonzero;fill:#3e473a;fill-opacity:1;" d="M 84.886719 139.996094 C 85.644531 139.878906 86.058594 140.230469 85.820312 140.953125 C 85.484375 141.949219 85.03125 142.921875 84.546875 143.863281 C 82.824219 147.222656 80.085938 149.644531 77.039062 151.734375 C 76.261719 152.273438 75.367188 152.679688 73.734375 152.296875 C 78.921875 149.121094 82.148438 144.707031 84.945312 139.941406 C 84.9375 139.949219 84.886719 139.996094 84.886719 139.996094 Z M 84.886719 139.996094 "/><path style=" stroke:none;fill-rule:nonzero;fill:#3e473a;fill-opacity:1;" d="M 120.167969 161.796875 C 120.492188 161.492188 120.875 161.5 121.242188 161.628906 C 125.710938 163.246094 130.078125 165.0625 133.796875 168.121094 C 136.210938 170.105469 137.628906 172.6875 138.226562 175.730469 C 138.277344 176.007812 138.277344 176.3125 138.242188 176.597656 C 138.21875 176.75 138.070312 176.886719 137.980469 177.035156 C 137.613281 177.003906 137.480469 176.71875 137.4375 176.445312 C 136.714844 172.066406 133.847656 169.292969 130.378906 166.980469 C 127.710938 165.191406 124.78125 163.929688 121.792969 162.800781 C 121.195312 162.558594 120.4375 162.585938 120.167969 161.796875 Z M 120.167969 161.796875 "/><path style=" stroke:none;fill-rule:nonzero;fill:#3e473a;fill-opacity:1;" d="M 114.503906 100.65625 C 116.191406 101.914062 116.621094 103.582031 116.476562 106.105469 C 114.597656 104.320312 114.382812 102.550781 114.503906 100.65625 Z M 114.503906 100.65625 "/><path style=" stroke:none;fill-rule:nonzero;fill:#3e473a;fill-opacity:1;" d="M 108.75 168.648438 C 110.726562 169.492188 112.867188 169.652344 115.074219 170.242188 C 112.613281 171.371094 110.652344 170.894531 108.75 168.648438 Z M 108.75 168.648438 "/><path style=" stroke:none;fill-rule:nonzero;fill:#3e473a;fill-opacity:1;" d="M 118.691406 102.203125 C 117.378906 101.246094 116.039062 100.265625 116.328125 97.9375 C 117.863281 99.191406 118.40625 100.617188 118.691406 102.203125 Z M 118.691406 102.203125 "/><path style=" stroke:none;fill-rule:nonzero;fill:#3e473a;fill-opacity:1;" d="M 105.652344 139.632812 C 104.207031 140.164062 102.734375 140.15625 101.253906 139.632812 C 102.726562 139.632812 104.191406 139.632812 105.652344 139.632812 Z M 105.652344 139.632812 "/><path style=" stroke:none;fill-rule:nonzero;fill:#3e473a;fill-opacity:1;" d="M 128.796875 36.679688 C 128.199219 34.777344 129.21875 33.300781 129.917969 31.796875 C 132.890625 25.382812 135.457031 18.722656 140.339844 13.375 C 140.816406 13.75 140.832031 14.070312 140.691406 14.300781 C 136.371094 21.566406 132.691406 29.175781 128.796875 36.679688 Z M 128.796875 36.679688 "/><path style=" stroke:none;fill-rule:nonzero;fill:#3e473a;fill-opacity:1;" d="M 129.480469 42.785156 C 129.058594 39.285156 134.132812 28.640625 137.457031 25.796875 C 134.882812 31.5 132.410156 37.253906 129.480469 42.785156 Z M 129.480469 42.785156 "/><path style=" stroke:none;fill-rule:nonzero;fill:#3e473a;fill-opacity:1;" d="M 178.914062 45.324219 C 179.71875 39.828125 179.355469 34.878906 180.398438 29.597656 C 182.0625 31.328125 181.539062 33.101562 181.539062 34.664062 C 181.5625 40.097656 180.882812 43.0625 178.914062 45.324219 Z M 178.914062 45.324219 "/><path style=" stroke:none;fill-rule:nonzero;fill:#3e473a;fill-opacity:1;" d="M 113.164062 137.78125 C 115.28125 137.335938 116.941406 137.527344 118.542969 138.117188 C 120.699219 138.90625 121.25 141.878906 119.585938 143.542969 C 119.25 143.878906 118.835938 144.195312 118.359375 143.757812 C 118.007812 143.4375 118.230469 143.097656 118.382812 142.738281 C 119.488281 140.109375 119.171875 139.511719 116.421875 138.851562 C 115.457031 138.613281 114.367188 138.707031 113.164062 137.78125 Z M 113.164062 137.78125 "/><path style=" stroke:none;fill-rule:nonzero;fill:#3e473a;fill-opacity:1;" d="M 273.542969 127.871094 C 276.976562 130 280.902344 130.875 284.632812 132.261719 C 285.800781 132.699219 287.125 132.652344 288.398438 133.535156 C 287.578125 134.046875 286.824219 133.925781 286.152344 133.816406 C 281.109375 133.027344 276.417969 131.433594 271.851562 128.980469 C 264.730469 125.15625 259.175781 119.648438 253.609375 114.039062 C 251.757812 112.167969 249.863281 110.335938 247.957031 108.511719 C 247.570312 108.144531 247.242188 107.5625 246.308594 107.8125 C 246.804688 109.546875 248.308594 110.863281 248.53125 113.371094 C 246.90625 110.964844 245.703125 109.003906 244.078125 107.363281 C 241.433594 104.703125 239.632812 104.957031 237.769531 108.226562 C 237.171875 109.269531 237.164062 110.273438 237.648438 111.292969 C 238.804688 113.722656 240.4375 115.769531 242.730469 117.210938 C 244.652344 118.421875 245.433594 118.382812 248.292969 117.226562 C 247.042969 119.265625 245.320312 119.449219 243.402344 118.949219 C 240.996094 118.328125 239.363281 116.660156 237.976562 114.726562 C 237.578125 114.175781 237.273438 113.554688 236.964844 112.949219 C 235.25 109.515625 235.472656 108.382812 238.3125 105.828125 C 238.660156 105.523438 239.148438 105.347656 239.289062 104.824219 C 235.976562 105.117188 233.59375 108.375 234.160156 111.851562 C 234.453125 113.601562 235.140625 115.210938 236.054688 116.734375 C 239.632812 122.742188 244.085938 128 249.503906 132.429688 C 251.617188 134.15625 253.6875 135.941406 255.839844 137.625 C 259.8125 140.738281 262.441406 144.832031 264.242188 149.421875 C 268.410156 160.066406 274.570312 169.070312 284.503906 175.15625 C 284.941406 175.425781 285.601562 175.59375 285.578125 176.726562 C 283.683594 175.652344 281.875 174.765625 280.21875 173.660156 C 274.339844 169.746094 269.707031 164.664062 266.402344 158.417969 C 264.855469 155.492188 263.34375 152.539062 262.085938 149.460938 C 261.089844 147.007812 259.757812 144.699219 257.980469 142.738281 C 252.875 137.097656 247.058594 132.207031 241.332031 127.179688 C 240.277344 128.109375 240.875 128.78125 241.402344 129.503906 C 242.941406 131.632812 244.292969 133.855469 245.089844 136.984375 C 243.140625 133.957031 241.519531 131.378906 239.839844 128.84375 C 239.425781 128.214844 239.304688 127.570312 239.441406 126.898438 C 239.785156 125.1875 238.964844 123.914062 238.046875 122.605469 C 236.925781 121.011719 235.921875 119.332031 234.902344 117.667969 C 234.082031 116.328125 233.171875 114.871094 233.164062 113.371094 C 233.140625 110.105469 230.988281 108.390625 228.863281 106.601562 C 224.757812 103.148438 220.511719 99.859375 216.671875 96.089844 C 215.558594 94.992188 214.425781 93.914062 213.316406 92.824219 C 207.519531 87.152344 204.425781 80.164062 202.96875 72.261719 C 201.765625 65.769531 202.5625 59.441406 203.75 53.085938 C 205.890625 41.667969 208.402344 30.355469 212.042969 19.304688 C 213.167969 15.886719 214.019531 12.363281 214.761719 8.835938 C 215.078125 7.328125 215.8125 6.714844 217.148438 6.316406 C 220.382812 5.347656 223.730469 5.527344 227.019531 5.257812 C 235.886719 4.535156 244.765625 4.980469 253.640625 5.257812 C 257.335938 5.371094 261.023438 5.878906 264.617188 6.890625 C 266.28125 7.355469 267.207031 8.148438 267.628906 9.957031 C 271.121094 24.960938 274.925781 39.898438 277.589844 55.085938 C 278.710938 61.464844 278.894531 67.902344 278.304688 74.347656 C 277.757812 80.253906 275.078125 85.34375 271.71875 90.101562 C 269.351562 93.460938 266.664062 96.5625 263.519531 99.230469 C 260.402344 101.890625 257.574219 104.878906 254.140625 107.164062 C 253.816406 107.378906 253.511719 107.628906 253.488281 108.074219 C 253.925781 108.75 254.644531 108.75 255.3125 108.75 C 258.632812 108.765625 261.957031 108.980469 265.253906 108.511719 C 270.679688 107.738281 275.484375 108.957031 279.722656 112.511719 C 282.863281 115.148438 285.914062 117.882812 288.765625 120.835938 C 294.261719 126.527344 300.128906 131.824219 306.316406 136.746094 C 311.703125 141.027344 317.757812 144.035156 324.523438 145.71875 C 332.800781 147.78125 341.214844 148.5 349.660156 149.261719 C 354.703125 149.710938 359.738281 150.363281 364.796875 150.769531 C 365.242188 150.808594 365.800781 150.691406 366.117188 151.328125 C 364.789062 151.796875 363.433594 151.703125 362.101562 151.695312 C 354.972656 151.660156 347.84375 151.652344 340.726562 151.519531 C 327.367188 151.285156 315.625 146.875 305.335938 138.230469 C 298.230469 132.261719 291.234375 126.214844 284.957031 119.363281 C 282.710938 116.910156 280.136719 114.8125 277.53125 112.75 C 274.65625 110.480469 271.335938 109.371094 267.734375 109.429688 C 262.65625 109.507812 257.589844 109.339844 252.515625 109.179688 C 252.054688 109.164062 251.550781 109.046875 251.175781 109.460938 C 251.175781 109.652344 251.097656 109.90625 251.183594 110 C 256.402344 115.253906 261.328125 120.828125 267.414062 125.148438 C 268.523438 125.9375 269.683594 126.683594 270.871094 127.347656 C 271.699219 127.808594 272.5625 128.390625 273.613281 127.9375 Z M 216.933594 91.113281 C 217.175781 91.246094 217.484375 91.3125 217.667969 91.503906 C 224.8125 98.886719 233.5625 102.257812 243.746094 101.738281 C 249.832031 101.421875 255.496094 99.582031 260.070312 95.398438 C 265.894531 90.066406 270.140625 83.535156 273.5 76.414062 C 274.164062 75.003906 274.5625 73.472656 274.457031 71.878906 C 274.347656 70.300781 274.003906 70.0625 272.472656 70.574219 C 270.25 71.320312 268.027344 72.0625 265.710938 72.429688 C 247.242188 75.367188 228.726562 76.746094 210.117188 73.871094 C 208.914062 73.6875 208.777344 74.339844 208.609375 75.082031 C 208.363281 76.171875 208.769531 77.210938 209.109375 78.210938 C 209.957031 80.714844 211.230469 83.015625 212.71875 85.207031 C 213.253906 85.996094 214.074219 86.648438 214.121094 87.710938 C 210.488281 84.507812 208.449219 80.347656 207.191406 75.800781 C 206.515625 73.367188 207.699219 71.195312 209.964844 70.316406 C 211.867188 69.578125 213.804688 68.8125 215.796875 68.460938 C 220.980469 67.542969 226.175781 66.636719 231.410156 66.101562 C 242.414062 64.972656 253.441406 65.425781 264.449219 66.136719 C 266.679688 66.285156 268.90625 66.652344 271.09375 67.128906 C 274.003906 67.753906 275.136719 69.289062 275.152344 72.277344 C 275.160156 74.261719 274.585938 76.125 273.757812 77.910156 C 271.199219 83.429688 267.902344 88.484375 264.019531 93.144531 C 259.589844 98.441406 254 101.746094 247.042969 102.519531 C 245.578125 102.679688 244.132812 102.902344 242.136719 103.171875 C 243.800781 103.769531 244.867188 104.242188 245.777344 104.988281 C 246.683594 105.722656 247.542969 106.527344 248.429688 107.285156 C 250.355469 108.941406 251.34375 108.832031 253.011719 107.015625 C 254.0625 105.867188 255.25 104.847656 256.402344 103.789062 C 261.074219 99.507812 265.957031 95.4375 269.726562 90.265625 C 272.976562 85.804688 275.730469 81.082031 276.480469 75.519531 C 277.285156 69.601562 277.359375 63.625 276.464844 57.722656 C 275.453125 51.078125 274.1875 44.464844 272.894531 37.867188 C 271.46875 30.59375 269.03125 23.558594 267.574219 16.285156 C 267.121094 14.023438 266.953125 11.671875 266.074219 9.6875 C 249.210938 12.269531 232.589844 12.753906 215.8125 9.011719 C 215.117188 11.832031 214.488281 14.777344 213.667969 17.664062 C 211.023438 26.953125 208.488281 36.257812 206.648438 45.746094 C 205.511719 51.585938 204.050781 57.363281 203.859375 63.347656 C 203.535156 73.210938 206.226562 82.085938 212.839844 89.519531 C 218.933594 96.363281 226.566406 101.613281 232.757812 108.894531 C 233.738281 105.992188 236.023438 104.695312 238.230469 103 C 234.511719 102.042969 231.011719 101.507812 227.824219 99.996094 C 223.460938 97.941406 219.484375 95.390625 216.933594 91.113281 Z M 272.226562 68.835938 C 270.730469 68.007812 269.421875 67.832031 268.097656 67.71875 C 252.707031 66.445312 237.332031 66.222656 221.996094 68.5 C 218.71875 68.988281 215.421875 69.34375 212.3125 70.566406 C 211.34375 70.953125 210.1875 71.066406 209.734375 72.230469 C 210.042969 72.890625 210.648438 72.953125 211.222656 73.019531 C 213.542969 73.320312 215.859375 73.632812 218.203125 73.648438 C 228.734375 73.710938 239.265625 73.800781 249.777344 72.988281 C 255.703125 72.53125 261.636719 72.03125 267.4375 70.644531 C 268.984375 70.285156 270.632812 70.09375 272.226562 68.835938 Z M 264.425781 8.222656 C 257.527344 5.296875 224.609375 5.011719 218.792969 7.6875 C 224.886719 10.238281 258.5 11.210938 264.425781 8.222656 Z M 264.425781 8.222656 "/><path style=" stroke:none;fill-rule:nonzero;fill:#3e473a;fill-opacity:1;" d="M 233.027344 176.621094 C 232.261719 175.875 231.667969 176.097656 231.164062 176.933594 C 230.480469 178.066406 229.792969 179.210938 228.34375 179.714844 C 229.035156 178.726562 229.714844 177.730469 230.40625 176.742188 C 231.078125 175.777344 231.371094 174.894531 230.328125 173.914062 C 226.632812 170.414062 225.777344 165.890625 225.828125 161.0625 C 225.835938 160.074219 225.820312 159.140625 225.210938 158.273438 C 223.394531 155.683594 222.886719 152.722656 222.996094 149.636719 C 223.046875 147.949219 222.847656 146.378906 222.035156 144.847656 C 221.398438 143.640625 221.339844 142.226562 221.324219 140.84375 C 221.269531 137.136719 221.269531 133.425781 221.15625 129.726562 C 221.0625 126.933594 221.96875 124.558594 223.8125 122.511719 C 224.535156 121.714844 225.15625 120.773438 226.015625 120.175781 C 228.605469 118.382812 229.90625 115.945312 230.222656 112.839844 C 230.128906 115.839844 229.753906 118.765625 228.679688 121.570312 L 228.757812 121.648438 C 228.488281 120.957031 229.027344 120.113281 228.25 119.363281 C 226.78125 120.199219 225.882812 121.625 224.742188 122.773438 C 222.703125 124.835938 221.796875 127.257812 221.960938 130.183594 C 222.152344 133.6875 222.136719 137.203125 222.273438 140.714844 C 222.359375 142.875 222.648438 145.039062 224.144531 146.746094 C 226.988281 149.988281 230.074219 152.9375 234.097656 154.703125 L 234.074219 154.632812 C 236.804688 156.917969 239.855469 158.578125 243.402344 159.140625 C 245.640625 159.492188 246.945312 158.65625 246.796875 156.703125 C 246.476562 152.402344 244.980469 148.609375 241.234375 146.027344 C 237.21875 143.257812 233.484375 140.132812 230.351562 136.390625 C 227.929688 133.503906 226.917969 130.117188 228.167969 126.335938 L 228.097656 126.324219 C 228.207031 128.167969 228.097656 130.070312 228.742188 131.816406 C 229.738281 134.515625 231.242188 136.875 234.015625 138.132812 L 233.945312 138.015625 C 235.976562 140.808594 238.726562 142.859375 241.273438 145.121094 C 242.023438 145.789062 243.003906 145.886719 243.992188 145.695312 L 243.894531 145.636719 C 243.519531 146.667969 244.308594 147.253906 244.804688 147.941406 C 246.308594 150.027344 247.335938 152.332031 247.910156 154.824219 C 248.382812 156.878906 248.15625 158.769531 246.140625 159.929688 C 245.226562 160.449219 245.003906 161.140625 245.050781 162.089844 C 245.378906 168.511719 246.523438 174.679688 250.546875 179.976562 C 252.230469 182.199219 254.222656 184 256.835938 185.042969 C 260.371094 186.445312 263.910156 187.847656 267.445312 189.242188 C 267.894531 189.417969 268.371094 189.554688 268.808594 189.777344 C 270.164062 190.453125 272.042969 190.757812 271.925781 192.765625 C 271.828125 194.605469 270.140625 195.210938 268.722656 195.824219 C 265.8125 197.082031 262.65625 197.273438 259.566406 197.601562 C 248.78125 198.730469 237.953125 199.234375 227.117188 198.859375 C 221.460938 198.667969 215.851562 197.839844 210.347656 196.46875 C 209.03125 196.140625 207.691406 195.800781 206.546875 195.003906 C 204.226562 193.371094 204.1875 191.449219 206.570312 189.917969 C 207.789062 189.136719 209.152344 188.53125 210.511719 188.015625 C 212.9375 187.105469 215.414062 186.320312 218.035156 185.960938 C 215.078125 187.132812 212.105469 188.292969 209.152344 189.488281 C 208.347656 189.816406 207.503906 190.152344 206.816406 190.660156 C 205.351562 191.734375 205.34375 193.144531 206.730469 194.316406 C 207.566406 195.019531 208.601562 195.328125 209.652344 195.59375 C 214.878906 196.945312 220.226562 197.335938 225.578125 197.6875 C 232.613281 198.148438 239.625 197.59375 246.628906 197.027344 C 251.972656 196.597656 257.359375 196.507812 262.640625 195.433594 C 264.839844 194.988281 267.015625 194.4375 269.023438 193.371094 C 269.535156 193.097656 270.15625 192.789062 270.105469 192.132812 C 270.042969 191.480469 269.375 191.289062 268.824219 191.074219 C 265.820312 189.917969 262.792969 188.828125 259.828125 187.585938 C 256.585938 186.222656 253.6875 184.453125 251.082031 181.914062 C 245.925781 176.886719 244.285156 170.695312 244.039062 163.890625 C 243.910156 160.410156 244 160.410156 240.039062 159.613281 C 241.171875 163.84375 243.480469 168.296875 238 171.285156 C 238.40625 173.460938 238.996094 175.777344 236.796875 177.433594 C 235.242188 178.597656 234.082031 177.449219 232.933594 176.527344 C 234.289062 176.988281 235.625 177.347656 236.476562 175.683594 C 237.785156 173.019531 237.507812 170.679688 235.25 168.582031 C 232.828125 166.328125 230.542969 163.929688 228.167969 161.621094 C 227.730469 161.191406 227.394531 160.464844 226.414062 160.777344 C 226.964844 163.421875 226.886719 166.175781 227.914062 168.742188 C 228.40625 169.96875 228.863281 170.957031 230.644531 170.457031 C 232.398438 169.96875 233.855469 170.941406 234.933594 172.335938 C 235.714844 173.347656 236.199219 174.519531 236.542969 175.746094 C 235.21875 175.164062 234.675781 173.816406 233.714844 172.863281 C 232.671875 171.828125 231.585938 171.003906 229.824219 171.636719 C 230.613281 173.632812 232.488281 174.703125 233.027344 176.621094 Z M 238.613281 164.800781 C 237.730469 163.90625 236.910156 162.941406 235.96875 162.128906 C 234.574219 160.933594 233.035156 160.808594 231.660156 161.652344 C 231.140625 161.972656 230.621094 162.378906 231.164062 163.023438 C 232.988281 165.179688 234.886719 167.269531 237.332031 168.757812 C 238.328125 169.363281 239.210938 169.101562 239.746094 168.011719 C 241.324219 164.777344 239.671875 159.339844 236.527344 157.445312 C 233.363281 155.535156 230.207031 153.628906 227.292969 151.328125 C 226.183594 150.457031 225.515625 149.070312 224.007812 148.347656 C 223.269531 153.78125 225.523438 157.730469 229.226562 161.09375 C 229.921875 161.730469 230.320312 161.316406 230.933594 160.886719 C 233.195312 159.308594 234.933594 159.507812 236.867188 161.460938 C 237.746094 162.359375 238.453125 163.398438 238.613281 164.800781 Z M 238.613281 164.800781 "/><path style=" stroke:none;fill-rule:nonzero;fill:#3e473a;fill-opacity:1;" d="M 258.117188 163.707031 C 259.503906 164.328125 260.433594 165.476562 261.328125 166.625 C 265.566406 172.066406 270.832031 176.082031 277.359375 178.40625 C 281.054688 179.722656 284.464844 181.609375 287.546875 184.046875 C 293.640625 188.867188 300.71875 190.980469 308.300781 191.984375 C 318.691406 193.363281 329.121094 193.203125 339.554688 192.945312 C 349.316406 192.707031 359.058594 192.9375 368.746094 194.222656 C 370.253906 194.421875 371.734375 194.835938 372.996094 195.105469 C 373.289062 195.640625 373.210938 195.839844 372.945312 195.824219 C 358.71875 194.996094 344.480469 195.609375 330.25 195.574219 C 321.449219 195.550781 312.730469 194.707031 304.070312 193.160156 C 298.503906 192.160156 293.402344 190.117188 288.917969 186.628906 C 284.816406 183.441406 280.378906 180.859375 275.523438 178.980469 C 270.410156 177.011719 266.117188 173.84375 262.691406 169.578125 C 261.136719 167.636719 259.3125 165.898438 258.179688 163.636719 Z M 258.117188 163.707031 "/><path style=" stroke:none;fill-rule:nonzero;fill:#3e473a;fill-opacity:1;" d="M 254.808594 192.761719 C 247.585938 196.492188 222.097656 196.253906 215.914062 192.375 C 220.121094 193.082031 224.351562 193.585938 228.605469 193.617188 C 232.988281 193.648438 237.371094 193.648438 241.753906 193.480469 C 246.125 193.320312 250.5 193.289062 254.808594 192.761719 Z M 254.808594 192.761719 "/><path style=" stroke:none;fill-rule:nonzero;fill:#3e473a;fill-opacity:1;" d="M 234 138.117188 C 235.308594 136.078125 237.800781 135.585938 239.921875 136.96875 C 240.917969 137.617188 241.640625 138.53125 242.222656 139.542969 C 243.042969 140.960938 243.816406 142.410156 244.628906 143.828125 C 245.171875 144.777344 244.675781 145.25 243.878906 145.621094 C 243.878906 145.621094 243.976562 145.679688 243.976562 145.679688 C 243.984375 143.8125 242.621094 142.554688 241.808594 141.082031 C 239.816406 137.480469 238.070312 136.875 233.929688 138 Z M 234 138.117188 "/><path style=" stroke:none;fill-rule:nonzero;fill:#3e473a;fill-opacity:1;" d="M 272.730469 118.015625 C 273.75 122.023438 273.277344 123.441406 270.304688 125.210938 C 271.320312 122.644531 271.933594 120.320312 272.730469 118.015625 Z M 272.730469 118.015625 "/><path style=" stroke:none;fill-rule:nonzero;fill:#3e473a;fill-opacity:1;" d="M 273.621094 127.933594 C 274.3125 125.664062 276.296875 124.207031 277.175781 121.65625 C 278.378906 123.28125 277.683594 124.375 277.039062 125.371094 C 276.21875 126.628906 275.628906 128.316406 273.550781 127.878906 C 273.542969 127.871094 273.621094 127.933594 273.621094 127.933594 Z M 273.621094 127.933594 "/><path style=" stroke:none;fill-rule:nonzero;fill:#3e473a;fill-opacity:1;" d="M 249.703125 124.851562 C 249.855469 121.699219 251.121094 120.46875 254.539062 119.992188 C 252.953125 121.898438 251.058594 123.105469 249.703125 124.851562 Z M 249.703125 124.851562 "/><path style=" stroke:none;fill-rule:nonzero;fill:#3e473a;fill-opacity:1;" d="M 253.359375 126.300781 C 252.578125 126.222656 252.371094 125.910156 252.546875 125.324219 C 252.9375 124.007812 254.820312 122.421875 256.132812 122.375 C 256.660156 122.351562 257.265625 122.75 256.859375 123.1875 C 255.773438 124.34375 254.484375 125.324219 253.359375 126.300781 Z M 253.359375 126.300781 "/><path style=" stroke:none;fill-rule:nonzero;fill:#3e473a;fill-opacity:1;" d="M 258.1875 163.644531 C 256.046875 163.554688 254.195312 162.527344 252.253906 161.804688 C 254.316406 162.097656 256.386719 162.394531 258.117188 163.714844 C 258.117188 163.707031 258.1875 163.644531 258.1875 163.644531 Z M 258.1875 163.644531 "/><path style=" stroke:none;fill-rule:nonzero;fill:#3e473a;fill-opacity:1;" d="M 228.664062 121.5625 C 228.671875 123.164062 228.8125 124.789062 228.082031 126.308594 C 228.082031 126.308594 228.152344 126.324219 228.152344 126.324219 C 228.097656 124.726562 227.84375 123.109375 228.742188 121.640625 Z M 228.664062 121.5625 "/><path style=" stroke:none;fill-rule:nonzero;fill:#3e473a;fill-opacity:1;" d="M 219.789062 17.863281 C 220.128906 20.570312 213.714844 60.078125 212.578125 62.300781 C 211.90625 61.472656 212.121094 60.621094 212.171875 59.800781 C 212.71875 50.621094 214.410156 41.605469 216.144531 32.59375 C 216.933594 28.480469 217.898438 24.394531 218.777344 20.292969 C 218.949219 19.480469 219.117188 18.660156 219.789062 17.863281 Z M 219.789062 17.863281 "/><path style=" stroke:none;fill-rule:nonzero;fill:#3e473a;fill-opacity:1;" d="M 268.722656 59.085938 C 266.339844 51.84375 265.359375 44.410156 265.382812 36.832031 C 267.503906 44.097656 269.078125 51.445312 268.722656 59.085938 Z M 268.722656 59.085938 "/><path style=" stroke:none;fill-rule:nonzero;fill:#3e473a;fill-opacity:1;" d="M 217.300781 52.222656 C 217.253906 45.890625 218.335938 39.707031 220.050781 33.613281 C 220.273438 32.824219 220.488281 31.882812 221.746094 31.691406 C 220.480469 38.632812 219.238281 45.492188 217.988281 52.34375 C 217.753906 52.304688 217.53125 52.257812 217.300781 52.222656 Z M 217.300781 52.222656 "/><path style=" stroke:none;fill-rule:nonzero;fill:#3e473a;fill-opacity:1;" d="M 272.777344 62.734375 C 270.96875 56.527344 270.28125 50.113281 269.269531 43.570312 C 270.953125 46.78125 272.855469 56.894531 272.777344 62.734375 Z M 272.777344 62.734375 "/><path style=" stroke:none;fill-rule:nonzero;fill:#3e473a;fill-opacity:1;" d="M 214.011719 87.597656 C 215.398438 88.492188 216.449219 89.667969 217.046875 91.222656 C 215.53125 90.433594 214.578125 89.175781 214.011719 87.597656 Z M 214.011719 87.597656 "/><path style=" stroke:none;fill-rule:nonzero;fill:#3e473a;fill-opacity:1;" d="M 216.757812 83.136719 C 223.621094 90.074219 231.753906 94.480469 242.0625 95.699219 C 234.796875 99.890625 218.3125 91.421875 216.757812 83.136719 Z M 216.757812 83.136719 "/><path style=" stroke:none;fill-rule:nonzero;fill:#3e473a;fill-opacity:1;" d="M 242.628906 91.902344 C 239.042969 93.859375 233.003906 92.902344 229.777344 89.886719 C 234.054688 90.523438 238.160156 92.273438 242.628906 91.902344 Z M 242.628906 91.902344 "/><path style=" stroke:none;fill-rule:nonzero;fill:#3e473a;fill-opacity:1;" d="M 234.082031 154.6875 C 234.214844 153.917969 234.246094 153.113281 234.496094 152.394531 C 235.25 150.28125 237.378906 149.335938 239.441406 150.28125 C 242.285156 151.566406 244.101562 153.867188 245.226562 156.792969 C 243.960938 155.652344 242.714844 154.488281 241.417969 153.367188 C 238.34375 150.722656 235.992188 150.632812 234.046875 154.609375 C 234.0625 154.617188 234.082031 154.6875 234.082031 154.6875 Z M 234.082031 154.6875 "/></g></svg>