<svg xmlns="http://www.w3.org/2000/svg" xmlns:xlink="http://www.w3.org/1999/xlink" width="533" zoomAndPan="magnify" viewBox="0 0 399.75 282.749989" height="377" preserveAspectRatio="xMidYMid meet" version="1.2"><defs/><g id="0dfba0b0cd"><path style=" stroke:none;fill-rule:nonzero;fill:#3e473a;fill-opacity:1;" d="M 88.367188 226.167969 C 87.902344 226.054688 87.734375 226.0625 87.710938 226.007812 C 85.648438 220.660156 82.273438 215.929688 80.757812 210.277344 C 78.144531 200.503906 74.652344 191.027344 70.140625 181.925781 C 67.226562 176.035156 65.148438 169.777344 63.214844 163.488281 C 62.363281 160.734375 62.359375 160.894531 59.382812 161.375 C 55.0625 162.070312 51.789062 159.957031 49.089844 156.828125 C 47.894531 155.4375 47.207031 153.71875 46.503906 152.035156 C 41.898438 141.035156 36.601562 130.324219 32.652344 119.046875 C 31.078125 114.5625 29.464844 110.097656 27.886719 105.617188 C 27.628906 104.878906 27.109375 104.152344 27.707031 103.335938 C 28.597656 103.074219 28.980469 103.726562 29.417969 104.269531 C 30.5625 105.6875 31.539062 107.230469 32.378906 108.84375 C 35.277344 114.402344 38.304688 119.894531 40.863281 125.625 C 42.371094 129.011719 44.140625 132.265625 46.503906 135.964844 C 46.289062 134.15625 45.65625 133.246094 45.183594 132.285156 C 40.730469 123.300781 37.03125 114.011719 33.726562 104.554688 C 33.660156 104.367188 33.582031 104.171875 33.554688 103.96875 C 33.402344 102.78125 31.984375 101.195312 33.546875 100.507812 C 34.953125 99.894531 35.667969 101.773438 36.316406 102.800781 C 38.410156 106.144531 40.210938 109.65625 41.800781 113.273438 C 43.839844 117.898438 45.710938 122.601562 47.957031 127.132812 C 49.835938 130.929688 51.925781 134.589844 54.375 138.28125 C 53.285156 138.546875 52.914062 137.863281 52.523438 137.371094 C 50.648438 134.972656 49.167969 132.320312 47.796875 129.609375 C 43.777344 121.675781 39.667969 113.78125 36.085938 105.625 C 35.816406 105.011719 35.660156 104.308594 34.570312 103.761719 C 35.40625 106.027344 36.101562 107.996094 36.851562 109.941406 C 40.613281 119.652344 44.3125 129.386719 49.070312 138.675781 C 49.660156 139.839844 50.265625 141.035156 50.390625 142.363281 C 50.417969 142.632812 50.308594 143.050781 50.113281 143.175781 C 49.757812 143.40625 49.296875 143.316406 49.042969 142.945312 C 48.519531 142.203125 48.003906 141.453125 47.554688 140.667969 C 42.78125 132.433594 38.882812 123.753906 34.332031 115.410156 C 33.609375 114.082031 33.125 112.628906 31.636719 110.980469 C 32.199219 112.824219 32.519531 114.117188 32.984375 115.359375 C 36.007812 123.511719 39.082031 131.652344 42.839844 139.503906 C 43.476562 140.847656 43.910156 142.300781 45.445312 143.074219 C 45.996094 143.351562 46.316406 144.164062 46.640625 144.78125 C 49.519531 150.152344 53.472656 154.289062 59.5 156.0625 C 59.765625 156.140625 60 156.320312 60.464844 156.5625 C 58.664062 157.328125 57.085938 155.9375 55.410156 156.429688 C 56.703125 158.265625 59.132812 156.675781 60.363281 158.324219 C 58.644531 159.304688 56.15625 159.15625 55.425781 157.605469 C 54.453125 155.527344 52.566406 154.53125 51.128906 153.023438 C 49.882812 151.710938 48.671875 150.359375 47.433594 149.019531 C 48.394531 154.777344 52.503906 159.066406 57.984375 160.136719 C 59.230469 160.382812 60.382812 160.101562 61.585938 160.011719 C 62.871094 159.914062 64.0625 160.1875 64.328125 161.742188 C 64.484375 162.71875 64.945312 163.355469 65.84375 163.84375 C 66.316406 164.101562 66.648438 164.734375 66.90625 165.261719 C 69.3125 170.261719 71.664062 175.285156 73.179688 180.664062 C 70.605469 175.886719 68.820312 170.722656 65.828125 166.089844 C 66.128906 167 66.453125 167.914062 66.730469 168.832031 C 69.320312 177.375 73.511719 185.269531 76.808594 193.53125 C 79.402344 200.011719 82.039062 206.464844 83.722656 213.257812 C 84.359375 215.824219 85.507812 218.195312 86.433594 220.660156 C 87.09375 222.425781 87.679688 224.210938 88.367188 226.167969 Z M 88.367188 226.167969 "/><path style=" stroke:none;fill-rule:nonzero;fill:#3e473a;fill-opacity:1;" d="M 71.085938 154.296875 C 70.996094 154.574219 70.996094 154.949219 70.808594 155.125 C 68.804688 156.964844 68.539062 158.683594 70.214844 161.144531 C 72.253906 164.128906 73.664062 167.535156 75.355469 170.757812 C 81.300781 182.121094 87.773438 193.203125 92.707031 205.089844 C 94.449219 209.300781 97.308594 212.917969 99.671875 216.800781 C 103.039062 222.328125 106.15625 227.960938 108.785156 233.898438 C 112.511719 242.320312 116.996094 250.34375 122.550781 257.730469 C 124.269531 260.019531 125.570312 262.535156 126.167969 265.339844 C 126.59375 267.339844 126.691406 269.371094 125.464844 271.195312 C 125.132812 271.695312 124.644531 272.222656 123.972656 271.917969 C 123.191406 271.5625 123.511719 270.9375 123.8125 270.394531 C 125.035156 268.160156 124.714844 265.910156 123.929688 263.648438 C 123.121094 261.339844 122.011719 259.171875 120.554688 257.230469 C 115.808594 250.878906 112.265625 243.835938 108.707031 236.804688 C 106.425781 232.300781 104.035156 227.855469 101.382812 223.542969 C 96.886719 216.230469 92.867188 208.648438 89.234375 200.847656 C 84.847656 191.410156 80.097656 182.152344 74.957031 173.101562 C 72.816406 169.324219 70.746094 165.5 68.652344 161.695312 C 66.601562 157.96875 67.136719 156.402344 71.140625 154.359375 C 71.140625 154.351562 71.085938 154.296875 71.085938 154.296875 Z M 71.085938 154.296875 "/><path style=" stroke:none;fill-rule:nonzero;fill:#3e473a;fill-opacity:1;" d="M 71.140625 154.351562 C 71.160156 153.46875 71.871094 152.941406 72.261719 152.25 C 73.617188 149.851562 73.976562 147.308594 73.324219 144.644531 C 72.796875 142.480469 72.144531 140.347656 71.113281 138.371094 C 65.65625 127.882812 61.132812 116.953125 56.121094 106.257812 C 55.007812 103.878906 53.839844 101.527344 52.652344 99.183594 C 52.351562 98.609375 52.128906 97.878906 51.070312 97.628906 C 52.976562 103.609375 54.929688 109.429688 56.667969 115.3125 C 58.410156 121.195312 60.75 126.902344 61.800781 132.988281 C 58.375 126.117188 56.203125 118.769531 53.519531 111.621094 C 51.675781 106.710938 49.757812 101.808594 48.5 96.695312 C 48.253906 95.722656 48.117188 94.714844 48.03125 93.710938 C 47.96875 93.003906 48.0625 92.21875 48.917969 92 C 49.613281 91.828125 50.027344 92.378906 50.390625 92.863281 C 52.261719 95.382812 54.152344 97.933594 55.3125 100.847656 C 60.292969 113.351562 66.730469 125.160156 72.351562 137.355469 C 73.625 140.117188 74.632812 142.976562 75.0625 146 C 75.515625 149.164062 74.027344 151.660156 72.234375 154.023438 C 71.984375 154.359375 71.523438 154.367188 71.105469 154.296875 C 71.085938 154.296875 71.140625 154.351562 71.140625 154.351562 Z M 71.140625 154.351562 "/><path style=" stroke:none;fill-rule:nonzero;fill:#3e473a;fill-opacity:1;" d="M 58.171875 128.644531 C 53 121.589844 49.917969 113.457031 45.898438 105.355469 C 45.5625 106.917969 46.183594 107.890625 46.53125 108.871094 C 49.136719 116.1875 51.816406 123.484375 54.429688 130.796875 C 55.078125 132.597656 55.578125 134.457031 56.15625 136.285156 C 56.453125 137.222656 56.78125 138.15625 55.980469 139.601562 C 55.105469 136.292969 54.070312 133.515625 53.011719 130.742188 C 49.722656 122.0625 46.433594 113.386719 43.207031 104.679688 C 42.476562 102.695312 41.976562 100.632812 41.433594 98.582031 C 41.257812 97.941406 41.015625 97.070312 41.890625 96.765625 C 42.742188 96.464844 43.152344 97.265625 43.484375 97.855469 C 44.328125 99.351562 45.140625 100.863281 45.878906 102.410156 C 48.894531 108.796875 51.292969 115.457031 54.542969 121.738281 C 55.738281 124.046875 56.960938 126.339844 58.171875 128.644531 Z M 58.171875 128.644531 "/><path style=" stroke:none;fill-rule:nonzero;fill:#3e473a;fill-opacity:1;" d="M 114.765625 276.945312 C 112.648438 278.960938 109.875 278.765625 107.898438 276.261719 C 106.34375 274.28125 105.007812 272.125 104.0625 269.769531 C 102.710938 266.394531 101.308594 263.042969 100.082031 259.628906 C 97.433594 252.222656 94.421875 244.941406 92.058594 237.433594 C 91.851562 236.769531 91.667969 236.109375 91.371094 235.089844 C 92.421875 235.691406 92.539062 236.507812 92.835938 237.148438 C 97.433594 246.925781 101.273438 257.015625 105.054688 267.125 C 105.945312 269.496094 107.183594 271.6875 108.414062 273.890625 C 109.625 276.054688 111.09375 277.429688 113.769531 276.5625 C 114.152344 276.429688 114.554688 276.492188 114.765625 276.945312 Z M 114.765625 276.945312 "/><path style=" stroke:none;fill-rule:nonzero;fill:#3e473a;fill-opacity:1;" d="M 94.769531 216.953125 C 103.644531 230.378906 109.375 245.554688 118.5625 259.539062 C 114.152344 255.984375 100.527344 231.484375 94.769531 216.953125 Z M 94.769531 216.953125 "/><path style=" stroke:none;fill-rule:nonzero;fill:#3e473a;fill-opacity:1;" d="M 100.527344 248.292969 C 104.714844 255.617188 104.945312 264.121094 108.929688 271.277344 C 107.351562 270.082031 106.441406 268.425781 105.863281 266.644531 C 104 260.894531 102.238281 255.117188 100.460938 249.34375 C 100.382812 249.101562 100.488281 248.808594 100.527344 248.292969 Z M 100.527344 248.292969 "/><path style=" stroke:none;fill-rule:nonzero;fill:#3e473a;fill-opacity:1;" d="M 71.863281 147.683594 C 71.238281 147.34375 71.46875 146.339844 70.667969 146.089844 C 70.179688 147.375 70.933594 148.925781 69.394531 150.429688 C 69.367188 147.640625 69.554688 145.222656 68.964844 142.863281 C 68.785156 142.125 70.277344 141.9375 69.742188 140.449219 C 72.023438 143.113281 72.582031 145.332031 71.863281 147.683594 Z M 71.863281 147.683594 "/><path style=" stroke:none;fill-rule:nonzero;fill:#3e473a;fill-opacity:1;" d="M 115.445312 278.007812 C 121.230469 280.246094 122.363281 279.664062 123.191406 274.351562 C 124.320312 276.660156 123.457031 279.335938 121.203125 280.503906 C 119.054688 281.617188 116.980469 280.824219 115.445312 278.007812 Z M 115.445312 278.007812 "/><path style=" stroke:none;fill-rule:nonzero;fill:#3e473a;fill-opacity:1;" d="M 85.210938 199.734375 C 83.519531 198.925781 83.296875 197.0625 82.359375 195.722656 C 81.613281 194.664062 81.097656 193.449219 80.433594 192.203125 C 82.109375 193.636719 83.832031 196.4375 85.148438 199.789062 Z M 85.210938 199.734375 "/><path style=" stroke:none;fill-rule:nonzero;fill:#3e473a;fill-opacity:1;" d="M 67.539062 137.015625 C 65.648438 135.277344 64.679688 133.074219 63.75 130.847656 C 63.964844 130.734375 64.179688 130.632812 64.394531 130.519531 C 65.4375 132.691406 66.488281 134.851562 67.539062 137.015625 Z M 67.539062 137.015625 "/><path style=" stroke:none;fill-rule:nonzero;fill:#3e473a;fill-opacity:1;" d="M 111.601562 271.164062 C 112.308594 272.015625 113.019531 272.863281 113.726562 273.710938 C 112.613281 273.300781 111.886719 272.464844 111.601562 271.164062 Z M 111.601562 271.164062 "/><path style=" stroke:none;fill-rule:nonzero;fill:#3e473a;fill-opacity:1;" d="M 118.128906 277.089844 C 119.195312 276.359375 119.804688 276.1875 120.417969 276.6875 C 120.515625 276.765625 120.550781 277.113281 120.464844 277.1875 C 119.847656 277.808594 119.257812 277.410156 118.128906 277.089844 Z M 118.128906 277.089844 "/><path style=" stroke:none;fill-rule:nonzero;fill:#3e473a;fill-opacity:1;" d="M 85.148438 199.796875 C 86.066406 200.503906 86.230469 201.613281 86.605469 202.597656 C 85.746094 201.839844 85 201.027344 85.210938 199.742188 C 85.210938 199.734375 85.148438 199.796875 85.148438 199.796875 Z M 85.148438 199.796875 "/><path style=" stroke:none;fill-rule:nonzero;fill:#3e473a;fill-opacity:1;" d="M 66.78125 154.753906 C 66.636719 155.964844 66.390625 156.519531 65.472656 156.5625 C 65.453125 155.761719 66.105469 155.484375 66.78125 154.753906 Z M 66.78125 154.753906 "/><path style=" stroke:none;fill-rule:nonzero;fill:#3e473a;fill-opacity:1;" d="M 240.660156 6.375 C 245.410156 17.511719 252.128906 27.648438 255.367188 39.761719 C 254.066406 38.867188 253.726562 37.726562 253.296875 36.710938 C 250.046875 29.019531 246.117188 21.660156 242.28125 14.261719 C 241.078125 11.941406 239.839844 9.644531 239.03125 7.140625 C 238.746094 6.25 238.40625 5.382812 239.191406 4.617188 C 240.0625 3.777344 241.082031 4.046875 241.996094 4.511719 C 244.226562 5.667969 246.460938 6.816406 248.476562 8.332031 C 255.109375 13.316406 261.027344 18.992188 265.6875 25.925781 C 267.703125 28.929688 269.894531 31.808594 272.265625 34.554688 C 273.90625 36.460938 275.304688 38.554688 276.535156 40.75 C 278.078125 43.511719 278.746094 46.433594 279.191406 49.589844 C 280.046875 55.667969 280.734375 61.746094 281.125 67.863281 C 281.339844 71.257812 281.605469 74.652344 281.882812 78.46875 C 280.332031 76.390625 280.101562 74.34375 279.957031 72.28125 C 279.609375 67.371094 279.40625 62.46875 278.574219 57.585938 C 277.148438 49.261719 274.339844 41.613281 270.019531 34.277344 C 266.5625 28.40625 262.695312 23.023438 257.949219 18.210938 C 252.96875 13.15625 247.191406 9.269531 240.660156 6.375 Z M 240.660156 6.375 "/><path style=" stroke:none;fill-rule:nonzero;fill:#3e473a;fill-opacity:1;" d="M 301.640625 135.304688 C 300.519531 134.28125 299.964844 132.878906 299.40625 131.488281 C 296.035156 123.101562 292.410156 114.851562 287.789062 107.035156 C 285.136719 102.558594 283.246094 97.640625 280.867188 92.996094 C 275.554688 82.628906 270.988281 71.917969 266.195312 61.308594 C 263.585938 55.542969 260.820312 49.867188 258.128906 44.089844 C 259.394531 46.121094 260.859375 48.046875 261.890625 50.1875 C 265.792969 58.335938 270.375 66.148438 273.796875 74.527344 C 274.214844 75.546875 274.644531 76.578125 275.1875 77.53125 C 280.902344 87.578125 285.144531 98.359375 290.582031 108.546875 C 295.128906 117.078125 298.261719 126.203125 301.640625 135.304688 Z M 301.640625 135.304688 "/><path style=" stroke:none;fill-rule:nonzero;fill:#3e473a;fill-opacity:1;" d="M 325.984375 155.777344 C 325.917969 155.699219 325.824219 155.636719 325.785156 155.554688 C 320.171875 142.917969 312.160156 131.6875 304.976562 119.964844 C 297.417969 107.632812 289.921875 95.269531 282.933594 82.613281 C 282.515625 81.863281 281.785156 81.179688 282.085938 79.945312 C 282.800781 80.222656 283.042969 80.855469 283.371094 81.371094 C 290.527344 92.765625 297.410156 104.332031 303.933594 116.097656 C 305.589844 119.089844 307.183594 122.113281 309.207031 124.875 C 316.542969 134.875 322.390625 145.75 328.039062 156.738281 C 329.414062 159.414062 331.132812 161.902344 332.203125 164.75 C 333.148438 167.265625 333.378906 169.769531 332.398438 172.390625 C 332.585938 166.640625 329.671875 162.152344 326.617188 157.722656 C 326.410156 157.078125 326.195312 156.429688 325.984375 155.777344 Z M 325.984375 155.777344 "/><path style=" stroke:none;fill-rule:nonzero;fill:#3e473a;fill-opacity:1;" d="M 303.898438 140.847656 C 305.269531 141.828125 305.574219 143.128906 306.089844 144.269531 C 309.511719 151.847656 312.328125 159.691406 316 167.167969 C 316.488281 168.15625 316.945312 169.164062 317.496094 170.117188 C 319.183594 173.078125 321.3125 173.753906 324.484375 172.382812 C 326.6875 171.429688 328.132812 169.683594 329.34375 167.5 C 331.179688 168.863281 330.855469 170.457031 330.25 172.085938 C 329.316406 174.582031 329.296875 174.582031 326.640625 174.636719 C 327.105469 173.851562 328.070312 173.503906 328.289062 172.597656 C 328.328125 172.417969 328.292969 172.214844 328.292969 171.777344 C 327.015625 172.007812 326.296875 173.085938 325.285156 173.566406 C 324.164062 174.09375 322.980469 174.136719 321.714844 174.234375 C 324.316406 177.433594 327.035156 178.253906 330.644531 177.027344 C 329.527344 178.335938 329.253906 178.53125 327.621094 178.480469 C 322.558594 178.335938 318.898438 175.792969 316.375 171.554688 C 314.011719 167.585938 312.148438 163.355469 310.375 159.101562 C 308.335938 154.199219 306.535156 149.199219 304.679688 144.226562 C 304.308594 143.253906 303.863281 142.238281 303.898438 140.847656 Z M 303.898438 140.847656 "/><path style=" stroke:none;fill-rule:nonzero;fill:#3e473a;fill-opacity:1;" d="M 267.601562 39.695312 C 266.257812 35.980469 264.011719 32.761719 261.839844 29.527344 C 259.15625 25.519531 256.285156 21.640625 253.039062 18.050781 C 252.664062 17.636719 252.070312 17.316406 252.132812 16.597656 C 258.078125 19.304688 270.535156 37.796875 272.1875 47.515625 C 271.398438 46.648438 270.304688 46.808594 270.332031 45.589844 C 270.226562 44.660156 270.003906 43.753906 269.371094 43.003906 C 269.152344 41.632812 268.691406 40.402344 267.488281 39.574219 Z M 267.601562 39.695312 "/><path style=" stroke:none;fill-rule:nonzero;fill:#3e473a;fill-opacity:1;" d="M 325.984375 155.777344 C 326.203125 156.425781 326.410156 157.070312 326.625 157.71875 C 326.972656 159.28125 327.410156 160.824219 327.648438 162.40625 C 327.96875 164.574219 327.4375 165.324219 324.777344 166.390625 C 327.050781 163.78125 326.117188 161.355469 325.410156 158.96875 C 324.59375 156.25 323.105469 153.84375 321.625 151.457031 C 318.550781 146.507812 315.449219 141.578125 312.382812 136.625 C 311.933594 135.894531 311.292969 135.226562 311.203125 134.066406 C 312.121094 134.449219 312.40625 135.199219 312.78125 135.8125 C 316.394531 141.605469 319.984375 147.417969 323.601562 153.203125 C 324.21875 154.207031 324.679688 155.402344 325.984375 155.777344 Z M 325.984375 155.777344 "/><path style=" stroke:none;fill-rule:nonzero;fill:#3e473a;fill-opacity:1;" d="M 269.371094 42.996094 C 270.003906 43.746094 270.234375 44.652344 270.332031 45.582031 C 270.382812 45.652344 270.445312 45.730469 270.480469 45.820312 C 270.957031 47.09375 272.09375 49.046875 270.867188 49.574219 C 269.191406 50.296875 269.136719 47.90625 268.550781 46.835938 C 266.6875 43.433594 265.019531 39.921875 263.042969 35.988281 C 265.632812 36.542969 265.9375 38.929688 267.59375 39.6875 C 267.59375 39.6875 267.480469 39.570312 267.480469 39.570312 C 267.691406 40.945312 268.566406 41.953125 269.371094 42.996094 Z M 269.371094 42.996094 "/><path style=" stroke:none;fill-rule:nonzero;fill:#3e473a;fill-opacity:1;" d="M 270.679688 55.429688 C 274.191406 60.625 276.871094 66.167969 277.933594 72.953125 C 276.300781 71.425781 271.160156 58.804688 270.679688 55.429688 Z M 270.679688 55.429688 "/><path style=" stroke:none;fill-rule:nonzero;fill:#3e473a;fill-opacity:1;" d="M 302.585938 124.277344 C 307.105469 130.304688 310.742188 136.0625 313.710938 142.472656 C 311.070312 140.066406 303.539062 127.960938 302.585938 124.277344 Z M 302.585938 124.277344 "/><path style=" stroke:none;fill-rule:nonzero;fill:#3e473a;fill-opacity:1;" d="M 313.894531 155.652344 C 315.332031 157.21875 315.757812 158.53125 316.347656 159.734375 C 317.710938 162.523438 319.308594 165.171875 320.894531 167.828125 C 321.230469 168.390625 321.925781 169.121094 321.1875 169.671875 C 320.402344 170.261719 319.914062 169.367188 319.59375 168.824219 C 317.25 164.886719 315.296875 160.785156 313.894531 155.652344 Z M 313.894531 155.652344 "/><path style=" stroke:none;fill-rule:nonzero;fill:#3e473a;fill-opacity:1;" d="M 276.777344 61.988281 C 275.792969 60.285156 276.050781 58.53125 275.445312 57.007812 C 276.800781 58.914062 276.960938 59.527344 276.777344 61.988281 Z M 276.777344 61.988281 "/><path style=" stroke:none;fill-rule:nonzero;fill:#3e473a;fill-opacity:1;" d="M 306.785156 127.632812 C 305.359375 126.855469 304.761719 125.457031 304.136719 124.085938 C 305.351562 125.039062 306.339844 126.144531 306.722656 127.695312 Z M 306.785156 127.632812 "/><path style=" stroke:none;fill-rule:nonzero;fill:#3e473a;fill-opacity:1;" d="M 306.722656 127.695312 C 308.105469 128.546875 308.710938 129.964844 309.386719 131.320312 C 308.226562 130.296875 307.175781 129.199219 306.785156 127.632812 C 306.785156 127.632812 306.722656 127.695312 306.722656 127.695312 Z M 306.722656 127.695312 "/><path style=" stroke:none;fill-rule:nonzero;fill:#3e473a;fill-opacity:1;" d="M 313.246094 51.59375 C 315.492188 52.585938 316.8125 54.351562 318.078125 56.125 C 320.414062 59.402344 322.097656 63.050781 323.898438 66.625 C 324.886719 68.59375 325.804688 70.605469 326.835938 72.542969 C 327.25 73.332031 327.371094 74.539062 328.859375 74.234375 C 329.304688 74.144531 329.601562 74.824219 329.839844 75.261719 C 334.492188 83.992188 339.164062 92.710938 342.910156 101.9375 C 341.285156 99.121094 339.65625 96.304688 338.03125 93.484375 C 337.882812 93.550781 337.738281 93.628906 337.59375 93.699219 C 338.398438 95.820312 339.175781 97.949219 340.003906 100.054688 C 343.351562 108.539062 345.949219 117.273438 348.851562 125.910156 C 349.523438 127.90625 350.261719 129.867188 351.269531 131.722656 C 352.585938 134.128906 354.164062 136.097656 357.320312 135.742188 C 357.597656 135.714844 357.910156 135.832031 358.175781 135.964844 C 358.320312 136.035156 358.390625 136.269531 358.488281 136.429688 C 355.5 137.988281 353.085938 137.222656 350.847656 134.183594 C 349.175781 131.925781 348.042969 129.351562 347.183594 126.652344 C 345.3125 120.839844 343.671875 114.964844 341.738281 109.164062 C 338.273438 98.753906 333.433594 88.992188 328.28125 79.367188 C 325.394531 73.976562 323.238281 68.238281 320.226562 62.90625 C 318.253906 59.410156 316.347656 55.898438 313.496094 53.003906 C 313.230469 52.746094 312.925781 52.453125 313.246094 51.59375 Z M 313.246094 51.59375 "/><path style=" stroke:none;fill-rule:nonzero;fill:#3e473a;fill-opacity:1;" d="M 320.386719 51.417969 C 318.546875 48.9375 319.121094 46.371094 319.816406 43.867188 C 322.203125 35.25 320.734375 27.195312 316.339844 19.574219 C 315.597656 18.28125 314.664062 17.078125 313.691406 15.9375 C 311.535156 13.429688 309.308594 10.980469 307.097656 8.527344 C 303.363281 4.375 298.550781 2.371094 293.148438 1.566406 C 292.753906 1.507812 292.347656 1.515625 291.945312 1.515625 C 287.757812 1.558594 285.832031 2.90625 284.714844 6.890625 C 283.316406 11.863281 282.726562 16.941406 283.878906 22.042969 C 285.671875 30 288.859375 37.265625 294.914062 42.996094 C 298.796875 46.667969 303.230469 49.214844 308.609375 49.992188 C 309.609375 50.136719 310.8125 50.042969 311.804688 51.257812 C 309.109375 51.667969 306.8125 51.089844 304.589844 50.375 C 297.472656 48.082031 292.363281 43.273438 288.453125 37.085938 C 285.929688 33.082031 284.046875 28.746094 282.882812 24.160156 C 281.292969 17.859375 281.996094 11.628906 283.941406 5.515625 C 285.347656 1.105469 288.984375 -0.015625 293.683594 0.535156 C 301.765625 1.472656 308.164062 5.332031 312.996094 11.953125 C 317.050781 17.503906 320.632812 23.210938 322.070312 30.0625 C 322.683594 32.960938 322.535156 35.835938 322.148438 38.726562 C 321.5625 42.960938 319.992188 47.035156 320.386719 51.417969 Z M 320.386719 51.417969 "/><path style=" stroke:none;fill-rule:nonzero;fill:#3e473a;fill-opacity:1;" d="M 367.59375 130.117188 C 367.230469 129.777344 367.335938 129.378906 367.5 129.019531 C 368.914062 126.042969 367.882812 123.523438 365.902344 121.304688 C 362.488281 117.503906 359.511719 113.34375 356.222656 109.441406 C 350.152344 102.222656 344.746094 94.53125 339.808594 86.5 C 335.511719 79.511719 330.582031 72.921875 326.8125 65.605469 C 325.867188 63.761719 324.839844 61.960938 324.261719 59.882812 C 326.078125 62.648438 327.878906 65.429688 329.707031 68.191406 C 336.898438 79.039062 343.976562 89.964844 351.332031 100.695312 C 355.75 107.132812 360.9375 113.011719 365.972656 118.984375 C 366.875 120.054688 367.78125 121.140625 368.507812 122.320312 C 369.867188 124.527344 369.824219 126.882812 368.886719 129.242188 C 368.667969 129.789062 368.390625 130.375 367.59375 130.117188 Z M 367.59375 130.117188 "/><path style=" stroke:none;fill-rule:nonzero;fill:#3e473a;fill-opacity:1;" d="M 315.625 29.457031 C 314.359375 27.878906 314.082031 26.597656 313.546875 25.445312 C 309.90625 17.648438 305.054688 10.988281 296.8125 7.460938 C 296.363281 7.265625 295.953125 6.96875 295.570312 6.660156 C 295.347656 6.480469 295.179688 6.148438 295.394531 5.875 C 295.554688 5.667969 295.847656 5.425781 296.082031 5.425781 C 297.398438 5.429688 298.640625 5.757812 299.839844 6.300781 C 306.765625 9.4375 311.570312 14.472656 313.746094 21.84375 C 314.414062 24.125 315.277344 26.355469 315.625 29.457031 Z M 315.625 29.457031 "/><path style=" stroke:none;fill-rule:nonzero;fill:#3e473a;fill-opacity:1;" d="M 297.71875 37.746094 C 288.546875 31.570312 284.824219 19.054688 287.28125 11.21875 C 287.648438 14.367188 287.84375 17.53125 288.550781 20.632812 C 289.277344 23.804688 290.75 26.628906 292.246094 29.464844 C 293.796875 32.398438 295.796875 35.007812 297.71875 37.746094 Z M 297.71875 37.746094 "/><path style=" stroke:none;fill-rule:nonzero;fill:#3e473a;fill-opacity:1;" d="M 291.292969 34.332031 C 296.429688 39.089844 300.234375 45.230469 307.628906 46.515625 C 300.722656 47.488281 291.382812 40.589844 291.292969 34.332031 Z M 291.292969 34.332031 "/><path style=" stroke:none;fill-rule:nonzero;fill:#3e473a;fill-opacity:1;" d="M 362.285156 139.414062 C 365.164062 141.667969 366.214844 141.640625 368.941406 139.234375 C 367.898438 141.8125 366.769531 142.648438 364.566406 142.46875 C 361.964844 142.25 359.769531 140.289062 359.332031 137.765625 C 360.554688 138.023438 361.136719 139.34375 362.375 139.519531 Z M 362.285156 139.414062 "/><path style=" stroke:none;fill-rule:nonzero;fill:#3e473a;fill-opacity:1;" d="M 357.371094 114.457031 C 359.546875 117.285156 361.777344 120.074219 363.890625 122.953125 C 365.144531 124.65625 365.101562 125.1875 364.023438 127.316406 C 363.71875 122.890625 360.554688 120.5 358.59375 117.382812 C 358.03125 116.492188 357.453125 115.609375 356.882812 114.726562 C 357.042969 114.636719 357.203125 114.546875 357.371094 114.457031 Z M 357.371094 114.457031 "/><path style=" stroke:none;fill-rule:nonzero;fill:#3e473a;fill-opacity:1;" d="M 351.234375 126.75 C 352.910156 129.769531 355.25 132.070312 359.191406 133.253906 C 354.921875 134.09375 352.800781 132.273438 351.234375 126.75 Z M 351.234375 126.75 "/><path style=" stroke:none;fill-rule:nonzero;fill:#3e473a;fill-opacity:1;" d="M 362.382812 139.511719 C 362.230469 139.261719 362.117188 138.976562 361.917969 138.769531 C 361.292969 138.128906 360.269531 137.398438 360.859375 136.542969 C 361.5625 135.542969 362.433594 136.738281 363.230469 136.953125 C 363.988281 137.160156 364.726562 137.453125 365.589844 137.753906 C 365.15625 139.8125 363.441406 139.058594 362.277344 139.402344 C 362.285156 139.414062 362.382812 139.511719 362.382812 139.511719 Z M 362.382812 139.511719 "/><path style=" stroke:none;fill-rule:nonzero;fill:#3e473a;fill-opacity:1;" d="M 294.679688 28.714844 C 296.230469 31.300781 297.78125 33.824219 299.859375 36.214844 C 297.300781 35.464844 295.296875 32.578125 294.679688 28.714844 Z M 294.679688 28.714844 "/><path style=" stroke:none;fill-rule:nonzero;fill:#3e473a;fill-opacity:1;" d="M 317.0625 34.554688 C 317.765625 37.496094 317.871094 40.367188 316.042969 43.046875 C 316.222656 41.683594 316.425781 40.3125 316.582031 38.949219 C 316.757812 37.488281 316.902344 36.023438 317.0625 34.554688 Z M 317.0625 34.554688 "/><path style=" stroke:none;fill-rule:nonzero;fill:#3e473a;fill-opacity:1;" d="M 364.78125 131.792969 C 365.3125 133.46875 365.082031 134.539062 364.144531 135.402344 C 363.773438 135.742188 363.230469 135.792969 362.8125 135.339844 C 362.5 135 362.515625 134.609375 362.785156 134.261719 C 363.328125 133.566406 363.890625 132.890625 364.78125 131.792969 Z M 364.78125 131.792969 "/><path style=" stroke:none;fill-rule:nonzero;fill:#3e473a;fill-opacity:1;" d="M 358.210938 119.359375 C 357.496094 119.058594 357.167969 118.511719 357.097656 117.746094 C 358.003906 117.917969 357.945312 118.761719 358.210938 119.359375 Z M 358.210938 119.359375 "/><path style=" stroke:none;fill-rule:nonzero;fill:#3e473a;fill-opacity:1;" d="M 132.898438 102.914062 C 132.515625 101.90625 132.128906 100.890625 131.746094 99.878906 C 131.285156 98.683594 130.613281 97.523438 130.398438 96.285156 C 129.589844 91.613281 128.484375 87 127.484375 82.371094 C 127.316406 81.613281 127.203125 80.75 127.390625 80.019531 C 128.40625 76.113281 128.71875 72.03125 130.460938 68.300781 C 131.460938 66.152344 132.308594 63.933594 133.308594 61.785156 C 133.789062 60.75 134.195312 59.597656 135.652344 58.746094 C 135.367188 62.746094 134.304688 66.195312 132.789062 69.484375 C 131.667969 71.90625 131.390625 74.402344 131.460938 76.996094 C 131.496094 78.363281 132.003906 79.457031 133.101562 80.3125 C 136.222656 82.738281 139 85.5 141.648438 88.457031 C 143.261719 90.257812 145.9375 90.0625 148.289062 89.882812 C 148.957031 89.832031 149.605469 89.476562 150.25 89.226562 C 153.617188 87.953125 156.816406 87.960938 159.75 90.347656 C 160.203125 90.714844 160.730469 91.117188 161.28125 91.230469 C 166.675781 92.34375 170.867188 95.734375 175.367188 98.550781 C 176.738281 99.40625 177.765625 100.609375 178.644531 101.9375 C 179.207031 102.789062 179.75 102.886719 180.570312 102.265625 C 182.933594 100.480469 185.25 98.621094 188.050781 97.523438 C 188.804688 97.230469 188.878906 96.472656 189.03125 95.796875 C 189.929688 91.792969 191.710938 88.140625 193.816406 84.679688 C 195.480469 81.960938 196.292969 79.199219 196.148438 75.988281 C 195.925781 71.085938 198.46875 67.023438 200.507812 62.824219 C 200.5 66.238281 199.03125 69.3125 198.574219 72.601562 C 198.109375 75.910156 199.109375 79.277344 197.710938 83.085938 C 199.660156 81.648438 199.671875 80.167969 199.789062 78.707031 C 200.109375 74.761719 200.472656 70.820312 201.792969 67.058594 C 202.128906 66.105469 202.265625 64.949219 203.585938 64.347656 C 204.289062 65.667969 203.984375 66.933594 203.789062 68.136719 C 203.21875 71.746094 202.574219 75.347656 201.972656 78.949219 C 201.5 81.78125 200.257812 84.003906 197.308594 84.832031 C 196.550781 85.039062 196.125 85.492188 195.75 86.078125 C 193.683594 89.332031 191.695312 92.621094 190.480469 96.714844 C 193.457031 96.300781 196.238281 96.328125 199.019531 96.320312 C 199.910156 96.320312 200.082031 95.707031 200.320312 95 C 202.34375 88.914062 204 82.710938 206.054688 76.632812 C 207.191406 73.28125 207.761719 69.734375 208.511719 66.257812 C 208.902344 64.464844 208.621094 62.667969 207.761719 61.070312 C 205.597656 57.066406 203.394531 53.074219 199.472656 50.417969 C 198.050781 49.457031 197.039062 48.121094 196.167969 46.660156 C 195.3125 45.214844 194.402344 43.804688 193.546875 42.355469 C 191.855469 39.484375 189.375 37.601562 186.214844 36.703125 C 183.683594 35.988281 182.042969 34.5625 181.507812 31.945312 C 181.230469 30.582031 180.285156 29.722656 179.1875 29 C 173.207031 25.0625 167.746094 20.570312 163.566406 14.652344 C 162.136719 12.621094 159.742188 11.960938 157.523438 11.140625 C 157.363281 11.007812 157.199219 10.875 157.039062 10.742188 C 156.300781 10.089844 155.542969 9.457031 154.824219 8.78125 C 154.339844 8.324219 153.582031 7.835938 154.160156 7.078125 C 154.714844 6.347656 155.429688 6.976562 156.035156 7.203125 C 156.496094 7.378906 156.914062 7.664062 157.34375 7.90625 C 158.972656 8.839844 160.570312 9.824219 162.230469 10.695312 C 163.664062 11.445312 164.953125 12.378906 165.804688 13.734375 C 168.402344 17.835938 172.164062 20.765625 175.855469 23.734375 C 178.519531 25.867188 180.867188 28.179688 182.324219 31.328125 C 183.316406 33.484375 184.992188 34.644531 187.355469 35.480469 C 191.085938 36.792969 194.972656 36.542969 198.699219 37.46875 C 205.320312 39.101562 212.230469 40.367188 218.148438 43.582031 C 225.054688 47.335938 232.253906 50.652344 238.699219 55.332031 C 251.5625 64.671875 261.300781 76.402344 268.003906 90.847656 C 272.042969 99.566406 274.742188 108.519531 275.765625 118.074219 C 276.871094 128.398438 276.625 138.59375 274.253906 148.726562 C 273.710938 151.027344 273.484375 153.40625 273.011719 155.730469 C 271.777344 161.792969 269.734375 167.535156 266.035156 172.585938 C 265.222656 173.699219 265.019531 174.832031 265.101562 176.179688 C 265.402344 181.117188 265.527344 186.070312 264.984375 191.007812 C 264.699219 193.601562 265.125 196.144531 265.660156 198.664062 C 266.203125 201.171875 265.957031 203.601562 265.046875 205.945312 C 264.15625 208.246094 263.300781 210.597656 262.09375 212.730469 C 260.605469 215.367188 259.664062 218.097656 259.242188 221.082031 C 258.832031 224.015625 258.183594 226.917969 257.703125 229.84375 C 257.378906 231.828125 256.910156 233.683594 255.457031 235.214844 C 254.234375 236.5 254.21875 238.308594 253.871094 239.929688 C 253.582031 241.296875 253.253906 242.632812 252.46875 243.800781 C 251.097656 245.847656 249.449219 246.152344 247.414062 244.773438 C 247.246094 244.664062 247.070312 244.558594 246.9375 244.414062 C 241.1875 238.238281 233.664062 234.601562 226.621094 230.28125 C 224.761719 229.140625 222.914062 228.003906 221.214844 226.632812 C 218.984375 224.824219 216.828125 222.960938 213.839844 222.445312 C 213.109375 222.320312 212.292969 221.832031 211.828125 221.261719 C 210.515625 219.65625 209.207031 219.804688 207.453125 220.589844 C 198.957031 224.378906 190.054688 225.214844 180.792969 224.742188 C 170.285156 224.207031 160.242188 221.820312 150.417969 218.441406 C 140.082031 214.878906 130.1875 210.25 122.128906 202.640625 C 114.796875 195.726562 107.804688 188.566406 103.019531 179.398438 C 97.949219 169.691406 93.511719 159.839844 91.476562 149.039062 C 86.886719 124.726562 90.335938 101.542969 101.933594 79.75 C 108.066406 68.226562 116.90625 58.90625 127.746094 51.5625 C 129.136719 50.625 130.625 49.824219 132.105469 49.039062 C 132.582031 48.789062 133.046875 48.316406 133.851562 48.574219 C 130.554688 51.027344 127.296875 53.351562 124.152344 55.835938 C 113.894531 63.941406 105.550781 73.679688 100.605469 85.855469 C 94.332031 101.328125 91.308594 117.515625 91.667969 134.246094 C 91.792969 139.910156 93.324219 145.386719 94.570312 150.882812 C 95.710938 155.910156 97.441406 160.777344 99.515625 165.472656 C 103.503906 174.53125 108.109375 183.335938 113.8125 191.417969 C 119.152344 198.988281 125.820312 205.234375 134.449219 209.253906 C 144.796875 214.078125 155.355469 218.160156 166.542969 220.535156 C 172.898438 221.875 179.347656 221.597656 185.757812 221.632812 C 192.683594 221.675781 199.601562 221.277344 206.320312 219.289062 C 207.398438 218.96875 209.15625 219.199219 209.28125 217.933594 C 209.441406 216.320312 208.832031 214.585938 207.203125 213.601562 C 205.347656 212.472656 203.523438 211.25 201.578125 210.316406 C 200 209.566406 198.652344 208.699219 197.824219 207.132812 C 197.289062 206.117188 196.488281 205.464844 195.367188 205.152344 C 194.089844 204.789062 193.03125 204.039062 192.308594 202.925781 C 190.515625 200.179688 187.878906 198.449219 185.117188 196.875 C 183.90625 196.1875 182.773438 195.4375 181.800781 194.414062 C 179.207031 191.714844 178.371094 188.683594 179.964844 185.324219 C 179.5625 184.59375 179.027344 184.707031 178.582031 184.777344 C 173.496094 185.597656 168.769531 184.191406 164.144531 182.371094 C 161.933594 181.5 159.679688 180.792969 157.449219 180.011719 C 146.730469 176.257812 137.984375 170.003906 132.539062 159.742188 C 132.40625 159.492188 132.351562 159.191406 132.289062 158.90625 C 132.273438 158.835938 132.359375 158.738281 132.46875 158.511719 C 133.5 158.808594 133.886719 159.769531 134.386719 160.511719 C 137.582031 165.226562 141.515625 169.199219 145.980469 172.730469 C 149.535156 175.546875 153.457031 177.523438 157.753906 178.816406 C 159.929688 179.46875 162.078125 180.191406 164.191406 181.046875 C 168.949219 182.96875 173.941406 183.488281 179.027344 183.433594 C 180.167969 183.417969 180.882812 183.050781 181.257812 181.9375 C 181.996094 179.777344 182.765625 177.667969 181.941406 175.3125 C 181.292969 173.46875 181.648438 171.578125 182.191406 169.761719 C 182.957031 167.203125 183.777344 164.664062 184.652344 162.140625 C 186.347656 157.246094 186.53125 152.273438 185.589844 147.21875 C 185.464844 146.554688 185.167969 145.875 185.695312 145.097656 C 187.328125 145.605469 187.449219 147.167969 187.609375 148.386719 C 188.175781 152.703125 188.53125 157.0625 187.503906 161.363281 C 186.933594 163.761719 186.160156 166.117188 185.429688 168.476562 C 184.660156 170.949219 184.09375 173.386719 184.894531 176.019531 C 185.445312 177.835938 185.152344 179.761719 184.652344 181.597656 C 184.128906 183.503906 183.511719 185.378906 182.957031 187.277344 C 182.09375 190.199219 183.546875 193.671875 186.148438 195.109375 C 189.179688 196.792969 191.792969 198.988281 194.402344 201.296875 C 196.773438 203.398438 199.441406 205.136719 201.695312 207.480469 C 202.851562 208.683594 204.9375 209.273438 206.625 210.0625 C 209.910156 211.582031 211.828125 214.113281 212.835938 217.464844 C 212.949219 217.828125 212.828125 218.265625 213.136719 218.566406 C 213.554688 218.960938 213.96875 219.519531 214.636719 219.171875 C 215.152344 218.90625 215.171875 218.300781 215.019531 217.855469 C 214.207031 215.503906 213.96875 213.03125 213.351562 210.644531 C 212.320312 206.679688 212.949219 202.933594 214.910156 199.46875 C 217.265625 195.304688 218.46875 190.679688 220.410156 186.355469 C 220.722656 185.652344 220.917969 184.824219 220.902344 184.058594 C 220.847656 181.417969 221.960938 179.269531 223.566406 177.3125 C 224.636719 176.011719 225.707031 174.71875 226.507812 173.230469 C 228.058594 170.332031 227.605469 167.132812 224.804688 165.410156 C 221.1875 163.183594 218.34375 159.84375 214.261719 158.300781 C 212.738281 157.722656 211.695312 156.429688 211.042969 154.949219 C 209.777344 152.085938 207.640625 150.269531 204.832031 148.914062 C 200.320312 146.730469 197.351562 142.953125 195.9375 138.191406 C 194.796875 138.53125 194.332031 139.492188 193.777344 140.375 C 192.15625 142.933594 189.949219 144.253906 186.808594 143.796875 C 185.152344 143.550781 183.484375 143.449219 181.820312 144.039062 C 180.75 144.421875 179.671875 144.054688 178.683594 143.539062 C 177.546875 142.945312 176.335938 142.460938 175.285156 141.738281 C 174.074219 140.902344 172.84375 140.636719 171.398438 140.644531 C 168.582031 140.652344 167.203125 139.65625 166.328125 136.988281 C 165.625 134.851562 164.636719 132.691406 165.617188 130.367188 C 165.972656 129.527344 165.589844 129.101562 164.992188 128.644531 C 163.464844 127.480469 162.738281 125.910156 162.832031 124.003906 C 162.871094 123.078125 162.40625 122.566406 161.683594 122.113281 C 159.164062 120.535156 157.183594 118.253906 154.582031 116.765625 C 153.273438 116.015625 152.371094 114.796875 151.613281 113.503906 C 150.730469 112 149.421875 111.144531 147.71875 111.238281 C 141.050781 111.597656 136.40625 108.460938 133.074219 102.953125 C 133.023438 102.878906 132.90625 102.851562 132.824219 102.792969 Z M 208.050781 127.675781 C 209.242188 127.765625 209.957031 128.628906 210.785156 129.324219 C 214.589844 132.480469 218.386719 135.652344 222.226562 138.773438 C 224.921875 140.972656 227.871094 142.765625 231.167969 143.957031 C 232.578125 144.464844 233.867188 145.222656 235 146.179688 C 237.050781 147.933594 239.359375 149.253906 241.820312 150.320312 C 244.394531 151.429688 246.648438 153.007812 248.761719 154.816406 C 251.757812 157.382812 254.449219 160.277344 257.503906 162.800781 C 259.847656 164.742188 261.777344 167.183594 263.300781 169.886719 C 263.613281 170.4375 263.636719 171.25 264.769531 171.515625 C 265.890625 168.949219 267.765625 166.757812 268.761719 164.058594 C 271.996094 155.277344 274.074219 146.257812 274.039062 136.839844 C 274.03125 134.964844 273.824219 133.078125 273.960938 131.214844 C 274.902344 118.566406 272.121094 106.660156 266.835938 95.257812 C 265.171875 91.667969 263.425781 88.113281 261.589844 84.617188 C 258.636719 78.984375 255.179688 73.773438 250.144531 69.652344 C 242.960938 63.761719 236.050781 57.53125 228.914062 51.578125 C 225.171875 48.457031 220.890625 46.210938 216.175781 44.804688 C 211.722656 43.476562 207.335938 41.945312 202.878906 40.640625 C 200.25 39.867188 197.550781 39.359375 194.527344 38.652344 C 195.910156 40.847656 197.132812 42.640625 198.183594 44.527344 C 199.214844 46.371094 200.492188 47.925781 202.195312 49.199219 C 205.242188 51.472656 207.542969 54.402344 209.566406 57.628906 C 211.890625 61.328125 212.515625 65.171875 211.097656 69.25 C 208.023438 78.109375 206.078125 87.328125 202.53125 96.035156 C 202.175781 96.898438 201.96875 97.648438 202.59375 98.523438 C 203.683594 100.054688 204.636719 101.683594 204.992188 103.574219 C 205.097656 104.109375 205.417969 104.378906 205.929688 104.582031 C 208.921875 105.730469 209.75 108.390625 210.367188 111.132812 C 210.632812 112.292969 210.75 113.476562 211.683594 114.351562 C 212.835938 115.4375 212.859375 116.808594 212.515625 118.203125 C 211.917969 120.625 210.945312 122.878906 209.441406 124.894531 C 208.824219 125.730469 207.859375 126.464844 208.113281 127.730469 C 207.933594 127.800781 207.683594 127.820312 207.59375 127.953125 C 205.152344 131.398438 202.351562 134.367188 198.238281 135.855469 C 197.042969 136.285156 197.386719 137.15625 197.914062 138.015625 C 200.234375 141.828125 203.40625 144.742188 207.316406 146.835938 C 208.804688 147.632812 210.269531 148.441406 211.507812 149.59375 C 213.957031 151.871094 216.292969 154.242188 219.699219 155.171875 C 220.769531 155.464844 221.675781 156.445312 222.601562 157.1875 C 223.832031 158.175781 224.929688 159.351562 226.222656 160.25 C 230.257812 163.042969 230.9375 166.777344 229.636719 171.222656 C 229.019531 173.335938 228.109375 175.289062 226.90625 177.113281 C 226.148438 178.265625 225.339844 179.394531 224.527344 180.519531 C 223.273438 182.25 222.382812 184.003906 223.074219 186.277344 C 223.34375 187.167969 223.148438 188.246094 222.996094 189.210938 C 222.308594 193.636719 221.203125 197.910156 218.644531 201.703125 C 217.371094 203.585938 216.398438 205.652344 215.546875 207.765625 C 215.257812 208.496094 214.820312 209.628906 215.542969 209.949219 C 217.070312 210.617188 217.835938 212.6875 219.25 212.722656 C 222.273438 212.808594 224.09375 214.621094 226.375 216.070312 C 228.058594 217.132812 229.378906 218.140625 230.199219 219.886719 C 230.6875 220.921875 231.285156 221.75 232.648438 221.597656 C 234.324219 221.417969 235.429688 222.355469 236.355469 223.613281 C 236.933594 224.40625 237.460938 225.539062 238.46875 225.5625 C 240.542969 225.617188 241.433594 226.8125 242.078125 228.496094 C 242.417969 229.394531 243.28125 229.742188 244.011719 230.242188 C 245.839844 231.492188 246.648438 233.183594 246.515625 235.277344 C 244.976562 234.308594 244.992188 231.890625 242.988281 231.492188 C 240.839844 231.070312 240.410156 229.273438 239.6875 227.683594 C 239.617188 227.527344 239.386719 227.390625 239.214844 227.363281 C 237.886719 227.148438 237.28125 226.136719 236.605469 225.136719 C 235.582031 223.621094 234.214844 222.773438 232.300781 223.371094 C 230.410156 223.960938 229.082031 223.128906 228.539062 221.453125 C 227.476562 218.191406 223.496094 217.800781 222.230469 214.789062 C 222.15625 214.601562 221.695312 214.449219 221.445312 214.484375 C 219.152344 214.832031 217.550781 213.507812 215.992188 212.042969 C 215.453125 213.238281 216.027344 214.128906 216.277344 215.054688 C 216.558594 216.097656 217.175781 217.105469 216.953125 218.210938 C 216.640625 219.773438 217.46875 220.449219 218.644531 221.242188 C 224.785156 225.394531 230.867188 229.628906 236.945312 233.871094 C 240.1875 236.132812 242.835938 239.113281 246.132812 241.347656 C 250.1875 244.085938 250.082031 244.210938 250.992188 239.496094 C 251.425781 237.273438 251.730469 234.949219 253.621094 233.355469 C 255.144531 232.070312 255.839844 230.378906 256.292969 228.515625 C 256.808594 226.402344 257.15625 224.261719 257.398438 222.089844 C 257.71875 219.234375 258.164062 216.410156 259.664062 213.863281 C 261.335938 211.035156 262.363281 207.933594 263.421875 204.851562 C 264.074219 202.941406 264.351562 200.980469 263.859375 199.011719 C 262.996094 195.601562 263.058594 192.167969 263.183594 188.699219 C 263.308594 185.242188 263.042969 181.785156 262.863281 178.324219 C 262.507812 171.453125 258.34375 166.597656 254.019531 162.023438 C 252.023438 159.914062 249.351562 158.300781 246.625 156.855469 C 242.203125 154.503906 237.773438 152 234.183594 148.34375 C 233.121094 147.257812 231.722656 146.6875 230.261719 146.347656 C 228.40625 145.910156 226.710938 145.128906 225.167969 144.03125 C 220.324219 140.597656 215.703125 136.875 211.417969 132.765625 C 209.972656 131.347656 208.546875 129.804688 208.050781 127.675781 Z M 167.03125 127.773438 C 168.332031 125.089844 170.171875 122.886719 171.023438 120.070312 C 171.785156 117.523438 173.566406 115.605469 175.9375 114.378906 C 176.800781 113.933594 178.046875 112.914062 178.761719 114.289062 C 179.347656 115.417969 177.96875 115.957031 177.195312 116.425781 C 172.585938 119.21875 171.363281 124.46875 168.441406 128.484375 C 167.863281 129.277344 167.898438 130.570312 167.808594 131.648438 C 167.65625 133.441406 170.214844 137.792969 171.683594 137.820312 C 174.027344 137.863281 175.375 139.277344 177.050781 140.527344 C 178.929688 141.933594 181.023438 143.773438 183.714844 141.847656 C 184.214844 141.492188 184.859375 141.597656 185.445312 141.730469 C 188.144531 142.3125 189.980469 141.25 191.339844 138.90625 C 193.234375 135.652344 196.097656 133.550781 199.421875 131.765625 C 204.316406 129.121094 207.433594 124.59375 210.320312 119.972656 C 210.722656 119.324219 210.875 118.488281 210.992188 117.71875 C 211.085938 117.15625 211.152344 116.363281 210.847656 116 C 208.964844 113.789062 208.003906 111.035156 206.4375 108.644531 C 205.917969 107.84375 205.304688 107.378906 204.234375 107.566406 C 200.992188 108.128906 197.414062 107.738281 195.203125 111 C 195.152344 111.078125 195.042969 111.113281 194.957031 111.167969 C 194.601562 111.402344 194.234375 111.488281 193.878906 111.203125 C 193.511719 110.902344 193.546875 110.480469 193.714844 110.117188 C 194.894531 107.585938 196.605469 105.660156 199.5 105.074219 C 200.242188 104.921875 201.085938 105.195312 201.871094 104.511719 C 201.402344 103.59375 200.75 102.703125 200.484375 101.710938 C 199.929688 99.609375 198.503906 98.929688 196.550781 98.816406 C 191.71875 98.539062 187.621094 100.242188 184.25 103.613281 C 181.097656 106.765625 177.558594 109.074219 173.148438 110.070312 C 170.9375 110.570312 169.191406 111.96875 168.621094 114.308594 C 168.101562 116.472656 167.183594 118.378906 165.792969 120.109375 C 165.105469 120.972656 164.625 121.945312 165.589844 123.03125 C 165.996094 123.476562 166.183594 124.117188 165.300781 124.386719 C 164.457031 124.652344 164.601562 125.257812 164.875 125.796875 C 165.292969 126.578125 165.738281 127.363281 167.03125 127.773438 Z M 178.21875 103.707031 C 177.09375 101.578125 175.363281 100.179688 173.316406 99.09375 C 168.789062 96.695312 164.347656 94.171875 159.597656 92.175781 C 157.324219 91.222656 155.277344 91.007812 153.03125 91.625 C 151.988281 91.910156 150.953125 92.257812 149.953125 92.675781 C 147.578125 93.65625 145.5 93.15625 143.644531 91.507812 C 142.300781 90.320312 140.835938 89.332031 139.285156 88.457031 C 135.402344 86.277344 131.871094 83.648438 128.679688 80.222656 C 128.5625 81.875 129.164062 83.136719 129.644531 84.402344 C 130.382812 86.339844 131.300781 88.246094 131.472656 90.324219 C 131.917969 95.679688 134.597656 100.035156 137.566406 104.261719 C 139.421875 106.90625 141.976562 108.449219 145.222656 108.804688 C 146.007812 108.886719 146.78125 109.09375 147.566406 109.128906 C 149.632812 109.21875 151.285156 110.1875 152.136719 111.960938 C 154.222656 116.335938 158.902344 117.503906 162.175781 120.382812 C 162.609375 120.765625 163.234375 120.953125 163.707031 120.269531 C 165.152344 118.191406 167.042969 116.472656 167.648438 113.769531 C 168.335938 110.671875 170.332031 108.371094 173.183594 106.800781 C 174.886719 105.875 176.855469 105.3125 178.21875 103.707031 Z M 178.21875 103.707031 "/><path style=" stroke:none;fill-rule:nonzero;fill:#3e473a;fill-opacity:1;" d="M 157.050781 10.765625 C 157.210938 10.898438 157.378906 11.027344 157.539062 11.160156 C 158.984375 13.296875 160.617188 15.285156 162.558594 16.96875 C 165.648438 19.644531 168.28125 22.703125 170.5625 26.078125 C 172.132812 28.394531 173.96875 30.453125 176.246094 32.078125 C 178.34375 33.582031 179.722656 35.5625 180.507812 37.984375 C 181.160156 40.019531 182.238281 41.660156 184.046875 42.933594 C 185.3125 43.832031 186.433594 45.035156 187.371094 46.277344 C 188.691406 48.039062 190.421875 49.253906 192.441406 49.660156 C 197.433594 50.652344 199.191406 56.96875 197.578125 61.214844 C 196.660156 63.628906 195.492188 65.929688 194.0625 68.058594 C 192.070312 71.023438 191.132812 74.25 190.828125 77.78125 C 190.542969 81.125 189.984375 84.441406 189.519531 87.773438 C 189.234375 89.804688 187.816406 91.320312 187.015625 93.113281 C 186.148438 95.046875 185.375 97.070312 183.839844 98.671875 C 183.992188 95.820312 184.511719 93.074219 185.890625 90.597656 C 186.640625 89.242188 186.933594 87.90625 186.945312 86.367188 C 186.980469 82.210938 187.640625 78.09375 188.261719 73.996094 C 188.886719 69.820312 191.257812 66.292969 193.207031 62.636719 C 194.199219 60.765625 194.949219 58.878906 194.910156 56.730469 C 194.875 54.902344 194.199219 53.484375 192.503906 52.628906 C 191.621094 52.183594 190.785156 51.648438 189.894531 51.222656 C 188.40625 50.507812 187.148438 49.660156 187.03125 47.789062 C 186.960938 46.695312 186.25 46.339844 185.222656 46.273438 C 184.347656 46.210938 183.484375 45.929688 182.609375 45.757812 C 179.742188 45.1875 177.683594 43.546875 176.882812 40.757812 C 175.988281 37.621094 174.25 35.054688 172.300781 32.539062 C 171.089844 30.980469 170.015625 29.3125 168.886719 27.691406 C 167.539062 25.738281 166.300781 23.691406 164.632812 21.996094 C 161.722656 19.046875 158.589844 16.308594 156.480469 12.703125 C 155.3125 13.074219 155.742188 13.894531 155.722656 14.484375 C 155.585938 17.976562 154.929688 21.355469 153.601562 24.589844 C 151.1875 30.464844 148.28125 36.078125 144.449219 41.160156 C 142.230469 44.109375 140.230469 47.121094 139.222656 50.714844 C 138.878906 51.933594 138.246094 53.03125 137.328125 53.964844 C 138.242188 49.917969 139.449219 45.988281 141.445312 42.363281 C 144.351562 37.070312 146.890625 31.605469 149.464844 26.152344 C 151.460938 21.925781 153.128906 17.59375 153.496094 12.894531 C 153.734375 9.902344 154.730469 9.570312 157.050781 10.765625 Z M 157.050781 10.765625 "/><path style=" stroke:none;fill-rule:nonzero;fill:#3e473a;fill-opacity:1;" d="M 172.449219 90.1875 C 171.148438 89.429688 170.660156 88.234375 170.152344 87.070312 C 169.011719 84.449219 167.816406 81.847656 166.371094 79.378906 C 164.617188 76.390625 164.125 73.058594 164.046875 69.691406 C 163.859375 61.488281 163.019531 53.367188 161.472656 45.296875 C 161.027344 42.96875 161.097656 42.796875 161.640625 40.625 C 162.636719 41.214844 162.789062 42.191406 163.058594 43.09375 C 165.554688 51.25 167.324219 59.503906 166.695312 68.121094 C 166.382812 72.417969 167.164062 76.535156 168.859375 80.535156 C 170.207031 83.683594 171.265625 86.960938 172.449219 90.1875 Z M 172.449219 90.1875 "/><path style=" stroke:none;fill-rule:nonzero;fill:#3e473a;fill-opacity:1;" d="M 132.808594 102.835938 C 128.289062 110.890625 125.765625 119.554688 125.410156 128.761719 C 125.152344 135.386719 126.035156 141.945312 127.53125 148.414062 C 127.664062 148.976562 127.996094 149.519531 127.691406 150.152344 C 126.730469 149.414062 126.664062 148.253906 126.425781 147.265625 C 125.382812 142.855469 124.457031 138.414062 123.53125 133.976562 C 123.351562 133.113281 123.269531 132.21875 123.269531 131.332031 C 123.308594 123.246094 124.964844 115.480469 128.152344 108.050781 C 128.777344 106.597656 129.679688 105.292969 130.667969 104.054688 C 131.230469 103.34375 131.816406 102.664062 132.878906 102.914062 C 132.898438 102.914062 132.808594 102.835938 132.808594 102.835938 Z M 132.808594 102.835938 "/><path style=" stroke:none;fill-rule:nonzero;fill:#3e473a;fill-opacity:1;" d="M 197.21875 183.859375 C 195.980469 182.933594 196 181.589844 195.820312 180.386719 C 195.394531 177.5625 195.0625 174.742188 195.410156 171.855469 C 195.679688 169.609375 195.644531 167.328125 195.679688 165.0625 C 195.75 160.609375 195.660156 156.171875 193.582031 152.0625 C 193.316406 151.542969 193.074219 150.894531 193.789062 150.546875 C 194.316406 150.289062 194.714844 150.761719 195.027344 151.132812 C 196.878906 153.335938 197.605469 156.007812 197.921875 158.761719 C 198.191406 161.203125 198.324219 163.683594 198.253906 166.140625 C 198.171875 169.085938 197.789062 172.027344 197.558594 174.976562 C 197.320312 177.917969 197.351562 180.867188 197.21875 183.859375 Z M 197.21875 183.859375 "/><path style=" stroke:none;fill-rule:nonzero;fill:#3e473a;fill-opacity:1;" d="M 178.121094 91.1875 C 176.953125 89.9375 176.855469 88.78125 176.648438 87.65625 C 175.617188 82.058594 175.507812 76.570312 177.070312 70.953125 C 178.601562 65.472656 178.164062 59.804688 176.691406 52.796875 C 177.835938 53.71875 178.101562 54.851562 178.332031 55.929688 C 179.554688 61.667969 180.3125 67.445312 179.019531 73.273438 C 178.113281 77.363281 177.683594 81.4375 178.191406 85.625 C 178.394531 87.308594 178.539062 89.058594 178.121094 91.1875 Z M 178.121094 91.1875 "/><path style=" stroke:none;fill-rule:nonzero;fill:#3e473a;fill-opacity:1;" d="M 142.734375 64.101562 C 142.78125 63.90625 142.835938 63.71875 142.871094 63.523438 C 143.226562 61.648438 144.472656 58.824219 145.714844 57.238281 C 146.175781 56.65625 146.371094 56.035156 146.328125 55.320312 C 146.28125 54.429688 146.25 53.539062 146.160156 52.65625 C 145.855469 49.671875 146.570312 47.253906 149.394531 45.632812 C 151.390625 44.484375 152.386719 42.835938 151.023438 40.445312 C 150.339844 39.25 151.027344 38.164062 151.800781 37.195312 C 152.664062 36.121094 153.566406 35.0625 154.367188 33.9375 C 155.5 32.34375 156.105469 30.613281 155.363281 28.644531 C 154.910156 27.453125 155.160156 26.3125 155.625 25.1875 C 156.113281 24.003906 156.53125 22.808594 156.691406 21.5 C 157.238281 21.691406 157.128906 22.132812 157.070312 22.414062 C 156.570312 25.117188 156.085938 27.726562 157.273438 30.488281 C 157.941406 32.039062 156.953125 33.769531 155.980469 35.179688 C 155.3125 36.152344 154.539062 37.066406 153.777344 37.96875 C 153.253906 38.582031 152.707031 39.171875 152.886719 40.054688 C 153.394531 42.640625 152.101562 44.539062 150.277344 45.972656 C 147.90625 47.835938 147.167969 50.125 147.523438 52.984375 C 147.824219 55.445312 147.46875 57.691406 145.179688 59.253906 C 144.347656 59.824219 143.992188 60.730469 144.082031 61.847656 C 144.160156 62.816406 144 63.859375 142.671875 64.019531 Z M 142.734375 64.101562 "/><path style=" stroke:none;fill-rule:nonzero;fill:#3e473a;fill-opacity:1;" d="M 150.492188 65.5625 C 152.253906 69.6875 153.246094 73.71875 155.589844 77.195312 C 157.871094 80.582031 161.515625 82.828125 163.324219 86.570312 C 156.078125 82.460938 150.964844 76.800781 149.972656 68.199219 C 149.875 67.460938 149.605469 66.667969 150.492188 65.5625 Z M 150.492188 65.5625 "/><path style=" stroke:none;fill-rule:nonzero;fill:#3e473a;fill-opacity:1;" d="M 201.667969 177.035156 C 202.886719 177.785156 203.226562 179.074219 203.601562 180.261719 C 204.652344 183.640625 205.605469 187.058594 206.59375 190.457031 C 206.765625 191.0625 206.835938 191.652344 206.089844 191.917969 C 205.550781 192.113281 205.144531 191.792969 204.820312 191.410156 C 204.632812 191.1875 204.464844 190.929688 204.339844 190.671875 C 202.40625 186.632812 201.175781 182.410156 201.054688 177.910156 C 201.050781 177.628906 201.085938 177.328125 201.667969 177.035156 Z M 201.667969 177.035156 "/><path style=" stroke:none;fill-rule:nonzero;fill:#3e473a;fill-opacity:1;" d="M 211.195312 174.734375 C 210.269531 172.722656 209.652344 171.230469 208.90625 169.796875 C 207.273438 166.648438 205.269531 163.726562 203.296875 160.785156 C 202.84375 160.109375 201.855469 159.199219 202.800781 158.515625 C 203.65625 157.898438 204.378906 158.988281 204.902344 159.636719 C 207.566406 162.953125 209.761719 166.550781 211.1875 170.574219 C 211.585938 171.6875 211.855469 172.835938 211.195312 174.734375 Z M 211.195312 174.734375 "/><path style=" stroke:none;fill-rule:nonzero;fill:#3e473a;fill-opacity:1;" d="M 142.671875 64.03125 C 142.371094 65.492188 141.34375 66.78125 141.90625 68.46875 C 142.191406 69.324219 141.46875 70.152344 140.800781 70.769531 C 138.839844 72.574219 138.554688 74.617188 139.882812 76.890625 C 140.300781 77.601562 140.5625 78.34375 140.460938 79.144531 C 140.222656 80.929688 140.464844 82.675781 140.773438 84.457031 C 139.722656 83.078125 138.949219 81.605469 138.875 79.847656 C 138.839844 79.039062 138.664062 78.308594 138.253906 77.601562 C 136.871094 75.214844 137.421875 72.984375 139.144531 71.070312 C 140.238281 69.859375 141.246094 68.867188 140.933594 66.988281 C 140.722656 65.738281 141.890625 64.921875 142.746094 64.109375 C 142.734375 64.101562 142.671875 64.03125 142.671875 64.03125 Z M 142.671875 64.03125 "/><path style=" stroke:none;fill-rule:nonzero;fill:#3e473a;fill-opacity:1;" d="M 170.402344 31.96875 C 166.25 30.339844 162.21875 28.554688 160.507812 23.90625 C 160.320312 23.394531 159.839844 22.90625 159.375 22.585938 C 157.441406 21.246094 156.90625 19.386719 157.148438 17.183594 C 157.898438 16.863281 158.058594 17.417969 158.15625 17.835938 C 158.984375 21.273438 161.773438 23.554688 163.296875 26.585938 C 164.1875 28.367188 165.867188 29.222656 167.675781 29.886719 C 168.753906 30.285156 169.910156 30.679688 170.402344 31.96875 Z M 170.402344 31.96875 "/><path style=" stroke:none;fill-rule:nonzero;fill:#3e473a;fill-opacity:1;" d="M 184.125 54.75 C 185.1875 56.96875 185.382812 59.324219 185.425781 61.710938 C 185.425781 61.835938 185.207031 62.023438 185.054688 62.09375 C 184.597656 62.292969 184.25 61.96875 184.082031 61.65625 C 182.894531 59.375 182.976562 57.070312 184.125 54.75 Z M 184.125 54.75 "/><path style=" stroke:none;fill-rule:nonzero;fill:#3e473a;fill-opacity:1;" d="M 238.484375 146.835938 C 242.40625 131.535156 243.023438 116.652344 235.800781 102.113281 C 236.988281 102.058594 237.085938 102.726562 237.316406 103.164062 C 241.96875 111.980469 243.804688 121.335938 242.640625 131.265625 C 242.167969 135.289062 241.988281 139.359375 240.617188 143.226562 C 240.171875 144.476562 239.867188 145.859375 238.484375 146.835938 Z M 238.484375 146.835938 "/><path style=" stroke:none;fill-rule:nonzero;fill:#3e473a;fill-opacity:1;" d="M 209.671875 77.726562 C 210.917969 76.996094 211.710938 77.503906 212.488281 77.863281 C 218.628906 80.714844 224.28125 84.296875 229.058594 89.15625 C 231.785156 91.933594 233.210938 94.644531 233.929688 98.71875 C 228.308594 88.691406 219.582031 82.636719 209.671875 77.726562 Z M 209.671875 77.726562 "/><path style=" stroke:none;fill-rule:nonzero;fill:#3e473a;fill-opacity:1;" d="M 251.117188 195.964844 C 249.457031 195.179688 249.152344 193.886719 248.65625 192.773438 C 247.730469 190.699219 246.917969 188.585938 246.007812 186.515625 C 245.472656 185.304688 245.355469 184.03125 245.320312 182.753906 C 245.222656 179.175781 243.585938 176.328125 241.222656 173.816406 C 239.796875 172.308594 238.191406 171 236.464844 169.824219 C 235 168.824219 233.566406 167.757812 232.378906 166.429688 C 231.242188 165.164062 230.324219 163.769531 230.070312 162.042969 C 229.949219 161.242188 229.9375 160.347656 230.828125 160 C 231.621094 159.6875 232.09375 160.414062 232.480469 160.953125 C 234.339844 163.453125 236.808594 165.253906 239.277344 167.0625 C 240.554688 167.996094 241.710938 169.082031 242.730469 170.289062 C 244.921875 172.878906 246.175781 175.792969 245.847656 179.253906 C 245.707031 180.75 245.703125 182.257812 246.578125 183.550781 C 248.273438 186.0625 249.027344 188.90625 249.761719 191.777344 C 250.097656 193.070312 250.582031 194.335938 251.117188 195.964844 Z M 251.117188 195.964844 "/><path style=" stroke:none;fill-rule:nonzero;fill:#3e473a;fill-opacity:1;" d="M 232.363281 153.808594 C 232.664062 154.308594 232.960938 154.8125 233.582031 155.839844 C 230.484375 153.914062 227.480469 153.546875 224.554688 152.863281 C 220.0625 151.820312 216.578125 149.128906 213.566406 145.75 C 211.277344 143.183594 209.394531 140.226562 206.464844 138.265625 C 206.117188 138.03125 205.863281 137.691406 205.925781 137.285156 C 206.015625 136.722656 206.507812 136.542969 207.015625 136.472656 C 208.246094 136.304688 209.351562 136.695312 210.402344 137.285156 C 212.316406 138.363281 213.871094 139.875 215.375 141.4375 C 217.21875 143.359375 219.1875 145.164062 220.917969 147.175781 C 223.832031 150.554688 227.664062 152.167969 231.828125 153.230469 C 232.007812 153.441406 232.183594 153.628906 232.363281 153.808594 Z M 232.363281 153.808594 "/><path style=" stroke:none;fill-rule:nonzero;fill:#3e473a;fill-opacity:1;" d="M 240.007812 210.054688 C 238.902344 205.957031 237.78125 202.300781 237.691406 198.433594 C 237.640625 196.457031 237.699219 194.484375 237.78125 192.515625 C 237.914062 189.40625 237.371094 186.421875 236.160156 183.566406 C 236.042969 183.292969 235.9375 183.015625 235.847656 182.730469 C 235.632812 182.035156 234.875 181.203125 235.8125 180.679688 C 236.515625 180.289062 237.03125 181.140625 237.445312 181.660156 C 239.660156 184.414062 241.148438 187.5 241.3125 191.082031 C 241.390625 192.65625 241.335938 194.246094 241.160156 195.8125 C 240.714844 199.742188 240.472656 203.675781 240.707031 207.632812 C 240.75 208.265625 241.007812 208.984375 240.007812 210.054688 Z M 240.007812 210.054688 "/><path style=" stroke:none;fill-rule:nonzero;fill:#3e473a;fill-opacity:1;" d="M 232.363281 153.808594 C 232.183594 153.621094 232.007812 153.433594 231.828125 153.253906 C 231.542969 152.71875 230.722656 151.910156 232.121094 151.953125 C 233.691406 152 235.214844 152.503906 236.660156 153.167969 C 242.730469 155.953125 246.980469 160.636719 250.359375 166.234375 C 250.5625 166.570312 250.722656 166.9375 250.855469 167.308594 C 251.089844 167.953125 251.4375 168.675781 250.570312 169.101562 C 249.886719 169.433594 249.519531 168.859375 249.121094 168.417969 C 246.585938 165.667969 244.003906 162.945312 241.507812 160.160156 C 238.964844 157.292969 235.875 155.253906 232.363281 153.808594 Z M 232.363281 153.808594 "/><path style=" stroke:none;fill-rule:nonzero;fill:#3e473a;fill-opacity:1;" d="M 257.035156 212.246094 C 257.878906 210.984375 258.671875 209.808594 258.050781 208.078125 C 257.578125 206.765625 258.164062 205.347656 258.613281 204.039062 C 259.242188 202.214844 259.457031 200.4375 258.761719 198.550781 C 258.265625 197.214844 258.359375 195.8125 259.09375 194.539062 C 260.117188 192.78125 260.097656 190.992188 259.40625 189.136719 C 258.84375 187.613281 258.707031 186.042969 259.351562 184.511719 C 259.964844 183.070312 259.753906 181.835938 258.726562 180.6875 C 258.183594 180.082031 257.941406 179.324219 257.703125 178.574219 L 257.71875 178.59375 C 260.089844 179.878906 260.929688 181.882812 260.375 184.460938 C 259.976562 186.296875 259.671875 188.058594 260.1875 189.976562 C 260.625 191.589844 260.277344 193.320312 259.539062 194.886719 C 258.957031 196.117188 258.808594 197.347656 259.378906 198.601562 C 260.214844 200.4375 260.039062 202.222656 259.332031 204.050781 C 258.613281 205.894531 258.039062 207.703125 258.914062 209.769531 C 259.601562 211.375 257.863281 211.570312 256.96875 212.195312 Z M 257.035156 212.246094 "/><path style=" stroke:none;fill-rule:nonzero;fill:#3e473a;fill-opacity:1;" d="M 256.96875 212.1875 C 256.238281 212.535156 255.480469 212.996094 255.292969 213.765625 C 254.589844 216.679688 253.003906 219.46875 253.742188 222.613281 C 253.976562 223.605469 253.425781 224.121094 252.835938 224.609375 C 251.410156 225.785156 251.027344 227.3125 251 229.078125 C 250.957031 231.519531 251.015625 233.988281 249.945312 236.445312 C 249.589844 234.84375 249.8125 227.800781 250.214844 226.640625 C 250.25 226.546875 250.25 226.421875 250.304688 226.359375 C 253.363281 223.246094 252.710938 218.898438 253.996094 215.199219 C 254.511719 213.71875 254.894531 212.089844 257.023438 212.238281 C 257.035156 212.246094 256.96875 212.1875 256.96875 212.1875 Z M 256.96875 212.1875 "/><path style=" stroke:none;fill-rule:nonzero;fill:#3e473a;fill-opacity:1;" d="M 248.359375 222.433594 C 246.808594 218.414062 245.097656 214.457031 244.902344 209.894531 C 247.203125 211.632812 249.261719 218.773438 248.359375 222.433594 Z M 248.359375 222.433594 "/><path style=" stroke:none;fill-rule:nonzero;fill:#3e473a;fill-opacity:1;" d="M 257.703125 178.574219 C 257.433594 176.4375 257.140625 174.304688 256.890625 172.160156 C 256.800781 171.410156 256.425781 170.882812 255.804688 170.511719 C 253.15625 168.941406 253.183594 166.417969 253.238281 163.824219 C 254.207031 163.800781 254.246094 164.464844 254.386719 165.011719 C 254.875 166.902344 255.242188 168.78125 256.84375 170.234375 C 257.695312 171.015625 257.695312 172.398438 257.726562 173.578125 C 257.765625 175.25 257.726562 176.917969 257.726562 178.59375 C 257.71875 178.59375 257.703125 178.574219 257.703125 178.574219 Z M 257.703125 178.574219 "/><path style=" stroke:none;fill-rule:nonzero;fill:#3e473a;fill-opacity:1;" d="M 186.757812 135.449219 C 186.691406 135.414062 186.335938 135.347656 186.203125 135.144531 C 185.980469 134.789062 186.125 134.394531 186.398438 134.074219 C 187.488281 132.800781 188.492188 131.4375 189.679688 130.269531 C 193.253906 126.75 196.972656 123.378906 199.386719 118.871094 C 199.644531 118.390625 200.117188 118.199219 200.640625 118.28125 C 201.328125 118.390625 201.585938 118.921875 201.640625 119.554688 C 201.722656 120.609375 201.195312 121.464844 200.667969 122.292969 C 199.226562 124.546875 197.558594 126.640625 195.632812 128.484375 C 193.351562 130.660156 190.910156 132.667969 188.523438 134.734375 C 188.082031 135.117188 187.621094 135.519531 186.757812 135.449219 Z M 186.757812 135.449219 "/><path style=" stroke:none;fill-rule:nonzero;fill:#3e473a;fill-opacity:1;" d="M 180.550781 138.328125 C 179.457031 133.546875 181.53125 130 185.265625 127.417969 C 188.371094 125.269531 191.960938 123.816406 194.671875 120.992188 C 193.734375 123.835938 191.683594 125.75 189.617188 127.632812 C 188.964844 128.226562 188.175781 128.671875 187.476562 129.214844 C 184.191406 131.714844 181.878906 134.734375 182.441406 139.085938 C 181.375 139.484375 181.238281 138.324219 180.535156 138.324219 Z M 180.550781 138.328125 "/><path style=" stroke:none;fill-rule:nonzero;fill:#3e473a;fill-opacity:1;" d="M 180.542969 138.324219 C 177.40625 139.019531 175.257812 136.871094 175.785156 133.582031 C 175.847656 133.203125 176.085938 132.691406 175.925781 132.46875 C 173.796875 129.554688 175.925781 127.273438 177.039062 124.867188 C 177.40625 124.074219 177.949219 123.335938 178.496094 122.648438 C 179.152344 121.828125 179.867188 120.5625 181.085938 121.402344 C 182.34375 122.28125 181.371094 123.34375 180.742188 124.191406 C 179.582031 125.785156 178.253906 127.257812 177.34375 129.019531 C 175.902344 131.808594 176.363281 134.359375 178.617188 136.5 C 179.253906 137.105469 179.894531 137.710938 180.535156 138.316406 C 180.550781 138.328125 180.542969 138.324219 180.542969 138.324219 Z M 180.542969 138.324219 "/><path style=" stroke:none;fill-rule:nonzero;fill:#3e473a;fill-opacity:1;" d="M 185.304688 115.054688 C 186.730469 115.714844 188.050781 114.929688 189.664062 114.816406 C 188.378906 115.828125 187.183594 116.25 185.9375 116.554688 C 185.132812 116.75 184.347656 116.714844 183.789062 116.007812 C 183.207031 115.257812 183.414062 114.386719 183.957031 113.832031 C 185.613281 112.140625 185.902344 109.929688 186.542969 107.800781 C 185.464844 107.996094 185 109.019531 183.949219 109.53125 C 183.9375 108.503906 184.546875 107.988281 185.074219 107.480469 C 186.941406 105.6875 189.125 104.375 191.453125 103.265625 C 192.015625 103.003906 192.636719 102.828125 193.046875 103.425781 C 193.457031 104.019531 193.101562 104.554688 192.628906 104.964844 C 191.578125 105.855469 190.492188 106.710938 189.457031 107.621094 C 188.28125 108.648438 187.09375 109.609375 187.078125 111.464844 C 187.058594 112.816406 185.359375 113.574219 185.304688 115.054688 Z M 185.304688 115.054688 "/><path style=" stroke:none;fill-rule:nonzero;fill:#3e473a;fill-opacity:1;" d="M 190.421875 120.0625 C 189.734375 120.035156 189.570312 119.679688 189.570312 119.269531 C 189.5625 118.636719 189.902344 118.136719 190.347656 117.738281 C 193.273438 115.101562 196.46875 112.835938 199.964844 111.019531 C 200.417969 110.785156 200.917969 110.679688 201.3125 111.125 C 201.785156 111.660156 201.675781 112.273438 201.238281 112.71875 C 200.617188 113.34375 199.929688 113.921875 199.199219 114.40625 C 196.578125 116.152344 193.929688 117.851562 191.285156 119.566406 C 190.960938 119.769531 190.617188 119.941406 190.421875 120.0625 Z M 190.421875 120.0625 "/><path style=" stroke:none;fill-rule:nonzero;fill:#3e473a;fill-opacity:1;" d="M 139.507812 94.984375 C 141.96875 96.632812 144.179688 98.109375 146.382812 99.589844 C 149.796875 101.890625 153.359375 103.59375 157.671875 103.34375 C 160.5625 103.175781 162.976562 104.664062 165.257812 106.285156 C 165.585938 106.515625 165.898438 106.828125 165.75 107.265625 C 165.527344 107.941406 164.984375 107.738281 164.535156 107.59375 C 163.78125 107.34375 163.03125 107.085938 162.324219 106.757812 C 160.585938 105.957031 158.777344 105.527344 156.863281 105.671875 C 152.710938 105.992188 149.109375 104.59375 145.785156 102.253906 C 144.003906 101 142.226562 99.75 140.6875 98.203125 C 139.9375 97.476562 139.039062 96.746094 139.507812 94.984375 Z M 139.507812 94.984375 "/><path style=" stroke:none;fill-rule:nonzero;fill:#3e473a;fill-opacity:1;" d="M 154.597656 96.429688 C 160.890625 95.652344 168.269531 100.261719 170.417969 106.222656 C 168.929688 104.785156 167.488281 103.28125 165.933594 101.917969 C 164.359375 100.542969 162.503906 99.574219 160.597656 98.753906 C 158.628906 97.898438 156.597656 97.195312 154.597656 96.429688 Z M 154.597656 96.429688 "/><path style=" stroke:none;fill-rule:nonzero;fill:#3e473a;fill-opacity:1;" d="M 166.640625 112.738281 C 166.613281 113.316406 166.25 113.773438 165.742188 113.546875 C 164.25 112.878906 162.796875 112.105469 161.375 111.292969 C 161.007812 111.078125 161.160156 110.589844 161.53125 110.332031 C 163.023438 109.269531 166.472656 110.902344 166.640625 112.738281 Z M 166.640625 112.738281 "/><g style="fill:#3e473a;fill-opacity:1;"><g transform="translate(198.343335, 141.498151)"><path style="stroke:none" d="M 1.234375 -1.265625 C 1.523438 -1.265625 1.628906 -1.125 1.546875 -0.84375 C 1.503906 -0.738281 1.460938 -0.632812 1.421875 -0.53125 C 1.367188 -0.445312 1.300781 -0.390625 1.21875 -0.359375 C 1.132812 -0.335938 1.039062 -0.347656 0.9375 -0.390625 C 0.863281 -0.421875 0.820312 -0.472656 0.8125 -0.546875 C 0.800781 -0.671875 0.804688 -0.800781 0.828125 -0.9375 C 0.847656 -1.175781 0.984375 -1.285156 1.234375 -1.265625 Z M 1.234375 -1.265625 "/></g></g></g></svg>