<svg xmlns="http://www.w3.org/2000/svg" xmlns:xlink="http://www.w3.org/1999/xlink" width="553" zoomAndPan="magnify" viewBox="0 0 414.75 313.499995" height="418" preserveAspectRatio="xMidYMid meet" version="1.2"><defs/><g id="67962ac253"><g style="fill:#d3d274;fill-opacity:1;"><g transform="translate(63.628674, 133.810992)"><path style="stroke:none" d="M 82.046875 -87.046875 C 80.640625 -83.304688 79.140625 -79.613281 77.546875 -75.96875 C 60.847656 -38.175781 46.523438 -5.742188 34.578125 21.328125 C 31.785156 21.828125 31.21875 20.175781 32.875 16.375 C 35.976562 8.125 41.421875 -4.992188 49.203125 -22.984375 C 56.984375 -40.984375 64.910156 -58.925781 72.984375 -76.8125 C 74.617188 -80.457031 76.117188 -84.144531 77.484375 -87.875 C 77.523438 -88.050781 77.59375 -88.222656 77.6875 -88.390625 C 77.976562 -89.078125 78.222656 -89.816406 78.421875 -90.609375 C 78.617188 -91.410156 78.648438 -92.28125 78.515625 -93.21875 C 77.265625 -93.007812 76.128906 -92.648438 75.109375 -92.140625 C 74.835938 -92.046875 74.597656 -91.957031 74.390625 -91.875 C 64.867188 -87.914062 54.925781 -82.757812 44.5625 -76.40625 C 34.195312 -70.0625 25.179688 -63.441406 17.515625 -56.546875 C 15.878906 -55.046875 14.289062 -53.476562 12.75 -51.84375 C 11.207031 -50.21875 9.765625 -48.476562 8.421875 -46.625 C 6.921875 -44.65625 5.8125 -42.472656 5.09375 -40.078125 C 3.757812 -35.609375 5.082031 -32.210938 9.0625 -29.890625 C 11.851562 -28.316406 14.632812 -27.257812 17.40625 -26.71875 C 20.175781 -26.1875 22.785156 -25.9375 25.234375 -25.96875 C 27.679688 -26.007812 29.800781 -26.140625 31.59375 -26.359375 C 32.332031 -26.390625 32.972656 -26.4375 33.515625 -26.5 C 33.867188 -26.539062 34.222656 -26.523438 34.578125 -26.453125 C 34.941406 -26.390625 35.265625 -26.191406 35.546875 -25.859375 C 35.972656 -25.253906 35.410156 -24.789062 33.859375 -24.46875 C 32.304688 -24.144531 30.1875 -23.984375 27.5 -23.984375 C 24.820312 -23.984375 21.984375 -24.148438 18.984375 -24.484375 C 13.660156 -25.222656 9.523438 -26.363281 6.578125 -27.90625 C 4.765625 -28.800781 3.265625 -30.050781 2.078125 -31.65625 C 0.691406 -33.582031 0.15625 -35.695312 0.46875 -38 C 0.757812 -40.414062 1.507812 -42.648438 2.71875 -44.703125 C 4.726562 -48.054688 7.109375 -51.078125 9.859375 -53.765625 C 14.648438 -58.691406 20.21875 -63.460938 26.5625 -68.078125 C 32.914062 -72.691406 39.492188 -76.960938 46.296875 -80.890625 C 53.109375 -84.816406 59.601562 -88.242188 65.78125 -91.171875 C 68.613281 -92.460938 71.484375 -93.664062 74.390625 -94.78125 C 75.773438 -95.320312 77.21875 -95.703125 78.71875 -95.921875 C 79.144531 -95.972656 79.523438 -95.972656 79.859375 -95.921875 C 82.640625 -96.054688 83.800781 -94.640625 83.34375 -91.671875 C 83.039062 -90.085938 82.609375 -88.546875 82.046875 -87.046875 Z M 82.046875 -87.046875 "/></g><g transform="translate(124.176635, 133.810992)"><path style="stroke:none" d="M 14.03125 -17.953125 C 13.863281 -16.609375 13.234375 -15.734375 12.140625 -15.328125 C 11.046875 -14.921875 10.6875 -15.457031 11.0625 -16.9375 C 11.445312 -18.414062 10.78125 -18.789062 9.0625 -18.0625 C 7.351562 -17.332031 5.941406 -16.410156 4.828125 -15.296875 C 3.109375 -13.546875 1.585938 -11.65625 0.265625 -9.625 C 0.128906 -9.445312 0.0195312 -9.300781 -0.0625 -9.1875 C -0.445312 -8.625 -0.835938 -8.085938 -1.234375 -7.578125 C -1.484375 -7.222656 -1.773438 -7 -2.109375 -6.90625 C -2.453125 -6.820312 -2.800781 -6.8125 -3.15625 -6.875 C -3.488281 -6.914062 -3.742188 -7.039062 -3.921875 -7.25 C -4.097656 -7.46875 -4.117188 -7.722656 -3.984375 -8.015625 C -3.765625 -8.535156 -3.507812 -9.070312 -3.21875 -9.625 C -1.457031 -12.882812 0.328125 -16.148438 2.140625 -19.421875 C 2.171875 -19.460938 2.1875 -19.503906 2.1875 -19.546875 C 2.445312 -20.046875 2.75 -20.507812 3.09375 -20.9375 C 3.488281 -21.375 3.9375 -21.550781 4.4375 -21.46875 C 4.945312 -21.394531 5.289062 -21.09375 5.46875 -20.5625 C 5.6875 -19.882812 5.875 -19.5 6.03125 -19.40625 C 6.1875 -19.320312 6.535156 -19.382812 7.078125 -19.59375 C 8.242188 -20.019531 9.382812 -20.320312 10.5 -20.5 C 11.613281 -20.675781 12.523438 -20.632812 13.234375 -20.375 C 13.941406 -20.113281 14.207031 -19.304688 14.03125 -17.953125 Z M 14.03125 -17.953125 "/></g><g transform="translate(138.801746, 133.810992)"><path style="stroke:none" d="M 16.671875 -11.234375 C 15.546875 -10.117188 14.226562 -9.164062 12.71875 -8.375 C 11.21875 -7.59375 9.960938 -7.078125 8.953125 -6.828125 C 7.941406 -6.585938 6.898438 -6.445312 5.828125 -6.40625 C 4.109375 -6.320312 2.523438 -6.554688 1.078125 -7.109375 C -1.273438 -8.066406 -2.09375 -9.890625 -1.375 -12.578125 C -0.6875 -14.898438 0.695312 -16.710938 2.78125 -18.015625 C 4.863281 -19.328125 7.019531 -19.960938 9.25 -19.921875 C 9.25 -19.921875 9.265625 -19.921875 9.296875 -19.921875 C 9.867188 -19.960938 10.40625 -19.921875 10.90625 -19.796875 C 11.769531 -19.484375 12.316406 -18.976562 12.546875 -18.28125 C 12.785156 -17.582031 12.628906 -16.800781 12.078125 -15.9375 C 10.828125 -14.050781 9.128906 -13 6.984375 -12.78125 C 5.566406 -12.644531 4.191406 -12.710938 2.859375 -12.984375 C 2.609375 -13.023438 2.382812 -12.957031 2.1875 -12.78125 C 2 -12.601562 1.882812 -12.390625 1.84375 -12.140625 C 1.445312 -10.460938 1.960938 -9.390625 3.390625 -8.921875 C 5.148438 -8.316406 6.972656 -8.316406 8.859375 -8.921875 C 11.046875 -9.609375 13.125 -10.894531 15.09375 -12.78125 C 17.0625 -14.675781 18.195312 -15.554688 18.5 -15.421875 C 18.800781 -15.296875 18.894531 -14.929688 18.78125 -14.328125 C 18.507812 -13.378906 17.804688 -12.347656 16.671875 -11.234375 Z M 4.21875 -15.9375 C 4.09375 -15.800781 4.003906 -15.648438 3.953125 -15.484375 C 3.910156 -15.316406 3.976562 -15.164062 4.15625 -15.03125 C 4.832031 -14.644531 5.570312 -14.503906 6.375 -14.609375 C 7.175781 -14.710938 7.851562 -15.015625 8.40625 -15.515625 C 8.96875 -16.015625 9.207031 -16.625 9.125 -17.34375 C 9.0625 -17.59375 8.921875 -17.753906 8.703125 -17.828125 C 8.492188 -17.898438 8.285156 -17.914062 8.078125 -17.875 C 6.628906 -17.613281 5.34375 -16.96875 4.21875 -15.9375 Z M 4.21875 -15.9375 "/></g><g transform="translate(155.825376, 133.810992)"><path style="stroke:none" d="M 23.171875 -14.59375 C 23.484375 -14.207031 23.09375 -13.492188 22 -12.453125 C 20.90625 -11.421875 19.742188 -10.550781 18.515625 -9.84375 C 17.285156 -9.144531 15.863281 -8.445312 14.25 -7.75 C 13.175781 -7.28125 12.035156 -7.125 10.828125 -7.28125 C 9.617188 -7.4375 9.015625 -8.164062 9.015625 -9.46875 C 9.015625 -10.78125 9.316406 -12.082031 9.921875 -13.375 C 10.523438 -14.695312 10.65625 -15.375 10.3125 -15.40625 C 9.96875 -15.445312 9.257812 -15.128906 8.1875 -14.453125 C 5.394531 -12.617188 2.800781 -10.519531 0.40625 -8.15625 C -0.238281 -7.375 -1.054688 -6.945312 -2.046875 -6.875 C -2.554688 -6.875 -2.953125 -7.035156 -3.234375 -7.359375 C -3.515625 -7.679688 -3.546875 -8.023438 -3.328125 -8.390625 C -1.617188 -11.566406 0.113281 -14.707031 1.875 -17.8125 C 2.257812 -18.457031 2.84375 -18.859375 3.625 -19.015625 C 3.957031 -19.066406 4.265625 -18.960938 4.546875 -18.703125 C 4.828125 -18.441406 4.96875 -18.144531 4.96875 -17.8125 C 4.9375 -17.5 4.8125 -17.128906 4.59375 -16.703125 C 4.5 -16.453125 4.40625 -16.207031 4.3125 -15.96875 C 4.226562 -15.738281 4.195312 -15.546875 4.21875 -15.390625 C 4.25 -15.234375 4.375 -15.179688 4.59375 -15.234375 C 4.882812 -15.390625 5.175781 -15.554688 5.46875 -15.734375 C 6.207031 -16.160156 6.921875 -16.570312 7.609375 -16.96875 C 8.210938 -17.3125 8.84375 -17.617188 9.5 -17.890625 C 10.164062 -18.171875 10.859375 -18.359375 11.578125 -18.453125 C 12.753906 -18.535156 13.582031 -18.273438 14.0625 -17.671875 C 14.550781 -17.066406 14.613281 -16.226562 14.25 -15.15625 C 13.851562 -14.175781 13.441406 -13.207031 13.015625 -12.25 C 12.492188 -11.351562 12.40625 -10.671875 12.75 -10.203125 C 13.101562 -9.734375 14.734375 -10.269531 17.640625 -11.8125 L 19.828125 -13.109375 C 21.898438 -14.429688 23.015625 -14.925781 23.171875 -14.59375 Z M 23.171875 -14.59375 "/></g><g transform="translate(177.265789, 133.810992)"><path style="stroke:none" d="M 16.671875 -11.234375 C 15.546875 -10.117188 14.226562 -9.164062 12.71875 -8.375 C 11.21875 -7.59375 9.960938 -7.078125 8.953125 -6.828125 C 7.941406 -6.585938 6.898438 -6.445312 5.828125 -6.40625 C 4.109375 -6.320312 2.523438 -6.554688 1.078125 -7.109375 C -1.273438 -8.066406 -2.09375 -9.890625 -1.375 -12.578125 C -0.6875 -14.898438 0.695312 -16.710938 2.78125 -18.015625 C 4.863281 -19.328125 7.019531 -19.960938 9.25 -19.921875 C 9.25 -19.921875 9.265625 -19.921875 9.296875 -19.921875 C 9.867188 -19.960938 10.40625 -19.921875 10.90625 -19.796875 C 11.769531 -19.484375 12.316406 -18.976562 12.546875 -18.28125 C 12.785156 -17.582031 12.628906 -16.800781 12.078125 -15.9375 C 10.828125 -14.050781 9.128906 -13 6.984375 -12.78125 C 5.566406 -12.644531 4.191406 -12.710938 2.859375 -12.984375 C 2.609375 -13.023438 2.382812 -12.957031 2.1875 -12.78125 C 2 -12.601562 1.882812 -12.390625 1.84375 -12.140625 C 1.445312 -10.460938 1.960938 -9.390625 3.390625 -8.921875 C 5.148438 -8.316406 6.972656 -8.316406 8.859375 -8.921875 C 11.046875 -9.609375 13.125 -10.894531 15.09375 -12.78125 C 17.0625 -14.675781 18.195312 -15.554688 18.5 -15.421875 C 18.800781 -15.296875 18.894531 -14.929688 18.78125 -14.328125 C 18.507812 -13.378906 17.804688 -12.347656 16.671875 -11.234375 Z M 4.21875 -15.9375 C 4.09375 -15.800781 4.003906 -15.648438 3.953125 -15.484375 C 3.910156 -15.316406 3.976562 -15.164062 4.15625 -15.03125 C 4.832031 -14.644531 5.570312 -14.503906 6.375 -14.609375 C 7.175781 -14.710938 7.851562 -15.015625 8.40625 -15.515625 C 8.96875 -16.015625 9.207031 -16.625 9.125 -17.34375 C 9.0625 -17.59375 8.921875 -17.753906 8.703125 -17.828125 C 8.492188 -17.898438 8.285156 -17.914062 8.078125 -17.875 C 6.628906 -17.613281 5.34375 -16.96875 4.21875 -15.9375 Z M 4.21875 -15.9375 "/></g></g><g style="fill:#d3d274;fill-opacity:1;"><g transform="translate(232.359605, 247.379778)"><path style="stroke:none" d="M 149.5625 -82.21875 C 150.28125 -81.789062 150.738281 -81.222656 150.9375 -80.515625 C 151.132812 -79.804688 151.015625 -79.085938 150.578125 -78.359375 C 149.941406 -77.328125 149.15625 -76.382812 148.21875 -75.53125 C 146.320312 -73.769531 144.234375 -72.179688 141.953125 -70.765625 C 130.472656 -63.253906 118.101562 -57.546875 104.84375 -53.640625 C 104.226562 -53.472656 103.617188 -53.28125 103.015625 -53.0625 C 102.117188 -52.769531 101.203125 -52.5 100.265625 -52.25 C 100.015625 -52.144531 99.78125 -52.171875 99.5625 -52.328125 C 99.351562 -52.484375 99.21875 -52.707031 99.15625 -53 C 99.15625 -53.132812 99.207031 -53.296875 99.3125 -53.484375 C 99.425781 -53.671875 99.550781 -53.789062 99.6875 -53.84375 C 100.800781 -54.3125 101.960938 -54.742188 103.171875 -55.140625 C 116.472656 -59.546875 128.929688 -65.675781 140.546875 -73.53125 C 141.972656 -74.570312 143.347656 -75.644531 144.671875 -76.75 C 144.847656 -76.925781 145.046875 -77.070312 145.265625 -77.1875 C 145.941406 -77.757812 146.425781 -78.472656 146.71875 -79.328125 C 146.894531 -79.835938 146.75 -80.265625 146.28125 -80.609375 C 145.757812 -80.941406 145.175781 -81.140625 144.53125 -81.203125 C 144.414062 -81.203125 144.289062 -81.222656 144.15625 -81.265625 C 141.613281 -81.691406 139.070312 -81.90625 136.53125 -81.90625 C 133.988281 -81.90625 131.445312 -81.796875 128.90625 -81.578125 C 123.15625 -81.015625 117.425781 -80.238281 111.71875 -79.25 C 106.019531 -78.269531 100.332031 -77.175781 94.65625 -75.96875 C 77.84375 -72.414062 61.304688 -67.910156 45.046875 -62.453125 C 39.253906 -60.523438 33.515625 -58.46875 27.828125 -56.28125 C 22.148438 -54.09375 16.539062 -51.691406 11 -49.078125 C 9.5 -48.335938 8 -47.609375 6.5 -46.890625 C 5.695312 -46.460938 4.863281 -46.035156 4 -45.609375 C 3.863281 -45.566406 3.757812 -45.492188 3.6875 -45.390625 C 3.125 -45.097656 2.539062 -44.867188 1.9375 -44.703125 C 1.632812 -44.578125 1.320312 -44.523438 1 -44.546875 C 0.6875 -44.566406 0.441406 -44.703125 0.265625 -44.953125 C 0.0859375 -45.304688 0.0859375 -45.609375 0.265625 -45.859375 C 0.441406 -46.117188 0.675781 -46.335938 0.96875 -46.515625 C 1.007812 -46.546875 1.078125 -46.582031 1.171875 -46.625 C 2.578125 -47.445312 4.03125 -48.25 5.53125 -49.03125 C 10.34375 -51.46875 15.242188 -53.710938 20.234375 -55.765625 C 25.234375 -57.828125 30.285156 -59.765625 35.390625 -61.578125 C 55.941406 -68.910156 76.90625 -74.71875 98.28125 -79 C 103.425781 -80.039062 108.570312 -80.988281 113.71875 -81.84375 C 118.875 -82.695312 124.066406 -83.34375 129.296875 -83.78125 C 130.796875 -83.851562 132.316406 -83.929688 133.859375 -84.015625 C 134.535156 -84.066406 135.242188 -84.113281 135.984375 -84.15625 C 139.203125 -84.15625 142.421875 -83.921875 145.640625 -83.453125 C 147.003906 -83.273438 148.3125 -82.863281 149.5625 -82.21875 Z M 70.03125 -22.3125 C 70.320312 -22.257812 70.597656 -22.160156 70.859375 -22.015625 C 71.117188 -21.867188 71.3125 -21.707031 71.4375 -21.53125 C 71.570312 -21.351562 71.585938 -21.1875 71.484375 -21.03125 C 71.273438 -20.757812 71.03125 -20.601562 70.75 -20.5625 C 70.476562 -20.519531 70.21875 -20.5 69.96875 -20.5 C 69.90625 -20.5 69.859375 -20.5 69.828125 -20.5 C 65.242188 -20.5 60.628906 -20.285156 55.984375 -19.859375 C 53.546875 -19.648438 51.082031 -19.472656 48.59375 -19.328125 C 47.769531 -19.296875 47.210938 -18.867188 46.921875 -18.046875 C 46.660156 -17.398438 46.378906 -16.757812 46.078125 -16.125 C 45.921875 -15.75 45.769531 -15.367188 45.625 -14.984375 C 45.019531 -13.597656 44.445312 -12.238281 43.90625 -10.90625 C 39.1875 0.570312 34.269531 11.976562 29.15625 23.3125 C 27.695312 26.445312 26.148438 29.535156 24.515625 32.578125 C 24.515625 32.617188 24.492188 32.660156 24.453125 32.703125 C 23.941406 33.691406 23.296875 34.640625 22.515625 35.546875 C 21.835938 36.359375 20.941406 36.640625 19.828125 36.390625 C 19.515625 36.285156 19.25 36.125 19.03125 35.90625 C 18.820312 35.695312 18.71875 35.425781 18.71875 35.09375 C 18.78125 34.351562 18.914062 33.625 19.125 32.90625 C 19.28125 32.394531 19.445312 31.859375 19.625 31.296875 C 20.488281 28.503906 21.394531 25.71875 22.34375 22.9375 C 26.632812 10.625 31.628906 -1.390625 37.328125 -13.109375 C 37.847656 -14.210938 38.472656 -15.300781 39.203125 -16.375 C 39.367188 -16.632812 39.613281 -16.785156 39.9375 -16.828125 C 40.257812 -16.878906 40.566406 -16.859375 40.859375 -16.765625 C 41.390625 -16.609375 41.585938 -16.207031 41.453125 -15.5625 C 41.316406 -14.914062 41.046875 -14.171875 40.640625 -13.328125 C 40.242188 -12.492188 39.847656 -11.753906 39.453125 -11.109375 C 39.140625 -10.585938 38.925781 -10.203125 38.8125 -9.953125 C 32.925781 2.703125 29.640625 10.085938 28.953125 12.203125 C 28.703125 12.921875 28.578125 13.40625 28.578125 13.65625 C 28.578125 13.914062 28.664062 14.023438 28.84375 13.984375 C 29.019531 13.941406 29.210938 13.820312 29.421875 13.625 C 29.640625 13.4375 29.835938 13.234375 30.015625 13.015625 C 30.203125 12.796875 30.328125 12.648438 30.390625 12.578125 C 30.640625 11.929688 30.910156 11.269531 31.203125 10.59375 C 32.160156 8.382812 33.109375 6.1875 34.046875 4 C 34.335938 3.363281 34.617188 2.722656 34.890625 2.078125 C 36.898438 -2.679688 38.890625 -7.441406 40.859375 -12.203125 C 40.960938 -12.378906 41.09375 -12.640625 41.25 -12.984375 C 41.59375 -13.671875 41.957031 -14.472656 42.34375 -15.390625 C 42.738281 -16.304688 42.988281 -17.128906 43.09375 -17.859375 C 43.207031 -18.585938 43.019531 -18.972656 42.53125 -19.015625 C 41.550781 -19.015625 40.566406 -19.015625 39.578125 -19.015625 C 38.929688 -19.015625 38.285156 -19.015625 37.640625 -19.015625 C 37.097656 -19.015625 36.523438 -19.015625 35.921875 -19.015625 C 34.023438 -19.015625 32.132812 -19.039062 30.25 -19.09375 C 29.738281 -19.132812 29.269531 -19.265625 28.84375 -19.484375 C 28.800781 -19.523438 28.765625 -19.597656 28.734375 -19.703125 C 28.710938 -19.804688 28.679688 -19.925781 28.640625 -20.0625 C 28.640625 -20.101562 28.640625 -20.144531 28.640625 -20.1875 C 28.640625 -20.21875 28.660156 -20.257812 28.703125 -20.3125 C 28.753906 -20.363281 28.800781 -20.410156 28.84375 -20.453125 C 29.09375 -20.617188 29.34375 -20.722656 29.59375 -20.765625 C 29.851562 -20.804688 30.117188 -20.828125 30.390625 -20.828125 C 30.472656 -20.828125 30.550781 -20.828125 30.625 -20.828125 C 31.695312 -20.867188 32.769531 -20.90625 33.84375 -20.9375 C 36.632812 -21.113281 39.421875 -21.222656 42.203125 -21.265625 C 43.160156 -21.265625 43.90625 -21.46875 44.4375 -21.875 C 44.976562 -22.289062 45.394531 -22.925781 45.6875 -23.78125 C 47.070312 -27.351562 48.46875 -30.910156 49.875 -34.453125 C 51.375 -38.234375 52.851562 -42.019531 54.3125 -45.8125 C 55.425781 -48.71875 56.484375 -51.628906 57.484375 -54.546875 C 58.023438 -56.085938 58.578125 -57.648438 59.140625 -59.234375 C 59.140625 -59.296875 59.160156 -59.34375 59.203125 -59.375 C 59.421875 -60.0625 59.703125 -60.6875 60.046875 -61.25 C 60.265625 -61.539062 60.523438 -61.695312 60.828125 -61.71875 C 61.128906 -61.738281 61.445312 -61.707031 61.78125 -61.625 C 62.03125 -61.488281 62.234375 -61.320312 62.390625 -61.125 C 62.546875 -60.9375 62.601562 -60.71875 62.5625 -60.46875 C 62.425781 -59.488281 62.234375 -58.519531 61.984375 -57.5625 C 60.554688 -52.882812 58.945312 -48.289062 57.15625 -43.78125 C 57.0625 -43.664062 56.992188 -43.539062 56.953125 -43.40625 C 55.335938 -39.15625 53.671875 -34.9375 51.953125 -30.75 C 51.171875 -28.8125 50.390625 -26.878906 49.609375 -24.953125 C 49.609375 -24.910156 49.609375 -24.890625 49.609375 -24.890625 C 49.390625 -24.328125 49.175781 -23.742188 48.96875 -23.140625 C 48.75 -22.585938 48.738281 -22.191406 48.9375 -21.953125 C 49.132812 -21.710938 49.550781 -21.59375 50.1875 -21.59375 C 51.050781 -21.59375 51.910156 -21.640625 52.765625 -21.734375 C 53.160156 -21.734375 53.550781 -21.734375 53.9375 -21.734375 C 54.019531 -21.734375 54.078125 -21.753906 54.109375 -21.796875 C 59.046875 -21.972656 63.960938 -22.144531 68.859375 -22.3125 C 69.242188 -22.351562 69.632812 -22.351562 70.03125 -22.3125 Z M 70.03125 -22.3125 "/></g><g transform="translate(304.958657, 247.379778)"><path style="stroke:none" d="M 21.21875 -14.90625 C 21.675781 -14.644531 21.710938 -14.003906 21.328125 -12.984375 C 20.753906 -12.242188 20.144531 -11.550781 19.5 -10.90625 C 18.863281 -10.269531 18.164062 -9.695312 17.40625 -9.1875 C 17.34375 -9.1875 17.3125 -9.164062 17.3125 -9.125 C 16.8125 -8.769531 16.273438 -8.46875 15.703125 -8.21875 C 11.046875 -6.539062 8.671875 -7.523438 8.578125 -11.171875 C 6.679688 -9.535156 5.410156 -8.53125 4.765625 -8.15625 C 3.222656 -7.238281 1.554688 -6.832031 -0.234375 -6.9375 C -1.554688 -7.007812 -2.457031 -7.410156 -2.9375 -8.140625 C -3.414062 -8.878906 -3.375 -9.867188 -2.8125 -11.109375 C -1.945312 -13.078125 -0.726562 -14.832031 0.84375 -16.375 C 2.695312 -18.09375 4.753906 -19.46875 7.015625 -20.5 C 8.222656 -21.101562 9.492188 -21.335938 10.828125 -21.203125 C 12.148438 -21.128906 12.945312 -20.378906 13.21875 -18.953125 C 13.332031 -18.523438 13.226562 -18.144531 12.90625 -17.8125 C 12.46875 -17.425781 11.96875 -17.335938 11.40625 -17.546875 C 11.363281 -17.546875 11.304688 -17.554688 11.234375 -17.578125 C 11.171875 -17.597656 11.125 -17.628906 11.09375 -17.671875 C 10.519531 -18.453125 9.945312 -18.773438 9.375 -18.640625 C 8.800781 -18.515625 8.191406 -18.257812 7.546875 -17.875 C 4.546875 -16.113281 2.3125 -13.664062 0.84375 -10.53125 C 0.769531 -10.394531 0.722656 -10.242188 0.703125 -10.078125 C 0.679688 -9.910156 0.726562 -9.78125 0.84375 -9.6875 C 1.195312 -9.5625 1.585938 -9.582031 2.015625 -9.75 C 2.441406 -9.914062 2.867188 -10.160156 3.296875 -10.484375 C 3.734375 -10.804688 4.097656 -11.078125 4.390625 -11.296875 C 4.429688 -11.347656 4.453125 -11.375 4.453125 -11.375 C 5.867188 -12.5625 7.257812 -13.78125 8.625 -15.03125 C 9.226562 -15.675781 9.976562 -16.039062 10.875 -16.125 C 12.164062 -16.125 12.703125 -15.546875 12.484375 -14.390625 C 12.367188 -13.960938 12.242188 -13.535156 12.109375 -13.109375 C 11.597656 -11.253906 11.578125 -10.164062 12.046875 -9.84375 C 12.515625 -9.519531 13.234375 -9.519531 14.203125 -9.84375 C 15.171875 -10.164062 16.132812 -10.78125 17.09375 -11.6875 C 18.0625 -12.59375 18.875 -13.421875 19.53125 -14.171875 C 20.195312 -14.921875 20.757812 -15.164062 21.21875 -14.90625 Z M 21.21875 -14.90625 "/></g><g transform="translate(324.351554, 247.379778)"><path style="stroke:none" d="M 14.15625 -13.953125 C 14.800781 -14.597656 15.335938 -14.957031 15.765625 -15.03125 C 16.191406 -15.113281 16.46875 -15.046875 16.59375 -14.828125 C 16.726562 -14.617188 16.644531 -14.328125 16.34375 -13.953125 C 14.632812 -11.890625 12.71875 -10.101562 10.59375 -8.59375 C 8.46875 -7.09375 6.273438 -6.222656 4.015625 -5.984375 C 1.765625 -5.753906 0.40625 -6.988281 -0.0625 -9.6875 C -0.40625 -12.351562 1.210938 -17.789062 4.796875 -26 C 8.378906 -34.207031 11.21875 -40.9375 13.3125 -46.1875 C 13.488281 -46.65625 13.75 -47.066406 14.09375 -47.421875 C 14.5625 -47.890625 15.117188 -47.992188 15.765625 -47.734375 C 15.984375 -47.640625 16.195312 -47.484375 16.40625 -47.265625 C 16.625 -47.054688 16.691406 -46.675781 16.609375 -46.125 C 7.390625 -24.25 2.925781 -12.351562 3.21875 -10.4375 C 3.507812 -8.53125 4.738281 -8.054688 6.90625 -9.015625 C 9.082031 -9.984375 10.757812 -10.96875 11.9375 -11.96875 C 13.125 -12.976562 13.863281 -13.640625 14.15625 -13.953125 Z M 14.15625 -13.953125 "/></g><g transform="translate(338.947415, 247.379778)"><path style="stroke:none" d="M 11.625 -12.328125 C 10.582031 -11.085938 9.347656 -9.953125 7.921875 -8.921875 C 6.503906 -7.890625 4.894531 -7.191406 3.09375 -6.828125 C 1.300781 -6.460938 -0.0859375 -6.59375 -1.078125 -7.21875 C -2.078125 -7.84375 -2.273438 -9.226562 -1.671875 -11.375 C -0.890625 -13.601562 0.179688 -15.71875 1.546875 -17.71875 C 1.859375 -18.15625 2.304688 -18.460938 2.890625 -18.640625 C 3.328125 -18.734375 3.703125 -18.65625 4.015625 -18.40625 C 4.335938 -18.164062 4.460938 -17.859375 4.390625 -17.484375 C 4.097656 -16.785156 3.773438 -16.082031 3.421875 -15.375 C 3.066406 -14.675781 2.832031 -14.222656 2.71875 -14.015625 C 2.039062 -12.765625 1.5625 -11.457031 1.28125 -10.09375 C 1.28125 -9.3125 2.320312 -9.257812 4.40625 -9.9375 C 6.5 -10.625 8.53125 -11.878906 10.5 -13.703125 C 12.46875 -15.523438 13.40625 -16.0625 13.3125 -15.3125 C 13.226562 -14.5625 12.664062 -13.566406 11.625 -12.328125 Z M 6.515625 -22.109375 C 6.421875 -22.035156 6.222656 -21.941406 5.921875 -21.828125 C 5.617188 -21.722656 5.296875 -21.644531 4.953125 -21.59375 C 4.617188 -21.550781 4.351562 -21.609375 4.15625 -21.765625 C 3.957031 -21.921875 3.945312 -22.234375 4.125 -22.703125 C 4.4375 -23.515625 4.757812 -24.226562 5.09375 -24.84375 C 5.4375 -25.457031 5.882812 -26.132812 6.4375 -26.875 C 6.789062 -27.207031 7.171875 -27.390625 7.578125 -27.421875 C 7.984375 -27.453125 8.320312 -27.34375 8.59375 -27.09375 C 8.875 -26.851562 8.953125 -26.519531 8.828125 -26.09375 C 8.398438 -24.550781 7.628906 -23.222656 6.515625 -22.109375 Z M 6.515625 -22.109375 "/></g></g><g style="fill:#d3d274;fill-opacity:1;"><g transform="translate(197.832642, 175.244867)"><path style="stroke:none" d="M 36.15625 -13.875 C 36.28125 -13.570312 36.351562 -13.257812 36.375 -12.9375 C 36.4375 -11.582031 36.304688 -10.078125 35.984375 -8.421875 C 35.660156 -6.773438 35.101562 -5.148438 34.3125 -3.546875 C 33.53125 -1.941406 32.5 -0.570312 31.21875 0.5625 C 29.945312 1.695312 28.410156 2.398438 26.609375 2.671875 C 24.054688 3.046875 21.867188 2.625 20.046875 1.40625 C 18.941406 0.625 18.054688 -0.335938 17.390625 -1.484375 C 17.140625 -1.878906 16.890625 -2.296875 16.640625 -2.734375 C 16.503906 -2.921875 16.359375 -3.128906 16.203125 -3.359375 C 15.578125 -3.066406 15.015625 -2.679688 14.515625 -2.203125 C 14.347656 -2.054688 14.175781 -1.921875 14 -1.796875 C 13.96875 -1.765625 13.929688 -1.722656 13.890625 -1.671875 C 12.515625 -0.546875 11.0625 0.488281 9.53125 1.4375 C 7.90625 2.382812 6.28125 2.8125 4.65625 2.71875 C 3.257812 2.613281 2.269531 2.109375 1.6875 1.203125 C 1.101562 0.304688 1.039062 -0.847656 1.5 -2.265625 C 1.769531 -3.140625 2.160156 -3.96875 2.671875 -4.75 C 3.191406 -5.53125 3.765625 -6.285156 4.390625 -7.015625 C 5.316406 -8.078125 6.296875 -9.09375 7.328125 -10.0625 C 8.367188 -11.03125 9.441406 -11.972656 10.546875 -12.890625 C 11.492188 -13.691406 12.472656 -14.46875 13.484375 -15.21875 C 14.203125 -15.75 14.585938 -16.398438 14.640625 -17.171875 C 14.890625 -19.679688 15.425781 -22.207031 16.25 -24.75 C 16.800781 -26.5 17.617188 -28.203125 18.703125 -29.859375 C 20.535156 -32.640625 22.929688 -33.953125 25.890625 -33.796875 C 27.367188 -33.773438 28.625 -33.363281 29.65625 -32.5625 C 31.476562 -31.007812 31.601562 -28.914062 30.03125 -26.28125 C 29.300781 -25.21875 28.4375 -24.21875 27.4375 -23.28125 C 26.488281 -22.382812 25.5 -21.535156 24.46875 -20.734375 C 23.4375 -19.929688 22.398438 -19.15625 21.359375 -18.40625 C 21.234375 -18.3125 21.109375 -18.226562 20.984375 -18.15625 C 20.023438 -17.445312 19.085938 -16.742188 18.171875 -16.046875 C 17.773438 -15.796875 17.554688 -15.484375 17.515625 -15.109375 C 17.492188 -14.785156 17.484375 -14.460938 17.484375 -14.140625 C 17.460938 -13.140625 17.484375 -12.15625 17.546875 -11.1875 C 17.609375 -10.21875 17.785156 -9.296875 18.078125 -8.421875 C 18.117188 -8.398438 18.160156 -8.378906 18.203125 -8.359375 C 18.222656 -8.335938 18.234375 -8.328125 18.234375 -8.328125 C 18.816406 -8.617188 19.328125 -8.976562 19.765625 -9.40625 C 19.929688 -9.53125 20.085938 -9.671875 20.234375 -9.828125 C 23.429688 -12.398438 26.707031 -14.847656 30.0625 -17.171875 C 30.539062 -17.492188 31.03125 -17.804688 31.53125 -18.109375 C 32.03125 -18.429688 32.539062 -18.5625 33.0625 -18.5 C 33.363281 -18.46875 33.5625 -18.335938 33.65625 -18.109375 C 33.71875 -17.929688 33.695312 -17.785156 33.59375 -17.671875 C 33.488281 -17.566406 33.375 -17.460938 33.25 -17.359375 C 32.957031 -17.109375 32.65625 -16.859375 32.34375 -16.609375 C 32.050781 -16.410156 31.765625 -16.1875 31.484375 -15.9375 C 30.859375 -15.457031 30.25 -14.96875 29.65625 -14.46875 C 26.351562 -11.8125 23.054688 -9.148438 19.765625 -6.484375 C 19.265625 -6.085938 18.976562 -5.773438 18.90625 -5.546875 C 18.832031 -5.316406 18.890625 -5.003906 19.078125 -4.609375 C 19.617188 -3.273438 20.328125 -2.085938 21.203125 -1.046875 C 21.910156 -0.210938 22.785156 0.410156 23.828125 0.828125 C 25.285156 1.335938 26.597656 1.335938 27.765625 0.828125 C 28.941406 0.328125 29.957031 -0.492188 30.8125 -1.640625 C 31.664062 -2.785156 32.347656 -4.078125 32.859375 -5.515625 C 33.367188 -6.953125 33.6875 -8.351562 33.8125 -9.71875 C 33.9375 -11.082031 33.851562 -12.226562 33.5625 -13.15625 C 33.5625 -13.28125 33.546875 -13.394531 33.515625 -13.5 C 33.460938 -13.644531 33.4375 -13.796875 33.4375 -13.953125 C 33.4375 -14.117188 33.492188 -14.257812 33.609375 -14.375 C 33.722656 -14.488281 33.863281 -14.570312 34.03125 -14.625 C 35.113281 -14.925781 35.820312 -14.675781 36.15625 -13.875 Z M 20.765625 -28.28125 C 20.285156 -27.425781 19.890625 -26.566406 19.578125 -25.703125 C 19.265625 -24.835938 18.984375 -23.96875 18.734375 -23.09375 C 18.648438 -22.78125 18.578125 -22.445312 18.515625 -22.09375 C 18.304688 -21.21875 18.128906 -20.332031 17.984375 -19.4375 C 17.921875 -19.226562 17.96875 -19.09375 18.125 -19.03125 C 18.28125 -18.96875 18.453125 -19 18.640625 -19.125 C 19.847656 -19.957031 21.023438 -20.816406 22.171875 -21.703125 C 23.328125 -22.585938 24.429688 -23.550781 25.484375 -24.59375 C 26.253906 -25.382812 26.890625 -26.226562 27.390625 -27.125 C 28.523438 -29.476562 28.113281 -31.09375 26.15625 -31.96875 C 25.207031 -32.363281 24.222656 -32.148438 23.203125 -31.328125 C 22.671875 -30.898438 22.207031 -30.429688 21.8125 -29.921875 C 21.425781 -29.410156 21.078125 -28.863281 20.765625 -28.28125 Z M 14.703125 -5.234375 C 15.203125 -5.671875 15.367188 -6.140625 15.203125 -6.640625 C 14.742188 -8.410156 14.484375 -10.269531 14.421875 -12.21875 C 14.421875 -12.320312 14.390625 -12.445312 14.328125 -12.59375 C 14.285156 -12.695312 14.253906 -12.820312 14.234375 -12.96875 C 12.703125 -11.8125 11.289062 -10.628906 10 -9.421875 C 8.707031 -8.210938 7.515625 -6.929688 6.421875 -5.578125 C 5.390625 -4.328125 4.695312 -3.003906 4.34375 -1.609375 C 4.175781 -0.859375 4.269531 -0.203125 4.625 0.359375 C 5.019531 1.054688 5.707031 1.164062 6.6875 0.6875 C 7.207031 0.46875 7.707031 0.191406 8.1875 -0.140625 C 10.0625 -1.429688 11.875 -2.828125 13.625 -4.328125 C 13.96875 -4.640625 14.328125 -4.941406 14.703125 -5.234375 Z M 14.703125 -5.234375 "/></g></g></g></svg>