<svg xmlns="http://www.w3.org/2000/svg" xmlns:xlink="http://www.w3.org/1999/xlink" width="512" zoomAndPan="magnify" viewBox="0 0 384 198.749996" height="265" preserveAspectRatio="xMidYMid meet" version="1.2"><defs><clipPath id="83d3519949"><path d="M 0.242188 0 L 191 0 L 191 142 L 0.242188 142 Z M 0.242188 0 "/></clipPath><clipPath id="90e1df40da"><path d="M 160 58 L 383 58 L 383 192.507812 L 160 192.507812 Z M 160 58 "/></clipPath></defs><g id="a7089a574f"><g clip-rule="nonzero" clip-path="url(#83d3519949)"><path style=" stroke:none;fill-rule:nonzero;fill:#3e473a;fill-opacity:1;" d="M 186.226562 34.167969 C 183.058594 30.09375 179.722656 26.03125 175.992188 22.460938 C 172.253906 18.871094 167.726562 16.296875 163.332031 13.617188 C 158.605469 10.738281 153.902344 7.820312 149.148438 4.984375 C 145.175781 2.613281 141.058594 0.644531 136.367188 0.390625 C 130.34375 0.0664062 124.09375 0.984375 118.078125 1.421875 C 112.4375 1.832031 106.75 2.140625 101.117188 2.742188 C 99.996094 2.402344 98.878906 2.078125 97.738281 1.808594 C 91.199219 0.203125 83.828125 0.171875 77.980469 3.917969 C 72.445312 7.464844 69.214844 13.453125 66.035156 19.003906 C 58.253906 32.609375 49.234375 45.722656 38.921875 57.542969 C 28.695312 69.265625 16.34375 79.605469 0.660156 82.566406 C 0.242188 82.644531 0.328125 83.363281 0.765625 83.316406 C 13.113281 82.011719 24.089844 75.089844 33.03125 66.789062 C 43.308594 57.253906 51.933594 45.8125 59.671875 34.175781 C 63.65625 28.1875 67.148438 21.933594 70.878906 15.796875 C 74.378906 10.039062 78.765625 4.949219 85.726562 3.691406 C 93.175781 2.351562 100.550781 5.132812 107.378906 7.804688 C 114.53125 10.605469 121.773438 13.050781 129.257812 14.792969 C 136.917969 16.578125 145.59375 17.09375 152.066406 22.023438 C 154.824219 24.125 157.109375 27.09375 157.617188 30.59375 C 158.125 34.078125 156.765625 37.214844 154.875 40.050781 C 154.839844 40.109375 154.8125 40.164062 154.796875 40.226562 C 152.519531 37.265625 149.167969 35.023438 145.753906 33.152344 C 143.976562 32.179688 142.164062 31.285156 140.34375 30.453125 C 140.167969 30.023438 139.929688 29.632812 139.648438 29.273438 C 138.921875 28.730469 138.136719 28.308594 137.277344 28.019531 C 136.761719 27.863281 136.234375 27.738281 135.683594 27.660156 C 135.332031 27.722656 135.011719 27.835938 134.746094 28.054688 C 130.730469 26.417969 126.65625 24.886719 122.65625 23.136719 C 115.285156 19.914062 109.042969 14.433594 101.398438 11.824219 C 100.078125 11.367188 98.675781 11.042969 97.25 10.867188 C 94.175781 10.265625 90.824219 10.613281 88.109375 11.769531 C 85.910156 12.707031 84.140625 14.25 82.496094 15.957031 C 80.105469 18.441406 77.785156 20.964844 75.554688 23.589844 C 75.492188 23.660156 75.578125 23.746094 75.648438 23.6875 C 77.707031 21.875 79.675781 20.007812 81.636719 18.09375 C 81.925781 17.8125 82.207031 17.53125 82.496094 17.242188 C 82.53125 17.234375 82.566406 17.214844 82.601562 17.171875 C 82.628906 17.136719 82.644531 17.113281 82.671875 17.078125 C 84.203125 15.554688 85.769531 14.011719 87.695312 13.015625 C 88.292969 12.707031 88.894531 12.453125 89.492188 12.253906 C 93.160156 11.332031 97.34375 11.972656 100.976562 13.425781 C 107.773438 16.128906 113.304688 21.242188 119.882812 24.414062 C 124.519531 26.65625 129.378906 28.371094 134.144531 30.332031 C 134.773438 32.96875 133.523438 35.296875 132.042969 37.722656 C 130.660156 39.988281 129.046875 42.089844 127.234375 44.035156 C 125.5625 42.484375 123.898438 40.933594 122.21875 39.394531 C 117.429688 34.980469 112.578125 30.050781 106.828125 26.910156 C 104.269531 25.140625 101.199219 23.949219 98.289062 23.921875 C 93.71875 23.898438 90.113281 26.75 87.3125 30.09375 C 87.164062 30.269531 87.40625 30.523438 87.566406 30.347656 C 90.429688 27.144531 94.089844 24.371094 98.613281 24.808594 C 99.535156 24.894531 100.375 25.085938 101.179688 25.339844 C 103.867188 26.585938 106.414062 28.082031 108.71875 30.007812 C 111.675781 32.484375 114.285156 35.339844 117.0625 38.011719 C 122.902344 43.628906 128.835938 49.148438 134.757812 54.671875 C 137.277344 57.027344 140.527344 59.453125 141.671875 62.839844 C 142.871094 66.375 141.621094 70.21875 139.703125 73.25 C 137.722656 76.367188 134.992188 78.933594 132.4375 81.558594 C 129.921875 84.140625 127.472656 87.082031 124.363281 88.972656 C 116.335938 93.84375 108.226562 88.84375 100.953125 85.140625 C 100.863281 85.09375 100.785156 85.058594 100.699219 85.042969 C 102.433594 81.101562 103.691406 76.988281 104.058594 72.785156 C 106.449219 72.917969 109.15625 72.269531 111.335938 71.085938 C 112.265625 71.332031 113.246094 71.316406 114.191406 71.535156 C 115.257812 71.789062 116.308594 72.148438 117.367188 72.433594 C 119.136719 72.917969 120.992188 73.371094 122.691406 72.460938 C 123.085938 72.25 122.859375 71.734375 122.480469 71.691406 C 120.046875 71.394531 117.824219 70.867188 115.441406 70.335938 C 114.707031 70.167969 113.867188 69.976562 113.050781 69.957031 C 113.113281 69.914062 113.175781 69.863281 113.234375 69.816406 C 115.933594 67.558594 116.949219 63.6875 117.113281 60.300781 C 117.132812 59.96875 116.660156 59.863281 116.5 60.132812 C 114.890625 62.902344 114.742188 66.464844 112.132812 68.574219 C 109.714844 70.535156 106.878906 70.570312 104.140625 71.375 C 104.234375 68.925781 104.015625 66.445312 103.386719 63.960938 C 103.195312 63.199219 101.925781 63.328125 101.984375 64.152344 C 102.640625 73.109375 99.71875 81.898438 95.417969 89.648438 C 91.136719 97.378906 85.789062 104.550781 79.703125 110.949219 C 76.664062 114.144531 73.453125 117.234375 69.855469 119.792969 C 66.265625 122.347656 62.289062 124.292969 58.199219 125.921875 C 49.542969 129.371094 40.550781 132.09375 31.507812 134.308594 C 26.601562 135.507812 21.65625 136.585938 16.683594 137.496094 C 11.507812 138.441406 6.195312 138.941406 1.117188 140.332031 C 0.636719 140.464844 0.757812 141.136719 1.230469 141.171875 C 5.984375 141.488281 10.773438 140.726562 15.464844 140 C 20.34375 139.246094 25.203125 138.34375 30.007812 137.222656 C 39.570312 134.992188 49.050781 132.179688 58.199219 128.617188 C 59.582031 128.082031 60.949219 127.515625 62.308594 126.910156 C 62.4375 126.9375 62.578125 126.953125 62.746094 126.9375 C 75 125.710938 86.8125 121.648438 97.273438 115.144531 C 106.941406 109.128906 115.328125 101.046875 125.835938 96.414062 C 131.71875 93.824219 137.96875 93.0625 144.210938 91.800781 C 150.804688 90.472656 157.273438 88.640625 163.710938 86.6875 C 168.570312 85.210938 174.601562 84.140625 178.644531 80.847656 C 182.304688 77.863281 182.628906 73.144531 180.316406 69.203125 C 179.117188 67.15625 177.332031 65.730469 175.273438 64.714844 C 178.503906 61.148438 180.703125 56.429688 180.894531 51.597656 C 180.921875 51.292969 180.941406 50.984375 180.949219 50.679688 C 180.964844 49.671875 180.84375 48.664062 180.554688 47.703125 C 180.492188 47.429688 180.421875 47.167969 180.34375 46.90625 C 183.722656 47.625 187.804688 47.605469 190.070312 44.628906 C 192.855469 40.941406 188.425781 36.976562 186.226562 34.167969 Z M 155.707031 40.890625 C 157.519531 40.101562 158.726562 38.691406 159.453125 36.996094 C 161.109375 39.175781 163.648438 40.8125 166.003906 41.941406 C 168.296875 43.035156 170.757812 44.015625 173.242188 44.875 C 170.519531 46.5625 168.542969 49.707031 167.253906 52.507812 C 165.828125 55.617188 165.277344 59.023438 165.863281 62.375 C 165.511719 62.339844 165.171875 62.304688 164.832031 62.269531 C 159.488281 61.789062 153.5 61.902344 148.109375 63.320312 C 152.96875 59.328125 157.808594 55.195312 157.675781 48.289062 C 157.625 45.417969 156.722656 43 155.304688 40.917969 C 155.4375 40.953125 155.585938 40.941406 155.707031 40.890625 Z M 177.789062 47.011719 C 177.558594 46.449219 178.523438 46.03125 178.769531 46.582031 C 179.347656 47.886719 179.652344 49.296875 179.707031 50.722656 C 179.792969 53.261719 179.117188 55.800781 178.03125 58.085938 C 177 60.265625 175.527344 62.5 173.601562 63.988281 C 173.296875 63.871094 172.980469 63.777344 172.65625 63.699219 C 172.621094 63.496094 172.683594 63.285156 172.886719 63.136719 C 174.101562 62.234375 175.019531 60.976562 175.84375 59.722656 C 176.660156 58.488281 177.324219 57.132812 177.804688 55.730469 C 178.769531 52.867188 178.917969 49.847656 177.789062 47.011719 Z M 177.0625 53.394531 C 176.972656 53.855469 176.867188 54.320312 176.746094 54.765625 C 175.503906 57.964844 173.875 61.054688 171.238281 63.296875 C 170.40625 63.085938 169.566406 62.910156 168.734375 62.761719 C 168.699219 61.5 168.621094 60.265625 168.789062 58.980469 C 168.804688 58.855469 168.824219 58.726562 168.847656 58.59375 C 168.960938 57.226562 169.355469 55.84375 169.839844 54.59375 C 169.847656 54.566406 169.863281 54.539062 169.882812 54.523438 C 170.039062 54.050781 170.214844 53.578125 170.40625 53.09375 C 171.703125 49.875 173.425781 47.753906 176.335938 46.003906 C 177.203125 48.332031 177.5 50.949219 177.0625 53.394531 Z M 129.921875 46.355469 C 129.863281 46.328125 129.808594 46.292969 129.765625 46.25 C 129.632812 46.195312 129.519531 46.109375 129.40625 46.003906 C 129.378906 45.996094 129.355469 45.984375 129.328125 45.976562 C 129.066406 45.828125 128.855469 45.636719 128.671875 45.40625 C 128.574219 45.3125 128.46875 45.222656 128.375 45.128906 C 128.664062 44.8125 128.941406 44.488281 129.207031 44.15625 C 131.332031 41.75 133.179688 39.09375 134.582031 36.199219 C 134.703125 35.945312 134.824219 35.679688 134.941406 35.402344 C 135.070312 34.964844 135.175781 34.515625 135.230469 34.042969 C 135.300781 33.335938 135.351562 32.617188 135.484375 31.917969 C 135.484375 31.074219 135.804688 30.121094 136.558594 30.007812 C 137.128906 29.921875 137.628906 30.480469 137.828125 30.953125 C 137.871094 31.058594 137.90625 31.164062 137.933594 31.277344 C 138.25 31.96875 138.082031 32.96875 137.953125 33.613281 C 137.898438 33.886719 137.828125 34.15625 137.757812 34.421875 C 137.722656 34.621094 137.679688 34.824219 137.628906 35.023438 C 136.953125 37.792969 135.289062 40.214844 133.679688 42.519531 C 133.644531 42.5625 133.617188 42.605469 133.589844 42.648438 C 132.574219 43.929688 131.4375 45.109375 130.1875 46.179688 C 130.089844 46.230469 130 46.292969 129.921875 46.355469 Z M 141.65625 57.824219 C 138.933594 54.546875 135.472656 51.773438 132.375 48.867188 C 131.945312 48.464844 131.515625 48.070312 131.097656 47.667969 C 133.46875 45.933594 135.402344 43.210938 136.925781 40.839844 C 138.3125 38.683594 140.0625 35.734375 140 32.96875 C 145.613281 35.671875 153.0625 39.0625 154.796875 45.53125 C 155.664062 48.769531 155.09375 52.414062 153.167969 55.171875 C 150.945312 58.367188 147.3125 60.859375 144.378906 63.417969 C 144 61.492188 143.132812 59.601562 141.65625 57.824219 Z M 177.789062 69.046875 C 179.546875 70.972656 180.695312 73.644531 179.976562 76.269531 C 179.25 78.933594 176.84375 80.585938 174.460938 81.679688 C 172.261719 82.6875 169.890625 83.300781 167.578125 84 C 164.480469 84.945312 161.378906 85.875 158.265625 86.757812 C 152.292969 88.441406 146.269531 89.910156 140.148438 90.960938 C 134.914062 91.855469 129.800781 92.78125 124.878906 94.867188 C 115.328125 98.910156 107.152344 105.441406 98.5 111.035156 C 89.464844 116.886719 79.722656 121.070312 69.285156 123.222656 C 69.617188 123.015625 69.941406 122.804688 70.265625 122.585938 C 73.8125 120.1875 77.007812 117.316406 80.011719 114.285156 C 86.472656 107.769531 92.152344 100.433594 96.792969 92.519531 C 97.78125 90.839844 98.726562 89.105469 99.59375 87.328125 C 99.605469 87.335938 99.613281 87.34375 99.621094 87.34375 C 106.589844 90.898438 113.664062 95.269531 121.773438 92.894531 C 125.476562 91.8125 128.328125 89.394531 131 86.707031 C 133.941406 83.738281 137.015625 80.824219 139.683594 77.601562 C 142.601562 74.082031 144.625 69.84375 144.578125 65.632812 C 150.382812 64.851562 155.988281 63.804688 161.90625 64.066406 C 167.265625 64.3125 173.933594 64.828125 177.789062 69.046875 Z M 183.355469 45.453125 C 181.132812 45.382812 178.855469 44.796875 176.613281 44.042969 C 176.464844 43.945312 176.300781 43.882812 176.117188 43.867188 C 174.09375 43.15625 172.105469 42.335938 170.230469 41.644531 C 165.949219 40.078125 162.648438 38.046875 160.164062 34.507812 C 160.59375 31.785156 160.121094 28.789062 159.070312 26.515625 C 156.347656 20.597656 150.207031 17.207031 144.210938 15.4375 C 140.375 14.308594 136.410156 13.695312 132.496094 12.863281 C 128.488281 12.007812 124.519531 10.984375 120.609375 9.773438 C 115.152344 8.101562 109.890625 5.765625 104.507812 3.863281 C 112.238281 3.550781 119.984375 2.859375 127.691406 2.351562 C 132.207031 2.050781 136.804688 1.5 141.191406 2.945312 C 145.542969 4.382812 149.421875 7.140625 153.28125 9.539062 C 157.40625 12.101562 161.53125 14.660156 165.660156 17.207031 C 169.453125 19.546875 173.007812 21.988281 176.105469 25.210938 C 179.230469 28.457031 182.128906 31.933594 184.898438 35.496094 C 186.191406 37.167969 187.910156 38.964844 188.828125 40.882812 C 190.367188 44.113281 185.667969 45.523438 183.355469 45.453125 Z M 183.355469 45.453125 "/></g><g clip-rule="nonzero" clip-path="url(#90e1df40da)"><path style=" stroke:none;fill-rule:nonzero;fill:#3e473a;fill-opacity:1;" d="M 382.132812 142.976562 C 377.941406 142.242188 373.800781 141.3125 369.691406 140.191406 C 367.765625 139.667969 365.859375 139.027344 363.941406 138.433594 C 360.4375 137.234375 356.945312 136.007812 353.496094 134.640625 C 346.683594 131.945312 340.023438 128.878906 333.523438 125.492188 C 327.257812 122.226562 321.136719 118.652344 315.246094 114.75 C 309.070312 110.660156 303.390625 105.84375 297.171875 101.828125 C 292.683594 98.929688 287.675781 96.957031 282.542969 95.390625 C 277.703125 93.4375 272.457031 92.238281 267.351562 90.96875 C 257.117188 84.789062 246.847656 78.378906 235.554688 74.316406 C 229.792969 72.25 223.882812 70.65625 217.964844 69.101562 C 211.996094 67.53125 206.058594 65.773438 200.0625 64.34375 C 200.035156 64.277344 199.992188 64.207031 199.894531 64.160156 C 195.894531 62.128906 191.796875 60.0625 187.347656 59.265625 C 185.949219 59.015625 184.34375 58.828125 182.847656 58.890625 C 182.128906 58.875 181.316406 58.890625 180.667969 59.164062 C 180.363281 59.257812 180.082031 59.398438 179.855469 59.644531 C 179.539062 59.976562 179.433594 60.433594 179.519531 60.859375 C 179.554688 61.421875 179.820312 62 180.203125 62.410156 C 180.597656 62.960938 181.203125 63.375 181.921875 63.679688 C 180.835938 66.859375 182.289062 70.542969 184.371094 72.976562 C 186.988281 76.023438 190.894531 77.609375 194.683594 78.644531 C 199.507812 79.957031 204.429688 80.59375 208.929688 82.90625 C 210.585938 83.753906 212.570312 84.964844 214.628906 85.71875 C 214.367188 85.804688 214.09375 85.882812 213.832031 85.972656 C 209.726562 87.40625 205.71875 89.191406 201.707031 90.875 C 199.519531 91.792969 197.3125 92.675781 195.070312 93.472656 C 193.230469 94.128906 191.21875 94.578125 189.449219 95.398438 C 189.003906 95.539062 188.546875 95.6875 188.101562 95.828125 C 184.179688 97.046875 180.265625 98.203125 176.457031 99.714844 C 172.691406 100.09375 169.136719 101.40625 165.863281 103.316406 C 164.050781 104.367188 159.121094 106.695312 161.53125 109.480469 C 162.210938 110.273438 163.183594 110.433594 164.148438 110.144531 C 165.925781 113.347656 170.25 115.273438 173.628906 115.894531 C 178.339844 116.761719 183.023438 115.667969 187.332031 113.742188 C 189.710938 112.675781 192.03125 111.464844 194.582031 110.828125 C 197.292969 110.144531 200.0625 109.847656 202.738281 109.023438 C 202.863281 108.988281 202.984375 108.945312 203.117188 108.902344 C 203.203125 108.875 203.300781 108.847656 203.386719 108.8125 C 197.453125 112.21875 191.507812 115.632812 185.667969 119.195312 C 185.660156 119.195312 185.660156 119.207031 185.648438 119.214844 C 185.640625 119.214844 185.625 119.222656 185.613281 119.222656 C 185.316406 119.40625 185.027344 119.582031 184.730469 119.765625 C 182.945312 120.886719 181.148438 122.191406 179.234375 123.152344 C 178.066406 123.960938 176.921875 124.792969 175.792969 125.640625 C 174.382812 126.707031 172.597656 128.023438 171.292969 129.582031 C 170.046875 130.394531 168.8125 131.804688 169.320312 133.171875 C 169.898438 134.710938 171.335938 134.117188 172.308594 133.441406 C 172.324219 133.433594 172.351562 133.425781 172.367188 133.414062 C 172.378906 133.433594 172.378906 133.441406 172.386719 133.460938 C 176.78125 139.972656 185.710938 137.03125 191.296875 134.019531 C 195.125 131.953125 198.746094 129.554688 202.949219 128.320312 C 207.136719 127.085938 211.511719 126.628906 215.617188 125.105469 C 220.085938 123.453125 223.972656 121.65625 228.875 121.882812 C 233.269531 122.085938 237.664062 122.882812 242.023438 123.453125 C 244.238281 123.742188 246.488281 123.941406 248.679688 124.433594 C 250.832031 124.921875 252.8125 125.824219 254.789062 126.777344 C 259.125 128.863281 263.449219 130.964844 267.773438 133.054688 C 272.175781 135.183594 276.765625 137.101562 278.996094 141.757812 C 281.203125 146.347656 281.273438 151.84375 280.039062 156.695312 C 279.148438 156.871094 278.253906 157.082031 277.414062 157.175781 C 275.714844 157.371094 274 157.527344 272.292969 157.667969 C 268.484375 157.992188 264.65625 158.253906 260.839844 158.386719 C 257.117188 158.515625 253.398438 158.605469 249.675781 158.613281 C 247.820312 158.613281 245.945312 158.628906 244.089844 158.777344 C 243.441406 158.832031 242.796875 158.867188 242.136719 158.902344 C 235.789062 158.796875 229.488281 159.269531 224.007812 162.132812 C 222.402344 162.804688 220.855469 163.804688 219.566406 164.765625 C 216.933594 165.089844 214.445312 165.933594 213.867188 168.035156 C 213.851562 168.058594 213.824219 168.085938 213.816406 168.121094 C 212.964844 170.371094 213.167969 173.925781 214.359375 176.070312 C 215.664062 178.398438 218.246094 178.984375 220.730469 178.984375 C 221.089844 178.984375 221.476562 178.996094 221.886719 179.003906 C 221.90625 179.011719 221.914062 179.03125 221.941406 179.039062 C 240.125 186.078125 260 179.78125 278.558594 184.746094 C 287.796875 187.214844 296.253906 191.601562 305.964844 192.109375 C 312.292969 192.441406 318.851562 192.328125 325.285156 191.585938 C 327.039062 191.4375 328.78125 191.191406 330.511719 190.894531 C 335.566406 190.007812 340.476562 188.425781 345.433594 187.09375 C 349.835938 185.910156 354.355469 184.964844 358.925781 184.710938 C 362.09375 184.6875 365.226562 185 368.527344 185.4375 C 368.589844 185.449219 368.652344 185.449219 368.703125 185.4375 C 369.429688 185.613281 370.15625 185.816406 370.855469 186.070312 C 371.699219 186.367188 372.378906 186.890625 373.210938 187.191406 C 373.972656 187.46875 374.816406 186.742188 374.796875 185.980469 C 374.746094 184.0625 372.957031 183.425781 371.363281 182.910156 C 369.046875 182.148438 366.601562 181.734375 364.175781 181.558594 C 358.941406 181.183594 353.742188 182.09375 348.707031 183.46875 C 344.285156 184.667969 339.941406 186.121094 335.546875 187.398438 C 332.597656 188.152344 329.613281 188.773438 326.566406 189.160156 C 321.511719 189.789062 316.417969 189.992188 311.332031 190.085938 C 306.078125 190.183594 300.964844 189.832031 295.886719 188.425781 C 291.316406 187.15625 286.902344 185.367188 282.378906 183.960938 C 273.316406 181.132812 263.972656 180.992188 254.570312 181.226562 C 244.230469 181.488281 233.558594 182.007812 223.542969 179.054688 C 228.015625 179.144531 233.792969 178.925781 234.417969 173.976562 C 234.714844 171.613281 233.898438 168.507812 232.238281 166.765625 C 230.511719 164.960938 227.9375 164.617188 225.574219 164.601562 C 224.917969 164.59375 224.050781 164.574219 223.070312 164.574219 C 228.207031 161.554688 234.222656 160.679688 240.140625 160.617188 C 241.183594 160.609375 242.21875 160.609375 243.257812 160.617188 C 249.203125 161.246094 255.253906 161.308594 261.199219 161.054688 C 265.023438 160.890625 268.808594 160.589844 272.589844 159.960938 C 274.53125 159.636719 276.441406 159.226562 278.351562 158.742188 C 279.769531 158.394531 281.441406 158.210938 282.769531 157.542969 C 287.21875 156.433594 291.839844 154.953125 295.328125 152.144531 C 295.902344 151.679688 295.089844 150.875 294.511719 151.328125 C 291.089844 154.023438 286.753906 155.417969 282.386719 156.398438 C 282.210938 156.398438 282.042969 156.40625 281.871094 156.425781 C 281.894531 156.285156 281.929688 156.144531 281.957031 156.003906 C 282.597656 154.714844 282.570312 152.972656 282.71875 151.589844 C 282.910156 149.789062 283.140625 147.976562 283.253906 146.152344 C 283.453125 143.039062 283.113281 139.804688 281.019531 137.335938 C 278.9375 134.878906 275.476562 133.652344 272.527344 132.566406 C 272.238281 132.460938 271.949219 132.355469 271.660156 132.25 C 270.890625 131.847656 270.121094 131.4375 269.339844 131.035156 C 266.171875 129.386719 262.992188 127.757812 259.796875 126.15625 C 257.082031 124.800781 254.371094 123.347656 251.453125 122.445312 C 248.320312 121.480469 245.195312 121.746094 241.972656 121.480469 C 235.773438 120.992188 229.46875 118.128906 223.234375 119.976562 C 220.1875 120.878906 217.378906 122.53125 214.375 123.582031 C 211.722656 124.511719 208.492188 124.863281 205.960938 126.105469 C 204.132812 126.515625 202.3125 126.980469 200.542969 127.644531 C 196.148438 129.316406 192.363281 132.171875 188.117188 134.132812 C 183.390625 136.320312 176.660156 137.679688 172.824219 133.160156 C 173.953125 132.539062 175.003906 131.523438 175.949219 130.535156 C 178.722656 128.285156 181.4375 125.894531 183.777344 123.199219 C 183.847656 123.136719 183.917969 123.074219 183.996094 123.015625 C 184.667969 122.070312 185.316406 121.113281 186.097656 120.273438 C 186.253906 120.125 186.402344 119.976562 186.558594 119.820312 C 186.71875 119.660156 186.902344 119.496094 187.085938 119.320312 C 187.136719 119.292969 187.183594 119.265625 187.234375 119.242188 C 187.996094 118.664062 188.828125 118.179688 189.652344 117.699219 C 193.125 115.667969 196.585938 113.609375 200.097656 111.640625 C 203.703125 109.609375 207.371094 107.683594 211.003906 105.707031 C 212.441406 104.917969 213.894531 104.128906 215.382812 103.421875 C 215.453125 103.367188 215.53125 103.316406 215.601562 103.261719 C 216.785156 102.703125 217.984375 102.195312 219.21875 101.765625 C 221.738281 101.054688 224.320312 100.617188 226.929688 100.375 C 234.25 100.277344 241.59375 100.742188 248.921875 100.714844 C 256.496094 100.6875 264.054688 100.304688 271.625 100.199219 C 275.847656 100.136719 279.769531 100.765625 283.507812 102.789062 C 286.753906 104.550781 289.425781 107.132812 292.585938 109.015625 C 292.902344 109.207031 293.199219 108.777344 292.972656 108.515625 C 288.890625 103.875 282.640625 100.039062 276.46875 99.253906 C 272.753906 98.78125 268.972656 99.148438 265.253906 99.289062 C 261.234375 99.4375 257.214844 99.53125 253.195312 99.566406 C 247.75 99.621094 242.3125 99.542969 236.875 99.410156 C 228.9375 98.378906 221.082031 98.167969 213.613281 101.792969 C 209.535156 103.769531 205.761719 106.421875 201.332031 107.613281 C 198.144531 108.472656 194.449219 108.875 191.464844 110.476562 C 191.0625 110.625 190.65625 110.78125 190.253906 110.957031 C 185.746094 112.929688 181.527344 115.082031 176.457031 114.949219 C 174.003906 114.890625 171.582031 114.3125 169.410156 113.164062 C 167.71875 112.273438 166.503906 111.011719 165.171875 109.757812 C 166.625 109.15625 168.070312 108.296875 169.410156 107.5625 C 172.839844 105.6875 176.117188 103.429688 178.488281 100.277344 C 178.621094 100.101562 178.609375 99.910156 178.515625 99.742188 C 184.828125 98.28125 191.085938 96.242188 197.25 94.359375 C 203.921875 92.320312 210.574219 90.269531 217.003906 87.53125 C 218.746094 86.785156 220.433594 86.214844 222.167969 85.875 C 222.308594 85.867188 222.4375 85.855469 222.578125 85.847656 C 222.761719 85.839844 222.945312 85.832031 223.132812 85.804688 C 224.050781 85.753906 224.976562 85.726562 225.90625 85.753906 C 227.394531 85.785156 228.902344 85.796875 230.398438 85.867188 C 233.121094 86.234375 235.835938 86.714844 238.574219 86.96875 C 242.402344 87.320312 246.246094 87.539062 250.042969 88.1875 C 253.746094 88.824219 257.382812 89.753906 261.007812 90.714844 C 264.894531 91.75 268.78125 92.808594 272.660156 93.859375 C 275.558594 94.636719 278.464844 95.496094 281.433594 96.039062 C 286.203125 97.667969 290.859375 99.515625 295.210938 102.195312 C 301.535156 106.089844 307.15625 111.105469 313.292969 115.300781 C 315.09375 116.535156 316.925781 117.742188 318.773438 118.925781 C 320.21875 120.019531 321.785156 121.019531 323.210938 121.980469 C 325.671875 123.636719 328.160156 125.253906 330.707031 126.777344 C 335.878906 129.871094 341.203125 132.730469 346.683594 135.253906 C 357.523438 140.246094 368.984375 144.097656 380.828125 145.734375 C 381.476562 145.820312 381.933594 145.550781 382.160156 145.15625 C 383.132812 144.78125 383.351562 143.195312 382.132812 142.976562 Z M 225.257812 165.773438 C 227.394531 165.773438 229.871094 165.949219 231.429688 167.621094 C 232.804688 169.09375 233.453125 171.910156 233.128906 173.863281 C 232.324219 178.636719 225.039062 177.558594 221.527344 177.664062 C 219.347656 177.734375 216.582031 177.671875 215.261719 175.589844 C 214 173.609375 214.121094 170.546875 214.550781 168.347656 C 214.558594 168.3125 214.550781 168.289062 214.550781 168.261719 C 215.96875 164.976562 222.300781 165.773438 225.257812 165.773438 Z M 181.964844 123.609375 C 181.902344 123.660156 181.832031 123.714844 181.78125 123.765625 C 180.535156 124.886719 179.300781 126.015625 178.09375 127.171875 C 177.847656 127.402344 177.613281 127.644531 177.367188 127.890625 C 176.097656 129.003906 174.8125 130.097656 173.558594 131.242188 C 173.121094 131.648438 171.589844 132.847656 170.890625 132.722656 C 170.398438 132.191406 170.503906 131.699219 171.222656 131.234375 C 171.492188 130.910156 171.773438 130.597656 172.070312 130.289062 C 172.507812 129.816406 172.945312 129.351562 173.410156 128.914062 C 174.628906 127.757812 175.964844 126.742188 177.316406 125.753906 C 178.664062 124.765625 180.027344 123.8125 181.402344 122.875 C 182.347656 122.234375 183.820312 120.902344 185.152344 120.386719 C 184.101562 121.472656 183.039062 122.550781 181.964844 123.609375 Z M 171.582031 104.898438 C 170.511719 105.601562 169.398438 106.238281 168.269531 106.84375 C 167.167969 107.4375 165.757812 108.445312 164.550781 108.707031 C 163.648438 109.25 163 108.628906 162.613281 106.851562 C 162.902344 106.570312 163.226562 106.328125 163.578125 106.117188 C 164.128906 105.75 164.726562 105.441406 165.304688 105.128906 C 166.511719 104.460938 167.746094 103.832031 168.988281 103.234375 C 171.5625 102 174.136719 100.984375 176.914062 100.375 C 175.320312 102.105469 173.558594 103.613281 171.582031 104.898438 Z M 180.808594 60.511719 C 180.835938 60.335938 180.914062 60.167969 181.089844 60.046875 C 181.21875 59.949219 181.367188 59.871094 181.527344 59.820312 C 182.699219 59.511719 184.425781 59.714844 185.175781 59.792969 C 186.867188 59.96875 188.511719 60.28125 190.132812 60.773438 C 193.160156 61.675781 196.007812 63.042969 198.816406 64.460938 C 198.808594 64.484375 198.800781 64.503906 198.792969 64.53125 C 197.574219 64.871094 195.769531 64.414062 194.648438 64.320312 C 193.058594 64.1875 191.472656 64.046875 189.878906 63.917969 C 188.285156 63.785156 186.683594 63.6875 185.105469 63.425781 C 183.171875 63.101562 181.210938 62.535156 180.808594 60.511719 Z M 242.007812 85.945312 C 238.085938 85.628906 234.234375 85.140625 230.34375 84.585938 C 228.507812 84.324219 226.667969 84.140625 224.828125 84.203125 C 224.46875 84.203125 224.101562 84.210938 223.742188 84.230469 C 221.484375 83.835938 219.09375 83.992188 216.820312 83.503906 C 214.183594 82.933594 211.742188 81.910156 209.253906 80.875 C 205.269531 79.210938 201.121094 78.152344 196.847656 77.707031 C 189.851562 76.015625 182.078125 72.425781 182.953125 64.066406 C 184.328125 64.449219 185.878906 64.597656 187.035156 64.714844 C 189.695312 64.984375 192.355469 65.1875 195.019531 65.414062 C 196.332031 65.527344 198.609375 66.238281 199.710938 65.203125 C 211.292969 68.617188 223.183594 70.964844 234.566406 75.054688 C 234.785156 75.132812 235.003906 75.21875 235.230469 75.296875 C 237.105469 76.359375 239.171875 77.171875 241.078125 78.101562 C 241.980469 78.539062 242.875 78.984375 243.757812 79.441406 C 246.164062 80.910156 248.730469 82.207031 251.234375 83.535156 C 252.757812 84.421875 254.28125 85.3125 255.789062 86.234375 C 257.039062 87.003906 258.328125 87.992188 259.640625 88.84375 C 259.753906 88.921875 259.867188 89.007812 259.992188 89.097656 C 254.070312 87.609375 248.160156 86.445312 242.007812 85.945312 Z M 242.007812 85.945312 "/></g><g style="fill:#3e473a;fill-opacity:1;"><g transform="translate(361.680735, 182.459054)"><path style="stroke:none" d="M 1.359375 -1.390625 C 1.671875 -1.390625 1.78125 -1.234375 1.6875 -0.921875 C 1.644531 -0.804688 1.597656 -0.691406 1.546875 -0.578125 C 1.492188 -0.484375 1.421875 -0.421875 1.328125 -0.390625 C 1.234375 -0.367188 1.132812 -0.378906 1.03125 -0.421875 C 0.945312 -0.453125 0.898438 -0.515625 0.890625 -0.609375 C 0.878906 -0.742188 0.882812 -0.882812 0.90625 -1.03125 C 0.925781 -1.28125 1.078125 -1.398438 1.359375 -1.390625 Z M 1.359375 -1.390625 "/></g></g></g></svg>