<svg id="visual" viewBox="0 0 1000 500" width="1000" height="500" xmlns="http://www.w3.org/2000/svg" xmlns:xlink="http://www.w3.org/1999/xlink" version="1.1"><path d="M0 315L23.8 312.5C47.7 310 95.3 305 143 317.5C190.7 330 238.3 360 286 365.7C333.7 371.3 381.3 352.7 428.8 339.8C476.3 327 523.7 320 571.2 314.3C618.7 308.7 666.3 304.3 714 293.5C761.7 282.7 809.3 265.3 857 268.5C904.7 271.7 952.3 295.3 976.2 307.2L1000 319L1000 501L976.2 501C952.3 501 904.7 501 857 501C809.3 501 761.7 501 714 501C666.3 501 618.7 501 571.2 501C523.7 501 476.3 501 428.8 501C381.3 501 333.7 501 286 501C238.3 501 190.7 501 143 501C95.3 501 47.7 501 23.8 501L0 501Z" fill="#c0c76b"></path><path d="M0 303L23.8 305C47.7 307 95.3 311 143 318.2C190.7 325.3 238.3 335.7 286 347.3C333.7 359 381.3 372 428.8 369C476.3 366 523.7 347 571.2 353.3C618.7 359.7 666.3 391.3 714 403.8C761.7 416.3 809.3 409.7 857 405.3C904.7 401 952.3 399 976.2 398L1000 397L1000 501L976.2 501C952.3 501 904.7 501 857 501C809.3 501 761.7 501 714 501C666.3 501 618.7 501 571.2 501C523.7 501 476.3 501 428.8 501C381.3 501 333.7 501 286 501C238.3 501 190.7 501 143 501C95.3 501 47.7 501 23.8 501L0 501Z" fill="#a1ba77"></path><path d="M0 395L23.8 396.3C47.7 397.7 95.3 400.3 143 396.7C190.7 393 238.3 383 286 378.8C333.7 374.7 381.3 376.3 428.8 376.2C476.3 376 523.7 374 571.2 374.7C618.7 375.3 666.3 378.7 714 388C761.7 397.3 809.3 412.7 857 414.5C904.7 416.3 952.3 404.7 976.2 398.8L1000 393L1000 501L976.2 501C952.3 501 904.7 501 857 501C809.3 501 761.7 501 714 501C666.3 501 618.7 501 571.2 501C523.7 501 476.3 501 428.8 501C381.3 501 333.7 501 286 501C238.3 501 190.7 501 143 501C95.3 501 47.7 501 23.8 501L0 501Z" fill="#8bab81"></path></svg>