<svg id="visual" viewBox="0 0 1000 300" width="1000" height="300" xmlns="http://www.w3.org/2000/svg" xmlns:xlink="http://www.w3.org/1999/xlink" version="1.1"><path d="M0 264L23.8 261.2C47.7 258.3 95.3 252.7 143 253C190.7 253.3 238.3 259.7 286 261.3C333.7 263 381.3 260 428.8 261C476.3 262 523.7 267 571.2 270.2C618.7 273.3 666.3 274.7 714 274C761.7 273.3 809.3 270.7 857 267.2C904.7 263.7 952.3 259.3 976.2 257.2L1000 255L1000 301L976.2 301C952.3 301 904.7 301 857 301C809.3 301 761.7 301 714 301C666.3 301 618.7 301 571.2 301C523.7 301 476.3 301 428.8 301C381.3 301 333.7 301 286 301C238.3 301 190.7 301 143 301C95.3 301 47.7 301 23.8 301L0 301Z" fill="#c0c76b"></path><path d="M0 276L23.8 275.3C47.7 274.7 95.3 273.3 143 274C190.7 274.7 238.3 277.3 286 275.2C333.7 273 381.3 266 428.8 264.3C476.3 262.7 523.7 266.3 571.2 264.7C618.7 263 666.3 256 714 256.2C761.7 256.3 809.3 263.7 857 263.7C904.7 263.7 952.3 256.3 976.2 252.7L1000 249L1000 301L976.2 301C952.3 301 904.7 301 857 301C809.3 301 761.7 301 714 301C666.3 301 618.7 301 571.2 301C523.7 301 476.3 301 428.8 301C381.3 301 333.7 301 286 301C238.3 301 190.7 301 143 301C95.3 301 47.7 301 23.8 301L0 301Z" fill="#a1ba77"></path><path d="M0 266L23.8 266.7C47.7 267.3 95.3 268.7 143 270C190.7 271.3 238.3 272.7 286 273.3C333.7 274 381.3 274 428.8 273.2C476.3 272.3 523.7 270.7 571.2 270C618.7 269.3 666.3 269.7 714 272C761.7 274.3 809.3 278.7 857 280.2C904.7 281.7 952.3 280.3 976.2 279.7L1000 279L1000 301L976.2 301C952.3 301 904.7 301 857 301C809.3 301 761.7 301 714 301C666.3 301 618.7 301 571.2 301C523.7 301 476.3 301 428.8 301C381.3 301 333.7 301 286 301C238.3 301 190.7 301 143 301C95.3 301 47.7 301 23.8 301L0 301Z" fill="#8bab81"></path></svg>