<svg id="visual" viewBox="0 0 2000 600" width="2000" height="600" xmlns="http://www.w3.org/2000/svg" xmlns:xlink="http://www.w3.org/1999/xlink" version="1.1"><path d="M0 529L47.7 523.2C95.3 517.3 190.7 505.7 285.8 506.3C381 507 476 520 571.2 523.5C666.3 527 761.7 521 857 523.2C952.3 525.3 1047.7 535.7 1143 542C1238.3 548.3 1333.7 550.7 1428.8 549.3C1524 548 1619 543 1714.2 536C1809.3 529 1904.7 520 1952.3 515.5L2000 511L2000 601L1952.3 601C1904.7 601 1809.3 601 1714.2 601C1619 601 1524 601 1428.8 601C1333.7 601 1238.3 601 1143 601C1047.7 601 952.3 601 857 601C761.7 601 666.3 601 571.2 601C476 601 381 601 285.8 601C190.7 601 95.3 601 47.7 601L0 601Z" fill="#c0c76b"></path><path d="M0 553L47.7 551.7C95.3 550.3 190.7 547.7 285.8 548.8C381 550 476 555 571.2 550.7C666.3 546.3 761.7 532.7 857 529.5C952.3 526.3 1047.7 533.7 1143 530.5C1238.3 527.3 1333.7 513.7 1428.8 514.2C1524 514.7 1619 529.3 1714.2 529.2C1809.3 529 1904.7 514 1952.3 506.5L2000 499L2000 601L1952.3 601C1904.7 601 1809.3 601 1714.2 601C1619 601 1524 601 1428.8 601C1333.7 601 1238.3 601 1143 601C1047.7 601 952.3 601 857 601C761.7 601 666.3 601 571.2 601C476 601 381 601 285.8 601C190.7 601 95.3 601 47.7 601L0 601Z" fill="#a1ba77"></path><path d="M0 532L47.7 533.3C95.3 534.7 190.7 537.3 285.8 540.2C381 543 476 546 571.2 547.5C666.3 549 761.7 549 857 547.2C952.3 545.3 1047.7 541.7 1143 540.5C1238.3 539.3 1333.7 540.7 1428.8 545.3C1524 550 1619 558 1714.2 560.8C1809.3 563.7 1904.7 561.3 1952.3 560.2L2000 559L2000 601L1952.3 601C1904.7 601 1809.3 601 1714.2 601C1619 601 1524 601 1428.8 601C1333.7 601 1238.3 601 1143 601C1047.7 601 952.3 601 857 601C761.7 601 666.3 601 571.2 601C476 601 381 601 285.8 601C190.7 601 95.3 601 47.7 601L0 601Z" fill="#8bab81"></path></svg>