<svg xmlns="http://www.w3.org/2000/svg" xmlns:xlink="http://www.w3.org/1999/xlink" width="500" zoomAndPan="magnify" viewBox="0 0 375 122.249994" height="163" preserveAspectRatio="xMidYMid meet" version="1.2"><defs/><g id="55c0ff12af"><g style="fill:#000000;fill-opacity:1;"><g transform="translate(315.784153, 48.673134)"><path style="stroke:none" d="M 2.125 -0.59375 L 1.4375 0.09375 L 0.734375 -0.59375 L 1.4375 -1.28125 Z M 2.125 -0.59375 "/></g></g><g style="fill:#ffffff;fill-opacity:1;"><g transform="translate(33.246029, 91.647345)"><path style="stroke:none" d="M 9.0625 1.5625 L 6.8125 3.421875 L -5.140625 -18.484375 L -2.875 -20.34375 Z M -4.34375 -25.4375 L -5.390625 -21.921875 L -8.90625 -22.953125 L -7.875 -26.484375 Z M -4.34375 -25.4375 "/></g></g><g style="fill:#ffffff;fill-opacity:1;"><g transform="translate(42.655024, 86.112873)"><path style="stroke:none" d="M -11.5625 -30.71875 L 20.59375 -17.171875 L 10.140625 -39.828125 L 12.828125 -41.6875 L 26.78125 -11.46875 L -5.359375 -24.953125 L 4.96875 -2.578125 L 2.265625 -0.765625 Z M -11.5625 -30.71875 "/></g></g><g style="fill:#ffffff;fill-opacity:1;"><g transform="translate(70.256555, 73.146681)"><path style="stroke:none" d="M 8.015625 -34.328125 C 6.171875 -33.703125 4.570312 -32.78125 3.21875 -31.5625 C 1.863281 -30.351562 0.804688 -28.960938 0.046875 -27.390625 C -0.710938 -25.816406 -1.160156 -24.113281 -1.296875 -22.28125 C -1.429688 -20.457031 -1.1875 -18.628906 -0.5625 -16.796875 C 0.0390625 -14.992188 0.941406 -13.40625 2.140625 -12.03125 C 3.347656 -10.65625 4.726562 -9.566406 6.28125 -8.765625 C 7.832031 -7.972656 9.523438 -7.5 11.359375 -7.34375 C 13.191406 -7.1875 15.039062 -7.425781 16.90625 -8.0625 C 18.769531 -8.6875 20.382812 -9.613281 21.75 -10.84375 C 23.113281 -12.082031 24.171875 -13.488281 24.921875 -15.0625 C 25.679688 -16.644531 26.125 -18.347656 26.25 -20.171875 C 26.375 -21.992188 26.132812 -23.804688 25.53125 -25.609375 C 24.925781 -27.390625 24.03125 -28.957031 22.84375 -30.3125 C 21.65625 -31.675781 20.28125 -32.765625 18.71875 -33.578125 C 17.164062 -34.390625 15.460938 -34.875 13.609375 -35.03125 C 11.765625 -35.195312 9.898438 -34.960938 8.015625 -34.328125 Z M -3.78125 -15.703125 C -4.46875 -17.734375 -4.75 -19.847656 -4.625 -22.046875 C -4.507812 -24.242188 -3.992188 -26.320312 -3.078125 -28.28125 C -2.171875 -30.25 -0.863281 -32.019531 0.84375 -33.59375 C 2.550781 -35.175781 4.628906 -36.382812 7.078125 -37.21875 C 9.535156 -38.050781 11.914062 -38.351562 14.21875 -38.125 C 16.53125 -37.894531 18.640625 -37.273438 20.546875 -36.265625 C 22.460938 -35.253906 24.140625 -33.910156 25.578125 -32.234375 C 27.015625 -30.566406 28.078125 -28.71875 28.765625 -26.6875 C 29.441406 -24.65625 29.71875 -22.539062 29.59375 -20.34375 C 29.46875 -18.144531 28.945312 -16.066406 28.03125 -14.109375 C 27.125 -12.148438 25.820312 -10.378906 24.125 -8.796875 C 22.425781 -7.222656 20.347656 -6.019531 17.890625 -5.1875 C 15.441406 -4.351562 13.054688 -4.050781 10.734375 -4.28125 C 8.421875 -4.507812 6.304688 -5.125 4.390625 -6.125 C 2.484375 -7.132812 0.816406 -8.472656 -0.609375 -10.140625 C -2.046875 -11.816406 -3.101562 -13.671875 -3.78125 -15.703125 Z M -3.78125 -15.703125 "/></g></g><g style="fill:#ffffff;fill-opacity:1;"><g transform="translate(104.812607, 61.848454)"><path style="stroke:none" d="M -3.75 -23.75 C -4.0625 -25.0625 -4.113281 -26.3125 -3.90625 -27.5 C -3.707031 -28.695312 -3.300781 -29.773438 -2.6875 -30.734375 C -2.082031 -31.691406 -1.304688 -32.507812 -0.359375 -33.1875 C 0.578125 -33.863281 1.628906 -34.34375 2.796875 -34.625 C 4.035156 -34.914062 5.226562 -34.957031 6.375 -34.75 C 7.53125 -34.550781 8.816406 -34.050781 10.234375 -33.25 L 9.21875 -30.1875 C 8.15625 -30.914062 7.164062 -31.398438 6.25 -31.640625 C 5.332031 -31.878906 4.296875 -31.859375 3.140625 -31.578125 C 2.347656 -31.390625 1.675781 -31.0625 1.125 -30.59375 C 0.570312 -30.125 0.132812 -29.570312 -0.1875 -28.9375 C -0.519531 -28.3125 -0.726562 -27.632812 -0.8125 -26.90625 C -0.894531 -26.175781 -0.859375 -25.476562 -0.703125 -24.8125 C -0.472656 -23.875 -0.0976562 -23.082031 0.421875 -22.4375 C 0.953125 -21.800781 1.5625 -21.28125 2.25 -20.875 C 2.9375 -20.476562 3.6875 -20.160156 4.5 -19.921875 C 5.3125 -19.691406 6.128906 -19.53125 6.953125 -19.4375 C 8.023438 -19.269531 9.039062 -19.023438 10 -18.703125 C 10.96875 -18.390625 11.847656 -17.957031 12.640625 -17.40625 C 13.441406 -16.851562 14.125 -16.171875 14.6875 -15.359375 C 15.25 -14.554688 15.664062 -13.601562 15.9375 -12.5 C 16.1875 -11.457031 16.242188 -10.359375 16.109375 -9.203125 C 15.972656 -8.054688 15.625 -6.953125 15.0625 -5.890625 C 14.5 -4.828125 13.726562 -3.890625 12.75 -3.078125 C 11.769531 -2.273438 10.570312 -1.703125 9.15625 -1.359375 C 7.71875 -1.015625 6.296875 -1.03125 4.890625 -1.40625 C 3.484375 -1.78125 2.023438 -2.628906 0.515625 -3.953125 L 1.4375 -6.875 C 2.53125 -5.988281 3.675781 -5.269531 4.875 -4.71875 C 6.082031 -4.175781 7.335938 -4.066406 8.640625 -4.390625 C 9.421875 -4.578125 10.113281 -4.910156 10.71875 -5.390625 C 11.332031 -5.867188 11.828125 -6.4375 12.203125 -7.09375 C 12.578125 -7.757812 12.820312 -8.476562 12.9375 -9.25 C 13.0625 -10.03125 13.023438 -10.828125 12.828125 -11.640625 C 12.609375 -12.546875 12.253906 -13.285156 11.765625 -13.859375 C 11.273438 -14.429688 10.691406 -14.882812 10.015625 -15.21875 C 9.335938 -15.5625 8.59375 -15.828125 7.78125 -16.015625 C 6.96875 -16.203125 6.125 -16.375 5.25 -16.53125 C 4.226562 -16.71875 3.238281 -16.976562 2.28125 -17.3125 C 1.332031 -17.644531 0.457031 -18.085938 -0.34375 -18.640625 C -1.144531 -19.191406 -1.835938 -19.882812 -2.421875 -20.71875 C -3.015625 -21.550781 -3.457031 -22.5625 -3.75 -23.75 Z M -3.75 -23.75 "/></g></g><g style="fill:#ffffff;fill-opacity:1;"><g transform="translate(123.691851, 57.393078)"><path style="stroke:none" d=""/></g></g><g style="fill:#ffffff;fill-opacity:1;"><g transform="translate(133.590153, 55.171555)"><path style="stroke:none" d="M -0.609375 -16.15625 C -0.878906 -18.3125 -0.734375 -20.441406 -0.171875 -22.546875 C 0.378906 -24.660156 1.300781 -26.59375 2.59375 -28.34375 C 3.894531 -30.09375 5.53125 -31.570312 7.5 -32.78125 C 9.46875 -33.988281 11.738281 -34.753906 14.3125 -35.078125 C 16.164062 -35.304688 18.015625 -35.222656 19.859375 -34.828125 C 21.710938 -34.441406 23.425781 -33.757812 25 -32.78125 L 23.84375 -29.84375 C 22.457031 -30.820312 20.984375 -31.488281 19.421875 -31.84375 C 17.859375 -32.195312 16.285156 -32.273438 14.703125 -32.078125 C 12.742188 -31.828125 10.972656 -31.226562 9.390625 -30.28125 C 7.804688 -29.34375 6.488281 -28.175781 5.4375 -26.78125 C 4.382812 -25.394531 3.613281 -23.816406 3.125 -22.046875 C 2.644531 -20.285156 2.523438 -18.460938 2.765625 -16.578125 C 3.003906 -14.679688 3.578125 -12.941406 4.484375 -11.359375 C 5.390625 -9.785156 6.535156 -8.453125 7.921875 -7.359375 C 9.304688 -6.273438 10.875 -5.472656 12.625 -4.953125 C 14.375 -4.441406 16.226562 -4.3125 18.1875 -4.5625 C 19.6875 -4.75 21.175781 -5.238281 22.65625 -6.03125 C 24.132812 -6.820312 25.457031 -7.800781 26.625 -8.96875 L 28.640625 -6.609375 C 27.335938 -5.296875 25.8125 -4.179688 24.0625 -3.265625 C 22.320312 -2.347656 20.492188 -1.769531 18.578125 -1.53125 C 16.003906 -1.207031 13.609375 -1.390625 11.390625 -2.078125 C 9.179688 -2.765625 7.234375 -3.785156 5.546875 -5.140625 C 3.859375 -6.503906 2.476562 -8.140625 1.40625 -10.046875 C 0.34375 -11.953125 -0.328125 -13.988281 -0.609375 -16.15625 Z M -0.609375 -16.15625 "/></g></g><g style="fill:#ffffff;fill-opacity:1;"><g transform="translate(162.271539, 51.429318)"><path style="stroke:none" d="M 11.421875 -17.703125 L 19.5 -17.9375 L 15 -26.84375 Z M 14.90625 -33.453125 L 31.984375 -1.21875 L 28.75 -0.578125 L 21.078125 -14.953125 L 10.046875 -14.625 L 3.546875 0.15625 L 0.25 -0.28125 Z M 14.90625 -33.453125 "/></g></g><g style="fill:#ffffff;fill-opacity:1;"><g transform="translate(193.775271, 50.71841)"><path style="stroke:none" d="M 3.15625 -23.84375 C 3.226562 -25.1875 3.53125 -26.398438 4.0625 -27.484375 C 4.601562 -28.566406 5.300781 -29.484375 6.15625 -30.234375 C 7.007812 -30.984375 7.984375 -31.546875 9.078125 -31.921875 C 10.171875 -32.296875 11.316406 -32.453125 12.515625 -32.390625 C 13.796875 -32.328125 14.957031 -32.03125 16 -31.5 C 17.050781 -30.96875 18.140625 -30.117188 19.265625 -28.953125 L 17.4375 -26.328125 C 16.613281 -27.328125 15.796875 -28.070312 14.984375 -28.5625 C 14.179688 -29.050781 13.1875 -29.320312 12 -29.375 C 11.1875 -29.425781 10.445312 -29.304688 9.78125 -29.015625 C 9.113281 -28.722656 8.53125 -28.320312 8.03125 -27.8125 C 7.539062 -27.300781 7.148438 -26.707031 6.859375 -26.03125 C 6.578125 -25.351562 6.421875 -24.671875 6.390625 -23.984375 C 6.335938 -23.023438 6.46875 -22.164062 6.78125 -21.40625 C 7.101562 -20.644531 7.535156 -19.972656 8.078125 -19.390625 C 8.628906 -18.804688 9.257812 -18.285156 9.96875 -17.828125 C 10.6875 -17.378906 11.425781 -16.992188 12.1875 -16.671875 C 13.175781 -16.203125 14.085938 -15.675781 14.921875 -15.09375 C 15.765625 -14.507812 16.484375 -13.84375 17.078125 -13.09375 C 17.679688 -12.34375 18.132812 -11.492188 18.4375 -10.546875 C 18.75 -9.609375 18.878906 -8.570312 18.828125 -7.4375 C 18.765625 -6.363281 18.507812 -5.296875 18.0625 -4.234375 C 17.613281 -3.171875 16.96875 -2.210938 16.125 -1.359375 C 15.289062 -0.503906 14.285156 0.164062 13.109375 0.65625 C 11.929688 1.15625 10.613281 1.363281 9.15625 1.28125 C 7.6875 1.207031 6.332031 0.789062 5.09375 0.03125 C 3.851562 -0.71875 2.695312 -1.941406 1.625 -3.640625 L 3.328125 -6.171875 C 4.128906 -5.015625 5.023438 -4.003906 6.015625 -3.140625 C 7.015625 -2.285156 8.1875 -1.820312 9.53125 -1.75 C 10.332031 -1.707031 11.09375 -1.832031 11.8125 -2.125 C 12.539062 -2.414062 13.175781 -2.820312 13.71875 -3.34375 C 14.269531 -3.875 14.710938 -4.492188 15.046875 -5.203125 C 15.378906 -5.910156 15.566406 -6.679688 15.609375 -7.515625 C 15.660156 -8.441406 15.53125 -9.25 15.21875 -9.9375 C 14.914062 -10.625 14.484375 -11.226562 13.921875 -11.75 C 13.367188 -12.269531 12.726562 -12.734375 12 -13.140625 C 11.28125 -13.554688 10.523438 -13.960938 9.734375 -14.359375 C 8.804688 -14.828125 7.929688 -15.359375 7.109375 -15.953125 C 6.296875 -16.546875 5.582031 -17.21875 4.96875 -17.96875 C 4.351562 -18.71875 3.878906 -19.578125 3.546875 -20.546875 C 3.222656 -21.523438 3.09375 -22.625 3.15625 -23.84375 Z M 3.15625 -23.84375 "/></g></g><g style="fill:#ffffff;fill-opacity:1;"><g transform="translate(212.862204, 51.419077)"><path style="stroke:none" d="M 14.125 -15.609375 L 22.15625 -14.53125 L 19.125 -24.0625 Z M 20.09375 -30.609375 L 31.765625 3.96875 L 28.46875 4.0625 L 23.21875 -11.34375 L 12.265625 -12.796875 L 3.46875 0.734375 L 0.296875 -0.234375 Z M 20.09375 -30.609375 "/></g></g><g style="fill:#ffffff;fill-opacity:1;"><g transform="translate(243.886981, 55.315804)"><path style="stroke:none" d="M 20.578125 -1.984375 L 39.984375 -24.078125 L 36.34375 8.765625 L 33.265625 8.53125 L 35.890625 -15 L 35.796875 -15.015625 L 18.734375 4.390625 L 13.109375 -20.15625 L 13.015625 -20.171875 L 4.453125 1.375 L 1.53125 0.109375 L 13.890625 -30.5625 Z M 20.578125 -1.984375 "/></g></g><g style="fill:#ffffff;fill-opacity:1;"><g transform="translate(280.584965, 64.411005)"><path style="stroke:none" d="M 27.96875 -21.46875 C 26.15625 -22.144531 24.335938 -22.441406 22.515625 -22.359375 C 20.703125 -22.285156 19 -21.878906 17.40625 -21.140625 C 15.820312 -20.398438 14.394531 -19.367188 13.125 -18.046875 C 11.863281 -16.722656 10.890625 -15.15625 10.203125 -13.34375 C 9.535156 -11.5625 9.226562 -9.757812 9.28125 -7.9375 C 9.34375 -6.113281 9.722656 -4.398438 10.421875 -2.796875 C 11.117188 -1.191406 12.128906 0.25 13.453125 1.53125 C 14.773438 2.8125 16.359375 3.796875 18.203125 4.484375 C 20.035156 5.179688 21.867188 5.488281 23.703125 5.40625 C 25.535156 5.320312 27.242188 4.910156 28.828125 4.171875 C 30.421875 3.429688 31.84375 2.394531 33.09375 1.0625 C 34.34375 -0.257812 35.300781 -1.8125 35.96875 -3.59375 C 36.644531 -5.363281 36.953125 -7.144531 36.890625 -8.9375 C 36.835938 -10.738281 36.46875 -12.445312 35.78125 -14.0625 C 35.09375 -15.675781 34.082031 -17.132812 32.75 -18.4375 C 31.425781 -19.75 29.832031 -20.757812 27.96875 -21.46875 Z M 7.03125 -14.53125 C 7.789062 -16.539062 8.914062 -18.359375 10.40625 -19.984375 C 11.894531 -21.609375 13.613281 -22.890625 15.5625 -23.828125 C 17.507812 -24.765625 19.640625 -25.300781 21.953125 -25.4375 C 24.273438 -25.582031 26.648438 -25.195312 29.078125 -24.28125 C 31.503906 -23.351562 33.539062 -22.070312 35.1875 -20.4375 C 36.832031 -18.800781 38.070312 -16.988281 38.90625 -15 C 39.738281 -13.007812 40.175781 -10.910156 40.21875 -8.703125 C 40.269531 -6.503906 39.914062 -4.398438 39.15625 -2.390625 C 38.40625 -0.390625 37.28125 1.414062 35.78125 3.03125 C 34.289062 4.65625 32.570312 5.9375 30.625 6.875 C 28.6875 7.8125 26.554688 8.351562 24.234375 8.5 C 21.921875 8.65625 19.550781 8.269531 17.125 7.34375 C 14.695312 6.425781 12.660156 5.144531 11.015625 3.5 C 9.367188 1.851562 8.125 0.0351562 7.28125 -1.953125 C 6.445312 -3.941406 6.007812 -6.035156 5.96875 -8.234375 C 5.925781 -10.429688 6.28125 -12.53125 7.03125 -14.53125 Z M 7.03125 -14.53125 "/></g></g><g style="fill:#ffffff;fill-opacity:1;"><g transform="translate(314.464245, 77.600666)"><path style="stroke:none" d="M 12.171875 -20.734375 C 12.753906 -21.941406 13.503906 -22.941406 14.421875 -23.734375 C 15.335938 -24.535156 16.332031 -25.113281 17.40625 -25.46875 C 18.488281 -25.832031 19.601562 -25.972656 20.75 -25.890625 C 21.90625 -25.804688 23.023438 -25.503906 24.109375 -24.984375 C 25.265625 -24.429688 26.222656 -23.707031 26.984375 -22.8125 C 27.742188 -21.914062 28.421875 -20.710938 29.015625 -19.203125 L 26.296875 -17.484375 C 25.929688 -18.722656 25.46875 -19.726562 24.90625 -20.5 C 24.351562 -21.269531 23.539062 -21.910156 22.46875 -22.421875 C 21.738281 -22.773438 21.007812 -22.945312 20.28125 -22.9375 C 19.550781 -22.925781 18.859375 -22.773438 18.203125 -22.484375 C 17.554688 -22.203125 16.96875 -21.804688 16.4375 -21.296875 C 15.90625 -20.796875 15.492188 -20.238281 15.203125 -19.625 C 14.785156 -18.757812 14.570312 -17.910156 14.5625 -17.078125 C 14.5625 -16.253906 14.703125 -15.46875 14.984375 -14.71875 C 15.265625 -13.96875 15.644531 -13.242188 16.125 -12.546875 C 16.601562 -11.859375 17.128906 -11.21875 17.703125 -10.625 C 18.429688 -9.8125 19.066406 -8.972656 19.609375 -8.109375 C 20.160156 -7.242188 20.566406 -6.347656 20.828125 -5.421875 C 21.085938 -4.503906 21.175781 -3.550781 21.09375 -2.5625 C 21.019531 -1.570312 20.734375 -0.566406 20.234375 0.453125 C 19.765625 1.410156 19.113281 2.296875 18.28125 3.109375 C 17.445312 3.921875 16.476562 4.554688 15.375 5.015625 C 14.28125 5.472656 13.09375 5.703125 11.8125 5.703125 C 10.539062 5.703125 9.25 5.382812 7.9375 4.75 C 6.613281 4.101562 5.523438 3.191406 4.671875 2.015625 C 3.828125 0.835938 3.242188 -0.738281 2.921875 -2.71875 L 5.46875 -4.390625 C 5.757812 -3.003906 6.195312 -1.722656 6.78125 -0.546875 C 7.363281 0.628906 8.257812 1.507812 9.46875 2.09375 C 10.1875 2.4375 10.9375 2.613281 11.71875 2.625 C 12.5 2.644531 13.242188 2.519531 13.953125 2.25 C 14.660156 1.976562 15.304688 1.578125 15.890625 1.046875 C 16.472656 0.523438 16.945312 -0.109375 17.3125 -0.859375 C 17.707031 -1.691406 17.898438 -2.484375 17.890625 -3.234375 C 17.878906 -3.992188 17.71875 -4.71875 17.40625 -5.40625 C 17.09375 -6.101562 16.679688 -6.785156 16.171875 -7.453125 C 15.671875 -8.117188 15.132812 -8.785156 14.5625 -9.453125 C 13.882812 -10.234375 13.28125 -11.054688 12.75 -11.921875 C 12.226562 -12.796875 11.828125 -13.695312 11.546875 -14.625 C 11.273438 -15.5625 11.175781 -16.539062 11.25 -17.5625 C 11.332031 -18.582031 11.640625 -19.640625 12.171875 -20.734375 Z M 12.171875 -20.734375 "/></g></g><g style="fill:#ffffff;fill-opacity:1;"><g transform="translate(331.877419, 86.121013)"><path style="stroke:none" d="M 8.203125 2.4375 L 4.671875 3.484375 L 3.640625 -0.046875 L 7.15625 -1.078125 Z M 9.921875 -3.140625 L 7.15625 -4.046875 L 19.09375 -25.953125 L 21.875 -25.046875 Z M 9.921875 -3.140625 "/></g></g></g></svg>