<svg xmlns="http://www.w3.org/2000/svg" xmlns:xlink="http://www.w3.org/1999/xlink" width="553" zoomAndPan="magnify" viewBox="0 0 414.75 562.499983" height="750" preserveAspectRatio="xMidYMid meet" version="1.2"><defs/><g id="25c710605e"><g style="fill:#ffffff;fill-opacity:1;"><g transform="translate(63.527281, 383.357161)"><path style="stroke:none" d="M 82.109375 -87.125 C 80.703125 -83.375 79.203125 -79.675781 77.609375 -76.03125 C 60.898438 -38.207031 46.566406 -5.75 34.609375 21.34375 C 31.816406 21.851562 31.25 20.203125 32.90625 16.390625 C 36.007812 8.140625 41.453125 -4.988281 49.234375 -23 C 57.023438 -41.019531 64.957031 -58.976562 73.03125 -76.875 C 74.675781 -80.519531 76.179688 -84.207031 77.546875 -87.9375 C 77.585938 -88.113281 77.65625 -88.289062 77.75 -88.46875 C 78.039062 -89.144531 78.285156 -89.882812 78.484375 -90.6875 C 78.679688 -91.488281 78.710938 -92.359375 78.578125 -93.296875 C 77.328125 -93.078125 76.191406 -92.71875 75.171875 -92.21875 C 74.898438 -92.113281 74.65625 -92.023438 74.4375 -91.953125 C 64.914062 -87.984375 54.96875 -82.820312 44.59375 -76.46875 C 34.226562 -70.125 25.207031 -63.5 17.53125 -56.59375 C 15.894531 -55.082031 14.304688 -53.507812 12.765625 -51.875 C 11.222656 -50.25 9.78125 -48.507812 8.4375 -46.65625 C 6.925781 -44.6875 5.8125 -42.503906 5.09375 -40.109375 C 3.769531 -35.640625 5.097656 -32.242188 9.078125 -29.921875 C 11.867188 -28.335938 14.648438 -27.273438 17.421875 -26.734375 C 20.191406 -26.203125 22.800781 -25.953125 25.25 -25.984375 C 27.695312 -26.023438 29.816406 -26.15625 31.609375 -26.375 C 32.359375 -26.414062 33.003906 -26.460938 33.546875 -26.515625 C 33.898438 -26.554688 34.253906 -26.539062 34.609375 -26.46875 C 34.972656 -26.40625 35.289062 -26.207031 35.5625 -25.875 C 36 -25.269531 35.441406 -24.804688 33.890625 -24.484375 C 32.335938 -24.160156 30.21875 -24 27.53125 -24 C 24.84375 -24 22 -24.164062 19 -24.5 C 13.664062 -25.238281 9.53125 -26.378906 6.59375 -27.921875 C 4.769531 -28.828125 3.265625 -30.078125 2.078125 -31.671875 C 0.691406 -33.609375 0.15625 -35.726562 0.46875 -38.03125 C 0.757812 -40.445312 1.507812 -42.679688 2.71875 -44.734375 C 4.726562 -48.085938 7.109375 -51.113281 9.859375 -53.8125 C 14.660156 -58.75 20.238281 -63.523438 26.59375 -68.140625 C 32.945312 -72.753906 39.53125 -77.023438 46.34375 -80.953125 C 53.15625 -84.890625 59.65625 -88.320312 65.84375 -91.25 C 68.664062 -92.53125 71.53125 -93.726562 74.4375 -94.84375 C 75.820312 -95.394531 77.269531 -95.773438 78.78125 -95.984375 C 79.207031 -96.046875 79.585938 -96.046875 79.921875 -95.984375 C 82.710938 -96.117188 83.875 -94.707031 83.40625 -91.75 C 83.113281 -90.164062 82.679688 -88.625 82.109375 -87.125 Z M 82.109375 -87.125 "/></g><g transform="translate(124.117949, 383.357161)"><path style="stroke:none" d="M 14.046875 -17.96875 C 13.867188 -16.625 13.234375 -15.742188 12.140625 -15.328125 C 11.054688 -14.921875 10.703125 -15.457031 11.078125 -16.9375 C 11.460938 -18.425781 10.796875 -18.804688 9.078125 -18.078125 C 7.359375 -17.347656 5.941406 -16.425781 4.828125 -15.3125 C 3.109375 -13.550781 1.585938 -11.65625 0.265625 -9.625 C 0.128906 -9.457031 0.0195312 -9.3125 -0.0625 -9.1875 C -0.445312 -8.625 -0.835938 -8.085938 -1.234375 -7.578125 C -1.484375 -7.234375 -1.78125 -7.015625 -2.125 -6.921875 C -2.46875 -6.835938 -2.8125 -6.820312 -3.15625 -6.875 C -3.488281 -6.914062 -3.742188 -7.039062 -3.921875 -7.25 C -4.097656 -7.46875 -4.117188 -7.722656 -3.984375 -8.015625 C -3.765625 -8.546875 -3.507812 -9.082031 -3.21875 -9.625 C -1.457031 -12.882812 0.328125 -16.15625 2.140625 -19.4375 C 2.179688 -19.476562 2.203125 -19.519531 2.203125 -19.5625 C 2.453125 -20.0625 2.753906 -20.523438 3.109375 -20.953125 C 3.492188 -21.390625 3.9375 -21.566406 4.4375 -21.484375 C 4.945312 -21.410156 5.289062 -21.109375 5.46875 -20.578125 C 5.6875 -19.898438 5.875 -19.515625 6.03125 -19.421875 C 6.1875 -19.335938 6.535156 -19.398438 7.078125 -19.609375 C 8.253906 -20.035156 9.394531 -20.335938 10.5 -20.515625 C 11.613281 -20.691406 12.523438 -20.648438 13.234375 -20.390625 C 13.953125 -20.128906 14.222656 -19.320312 14.046875 -17.96875 Z M 14.046875 -17.96875 "/></g><g transform="translate(138.753377, 383.357161)"><path style="stroke:none" d="M 16.6875 -11.234375 C 15.550781 -10.128906 14.234375 -9.179688 12.734375 -8.390625 C 11.234375 -7.597656 9.972656 -7.078125 8.953125 -6.828125 C 7.941406 -6.585938 6.898438 -6.445312 5.828125 -6.40625 C 4.109375 -6.332031 2.523438 -6.566406 1.078125 -7.109375 C -1.273438 -8.066406 -2.09375 -9.894531 -1.375 -12.59375 C -0.6875 -14.914062 0.695312 -16.726562 2.78125 -18.03125 C 4.863281 -19.34375 7.019531 -19.976562 9.25 -19.9375 C 9.25 -19.9375 9.269531 -19.9375 9.3125 -19.9375 C 9.875 -19.976562 10.410156 -19.9375 10.921875 -19.8125 C 11.773438 -19.5 12.316406 -18.992188 12.546875 -18.296875 C 12.785156 -17.597656 12.632812 -16.816406 12.09375 -15.953125 C 10.84375 -14.054688 9.144531 -13.003906 7 -12.796875 C 5.570312 -12.660156 4.195312 -12.726562 2.875 -13 C 2.613281 -13.039062 2.382812 -12.972656 2.1875 -12.796875 C 2 -12.617188 1.882812 -12.40625 1.84375 -12.15625 C 1.457031 -10.46875 1.972656 -9.390625 3.390625 -8.921875 C 5.148438 -8.316406 6.976562 -8.316406 8.875 -8.921875 C 11.0625 -9.609375 13.140625 -10.894531 15.109375 -12.78125 C 17.078125 -14.675781 18.210938 -15.5625 18.515625 -15.4375 C 18.816406 -15.3125 18.910156 -14.945312 18.796875 -14.34375 C 18.523438 -13.382812 17.820312 -12.347656 16.6875 -11.234375 Z M 4.21875 -15.953125 C 4.101562 -15.816406 4.019531 -15.664062 3.96875 -15.5 C 3.914062 -15.332031 3.976562 -15.179688 4.15625 -15.046875 C 4.84375 -14.660156 5.582031 -14.519531 6.375 -14.625 C 7.175781 -14.726562 7.851562 -15.03125 8.40625 -15.53125 C 8.96875 -16.03125 9.210938 -16.640625 9.140625 -17.359375 C 9.078125 -17.609375 8.9375 -17.765625 8.71875 -17.828125 C 8.507812 -17.898438 8.296875 -17.921875 8.078125 -17.890625 C 6.628906 -17.628906 5.34375 -16.984375 4.21875 -15.953125 Z M 4.21875 -15.953125 "/></g><g transform="translate(155.789014, 383.357161)"><path style="stroke:none" d="M 23.1875 -14.609375 C 23.5 -14.210938 23.109375 -13.5 22.015625 -12.46875 C 20.921875 -11.4375 19.757812 -10.566406 18.53125 -9.859375 C 17.300781 -9.160156 15.875 -8.457031 14.25 -7.75 C 13.175781 -7.289062 12.035156 -7.132812 10.828125 -7.28125 C 9.617188 -7.4375 9.015625 -8.171875 9.015625 -9.484375 C 9.015625 -10.796875 9.316406 -12.09375 9.921875 -13.375 C 10.523438 -14.707031 10.65625 -15.390625 10.3125 -15.421875 C 9.976562 -15.460938 9.273438 -15.144531 8.203125 -14.46875 C 5.410156 -12.625 2.8125 -10.523438 0.40625 -8.171875 C -0.238281 -7.390625 -1.054688 -6.957031 -2.046875 -6.875 C -2.554688 -6.875 -2.953125 -7.035156 -3.234375 -7.359375 C -3.515625 -7.679688 -3.550781 -8.03125 -3.34375 -8.40625 C -1.625 -11.582031 0.113281 -14.722656 1.875 -17.828125 C 2.257812 -18.472656 2.84375 -18.875 3.625 -19.03125 C 3.957031 -19.082031 4.265625 -18.976562 4.546875 -18.71875 C 4.835938 -18.457031 4.984375 -18.160156 4.984375 -17.828125 C 4.941406 -17.515625 4.8125 -17.144531 4.59375 -16.71875 C 4.5 -16.457031 4.40625 -16.207031 4.3125 -15.96875 C 4.226562 -15.738281 4.203125 -15.546875 4.234375 -15.390625 C 4.265625 -15.234375 4.382812 -15.1875 4.59375 -15.25 C 4.882812 -15.40625 5.175781 -15.570312 5.46875 -15.75 C 6.21875 -16.175781 6.929688 -16.585938 7.609375 -16.984375 C 8.210938 -17.328125 8.847656 -17.632812 9.515625 -17.90625 C 10.179688 -18.1875 10.875 -18.375 11.59375 -18.46875 C 12.757812 -18.550781 13.585938 -18.289062 14.078125 -17.6875 C 14.566406 -17.082031 14.625 -16.238281 14.25 -15.15625 C 13.863281 -14.1875 13.457031 -13.222656 13.03125 -12.265625 C 12.5 -11.367188 12.410156 -10.6875 12.765625 -10.21875 C 13.117188 -9.75 14.75 -10.285156 17.65625 -11.828125 L 19.84375 -13.109375 C 21.914062 -14.441406 23.03125 -14.941406 23.1875 -14.609375 Z M 23.1875 -14.609375 "/></g><g transform="translate(177.244551, 383.357161)"><path style="stroke:none" d="M 16.6875 -11.234375 C 15.550781 -10.128906 14.234375 -9.179688 12.734375 -8.390625 C 11.234375 -7.597656 9.972656 -7.078125 8.953125 -6.828125 C 7.941406 -6.585938 6.898438 -6.445312 5.828125 -6.40625 C 4.109375 -6.332031 2.523438 -6.566406 1.078125 -7.109375 C -1.273438 -8.066406 -2.09375 -9.894531 -1.375 -12.59375 C -0.6875 -14.914062 0.695312 -16.726562 2.78125 -18.03125 C 4.863281 -19.34375 7.019531 -19.976562 9.25 -19.9375 C 9.25 -19.9375 9.269531 -19.9375 9.3125 -19.9375 C 9.875 -19.976562 10.410156 -19.9375 10.921875 -19.8125 C 11.773438 -19.5 12.316406 -18.992188 12.546875 -18.296875 C 12.785156 -17.597656 12.632812 -16.816406 12.09375 -15.953125 C 10.84375 -14.054688 9.144531 -13.003906 7 -12.796875 C 5.570312 -12.660156 4.195312 -12.726562 2.875 -13 C 2.613281 -13.039062 2.382812 -12.972656 2.1875 -12.796875 C 2 -12.617188 1.882812 -12.40625 1.84375 -12.15625 C 1.457031 -10.46875 1.972656 -9.390625 3.390625 -8.921875 C 5.148438 -8.316406 6.976562 -8.316406 8.875 -8.921875 C 11.0625 -9.609375 13.140625 -10.894531 15.109375 -12.78125 C 17.078125 -14.675781 18.210938 -15.5625 18.515625 -15.4375 C 18.816406 -15.3125 18.910156 -14.945312 18.796875 -14.34375 C 18.523438 -13.382812 17.820312 -12.347656 16.6875 -11.234375 Z M 4.21875 -15.953125 C 4.101562 -15.816406 4.019531 -15.664062 3.96875 -15.5 C 3.914062 -15.332031 3.976562 -15.179688 4.15625 -15.046875 C 4.84375 -14.660156 5.582031 -14.519531 6.375 -14.625 C 7.175781 -14.726562 7.851562 -15.03125 8.40625 -15.53125 C 8.96875 -16.03125 9.210938 -16.640625 9.140625 -17.359375 C 9.078125 -17.609375 8.9375 -17.765625 8.71875 -17.828125 C 8.507812 -17.898438 8.296875 -17.921875 8.078125 -17.890625 C 6.628906 -17.628906 5.34375 -16.984375 4.21875 -15.953125 Z M 4.21875 -15.953125 "/></g></g><g style="fill:#ffffff;fill-opacity:1;"><g transform="translate(232.377229, 497.006013)"><path style="stroke:none" d="M 149.671875 -82.296875 C 150.398438 -81.859375 150.859375 -81.285156 151.046875 -80.578125 C 151.242188 -79.867188 151.128906 -79.148438 150.703125 -78.421875 C 150.054688 -77.390625 149.265625 -76.441406 148.328125 -75.578125 C 146.429688 -73.828125 144.34375 -72.238281 142.0625 -70.8125 C 130.570312 -63.300781 118.191406 -57.59375 104.921875 -53.6875 C 104.316406 -53.507812 103.710938 -53.316406 103.109375 -53.109375 C 102.203125 -52.804688 101.28125 -52.53125 100.34375 -52.28125 C 100.09375 -52.1875 99.859375 -52.21875 99.640625 -52.375 C 99.429688 -52.53125 99.296875 -52.753906 99.234375 -53.046875 C 99.234375 -53.179688 99.285156 -53.34375 99.390625 -53.53125 C 99.503906 -53.71875 99.628906 -53.835938 99.765625 -53.890625 C 100.878906 -54.359375 102.039062 -54.789062 103.25 -55.1875 C 116.5625 -59.59375 129.03125 -65.726562 140.65625 -73.59375 C 142.082031 -74.625 143.460938 -75.695312 144.796875 -76.8125 C 144.960938 -76.988281 145.15625 -77.132812 145.375 -77.25 C 146.0625 -77.820312 146.550781 -78.535156 146.84375 -79.390625 C 147.019531 -79.898438 146.875 -80.328125 146.40625 -80.671875 C 145.875 -81.003906 145.285156 -81.203125 144.640625 -81.265625 C 144.523438 -81.265625 144.398438 -81.285156 144.265625 -81.328125 C 141.722656 -81.753906 139.175781 -81.96875 136.625 -81.96875 C 134.082031 -81.96875 131.546875 -81.859375 129.015625 -81.640625 C 123.253906 -81.078125 117.519531 -80.300781 111.8125 -79.3125 C 106.101562 -78.332031 100.410156 -77.238281 94.734375 -76.03125 C 77.910156 -72.476562 61.359375 -67.96875 45.078125 -62.5 C 39.285156 -60.570312 33.546875 -58.515625 27.859375 -56.328125 C 22.171875 -54.140625 16.550781 -51.738281 11 -49.125 C 9.5 -48.382812 8 -47.648438 6.5 -46.921875 C 5.695312 -46.492188 4.867188 -46.066406 4.015625 -45.640625 C 3.878906 -45.597656 3.769531 -45.53125 3.6875 -45.4375 C 3.125 -45.144531 2.539062 -44.910156 1.9375 -44.734375 C 1.644531 -44.617188 1.335938 -44.566406 1.015625 -44.578125 C 0.691406 -44.597656 0.441406 -44.738281 0.265625 -45 C 0.0859375 -45.34375 0.0859375 -45.640625 0.265625 -45.890625 C 0.441406 -46.148438 0.675781 -46.367188 0.96875 -46.546875 C 1.007812 -46.585938 1.078125 -46.625 1.171875 -46.65625 C 2.578125 -47.476562 4.03125 -48.28125 5.53125 -49.0625 C 10.351562 -51.5 15.257812 -53.75 20.25 -55.8125 C 25.25 -57.875 30.304688 -59.8125 35.421875 -61.625 C 55.992188 -68.957031 76.972656 -74.769531 98.359375 -79.0625 C 103.515625 -80.101562 108.664062 -81.050781 113.8125 -81.90625 C 118.96875 -82.769531 124.160156 -83.414062 129.390625 -83.84375 C 130.890625 -83.914062 132.410156 -83.992188 133.953125 -84.078125 C 134.640625 -84.128906 135.351562 -84.175781 136.09375 -84.21875 C 139.3125 -84.21875 142.53125 -83.984375 145.75 -83.515625 C 147.113281 -83.335938 148.421875 -82.929688 149.671875 -82.296875 Z M 70.078125 -22.34375 C 70.367188 -22.28125 70.644531 -22.175781 70.90625 -22.03125 C 71.175781 -21.882812 71.375 -21.722656 71.5 -21.546875 C 71.625 -21.367188 71.640625 -21.203125 71.546875 -21.046875 C 71.328125 -20.773438 71.082031 -20.617188 70.8125 -20.578125 C 70.539062 -20.535156 70.273438 -20.515625 70.015625 -20.515625 C 69.960938 -20.515625 69.914062 -20.515625 69.875 -20.515625 C 65.289062 -20.515625 60.675781 -20.300781 56.03125 -19.875 C 53.59375 -19.664062 51.125 -19.488281 48.625 -19.34375 C 47.800781 -19.3125 47.242188 -18.882812 46.953125 -18.0625 C 46.703125 -17.414062 46.421875 -16.769531 46.109375 -16.125 C 45.953125 -15.757812 45.804688 -15.378906 45.671875 -14.984375 C 45.066406 -13.597656 44.488281 -12.242188 43.9375 -10.921875 C 39.21875 0.578125 34.300781 11.992188 29.1875 23.328125 C 27.71875 26.472656 26.164062 29.566406 24.53125 32.609375 C 24.53125 32.648438 24.507812 32.691406 24.46875 32.734375 C 23.96875 33.722656 23.328125 34.664062 22.546875 35.5625 C 21.859375 36.382812 20.957031 36.671875 19.84375 36.421875 C 19.53125 36.316406 19.265625 36.15625 19.046875 35.9375 C 18.835938 35.726562 18.734375 35.457031 18.734375 35.125 C 18.796875 34.382812 18.929688 33.65625 19.140625 32.9375 C 19.296875 32.425781 19.460938 31.890625 19.640625 31.328125 C 20.503906 28.535156 21.410156 25.742188 22.359375 22.953125 C 26.660156 10.640625 31.660156 -1.378906 37.359375 -13.109375 C 37.878906 -14.222656 38.503906 -15.316406 39.234375 -16.390625 C 39.398438 -16.648438 39.644531 -16.800781 39.96875 -16.84375 C 40.289062 -16.894531 40.597656 -16.875 40.890625 -16.78125 C 41.421875 -16.625 41.617188 -16.222656 41.484375 -15.578125 C 41.347656 -14.929688 41.078125 -14.1875 40.671875 -13.34375 C 40.273438 -12.507812 39.878906 -11.769531 39.484375 -11.125 C 39.171875 -10.59375 38.957031 -10.203125 38.84375 -9.953125 C 32.945312 2.710938 29.660156 10.097656 28.984375 12.203125 C 28.722656 12.929688 28.59375 13.421875 28.59375 13.671875 C 28.59375 13.921875 28.679688 14.023438 28.859375 13.984375 C 29.035156 13.953125 29.226562 13.835938 29.4375 13.640625 C 29.65625 13.441406 29.859375 13.234375 30.046875 13.015625 C 30.234375 12.804688 30.359375 12.664062 30.421875 12.59375 C 30.671875 11.945312 30.941406 11.28125 31.234375 10.59375 C 32.191406 8.394531 33.140625 6.203125 34.078125 4.015625 C 34.367188 3.367188 34.648438 2.722656 34.921875 2.078125 C 36.929688 -2.679688 38.921875 -7.441406 40.890625 -12.203125 C 40.992188 -12.378906 41.125 -12.644531 41.28125 -13 C 41.625 -13.675781 41.988281 -14.472656 42.375 -15.390625 C 42.769531 -16.316406 43.019531 -17.144531 43.125 -17.875 C 43.238281 -18.601562 43.050781 -18.988281 42.5625 -19.03125 C 41.582031 -19.03125 40.597656 -19.03125 39.609375 -19.03125 C 38.960938 -19.03125 38.316406 -19.03125 37.671875 -19.03125 C 37.128906 -19.03125 36.554688 -19.03125 35.953125 -19.03125 C 34.054688 -19.03125 32.160156 -19.054688 30.265625 -19.109375 C 29.765625 -19.148438 29.296875 -19.28125 28.859375 -19.5 C 28.828125 -19.539062 28.796875 -19.613281 28.765625 -19.71875 C 28.734375 -19.820312 28.695312 -19.941406 28.65625 -20.078125 C 28.65625 -20.117188 28.65625 -20.160156 28.65625 -20.203125 C 28.65625 -20.234375 28.679688 -20.273438 28.734375 -20.328125 C 28.785156 -20.378906 28.828125 -20.425781 28.859375 -20.46875 C 29.117188 -20.632812 29.375 -20.738281 29.625 -20.78125 C 29.875 -20.820312 30.140625 -20.84375 30.421875 -20.84375 C 30.492188 -20.84375 30.570312 -20.84375 30.65625 -20.84375 C 31.726562 -20.882812 32.800781 -20.921875 33.875 -20.953125 C 36.664062 -21.128906 39.457031 -21.238281 42.25 -21.28125 C 43.195312 -21.28125 43.9375 -21.484375 44.46875 -21.890625 C 45.007812 -22.304688 45.425781 -22.941406 45.71875 -23.796875 C 47.101562 -27.367188 48.5 -30.929688 49.90625 -34.484375 C 51.414062 -38.265625 52.898438 -42.050781 54.359375 -45.84375 C 55.472656 -48.75 56.523438 -51.664062 57.515625 -54.59375 C 58.066406 -56.132812 58.625 -57.695312 59.1875 -59.28125 C 59.1875 -59.34375 59.207031 -59.390625 59.25 -59.421875 C 59.46875 -60.109375 59.75 -60.734375 60.09375 -61.296875 C 60.3125 -61.585938 60.570312 -61.742188 60.875 -61.765625 C 61.175781 -61.785156 61.492188 -61.757812 61.828125 -61.6875 C 62.078125 -61.539062 62.28125 -61.367188 62.4375 -61.171875 C 62.59375 -60.984375 62.648438 -60.765625 62.609375 -60.515625 C 62.472656 -59.535156 62.28125 -58.566406 62.03125 -57.609375 C 60.601562 -52.921875 58.992188 -48.328125 57.203125 -43.828125 C 57.109375 -43.703125 57.039062 -43.570312 57 -43.4375 C 55.375 -39.1875 53.703125 -34.960938 51.984375 -30.765625 C 51.203125 -28.835938 50.425781 -26.90625 49.65625 -24.96875 C 49.65625 -24.925781 49.65625 -24.90625 49.65625 -24.90625 C 49.4375 -24.34375 49.21875 -23.757812 49 -23.15625 C 48.789062 -22.613281 48.78125 -22.21875 48.96875 -21.96875 C 49.164062 -21.726562 49.585938 -21.609375 50.234375 -21.609375 C 51.085938 -21.609375 51.945312 -21.65625 52.8125 -21.75 C 53.195312 -21.75 53.585938 -21.75 53.984375 -21.75 C 54.054688 -21.75 54.113281 -21.769531 54.15625 -21.8125 C 59.09375 -21.988281 64.007812 -22.164062 68.90625 -22.34375 C 69.300781 -22.375 69.691406 -22.375 70.078125 -22.34375 Z M 70.078125 -22.34375 "/></g><g transform="translate(305.027489, 497.006013)"><path style="stroke:none" d="M 21.234375 -14.90625 C 21.691406 -14.644531 21.726562 -14.007812 21.34375 -13 C 20.769531 -12.257812 20.160156 -11.566406 19.515625 -10.921875 C 18.878906 -10.273438 18.179688 -9.695312 17.421875 -9.1875 C 17.359375 -9.1875 17.328125 -9.171875 17.328125 -9.140625 C 16.816406 -8.785156 16.28125 -8.476562 15.71875 -8.21875 C 11.050781 -6.539062 8.671875 -7.53125 8.578125 -11.1875 C 6.679688 -9.539062 5.410156 -8.535156 4.765625 -8.171875 C 3.222656 -7.253906 1.554688 -6.84375 -0.234375 -6.9375 C -1.554688 -7.019531 -2.457031 -7.425781 -2.9375 -8.15625 C -3.414062 -8.882812 -3.375 -9.875 -2.8125 -11.125 C -1.945312 -13.09375 -0.726562 -14.847656 0.84375 -16.390625 C 2.695312 -18.109375 4.757812 -19.484375 7.03125 -20.515625 C 8.238281 -21.117188 9.503906 -21.351562 10.828125 -21.21875 C 12.160156 -21.144531 12.960938 -20.394531 13.234375 -18.96875 C 13.347656 -18.539062 13.238281 -18.160156 12.90625 -17.828125 C 12.476562 -17.441406 11.984375 -17.351562 11.421875 -17.5625 C 11.378906 -17.5625 11.320312 -17.570312 11.25 -17.59375 C 11.1875 -17.613281 11.132812 -17.644531 11.09375 -17.6875 C 10.53125 -18.46875 9.957031 -18.789062 9.375 -18.65625 C 8.800781 -18.53125 8.191406 -18.273438 7.546875 -17.890625 C 4.546875 -16.128906 2.3125 -13.675781 0.84375 -10.53125 C 0.769531 -10.394531 0.722656 -10.242188 0.703125 -10.078125 C 0.679688 -9.921875 0.726562 -9.789062 0.84375 -9.6875 C 1.195312 -9.570312 1.585938 -9.597656 2.015625 -9.765625 C 2.441406 -9.929688 2.867188 -10.175781 3.296875 -10.5 C 3.734375 -10.820312 4.097656 -11.085938 4.390625 -11.296875 C 4.429688 -11.359375 4.453125 -11.390625 4.453125 -11.390625 C 5.878906 -12.578125 7.273438 -13.796875 8.640625 -15.046875 C 9.242188 -15.691406 9.992188 -16.050781 10.890625 -16.125 C 12.179688 -16.125 12.71875 -15.550781 12.5 -14.40625 C 12.382812 -13.976562 12.257812 -13.546875 12.125 -13.109375 C 11.613281 -11.253906 11.59375 -10.164062 12.0625 -9.84375 C 12.53125 -9.53125 13.242188 -9.53125 14.203125 -9.84375 C 15.171875 -10.164062 16.140625 -10.78125 17.109375 -11.6875 C 18.078125 -12.601562 18.890625 -13.4375 19.546875 -14.1875 C 20.210938 -14.9375 20.773438 -15.175781 21.234375 -14.90625 Z M 21.234375 -14.90625 "/></g><g transform="translate(324.434065, 497.006013)"><path style="stroke:none" d="M 14.171875 -13.96875 C 14.816406 -14.613281 15.351562 -14.972656 15.78125 -15.046875 C 16.207031 -15.117188 16.484375 -15.046875 16.609375 -14.828125 C 16.734375 -14.617188 16.648438 -14.332031 16.359375 -13.96875 C 14.640625 -11.894531 12.71875 -10.109375 10.59375 -8.609375 C 8.46875 -7.109375 6.273438 -6.238281 4.015625 -6 C 1.765625 -5.769531 0.40625 -7 -0.0625 -9.6875 C -0.40625 -12.363281 1.210938 -17.804688 4.796875 -26.015625 C 8.390625 -34.234375 11.226562 -40.96875 13.3125 -46.21875 C 13.488281 -46.6875 13.753906 -47.097656 14.109375 -47.453125 C 14.578125 -47.921875 15.132812 -48.03125 15.78125 -47.78125 C 15.988281 -47.675781 16.203125 -47.515625 16.421875 -47.296875 C 16.640625 -47.085938 16.707031 -46.710938 16.625 -46.171875 C 7.394531 -24.265625 2.925781 -12.351562 3.21875 -10.4375 C 3.507812 -8.53125 4.742188 -8.0625 6.921875 -9.03125 C 9.097656 -10 10.773438 -10.984375 11.953125 -11.984375 C 13.140625 -12.992188 13.878906 -13.65625 14.171875 -13.96875 Z M 14.171875 -13.96875 "/></g><g transform="translate(339.040222, 497.006013)"><path style="stroke:none" d="M 11.625 -12.34375 C 10.582031 -11.101562 9.347656 -9.960938 7.921875 -8.921875 C 6.503906 -7.890625 4.894531 -7.191406 3.09375 -6.828125 C 1.300781 -6.472656 -0.0859375 -6.609375 -1.078125 -7.234375 C -2.078125 -7.859375 -2.273438 -9.242188 -1.671875 -11.390625 C -0.890625 -13.609375 0.179688 -15.722656 1.546875 -17.734375 C 1.859375 -18.171875 2.304688 -18.472656 2.890625 -18.640625 C 3.328125 -18.742188 3.707031 -18.671875 4.03125 -18.421875 C 4.351562 -18.179688 4.472656 -17.875 4.390625 -17.5 C 4.097656 -16.800781 3.773438 -16.097656 3.421875 -15.390625 C 3.066406 -14.691406 2.832031 -14.234375 2.71875 -14.015625 C 2.039062 -12.773438 1.5625 -11.46875 1.28125 -10.09375 C 1.28125 -9.3125 2.320312 -9.265625 4.40625 -9.953125 C 6.5 -10.640625 8.53125 -11.894531 10.5 -13.71875 C 12.476562 -15.539062 13.421875 -16.078125 13.328125 -15.328125 C 13.242188 -14.578125 12.675781 -13.582031 11.625 -12.34375 Z M 6.53125 -22.125 C 6.425781 -22.050781 6.222656 -21.957031 5.921875 -21.84375 C 5.617188 -21.738281 5.296875 -21.660156 4.953125 -21.609375 C 4.617188 -21.566406 4.351562 -21.625 4.15625 -21.78125 C 3.957031 -21.9375 3.945312 -22.25 4.125 -22.71875 C 4.4375 -23.539062 4.765625 -24.257812 5.109375 -24.875 C 5.453125 -25.488281 5.894531 -26.164062 6.4375 -26.90625 C 6.789062 -27.238281 7.171875 -27.414062 7.578125 -27.4375 C 7.992188 -27.46875 8.335938 -27.359375 8.609375 -27.109375 C 8.878906 -26.867188 8.957031 -26.535156 8.84375 -26.109375 C 8.414062 -24.566406 7.644531 -23.238281 6.53125 -22.125 Z M 6.53125 -22.125 "/></g></g><g style="fill:#ffffff;fill-opacity:1;"><g transform="translate(197.825911, 424.820233)"><path style="stroke:none" d="M 36.1875 -13.875 C 36.3125 -13.582031 36.382812 -13.269531 36.40625 -12.9375 C 36.46875 -11.582031 36.335938 -10.078125 36.015625 -8.421875 C 35.691406 -6.773438 35.132812 -5.148438 34.34375 -3.546875 C 33.5625 -1.941406 32.53125 -0.570312 31.25 0.5625 C 29.96875 1.695312 28.429688 2.40625 26.640625 2.6875 C 24.078125 3.0625 21.882812 2.632812 20.0625 1.40625 C 18.957031 0.625 18.070312 -0.335938 17.40625 -1.484375 C 17.144531 -1.878906 16.890625 -2.296875 16.640625 -2.734375 C 16.515625 -2.921875 16.375 -3.128906 16.21875 -3.359375 C 15.59375 -3.066406 15.03125 -2.679688 14.53125 -2.203125 C 14.363281 -2.054688 14.191406 -1.921875 14.015625 -1.796875 C 13.984375 -1.773438 13.945312 -1.734375 13.90625 -1.671875 C 12.519531 -0.546875 11.066406 0.488281 9.546875 1.4375 C 7.921875 2.394531 6.289062 2.820312 4.65625 2.71875 C 3.257812 2.613281 2.269531 2.109375 1.6875 1.203125 C 1.101562 0.304688 1.039062 -0.847656 1.5 -2.265625 C 1.769531 -3.140625 2.160156 -3.96875 2.671875 -4.75 C 3.191406 -5.53125 3.765625 -6.285156 4.390625 -7.015625 C 5.316406 -8.085938 6.296875 -9.109375 7.328125 -10.078125 C 8.367188 -11.046875 9.441406 -11.988281 10.546875 -12.90625 C 11.503906 -13.707031 12.484375 -14.484375 13.484375 -15.234375 C 14.210938 -15.765625 14.601562 -16.414062 14.65625 -17.1875 C 14.90625 -19.695312 15.441406 -22.226562 16.265625 -24.78125 C 16.816406 -26.53125 17.632812 -28.226562 18.71875 -29.875 C 20.5625 -32.664062 22.960938 -33.984375 25.921875 -33.828125 C 27.398438 -33.804688 28.648438 -33.394531 29.671875 -32.59375 C 31.503906 -31.03125 31.628906 -28.9375 30.046875 -26.3125 C 29.316406 -25.238281 28.453125 -24.238281 27.453125 -23.3125 C 26.503906 -22.40625 25.515625 -21.550781 24.484375 -20.75 C 23.460938 -19.945312 22.425781 -19.171875 21.375 -18.421875 C 21.25 -18.328125 21.125 -18.242188 21 -18.171875 C 20.039062 -17.460938 19.101562 -16.757812 18.1875 -16.0625 C 17.789062 -15.8125 17.570312 -15.5 17.53125 -15.125 C 17.507812 -14.800781 17.5 -14.476562 17.5 -14.15625 C 17.476562 -13.15625 17.5 -12.171875 17.5625 -11.203125 C 17.625 -10.234375 17.800781 -9.3125 18.09375 -8.4375 C 18.132812 -8.414062 18.175781 -8.390625 18.21875 -8.359375 C 18.238281 -8.335938 18.25 -8.328125 18.25 -8.328125 C 18.832031 -8.628906 19.347656 -8.988281 19.796875 -9.40625 C 19.953125 -9.53125 20.101562 -9.671875 20.25 -9.828125 C 23.445312 -12.398438 26.722656 -14.851562 30.078125 -17.1875 C 30.554688 -17.507812 31.046875 -17.828125 31.546875 -18.140625 C 32.054688 -18.453125 32.570312 -18.578125 33.09375 -18.515625 C 33.394531 -18.484375 33.59375 -18.359375 33.6875 -18.140625 C 33.75 -17.953125 33.726562 -17.800781 33.625 -17.6875 C 33.519531 -17.582031 33.40625 -17.476562 33.28125 -17.375 C 32.976562 -17.125 32.675781 -16.875 32.375 -16.625 C 32.070312 -16.425781 31.785156 -16.203125 31.515625 -15.953125 C 30.890625 -15.472656 30.273438 -14.984375 29.671875 -14.484375 C 26.367188 -11.828125 23.078125 -9.160156 19.796875 -6.484375 C 19.285156 -6.085938 18.992188 -5.773438 18.921875 -5.546875 C 18.847656 -5.316406 18.90625 -5.003906 19.09375 -4.609375 C 19.632812 -3.273438 20.34375 -2.085938 21.21875 -1.046875 C 21.925781 -0.210938 22.804688 0.414062 23.859375 0.84375 C 25.304688 1.34375 26.617188 1.335938 27.796875 0.828125 C 28.972656 0.328125 29.988281 -0.492188 30.84375 -1.640625 C 31.695312 -2.785156 32.378906 -4.078125 32.890625 -5.515625 C 33.398438 -6.960938 33.71875 -8.367188 33.84375 -9.734375 C 33.96875 -11.097656 33.878906 -12.242188 33.578125 -13.171875 C 33.578125 -13.296875 33.566406 -13.40625 33.546875 -13.5 C 33.492188 -13.65625 33.46875 -13.8125 33.46875 -13.96875 C 33.46875 -14.132812 33.523438 -14.273438 33.640625 -14.390625 C 33.753906 -14.503906 33.894531 -14.585938 34.0625 -14.640625 C 35.144531 -14.941406 35.851562 -14.6875 36.1875 -13.875 Z M 20.78125 -28.3125 C 20.300781 -27.457031 19.90625 -26.597656 19.59375 -25.734375 C 19.28125 -24.867188 19 -24 18.75 -23.125 C 18.664062 -22.800781 18.59375 -22.460938 18.53125 -22.109375 C 18.320312 -21.234375 18.144531 -20.347656 18 -19.453125 C 17.9375 -19.242188 17.984375 -19.109375 18.140625 -19.046875 C 18.296875 -18.984375 18.46875 -19.015625 18.65625 -19.140625 C 19.863281 -19.972656 21.039062 -20.832031 22.1875 -21.71875 C 23.34375 -22.601562 24.453125 -23.570312 25.515625 -24.625 C 26.285156 -25.40625 26.921875 -26.25 27.421875 -27.15625 C 28.546875 -29.507812 28.128906 -31.125 26.171875 -32 C 25.234375 -32.394531 24.25 -32.175781 23.21875 -31.34375 C 22.6875 -30.925781 22.226562 -30.460938 21.84375 -29.953125 C 21.457031 -29.441406 21.101562 -28.894531 20.78125 -28.3125 Z M 14.71875 -5.234375 C 15.21875 -5.671875 15.382812 -6.140625 15.21875 -6.640625 C 14.757812 -8.421875 14.492188 -10.28125 14.421875 -12.21875 C 14.421875 -12.320312 14.394531 -12.445312 14.34375 -12.59375 C 14.300781 -12.695312 14.265625 -12.828125 14.234375 -12.984375 C 12.710938 -11.828125 11.304688 -10.640625 10.015625 -9.421875 C 8.722656 -8.210938 7.523438 -6.929688 6.421875 -5.578125 C 5.398438 -4.328125 4.710938 -3.003906 4.359375 -1.609375 C 4.179688 -0.859375 4.269531 -0.203125 4.625 0.359375 C 5.019531 1.054688 5.707031 1.164062 6.6875 0.6875 C 7.21875 0.46875 7.722656 0.191406 8.203125 -0.140625 C 10.078125 -1.429688 11.890625 -2.832031 13.640625 -4.34375 C 13.984375 -4.644531 14.34375 -4.941406 14.71875 -5.234375 Z M 14.71875 -5.234375 "/></g></g><g style="fill:#ffffff;fill-opacity:1;"><g transform="translate(63.557888, 92.127711)"><path style="stroke:none" d="M 9.09375 1.578125 L 6.84375 3.4375 L -5.171875 -18.59375 L -2.90625 -20.4375 Z M -4.375 -25.578125 L -5.40625 -22.046875 L -8.953125 -23.078125 L -7.90625 -26.625 Z M -4.375 -25.578125 "/></g></g><g style="fill:#ffffff;fill-opacity:1;"><g transform="translate(73.0162, 86.56423)"><path style="stroke:none" d="M -11.625 -30.875 L 20.703125 -17.28125 L 10.1875 -40.046875 L 12.90625 -41.90625 L 26.921875 -11.53125 L -5.375 -25.09375 L 5 -2.59375 L 2.265625 -0.765625 Z M -11.625 -30.875 "/></g></g><g style="fill:#ffffff;fill-opacity:1;"><g transform="translate(100.762403, 73.530077)"><path style="stroke:none" d="M 8.03125 -34.515625 C 6.1875 -33.890625 4.585938 -32.960938 3.234375 -31.734375 C 1.878906 -30.515625 0.816406 -29.113281 0.046875 -27.53125 C -0.710938 -25.957031 -1.160156 -24.25 -1.296875 -22.40625 C -1.429688 -20.570312 -1.1875 -18.734375 -0.5625 -16.890625 C 0.0507812 -15.066406 0.960938 -13.460938 2.171875 -12.078125 C 3.378906 -10.703125 4.765625 -9.613281 6.328125 -8.8125 C 7.890625 -8.019531 9.585938 -7.546875 11.421875 -7.390625 C 13.265625 -7.234375 15.125 -7.472656 17 -8.109375 C 18.875 -8.742188 20.492188 -9.679688 21.859375 -10.921875 C 23.234375 -12.160156 24.300781 -13.566406 25.0625 -15.140625 C 25.832031 -16.722656 26.28125 -18.429688 26.40625 -20.265625 C 26.53125 -22.097656 26.285156 -23.925781 25.671875 -25.75 C 25.066406 -27.53125 24.171875 -29.101562 22.984375 -30.46875 C 21.796875 -31.84375 20.410156 -32.9375 18.828125 -33.75 C 17.253906 -34.5625 15.535156 -35.050781 13.671875 -35.21875 C 11.816406 -35.394531 9.9375 -35.160156 8.03125 -34.515625 Z M -3.8125 -15.796875 C -4.507812 -17.835938 -4.796875 -19.960938 -4.671875 -22.171875 C -4.546875 -24.378906 -4.019531 -26.46875 -3.09375 -28.4375 C -2.175781 -30.40625 -0.863281 -32.179688 0.84375 -33.765625 C 2.550781 -35.359375 4.640625 -36.570312 7.109375 -37.40625 C 9.578125 -38.238281 11.972656 -38.539062 14.296875 -38.3125 C 16.617188 -38.09375 18.738281 -37.472656 20.65625 -36.453125 C 22.570312 -35.441406 24.25 -34.097656 25.6875 -32.421875 C 27.132812 -30.742188 28.207031 -28.882812 28.90625 -26.84375 C 29.59375 -24.789062 29.867188 -22.65625 29.734375 -20.4375 C 29.609375 -18.226562 29.085938 -16.140625 28.171875 -14.171875 C 27.265625 -12.210938 25.957031 -10.4375 24.25 -8.84375 C 22.539062 -7.257812 20.453125 -6.050781 17.984375 -5.21875 C 15.515625 -4.382812 13.117188 -4.078125 10.796875 -4.296875 C 8.472656 -4.523438 6.347656 -5.144531 4.421875 -6.15625 C 2.492188 -7.164062 0.8125 -8.507812 -0.625 -10.1875 C -2.0625 -11.875 -3.125 -13.742188 -3.8125 -15.796875 Z M -3.8125 -15.796875 "/></g></g><g style="fill:#ffffff;fill-opacity:1;"><g transform="translate(135.499582, 62.172631)"><path style="stroke:none" d="M -3.765625 -23.875 C -4.078125 -25.1875 -4.132812 -26.441406 -3.9375 -27.640625 C -3.738281 -28.847656 -3.332031 -29.9375 -2.71875 -30.90625 C -2.101562 -31.875 -1.320312 -32.691406 -0.375 -33.359375 C 0.570312 -34.035156 1.628906 -34.515625 2.796875 -34.796875 C 4.046875 -35.097656 5.25 -35.140625 6.40625 -34.921875 C 7.570312 -34.710938 8.863281 -34.210938 10.28125 -33.421875 L 9.28125 -30.34375 C 8.207031 -31.082031 7.207031 -31.570312 6.28125 -31.8125 C 5.363281 -32.050781 4.320312 -32.03125 3.15625 -31.75 C 2.375 -31.5625 1.703125 -31.226562 1.140625 -30.75 C 0.578125 -30.269531 0.132812 -29.710938 -0.1875 -29.078125 C -0.519531 -28.453125 -0.726562 -27.773438 -0.8125 -27.046875 C -0.894531 -26.316406 -0.851562 -25.613281 -0.6875 -24.9375 C -0.46875 -24.007812 -0.0976562 -23.222656 0.421875 -22.578125 C 0.953125 -21.929688 1.566406 -21.40625 2.265625 -21 C 2.960938 -20.601562 3.71875 -20.285156 4.53125 -20.046875 C 5.34375 -19.804688 6.160156 -19.640625 6.984375 -19.546875 C 8.078125 -19.367188 9.109375 -19.117188 10.078125 -18.796875 C 11.046875 -18.484375 11.925781 -18.050781 12.71875 -17.5 C 13.519531 -16.957031 14.203125 -16.273438 14.765625 -15.453125 C 15.335938 -14.628906 15.753906 -13.664062 16.015625 -12.5625 C 16.265625 -11.507812 16.320312 -10.40625 16.1875 -9.25 C 16.0625 -8.09375 15.710938 -6.984375 15.140625 -5.921875 C 14.578125 -4.859375 13.800781 -3.921875 12.8125 -3.109375 C 11.832031 -2.296875 10.625 -1.71875 9.1875 -1.375 C 7.757812 -1.03125 6.335938 -1.046875 4.921875 -1.421875 C 3.503906 -1.796875 2.035156 -2.644531 0.515625 -3.96875 L 1.4375 -6.921875 C 2.539062 -6.015625 3.695312 -5.289062 4.90625 -4.75 C 6.125 -4.207031 7.382812 -4.09375 8.6875 -4.40625 C 9.476562 -4.601562 10.175781 -4.941406 10.78125 -5.421875 C 11.382812 -5.898438 11.875 -6.472656 12.25 -7.140625 C 12.632812 -7.804688 12.882812 -8.53125 13 -9.3125 C 13.125 -10.09375 13.085938 -10.890625 12.890625 -11.703125 C 12.679688 -12.609375 12.328125 -13.347656 11.828125 -13.921875 C 11.335938 -14.503906 10.75 -14.96875 10.0625 -15.3125 C 9.382812 -15.65625 8.632812 -15.921875 7.8125 -16.109375 C 7 -16.296875 6.15625 -16.46875 5.28125 -16.625 C 4.25 -16.800781 3.25 -17.0625 2.28125 -17.40625 C 1.320312 -17.75 0.441406 -18.191406 -0.359375 -18.734375 C -1.160156 -19.273438 -1.851562 -19.96875 -2.4375 -20.8125 C -3.03125 -21.65625 -3.472656 -22.675781 -3.765625 -23.875 Z M -3.765625 -23.875 "/></g></g><g style="fill:#ffffff;fill-opacity:1;"><g transform="translate(154.477778, 57.693902)"><path style="stroke:none" d=""/></g></g><g style="fill:#ffffff;fill-opacity:1;"><g transform="translate(164.427961, 55.460736)"><path style="stroke:none" d="M -0.609375 -16.25 C -0.890625 -18.414062 -0.75 -20.554688 -0.1875 -22.671875 C 0.375 -24.796875 1.304688 -26.734375 2.609375 -28.484375 C 3.921875 -30.242188 5.5625 -31.726562 7.53125 -32.9375 C 9.507812 -34.15625 11.789062 -34.929688 14.375 -35.265625 C 16.25 -35.492188 18.113281 -35.410156 19.96875 -35.015625 C 21.832031 -34.617188 23.550781 -33.929688 25.125 -32.953125 L 23.984375 -30 C 22.585938 -30.976562 21.097656 -31.644531 19.515625 -32 C 17.941406 -32.363281 16.351562 -32.445312 14.75 -32.25 C 12.789062 -32 11.019531 -31.398438 9.4375 -30.453125 C 7.851562 -29.515625 6.53125 -28.34375 5.46875 -26.9375 C 4.40625 -25.53125 3.632812 -23.941406 3.15625 -22.171875 C 2.675781 -20.398438 2.554688 -18.566406 2.796875 -16.671875 C 3.035156 -14.765625 3.609375 -13.015625 4.515625 -11.421875 C 5.421875 -9.828125 6.570312 -8.484375 7.96875 -7.390625 C 9.363281 -6.304688 10.9375 -5.503906 12.6875 -4.984375 C 14.445312 -4.472656 16.304688 -4.34375 18.265625 -4.59375 C 19.785156 -4.78125 21.285156 -5.269531 22.765625 -6.0625 C 24.253906 -6.851562 25.585938 -7.835938 26.765625 -9.015625 L 28.796875 -6.640625 C 27.484375 -5.328125 25.945312 -4.207031 24.1875 -3.28125 C 22.4375 -2.363281 20.59375 -1.785156 18.65625 -1.546875 C 16.070312 -1.210938 13.671875 -1.390625 11.453125 -2.078125 C 9.234375 -2.765625 7.269531 -3.789062 5.5625 -5.15625 C 3.863281 -6.53125 2.476562 -8.175781 1.40625 -10.09375 C 0.332031 -12.019531 -0.335938 -14.070312 -0.609375 -16.25 Z M -0.609375 -16.25 "/></g></g><g style="fill:#ffffff;fill-opacity:1;"><g transform="translate(193.259695, 51.698883)"><path style="stroke:none" d="M 11.484375 -17.796875 L 19.609375 -18.03125 L 15.09375 -26.96875 Z M 14.96875 -33.625 L 32.15625 -1.21875 L 28.90625 -0.59375 L 21.1875 -15.03125 L 10.09375 -14.703125 L 3.5625 0.15625 L 0.25 -0.28125 Z M 14.96875 -33.625 "/></g></g><g style="fill:#ffffff;fill-opacity:1;"><g transform="translate(224.928536, 50.984249)"><path style="stroke:none" d="M 3.171875 -23.96875 C 3.242188 -25.320312 3.546875 -26.539062 4.078125 -27.625 C 4.617188 -28.71875 5.316406 -29.640625 6.171875 -30.390625 C 7.035156 -31.148438 8.015625 -31.71875 9.109375 -32.09375 C 10.210938 -32.46875 11.363281 -32.625 12.5625 -32.5625 C 13.851562 -32.5 15.023438 -32.195312 16.078125 -31.65625 C 17.140625 -31.125 18.234375 -30.273438 19.359375 -29.109375 L 17.53125 -26.46875 C 16.707031 -27.46875 15.882812 -28.210938 15.0625 -28.703125 C 14.25 -29.191406 13.242188 -29.46875 12.046875 -29.53125 C 11.242188 -29.570312 10.503906 -29.441406 9.828125 -29.140625 C 9.148438 -28.847656 8.566406 -28.445312 8.078125 -27.9375 C 7.585938 -27.425781 7.195312 -26.832031 6.90625 -26.15625 C 6.625 -25.476562 6.460938 -24.796875 6.421875 -24.109375 C 6.378906 -23.148438 6.515625 -22.285156 6.828125 -21.515625 C 7.140625 -20.742188 7.570312 -20.066406 8.125 -19.484375 C 8.6875 -18.910156 9.320312 -18.390625 10.03125 -17.921875 C 10.75 -17.460938 11.488281 -17.078125 12.25 -16.765625 C 13.25 -16.273438 14.171875 -15.738281 15.015625 -15.15625 C 15.859375 -14.582031 16.582031 -13.921875 17.1875 -13.171875 C 17.789062 -12.421875 18.242188 -11.566406 18.546875 -10.609375 C 18.847656 -9.660156 18.972656 -8.617188 18.921875 -7.484375 C 18.867188 -6.398438 18.613281 -5.320312 18.15625 -4.25 C 17.707031 -3.1875 17.0625 -2.226562 16.21875 -1.375 C 15.375 -0.519531 14.359375 0.15625 13.171875 0.65625 C 11.992188 1.15625 10.671875 1.367188 9.203125 1.296875 C 7.734375 1.210938 6.375 0.789062 5.125 0.03125 C 3.875 -0.71875 2.707031 -1.945312 1.625 -3.65625 L 3.34375 -6.21875 C 4.144531 -5.039062 5.046875 -4.019531 6.046875 -3.15625 C 7.054688 -2.289062 8.234375 -1.828125 9.578125 -1.765625 C 10.390625 -1.722656 11.15625 -1.847656 11.875 -2.140625 C 12.601562 -2.429688 13.242188 -2.84375 13.796875 -3.375 C 14.347656 -3.90625 14.789062 -4.523438 15.125 -5.234375 C 15.457031 -5.953125 15.648438 -6.726562 15.703125 -7.5625 C 15.742188 -8.488281 15.609375 -9.296875 15.296875 -9.984375 C 14.992188 -10.679688 14.5625 -11.289062 14 -11.8125 C 13.445312 -12.34375 12.800781 -12.8125 12.0625 -13.21875 C 11.332031 -13.632812 10.570312 -14.039062 9.78125 -14.4375 C 8.84375 -14.90625 7.960938 -15.4375 7.140625 -16.03125 C 6.328125 -16.632812 5.609375 -17.3125 4.984375 -18.0625 C 4.367188 -18.8125 3.894531 -19.675781 3.5625 -20.65625 C 3.238281 -21.632812 3.109375 -22.738281 3.171875 -23.96875 Z M 3.171875 -23.96875 "/></g></g><g style="fill:#ffffff;fill-opacity:1;"><g transform="translate(244.115528, 51.688589)"><path style="stroke:none" d="M 14.203125 -15.6875 L 22.28125 -14.625 L 19.234375 -24.1875 Z M 20.203125 -30.765625 L 31.9375 3.984375 L 28.625 4.09375 L 23.34375 -11.40625 L 12.328125 -12.875 L 3.484375 0.734375 L 0.296875 -0.234375 Z M 20.203125 -30.765625 "/></g></g><g style="fill:#ffffff;fill-opacity:1;"><g transform="translate(275.302905, 55.60574)"><path style="stroke:none" d="M 20.6875 -2 L 40.1875 -24.1875 L 36.53125 8.796875 L 33.453125 8.5625 L 36.078125 -15.078125 L 35.984375 -15.109375 L 18.828125 4.40625 L 13.171875 -20.265625 L 13.09375 -20.28125 L 4.46875 1.375 L 1.546875 0.125 L 13.96875 -30.703125 Z M 20.6875 -2 "/></g></g><g style="fill:#ffffff;fill-opacity:1;"><g transform="translate(312.193239, 64.748614)"><path style="stroke:none" d="M 28.109375 -21.5625 C 26.285156 -22.257812 24.460938 -22.566406 22.640625 -22.484375 C 20.816406 -22.398438 19.109375 -21.988281 17.515625 -21.25 C 15.921875 -20.507812 14.488281 -19.472656 13.21875 -18.140625 C 11.945312 -16.816406 10.96875 -15.242188 10.28125 -13.421875 C 9.59375 -11.628906 9.273438 -9.8125 9.328125 -7.96875 C 9.390625 -6.132812 9.773438 -4.414062 10.484375 -2.8125 C 11.191406 -1.207031 12.207031 0.234375 13.53125 1.515625 C 14.851562 2.804688 16.441406 3.804688 18.296875 4.515625 C 20.140625 5.210938 21.984375 5.515625 23.828125 5.421875 C 25.671875 5.335938 27.390625 4.925781 28.984375 4.1875 C 30.578125 3.445312 32 2.40625 33.25 1.0625 C 34.507812 -0.269531 35.484375 -1.832031 36.171875 -3.625 C 36.835938 -5.382812 37.144531 -7.171875 37.09375 -8.984375 C 37.050781 -10.796875 36.675781 -12.515625 35.96875 -14.140625 C 35.269531 -15.773438 34.253906 -17.242188 32.921875 -18.546875 C 31.585938 -19.847656 29.984375 -20.851562 28.109375 -21.5625 Z M 7.078125 -14.625 C 7.835938 -16.644531 8.960938 -18.46875 10.453125 -20.09375 C 11.953125 -21.726562 13.679688 -23.015625 15.640625 -23.953125 C 17.597656 -24.898438 19.742188 -25.441406 22.078125 -25.578125 C 24.410156 -25.722656 26.796875 -25.332031 29.234375 -24.40625 C 31.660156 -23.488281 33.703125 -22.203125 35.359375 -20.546875 C 37.015625 -18.898438 38.257812 -17.078125 39.09375 -15.078125 C 39.9375 -13.078125 40.382812 -10.96875 40.4375 -8.75 C 40.488281 -6.539062 40.132812 -4.425781 39.375 -2.40625 C 38.601562 -0.382812 37.46875 1.4375 35.96875 3.0625 C 34.46875 4.6875 32.738281 5.972656 30.78125 6.921875 C 28.832031 7.867188 26.691406 8.410156 24.359375 8.546875 C 22.023438 8.691406 19.644531 8.304688 17.21875 7.390625 C 14.78125 6.460938 12.734375 5.171875 11.078125 3.515625 C 9.421875 1.867188 8.171875 0.046875 7.328125 -1.953125 C 6.484375 -3.960938 6.035156 -6.070312 5.984375 -8.28125 C 5.941406 -10.488281 6.304688 -12.601562 7.078125 -14.625 Z M 7.078125 -14.625 "/></g></g><g style="fill:#ffffff;fill-opacity:1;"><g transform="translate(346.250093, 78.007407)"><path style="stroke:none" d="M 12.234375 -20.84375 C 12.828125 -22.0625 13.582031 -23.070312 14.5 -23.875 C 15.414062 -24.675781 16.414062 -25.253906 17.5 -25.609375 C 18.59375 -25.960938 19.71875 -26.097656 20.875 -26.015625 C 22.03125 -25.941406 23.148438 -25.644531 24.234375 -25.125 C 25.390625 -24.5625 26.347656 -23.828125 27.109375 -22.921875 C 27.878906 -22.023438 28.5625 -20.820312 29.15625 -19.3125 L 26.421875 -17.578125 C 26.054688 -18.816406 25.59375 -19.820312 25.03125 -20.59375 C 24.46875 -21.375 23.648438 -22.023438 22.578125 -22.546875 C 21.859375 -22.898438 21.128906 -23.066406 20.390625 -23.046875 C 19.648438 -23.035156 18.953125 -22.890625 18.296875 -22.609375 C 17.648438 -22.328125 17.0625 -21.929688 16.53125 -21.421875 C 16 -20.910156 15.582031 -20.34375 15.28125 -19.71875 C 14.863281 -18.851562 14.648438 -18.003906 14.640625 -17.171875 C 14.640625 -16.347656 14.78125 -15.554688 15.0625 -14.796875 C 15.351562 -14.046875 15.738281 -13.320312 16.21875 -12.625 C 16.695312 -11.925781 17.222656 -11.273438 17.796875 -10.671875 C 18.535156 -9.835938 19.175781 -8.992188 19.71875 -8.140625 C 20.269531 -7.285156 20.675781 -6.390625 20.9375 -5.453125 C 21.207031 -4.523438 21.300781 -3.5625 21.21875 -2.5625 C 21.132812 -1.570312 20.847656 -0.566406 20.359375 0.453125 C 19.878906 1.429688 19.21875 2.320312 18.375 3.125 C 17.539062 3.9375 16.570312 4.570312 15.46875 5.03125 C 14.363281 5.488281 13.171875 5.71875 11.890625 5.71875 C 10.609375 5.726562 9.304688 5.410156 7.984375 4.765625 C 6.660156 4.128906 5.566406 3.21875 4.703125 2.03125 C 3.847656 0.84375 3.253906 -0.742188 2.921875 -2.734375 L 5.5 -4.4375 C 5.769531 -3.03125 6.203125 -1.734375 6.796875 -0.546875 C 7.398438 0.628906 8.304688 1.507812 9.515625 2.09375 C 10.253906 2.445312 11.007812 2.628906 11.78125 2.640625 C 12.550781 2.660156 13.296875 2.53125 14.015625 2.25 C 14.734375 1.976562 15.382812 1.578125 15.96875 1.046875 C 16.550781 0.515625 17.023438 -0.125 17.390625 -0.875 C 17.796875 -1.707031 17.988281 -2.503906 17.96875 -3.265625 C 17.957031 -4.023438 17.796875 -4.753906 17.484375 -5.453125 C 17.179688 -6.148438 16.773438 -6.828125 16.265625 -7.484375 C 15.753906 -8.148438 15.207031 -8.820312 14.625 -9.5 C 13.945312 -10.289062 13.34375 -11.125 12.8125 -12 C 12.289062 -12.875 11.890625 -13.773438 11.609375 -14.703125 C 11.328125 -15.640625 11.226562 -16.617188 11.3125 -17.640625 C 11.394531 -18.671875 11.703125 -19.738281 12.234375 -20.84375 Z M 12.234375 -20.84375 "/></g></g><g style="fill:#ffffff;fill-opacity:1;"><g transform="translate(363.75454, 86.572413)"><path style="stroke:none" d="M 8.234375 2.453125 L 4.703125 3.5 L 3.65625 -0.046875 L 7.203125 -1.09375 Z M 9.953125 -3.15625 L 7.1875 -4.0625 L 19.1875 -26.078125 L 21.96875 -25.1875 Z M 9.953125 -3.15625 "/></g></g></g></svg>