<svg xmlns="http://www.w3.org/2000/svg" xmlns:xlink="http://www.w3.org/1999/xlink" width="528" zoomAndPan="magnify" viewBox="0 0 396 302.999993" height="404" preserveAspectRatio="xMidYMid meet" version="1.2"><defs/><g id="b8708340db"><g style="fill:#ffffff;fill-opacity:1;"><g transform="translate(63.524415, 134.024406)"><path style="stroke:none" d="M 82.171875 -87.1875 C 80.765625 -83.4375 79.265625 -79.734375 77.671875 -76.078125 C 60.953125 -38.234375 46.601562 -5.753906 34.625 21.359375 C 31.832031 21.867188 31.269531 20.21875 32.9375 16.40625 C 36.039062 8.144531 41.488281 -4.992188 49.28125 -23.015625 C 57.070312 -41.046875 65.007812 -59.019531 73.09375 -76.9375 C 74.738281 -80.582031 76.242188 -84.273438 77.609375 -88.015625 C 77.648438 -88.179688 77.71875 -88.351562 77.8125 -88.53125 C 78.101562 -89.21875 78.347656 -89.960938 78.546875 -90.765625 C 78.742188 -91.566406 78.773438 -92.4375 78.640625 -93.375 C 77.390625 -93.15625 76.253906 -92.789062 75.234375 -92.28125 C 74.960938 -92.1875 74.71875 -92.097656 74.5 -92.015625 C 64.96875 -88.054688 55.007812 -82.894531 44.625 -76.53125 C 34.25 -70.175781 25.222656 -63.539062 17.546875 -56.625 C 15.910156 -55.125 14.316406 -53.554688 12.765625 -51.921875 C 11.222656 -50.296875 9.78125 -48.554688 8.4375 -46.703125 C 6.9375 -44.722656 5.820312 -42.535156 5.09375 -40.140625 C 3.769531 -35.660156 5.097656 -32.257812 9.078125 -29.9375 C 11.867188 -28.351562 14.648438 -27.289062 17.421875 -26.75 C 20.203125 -26.21875 22.816406 -25.972656 25.265625 -26.015625 C 27.722656 -26.054688 29.847656 -26.179688 31.640625 -26.390625 C 32.378906 -26.429688 33.023438 -26.484375 33.578125 -26.546875 C 33.929688 -26.585938 34.285156 -26.570312 34.640625 -26.5 C 35.003906 -26.425781 35.320312 -26.226562 35.59375 -25.90625 C 36.019531 -25.289062 35.457031 -24.820312 33.90625 -24.5 C 32.351562 -24.1875 30.234375 -24.03125 27.546875 -24.03125 C 24.867188 -24.03125 22.023438 -24.191406 19.015625 -24.515625 C 13.679688 -25.265625 9.539062 -26.410156 6.59375 -27.953125 C 4.78125 -28.847656 3.273438 -30.097656 2.078125 -31.703125 C 0.691406 -33.628906 0.15625 -35.75 0.46875 -38.0625 C 0.757812 -40.476562 1.507812 -42.710938 2.71875 -44.765625 C 4.738281 -48.128906 7.125 -51.15625 9.875 -53.84375 C 14.675781 -58.789062 20.253906 -63.570312 26.609375 -68.1875 C 32.972656 -72.8125 39.5625 -77.085938 46.375 -81.015625 C 53.195312 -84.953125 59.703125 -88.382812 65.890625 -91.3125 C 68.722656 -92.601562 71.59375 -93.804688 74.5 -94.921875 C 75.882812 -95.472656 77.332031 -95.851562 78.84375 -96.0625 C 79.269531 -96.125 79.648438 -96.125 79.984375 -96.0625 C 82.773438 -96.195312 83.9375 -94.78125 83.46875 -91.8125 C 83.175781 -90.226562 82.742188 -88.6875 82.171875 -87.1875 Z M 82.171875 -87.1875 "/></g><g transform="translate(124.168942, 134.024406)"><path style="stroke:none" d="M 14.0625 -17.984375 C 13.882812 -16.640625 13.25 -15.757812 12.15625 -15.34375 C 11.0625 -14.9375 10.703125 -15.472656 11.078125 -16.953125 C 11.460938 -18.441406 10.796875 -18.820312 9.078125 -18.09375 C 7.359375 -17.363281 5.941406 -16.441406 4.828125 -15.328125 C 3.109375 -13.566406 1.585938 -11.671875 0.265625 -9.640625 C 0.128906 -9.460938 0.0195312 -9.316406 -0.0625 -9.203125 C -0.445312 -8.628906 -0.835938 -8.09375 -1.234375 -7.59375 C -1.484375 -7.238281 -1.78125 -7.015625 -2.125 -6.921875 C -2.46875 -6.835938 -2.816406 -6.828125 -3.171875 -6.890625 C -3.492188 -6.921875 -3.742188 -7.046875 -3.921875 -7.265625 C -4.097656 -7.484375 -4.117188 -7.738281 -3.984375 -8.03125 C -3.765625 -8.550781 -3.507812 -9.085938 -3.21875 -9.640625 C -1.46875 -12.898438 0.316406 -16.171875 2.140625 -19.453125 C 2.179688 -19.492188 2.203125 -19.535156 2.203125 -19.578125 C 2.453125 -20.078125 2.753906 -20.546875 3.109375 -20.984375 C 3.492188 -21.410156 3.941406 -21.582031 4.453125 -21.5 C 4.960938 -21.425781 5.304688 -21.125 5.484375 -20.59375 C 5.691406 -19.914062 5.875 -19.53125 6.03125 -19.4375 C 6.1875 -19.351562 6.539062 -19.414062 7.09375 -19.625 C 8.257812 -20.0625 9.398438 -20.363281 10.515625 -20.53125 C 11.628906 -20.707031 12.539062 -20.664062 13.25 -20.40625 C 13.96875 -20.144531 14.238281 -19.335938 14.0625 -17.984375 Z M 14.0625 -17.984375 "/></g><g transform="translate(138.817379, 134.024406)"><path style="stroke:none" d="M 16.703125 -11.25 C 15.566406 -10.132812 14.242188 -9.179688 12.734375 -8.390625 C 11.234375 -7.597656 9.972656 -7.078125 8.953125 -6.828125 C 7.941406 -6.585938 6.898438 -6.453125 5.828125 -6.421875 C 4.109375 -6.335938 2.523438 -6.570312 1.078125 -7.125 C -1.285156 -8.082031 -2.101562 -9.90625 -1.375 -12.59375 C -0.695312 -14.914062 0.6875 -16.734375 2.78125 -18.046875 C 4.875 -19.359375 7.035156 -19.992188 9.265625 -19.953125 C 9.265625 -19.953125 9.28125 -19.953125 9.3125 -19.953125 C 9.882812 -19.992188 10.421875 -19.953125 10.921875 -19.828125 C 11.785156 -19.515625 12.332031 -19.003906 12.5625 -18.296875 C 12.800781 -17.597656 12.644531 -16.820312 12.09375 -15.96875 C 10.84375 -14.070312 9.144531 -13.015625 7 -12.796875 C 5.570312 -12.660156 4.195312 -12.734375 2.875 -13.015625 C 2.613281 -13.046875 2.382812 -12.972656 2.1875 -12.796875 C 2 -12.628906 1.882812 -12.414062 1.84375 -12.15625 C 1.457031 -10.476562 1.976562 -9.40625 3.40625 -8.9375 C 5.15625 -8.332031 6.976562 -8.332031 8.875 -8.9375 C 11.0625 -9.625 13.140625 -10.910156 15.109375 -12.796875 C 17.085938 -14.691406 18.226562 -15.578125 18.53125 -15.453125 C 18.832031 -15.328125 18.925781 -14.960938 18.8125 -14.359375 C 18.539062 -13.398438 17.835938 -12.363281 16.703125 -11.25 Z M 4.21875 -15.96875 C 4.101562 -15.832031 4.019531 -15.679688 3.96875 -15.515625 C 3.914062 -15.347656 3.976562 -15.195312 4.15625 -15.0625 C 4.84375 -14.664062 5.585938 -14.519531 6.390625 -14.625 C 7.191406 -14.738281 7.867188 -15.046875 8.421875 -15.546875 C 8.984375 -16.046875 9.222656 -16.65625 9.140625 -17.375 C 9.078125 -17.625 8.9375 -17.78125 8.71875 -17.84375 C 8.507812 -17.914062 8.300781 -17.9375 8.09375 -17.90625 C 6.644531 -17.644531 5.351562 -17 4.21875 -15.96875 Z M 4.21875 -15.96875 "/></g><g transform="translate(155.868159, 134.024406)"><path style="stroke:none" d="M 23.203125 -14.625 C 23.515625 -14.226562 23.125 -13.507812 22.03125 -12.46875 C 20.9375 -11.4375 19.773438 -10.566406 18.546875 -9.859375 C 17.316406 -9.160156 15.890625 -8.460938 14.265625 -7.765625 C 13.191406 -7.296875 12.050781 -7.140625 10.84375 -7.296875 C 9.632812 -7.453125 9.03125 -8.179688 9.03125 -9.484375 C 9.03125 -10.796875 9.332031 -12.097656 9.9375 -13.390625 C 10.539062 -14.710938 10.671875 -15.394531 10.328125 -15.4375 C 9.984375 -15.476562 9.273438 -15.15625 8.203125 -14.46875 C 5.410156 -12.632812 2.8125 -10.535156 0.40625 -8.171875 C -0.238281 -7.390625 -1.054688 -6.960938 -2.046875 -6.890625 C -2.554688 -6.890625 -2.953125 -7.050781 -3.234375 -7.375 C -3.515625 -7.695312 -3.550781 -8.039062 -3.34375 -8.40625 C -1.625 -11.59375 0.113281 -14.738281 1.875 -17.84375 C 2.269531 -18.488281 2.859375 -18.890625 3.640625 -19.046875 C 3.960938 -19.097656 4.265625 -18.992188 4.546875 -18.734375 C 4.835938 -18.472656 4.984375 -18.175781 4.984375 -17.84375 C 4.941406 -17.53125 4.8125 -17.160156 4.59375 -16.734375 C 4.5 -16.472656 4.40625 -16.222656 4.3125 -15.984375 C 4.226562 -15.753906 4.203125 -15.5625 4.234375 -15.40625 C 4.265625 -15.25 4.382812 -15.203125 4.59375 -15.265625 C 4.894531 -15.421875 5.191406 -15.585938 5.484375 -15.765625 C 6.222656 -16.191406 6.9375 -16.601562 7.625 -17 C 8.226562 -17.34375 8.859375 -17.648438 9.515625 -17.921875 C 10.179688 -18.203125 10.878906 -18.390625 11.609375 -18.484375 C 12.773438 -18.566406 13.601562 -18.300781 14.09375 -17.6875 C 14.582031 -17.082031 14.640625 -16.242188 14.265625 -15.171875 C 13.878906 -14.203125 13.46875 -13.238281 13.03125 -12.28125 C 12.507812 -11.375 12.421875 -10.6875 12.765625 -10.21875 C 13.117188 -9.75 14.753906 -10.289062 17.671875 -11.84375 L 19.859375 -13.125 C 21.929688 -14.457031 23.046875 -14.957031 23.203125 -14.625 Z M 23.203125 -14.625 "/></g><g transform="translate(177.342768, 134.024406)"><path style="stroke:none" d="M 16.703125 -11.25 C 15.566406 -10.132812 14.242188 -9.179688 12.734375 -8.390625 C 11.234375 -7.597656 9.972656 -7.078125 8.953125 -6.828125 C 7.941406 -6.585938 6.898438 -6.453125 5.828125 -6.421875 C 4.109375 -6.335938 2.523438 -6.570312 1.078125 -7.125 C -1.285156 -8.082031 -2.101562 -9.90625 -1.375 -12.59375 C -0.695312 -14.914062 0.6875 -16.734375 2.78125 -18.046875 C 4.875 -19.359375 7.035156 -19.992188 9.265625 -19.953125 C 9.265625 -19.953125 9.28125 -19.953125 9.3125 -19.953125 C 9.882812 -19.992188 10.421875 -19.953125 10.921875 -19.828125 C 11.785156 -19.515625 12.332031 -19.003906 12.5625 -18.296875 C 12.800781 -17.597656 12.644531 -16.820312 12.09375 -15.96875 C 10.84375 -14.070312 9.144531 -13.015625 7 -12.796875 C 5.570312 -12.660156 4.195312 -12.734375 2.875 -13.015625 C 2.613281 -13.046875 2.382812 -12.972656 2.1875 -12.796875 C 2 -12.628906 1.882812 -12.414062 1.84375 -12.15625 C 1.457031 -10.476562 1.976562 -9.40625 3.40625 -8.9375 C 5.15625 -8.332031 6.976562 -8.332031 8.875 -8.9375 C 11.0625 -9.625 13.140625 -10.910156 15.109375 -12.796875 C 17.085938 -14.691406 18.226562 -15.578125 18.53125 -15.453125 C 18.832031 -15.328125 18.925781 -14.960938 18.8125 -14.359375 C 18.539062 -13.398438 17.835938 -12.363281 16.703125 -11.25 Z M 4.21875 -15.96875 C 4.101562 -15.832031 4.019531 -15.679688 3.96875 -15.515625 C 3.914062 -15.347656 3.976562 -15.195312 4.15625 -15.0625 C 4.84375 -14.664062 5.585938 -14.519531 6.390625 -14.625 C 7.191406 -14.738281 7.867188 -15.046875 8.421875 -15.546875 C 8.984375 -16.046875 9.222656 -16.65625 9.140625 -17.375 C 9.078125 -17.625 8.9375 -17.78125 8.71875 -17.84375 C 8.507812 -17.914062 8.300781 -17.9375 8.09375 -17.90625 C 6.644531 -17.644531 5.351562 -17 4.21875 -15.96875 Z M 4.21875 -15.96875 "/></g></g><g style="fill:#ffffff;fill-opacity:1;"><g transform="translate(214.176862, 237.751919)"><path style="stroke:none" d="M 149.796875 -82.359375 C 150.515625 -81.921875 150.972656 -81.347656 151.171875 -80.640625 C 151.367188 -79.929688 151.253906 -79.210938 150.828125 -78.484375 C 150.179688 -77.453125 149.390625 -76.503906 148.453125 -75.640625 C 146.554688 -73.890625 144.460938 -72.300781 142.171875 -70.875 C 130.671875 -63.351562 118.28125 -57.640625 105 -53.734375 C 104.394531 -53.554688 103.789062 -53.359375 103.1875 -53.140625 C 102.289062 -52.847656 101.375 -52.578125 100.4375 -52.328125 C 100.175781 -52.222656 99.9375 -52.25 99.71875 -52.40625 C 99.507812 -52.5625 99.375 -52.789062 99.3125 -53.09375 C 99.3125 -53.226562 99.363281 -53.382812 99.46875 -53.5625 C 99.582031 -53.75 99.707031 -53.875 99.84375 -53.9375 C 100.957031 -54.40625 102.117188 -54.832031 103.328125 -55.21875 C 116.648438 -59.632812 129.128906 -65.78125 140.765625 -73.65625 C 142.191406 -74.6875 143.570312 -75.757812 144.90625 -76.875 C 145.082031 -77.050781 145.273438 -77.195312 145.484375 -77.3125 C 146.171875 -77.882812 146.660156 -78.597656 146.953125 -79.453125 C 147.128906 -79.960938 146.984375 -80.394531 146.515625 -80.75 C 145.984375 -81.070312 145.394531 -81.265625 144.75 -81.328125 C 144.632812 -81.328125 144.507812 -81.347656 144.375 -81.390625 C 141.832031 -81.816406 139.285156 -82.03125 136.734375 -82.03125 C 134.191406 -82.03125 131.648438 -81.921875 129.109375 -81.703125 C 123.347656 -81.140625 117.609375 -80.363281 111.890625 -79.375 C 106.179688 -78.394531 100.488281 -77.296875 94.8125 -76.078125 C 77.96875 -72.523438 61.40625 -68.015625 45.125 -62.546875 C 39.320312 -60.617188 33.570312 -58.5625 27.875 -56.375 C 22.1875 -54.1875 16.566406 -51.78125 11.015625 -49.15625 C 9.515625 -48.414062 8.007812 -47.6875 6.5 -46.96875 C 5.695312 -46.53125 4.867188 -46.097656 4.015625 -45.671875 C 3.878906 -45.628906 3.769531 -45.5625 3.6875 -45.46875 C 3.125 -45.175781 2.539062 -44.941406 1.9375 -44.765625 C 1.644531 -44.648438 1.335938 -44.601562 1.015625 -44.625 C 0.691406 -44.644531 0.441406 -44.78125 0.265625 -45.03125 C 0.0859375 -45.382812 0.0859375 -45.6875 0.265625 -45.9375 C 0.441406 -46.1875 0.675781 -46.398438 0.96875 -46.578125 C 1.007812 -46.617188 1.078125 -46.660156 1.171875 -46.703125 C 2.578125 -47.523438 4.03125 -48.328125 5.53125 -49.109375 C 10.363281 -51.546875 15.28125 -53.796875 20.28125 -55.859375 C 25.28125 -57.921875 30.335938 -59.859375 35.453125 -61.671875 C 56.035156 -69.015625 77.03125 -74.832031 98.4375 -79.125 C 103.59375 -80.164062 108.75 -81.113281 113.90625 -81.96875 C 119.0625 -82.832031 124.257812 -83.476562 129.5 -83.90625 C 131 -83.988281 132.519531 -84.066406 134.0625 -84.140625 C 134.75 -84.203125 135.460938 -84.25 136.203125 -84.28125 C 139.421875 -84.28125 142.644531 -84.046875 145.875 -83.578125 C 147.238281 -83.410156 148.546875 -83.003906 149.796875 -82.359375 Z M 70.140625 -22.359375 C 70.429688 -22.296875 70.707031 -22.191406 70.96875 -22.046875 C 71.238281 -21.898438 71.4375 -21.738281 71.5625 -21.5625 C 71.6875 -21.382812 71.703125 -21.21875 71.609375 -21.0625 C 71.390625 -20.789062 71.140625 -20.632812 70.859375 -20.59375 C 70.585938 -20.550781 70.328125 -20.53125 70.078125 -20.53125 C 70.015625 -20.53125 69.96875 -20.53125 69.9375 -20.53125 C 65.34375 -20.53125 60.722656 -20.316406 56.078125 -19.890625 C 53.628906 -19.679688 51.15625 -19.503906 48.65625 -19.359375 C 47.84375 -19.328125 47.289062 -18.898438 47 -18.078125 C 46.738281 -17.429688 46.453125 -16.785156 46.140625 -16.140625 C 45.984375 -15.773438 45.835938 -15.394531 45.703125 -15 C 45.097656 -13.613281 44.519531 -12.253906 43.96875 -10.921875 C 39.25 0.578125 34.328125 12 29.203125 23.34375 C 27.742188 26.488281 26.191406 29.585938 24.546875 32.640625 C 24.546875 32.679688 24.53125 32.71875 24.5 32.75 C 23.988281 33.75 23.34375 34.695312 22.5625 35.59375 C 21.875 36.414062 20.972656 36.703125 19.859375 36.453125 C 19.546875 36.347656 19.28125 36.1875 19.0625 35.96875 C 18.851562 35.757812 18.75 35.488281 18.75 35.15625 C 18.8125 34.414062 18.945312 33.679688 19.15625 32.953125 C 19.3125 32.453125 19.476562 31.914062 19.65625 31.34375 C 20.519531 28.550781 21.429688 25.757812 22.390625 22.96875 C 26.679688 10.644531 31.679688 -1.382812 37.390625 -13.125 C 37.910156 -14.238281 38.535156 -15.332031 39.265625 -16.40625 C 39.429688 -16.65625 39.675781 -16.804688 40 -16.859375 C 40.320312 -16.910156 40.628906 -16.882812 40.921875 -16.78125 C 41.453125 -16.625 41.648438 -16.222656 41.515625 -15.578125 C 41.378906 -14.941406 41.109375 -14.203125 40.703125 -13.359375 C 40.304688 -12.515625 39.910156 -11.773438 39.515625 -11.140625 C 39.203125 -10.609375 38.988281 -10.21875 38.875 -9.96875 C 32.976562 2.707031 29.6875 10.101562 29 12.21875 C 28.75 12.9375 28.625 13.421875 28.625 13.671875 C 28.625 13.929688 28.710938 14.039062 28.890625 14 C 29.066406 13.96875 29.257812 13.851562 29.46875 13.65625 C 29.6875 13.457031 29.890625 13.25 30.078125 13.03125 C 30.265625 12.820312 30.382812 12.675781 30.4375 12.59375 C 30.695312 11.945312 30.972656 11.285156 31.265625 10.609375 C 32.222656 8.398438 33.171875 6.203125 34.109375 4.015625 C 34.398438 3.367188 34.679688 2.722656 34.953125 2.078125 C 36.960938 -2.679688 38.953125 -7.445312 40.921875 -12.21875 C 41.023438 -12.394531 41.15625 -12.660156 41.3125 -13.015625 C 41.664062 -13.691406 42.035156 -14.488281 42.421875 -15.40625 C 42.816406 -16.320312 43.066406 -17.144531 43.171875 -17.875 C 43.273438 -18.613281 43.082031 -19.003906 42.59375 -19.046875 C 41.625 -19.046875 40.640625 -19.046875 39.640625 -19.046875 C 38.992188 -19.046875 38.347656 -19.046875 37.703125 -19.046875 C 37.160156 -19.046875 36.585938 -19.046875 35.984375 -19.046875 C 34.085938 -19.046875 32.191406 -19.070312 30.296875 -19.125 C 29.785156 -19.164062 29.316406 -19.296875 28.890625 -19.515625 C 28.847656 -19.554688 28.8125 -19.628906 28.78125 -19.734375 C 28.75 -19.835938 28.71875 -19.957031 28.6875 -20.09375 C 28.6875 -20.132812 28.6875 -20.175781 28.6875 -20.21875 C 28.6875 -20.257812 28.707031 -20.300781 28.75 -20.34375 C 28.800781 -20.394531 28.847656 -20.441406 28.890625 -20.484375 C 29.140625 -20.660156 29.390625 -20.765625 29.640625 -20.796875 C 29.898438 -20.835938 30.164062 -20.859375 30.4375 -20.859375 C 30.519531 -20.859375 30.597656 -20.859375 30.671875 -20.859375 C 31.742188 -20.898438 32.816406 -20.941406 33.890625 -20.984375 C 36.691406 -21.148438 39.488281 -21.253906 42.28125 -21.296875 C 43.238281 -21.296875 43.984375 -21.5 44.515625 -21.90625 C 45.054688 -22.320312 45.472656 -22.957031 45.765625 -23.8125 C 47.148438 -27.394531 48.546875 -30.960938 49.953125 -34.515625 C 51.453125 -38.304688 52.9375 -42.09375 54.40625 -45.875 C 55.519531 -48.789062 56.570312 -51.710938 57.5625 -54.640625 C 58.113281 -56.179688 58.671875 -57.742188 59.234375 -59.328125 C 59.234375 -59.390625 59.253906 -59.4375 59.296875 -59.46875 C 59.515625 -60.15625 59.796875 -60.78125 60.140625 -61.34375 C 60.359375 -61.632812 60.617188 -61.789062 60.921875 -61.8125 C 61.222656 -61.832031 61.539062 -61.804688 61.875 -61.734375 C 62.125 -61.597656 62.328125 -61.429688 62.484375 -61.234375 C 62.640625 -61.035156 62.703125 -60.8125 62.671875 -60.5625 C 62.535156 -59.582031 62.335938 -58.613281 62.078125 -57.65625 C 60.648438 -52.96875 59.039062 -48.367188 57.25 -43.859375 C 57.144531 -43.742188 57.078125 -43.617188 57.046875 -43.484375 C 55.421875 -39.222656 53.75 -34.992188 52.03125 -30.796875 C 51.25 -28.859375 50.46875 -26.921875 49.6875 -24.984375 C 49.6875 -24.953125 49.6875 -24.9375 49.6875 -24.9375 C 49.46875 -24.363281 49.253906 -23.773438 49.046875 -23.171875 C 48.828125 -22.628906 48.816406 -22.234375 49.015625 -21.984375 C 49.210938 -21.742188 49.632812 -21.625 50.28125 -21.625 C 51.132812 -21.625 51.992188 -21.671875 52.859375 -21.765625 C 53.242188 -21.765625 53.632812 -21.765625 54.03125 -21.765625 C 54.101562 -21.765625 54.160156 -21.785156 54.203125 -21.828125 C 59.140625 -22.003906 64.0625 -22.179688 68.96875 -22.359375 C 69.351562 -22.390625 69.742188 -22.390625 70.140625 -22.359375 Z M 70.140625 -22.359375 "/></g><g transform="translate(286.891701, 237.751919)"><path style="stroke:none" d="M 21.25 -14.921875 C 21.707031 -14.660156 21.742188 -14.023438 21.359375 -13.015625 C 20.796875 -12.265625 20.191406 -11.566406 19.546875 -10.921875 C 18.898438 -10.285156 18.195312 -9.710938 17.4375 -9.203125 C 17.375 -9.203125 17.34375 -9.179688 17.34375 -9.140625 C 16.832031 -8.785156 16.296875 -8.484375 15.734375 -8.234375 C 11.066406 -6.554688 8.679688 -7.539062 8.578125 -11.1875 C 6.691406 -9.550781 5.425781 -8.546875 4.78125 -8.171875 C 3.238281 -7.253906 1.566406 -6.84375 -0.234375 -6.9375 C -1.566406 -7.019531 -2.46875 -7.425781 -2.9375 -8.15625 C -3.414062 -8.894531 -3.375 -9.890625 -2.8125 -11.140625 C -1.957031 -13.109375 -0.738281 -14.863281 0.84375 -16.40625 C 2.707031 -18.125 4.769531 -19.5 7.03125 -20.53125 C 8.238281 -21.144531 9.507812 -21.378906 10.84375 -21.234375 C 12.164062 -21.160156 12.96875 -20.410156 13.25 -18.984375 C 13.363281 -18.554688 13.253906 -18.175781 12.921875 -17.84375 C 12.492188 -17.445312 11.992188 -17.359375 11.421875 -17.578125 C 11.390625 -17.578125 11.335938 -17.585938 11.265625 -17.609375 C 11.191406 -17.628906 11.140625 -17.660156 11.109375 -17.703125 C 10.535156 -18.484375 9.960938 -18.804688 9.390625 -18.671875 C 8.816406 -18.546875 8.207031 -18.289062 7.5625 -17.90625 C 4.550781 -16.144531 2.3125 -13.691406 0.84375 -10.546875 C 0.769531 -10.410156 0.722656 -10.257812 0.703125 -10.09375 C 0.679688 -9.925781 0.726562 -9.796875 0.84375 -9.703125 C 1.195312 -9.578125 1.585938 -9.597656 2.015625 -9.765625 C 2.453125 -9.929688 2.882812 -10.175781 3.3125 -10.5 C 3.738281 -10.820312 4.097656 -11.09375 4.390625 -11.3125 C 4.429688 -11.363281 4.453125 -11.390625 4.453125 -11.390625 C 5.878906 -12.585938 7.273438 -13.8125 8.640625 -15.0625 C 9.242188 -15.707031 10 -16.066406 10.90625 -16.140625 C 12.1875 -16.140625 12.722656 -15.566406 12.515625 -14.421875 C 12.390625 -13.984375 12.257812 -13.550781 12.125 -13.125 C 11.625 -11.269531 11.609375 -10.179688 12.078125 -9.859375 C 12.546875 -9.535156 13.257812 -9.535156 14.21875 -9.859375 C 15.1875 -10.179688 16.15625 -10.796875 17.125 -11.703125 C 18.09375 -12.609375 18.90625 -13.4375 19.5625 -14.1875 C 20.226562 -14.945312 20.789062 -15.191406 21.25 -14.921875 Z M 21.25 -14.921875 "/></g><g transform="translate(306.315528, 237.751919)"><path style="stroke:none" d="M 14.1875 -13.96875 C 14.820312 -14.613281 15.351562 -14.972656 15.78125 -15.046875 C 16.21875 -15.128906 16.5 -15.0625 16.625 -14.84375 C 16.75 -14.632812 16.664062 -14.34375 16.375 -13.96875 C 14.65625 -11.90625 12.726562 -10.117188 10.59375 -8.609375 C 8.46875 -7.109375 6.273438 -6.238281 4.015625 -6 C 1.765625 -5.769531 0.40625 -7.003906 -0.0625 -9.703125 C -0.414062 -12.378906 1.203125 -17.828125 4.796875 -26.046875 C 8.398438 -34.265625 11.242188 -41.003906 13.328125 -46.265625 C 13.503906 -46.734375 13.769531 -47.140625 14.125 -47.484375 C 14.59375 -47.953125 15.148438 -48.0625 15.796875 -47.8125 C 16.003906 -47.71875 16.21875 -47.5625 16.4375 -47.34375 C 16.65625 -47.125 16.722656 -46.742188 16.640625 -46.203125 C 7.398438 -24.285156 2.925781 -12.367188 3.21875 -10.453125 C 3.507812 -8.546875 4.742188 -8.070312 6.921875 -9.03125 C 9.109375 -10 10.789062 -10.984375 11.96875 -11.984375 C 13.144531 -12.992188 13.882812 -13.65625 14.1875 -13.96875 Z M 14.1875 -13.96875 "/></g><g transform="translate(320.934667, 237.751919)"><path style="stroke:none" d="M 11.640625 -12.34375 C 10.597656 -11.101562 9.363281 -9.96875 7.9375 -8.9375 C 6.507812 -7.90625 4.894531 -7.207031 3.09375 -6.84375 C 1.300781 -6.476562 -0.0859375 -6.609375 -1.078125 -7.234375 C -2.078125 -7.859375 -2.273438 -9.242188 -1.671875 -11.390625 C -0.890625 -13.617188 0.179688 -15.738281 1.546875 -17.75 C 1.859375 -18.1875 2.3125 -18.488281 2.90625 -18.65625 C 3.332031 -18.757812 3.707031 -18.6875 4.03125 -18.4375 C 4.351562 -18.195312 4.472656 -17.890625 4.390625 -17.515625 C 4.097656 -16.816406 3.773438 -16.113281 3.421875 -15.40625 C 3.078125 -14.707031 2.84375 -14.25 2.71875 -14.03125 C 2.039062 -12.78125 1.566406 -11.472656 1.296875 -10.109375 C 1.296875 -9.328125 2.335938 -9.273438 4.421875 -9.953125 C 6.515625 -10.640625 8.546875 -11.894531 10.515625 -13.71875 C 12.492188 -15.550781 13.4375 -16.085938 13.34375 -15.328125 C 13.257812 -14.578125 12.691406 -13.582031 11.640625 -12.34375 Z M 6.53125 -22.15625 C 6.4375 -22.070312 6.238281 -21.972656 5.9375 -21.859375 C 5.632812 -21.753906 5.3125 -21.675781 4.96875 -21.625 C 4.625 -21.582031 4.351562 -21.640625 4.15625 -21.796875 C 3.96875 -21.953125 3.957031 -22.265625 4.125 -22.734375 C 4.4375 -23.554688 4.765625 -24.273438 5.109375 -24.890625 C 5.453125 -25.503906 5.898438 -26.179688 6.453125 -26.921875 C 6.796875 -27.253906 7.171875 -27.4375 7.578125 -27.46875 C 7.992188 -27.5 8.335938 -27.390625 8.609375 -27.140625 C 8.890625 -26.898438 8.96875 -26.566406 8.84375 -26.140625 C 8.414062 -24.585938 7.644531 -23.257812 6.53125 -22.15625 Z M 6.53125 -22.15625 "/></g></g><g style="fill:#d3d274;fill-opacity:1;"><g transform="translate(194.399406, 169.520732)"><path style="stroke:none" d="M 17.78125 -2.71875 C 17.363281 -2.519531 17.039062 -2.34375 16.8125 -2.1875 C 16.582031 -2.03125 16.300781 -1.859375 15.96875 -1.671875 C 15.1875 -1.222656 14.335938 -0.796875 13.421875 -0.390625 C 12.503906 0.00390625 11.578125 0.359375 10.640625 0.671875 C 9.710938 0.992188 8.820312 1.238281 7.96875 1.40625 C 7.125 1.582031 6.367188 1.671875 5.703125 1.671875 C 4.234375 1.671875 3.019531 1.375 2.0625 0.78125 C 1.101562 0.195312 0.390625 -0.550781 -0.078125 -1.46875 C -0.554688 -2.382812 -0.796875 -3.335938 -0.796875 -4.328125 C -0.796875 -4.835938 -0.738281 -5.320312 -0.625 -5.78125 C -0.425781 -6.644531 0.0078125 -7.554688 0.6875 -8.515625 C 1.363281 -9.484375 2.175781 -10.457031 3.125 -11.4375 C 4.070312 -12.425781 5.070312 -13.382812 6.125 -14.3125 C 7.175781 -15.238281 8.175781 -16.097656 9.125 -16.890625 C 10.070312 -17.691406 10.878906 -18.394531 11.546875 -19 C 11.035156 -20.332031 10.617188 -21.640625 10.296875 -22.921875 C 9.984375 -24.203125 9.828125 -25.546875 9.828125 -26.953125 C 9.828125 -28.148438 9.957031 -29.390625 10.21875 -30.671875 C 10.457031 -31.773438 10.863281 -32.703125 11.4375 -33.453125 C 12.007812 -34.210938 12.703125 -34.832031 13.515625 -35.3125 C 14.335938 -35.789062 15.210938 -36.15625 16.140625 -36.40625 C 17.078125 -36.664062 18.03125 -36.84375 19 -36.9375 C 19.96875 -37.03125 20.882812 -37.082031 21.75 -37.09375 C 22.832031 -37.09375 23.800781 -36.882812 24.65625 -36.46875 C 25.519531 -36.050781 26.203125 -35.453125 26.703125 -34.671875 C 27.203125 -33.890625 27.453125 -32.929688 27.453125 -31.796875 C 27.453125 -31.578125 27.4375 -31.363281 27.40625 -31.15625 C 27.382812 -30.945312 27.359375 -30.726562 27.328125 -30.5 C 26.722656 -27.96875 25.757812 -25.65625 24.4375 -23.5625 C 23.113281 -21.46875 21.410156 -19.40625 19.328125 -17.375 C 19.378906 -17.039062 19.5 -16.625 19.6875 -16.125 C 19.875 -15.625 20.082031 -15.109375 20.3125 -14.578125 C 20.550781 -14.054688 20.769531 -13.59375 20.96875 -13.1875 C 21.175781 -12.78125 21.3125 -12.492188 21.375 -12.328125 C 22.125 -12.878906 22.835938 -13.4375 23.515625 -14 C 24.203125 -14.5625 24.882812 -15.082031 25.5625 -15.5625 C 26.25 -16.039062 26.96875 -16.425781 27.71875 -16.71875 C 28.46875 -17.007812 29.285156 -17.15625 30.171875 -17.15625 C 30.703125 -17.15625 31.175781 -17.097656 31.59375 -16.984375 C 32.007812 -16.878906 32.503906 -16.609375 33.078125 -16.171875 C 32.472656 -15.617188 31.78125 -14.96875 31 -14.21875 C 30.226562 -13.46875 29.425781 -12.691406 28.59375 -11.890625 C 27.757812 -11.097656 26.957031 -10.328125 26.1875 -9.578125 C 25.425781 -8.828125 24.765625 -8.175781 24.203125 -7.625 C 24.367188 -7.125 24.625 -6.664062 24.96875 -6.25 C 25.320312 -5.832031 25.6875 -5.429688 26.0625 -5.046875 C 26.4375 -4.660156 26.753906 -4.253906 27.015625 -3.828125 C 27.285156 -3.410156 27.421875 -2.9375 27.421875 -2.40625 C 27.421875 -1.832031 27.242188 -1.300781 26.890625 -0.8125 C 26.546875 -0.320312 26.09375 0.109375 25.53125 0.484375 C 24.976562 0.859375 24.398438 1.15625 23.796875 1.375 C 23.203125 1.59375 22.65625 1.703125 22.15625 1.703125 C 21.613281 1.703125 21.125 1.539062 20.6875 1.21875 C 20.25 0.90625 19.847656 0.507812 19.484375 0.03125 C 19.128906 -0.4375 18.804688 -0.921875 18.515625 -1.421875 C 18.234375 -1.921875 17.988281 -2.351562 17.78125 -2.71875 Z M 5.78125 -3.78125 C 6.53125 -3.78125 7.34375 -3.894531 8.21875 -4.125 C 9.101562 -4.351562 9.988281 -4.660156 10.875 -5.046875 C 11.757812 -5.429688 12.585938 -5.867188 13.359375 -6.359375 C 14.140625 -6.847656 14.785156 -7.351562 15.296875 -7.875 C 14.910156 -8.539062 14.5625 -9.210938 14.25 -9.890625 C 13.945312 -10.578125 13.640625 -11.253906 13.328125 -11.921875 C 12.878906 -11.691406 12.363281 -11.328125 11.78125 -10.828125 C 11.195312 -10.328125 10.59375 -9.765625 9.96875 -9.140625 C 9.34375 -8.515625 8.738281 -7.867188 8.15625 -7.203125 C 7.582031 -6.535156 7.085938 -5.898438 6.671875 -5.296875 C 6.253906 -4.703125 5.957031 -4.195312 5.78125 -3.78125 Z M 22.421875 -31.328125 C 22.421875 -31.941406 22.253906 -32.378906 21.921875 -32.640625 C 21.585938 -32.910156 21.128906 -33.046875 20.546875 -33.046875 C 19.828125 -33.046875 19.242188 -32.882812 18.796875 -32.5625 C 18.347656 -32.25 18.003906 -31.835938 17.765625 -31.328125 C 17.535156 -30.828125 17.378906 -30.273438 17.296875 -29.671875 C 17.210938 -29.078125 17.171875 -28.492188 17.171875 -27.921875 C 17.171875 -27.023438 17.234375 -26.128906 17.359375 -25.234375 C 17.484375 -24.347656 17.644531 -23.671875 17.84375 -23.203125 C 18.28125 -23.546875 18.757812 -24.046875 19.28125 -24.703125 C 19.8125 -25.367188 20.3125 -26.097656 20.78125 -26.890625 C 21.257812 -27.679688 21.648438 -28.46875 21.953125 -29.25 C 22.265625 -30.03125 22.421875 -30.722656 22.421875 -31.328125 Z M 22.421875 -31.328125 "/></g></g></g></svg>