<svg xmlns="http://www.w3.org/2000/svg" xmlns:xlink="http://www.w3.org/1999/xlink" width="563" zoomAndPan="magnify" viewBox="0 0 422.25 287.25" height="383" preserveAspectRatio="xMidYMid meet" version="1.2"><defs><clipPath id="3c928c61c5"><path d="M 25 1 L 397 1 L 397 285.753906 L 25 285.753906 Z M 25 1 "/></clipPath></defs><g id="fa8aaee7de"><g style="fill:#3e473a;fill-opacity:1;"><g transform="translate(209.157277, 106.044533)"><path style="stroke:none" d="M 1.34375 -1.390625 C 1.664062 -1.390625 1.78125 -1.234375 1.6875 -0.921875 C 1.644531 -0.804688 1.597656 -0.691406 1.546875 -0.578125 C 1.492188 -0.484375 1.421875 -0.421875 1.328125 -0.390625 C 1.234375 -0.367188 1.132812 -0.378906 1.03125 -0.421875 C 0.945312 -0.453125 0.898438 -0.515625 0.890625 -0.609375 C 0.878906 -0.742188 0.882812 -0.878906 0.90625 -1.015625 C 0.925781 -1.273438 1.070312 -1.398438 1.34375 -1.390625 Z M 1.34375 -1.390625 "/></g></g><g clip-rule="nonzero" clip-path="url(#3c928c61c5)"><path style=" stroke:none;fill-rule:nonzero;fill:#3e473a;fill-opacity:1;" d="M 197.015625 182.359375 L 197.015625 182.425781 C 212.566406 210.441406 220.476562 242.992188 222.65625 274.878906 C 222.746094 275.90625 222.847656 276.480469 222.953125 276.382812 C 226.117188 254.53125 212.789062 196.554688 197.015625 182.359375 Z M 273.488281 215.742188 C 256.320312 233.660156 255.4375 264.847656 250.402344 285.769531 L 250.378906 285.746094 C 250.960938 260.859375 255.660156 233.417969 272.460938 214.324219 C 274.296875 212.78125 274.839844 213.964844 273.480469 215.742188 Z M 224.515625 111.722656 C 207.789062 106.582031 189.082031 102.953125 171.328125 103.117188 C 167.539062 103.144531 162.53125 105.15625 158.996094 105.164062 C 157.601562 105.136719 156.808594 104.636719 156.957031 104.144531 L 156.992188 104.042969 C 171.304688 97.976562 216.429688 102.375 227.003906 112.125 C 226.894531 112.480469 225.167969 111.90625 224.515625 111.722656 Z M 88.800781 33.300781 C 77.648438 33.808594 81.15625 16.617188 91.3125 20.480469 L 91.578125 20.605469 C 96.535156 24.085938 96.117188 33.339844 88.808594 33.300781 Z M 151.550781 123.722656 C 173.589844 131.125 189.78125 153.277344 198.792969 173.90625 C 199.394531 175.933594 198.144531 175.851562 197.148438 174.199219 C 188.238281 153.242188 171.070312 135.640625 151.53125 123.75 L 151.53125 123.722656 Z M 200.273438 45.148438 C 180.207031 53.210938 163.910156 67.464844 151.5 85.277344 L 151.449219 85.292969 C 157.167969 68.265625 183.503906 47.019531 201.207031 43.574219 C 202.324219 43.832031 201.382812 44.574219 200.273438 45.148438 Z M 333.417969 237.574219 C 334.367188 237.625 335.605469 238.183594 336.414062 237.917969 C 336.996094 237.714844 337.375 237.050781 337.800781 236.597656 L 337.964844 236.441406 C 340.910156 234.679688 345.292969 234.804688 344.234375 239.394531 C 343.347656 242.859375 340.503906 247.730469 336.332031 246.796875 C 328.917969 245.527344 325.882812 236.566406 333.425781 237.582031 Z M 175.996094 38.816406 C 155.949219 50.359375 149.546875 70.6875 138.730469 88.957031 L 138.6875 88.957031 C 143.679688 68.632812 157.691406 46.859375 176.019531 36.9375 C 178.371094 35.894531 177.730469 37.496094 175.996094 38.816406 Z M 219.375 82.238281 C 219.417969 82.648438 218.238281 83.179688 216.820312 83.382812 C 213.917969 83.765625 210.585938 83.0625 207.714844 83.148438 C 191.808594 83.574219 175.609375 91.453125 160.65625 96.625 L 160.636719 96.59375 C 175.953125 85.199219 198.101562 80.527344 217.097656 81.519531 C 217.773438 81.5625 219.332031 81.695312 219.375 82.238281 Z M 123.425781 94.546875 C 117.925781 68.632812 111.523438 54.363281 95.042969 34.074219 L 95.042969 34.015625 C 113.886719 47.042969 121.90625 73.457031 124.710938 95.683594 C 124.46875 97.035156 123.851562 96 123.425781 94.546875 Z M 202.734375 65.421875 C 183.753906 69.058594 168.390625 83.78125 154.996094 96.007812 L 154.980469 95.972656 C 165.035156 79.699219 183.628906 68.199219 201.984375 63.703125 C 202.691406 63.527344 204.234375 63.25 204.484375 63.769531 C 204.6875 64.144531 203.925781 64.886719 202.734375 65.421875 Z M 127.015625 213.546875 C 133.53125 212.753906 135.558594 229.957031 127.222656 224.882812 L 127.03125 224.679688 C 126.335938 223.605469 125.96875 221.792969 124.46875 221.769531 C 123.566406 221.710938 122.515625 222.070312 121.289062 221.566406 C 119.960938 221.042969 118.71875 219.589844 118.808594 218.238281 C 118.886719 215.175781 123.960938 213.804688 127.023438 213.554688 Z M 274.871094 241.371094 C 276.726562 241.554688 279.039062 242.488281 280.90625 242.648438 C 282.074219 242.523438 280.890625 241.238281 280.289062 240.152344 C 279.6875 239.210938 279.203125 238.242188 279.246094 237.882812 C 279.429688 237.359375 280.1875 238.152344 280.566406 238.425781 C 281.597656 239.09375 283.019531 241.582031 284.160156 241.363281 L 284.261719 241.28125 C 284.921875 240.285156 285.011719 236.933594 286.023438 235.996094 C 287.71875 234.195312 287.058594 238.207031 287.359375 239.019531 C 287.601562 239.761719 288.160156 239.335938 288.992188 238.703125 C 289.769531 238.09375 290.597656 237.582031 291.011719 237.839844 C 292.800781 239.886719 286.449219 242.992188 288.660156 244.894531 C 289.769531 245.820312 293.089844 247.414062 289.484375 247.421875 C 288.886719 247.480469 288 247.265625 287.699219 247.863281 C 287.648438 248.964844 289.769531 251.527344 289.710938 252.730469 C 289.769531 253.148438 289.726562 253.640625 289.253906 253.566406 C 287.441406 252.855469 285.164062 246.039062 284.144531 251.660156 C 284.003906 252.355469 283.261719 256.152344 282.625 255.132812 C 282.183594 254.347656 283.160156 249.59375 282.574219 248.839844 C 282.34375 248.582031 282.035156 248.714844 281.699219 248.847656 C 280.898438 249.234375 280.003906 249.894531 279.1875 250.425781 C 278.585938 250.742188 277.316406 251.863281 277 251.410156 C 277.542969 249.167969 282.710938 245.785156 279.8125 244.46875 C 278.121094 243.25 274.78125 243.117188 273.546875 241.613281 C 273.621094 241.28125 274.082031 241.339844 274.863281 241.378906 Z M 121.414062 136.425781 C 109.453125 151.464844 103.128906 169.492188 101.109375 188.351562 C 101.007812 189.203125 100.851562 190.148438 100.492188 190.824219 C 100.28125 191.097656 100.242188 191.296875 99.925781 191.132812 L 99.847656 191.054688 C 99.304688 172.09375 106.535156 148.445312 121.121094 135.890625 C 122.472656 134.789062 122.375 135.191406 121.414062 136.425781 Z M 139.78125 140.75 L 139.808594 140.671875 C 146.894531 150.714844 141.9375 186.148438 138.238281 199.191406 C 137.820312 200.503906 137.6875 200.179688 137.769531 198.757812 C 139.355469 180.191406 142.980469 159.886719 139.789062 140.75 Z M 149.847656 135.082031 C 164 147.976562 177.671875 166.953125 180.550781 186.023438 L 180.492188 186.050781 C 179.890625 185.941406 179.15625 183.820312 178.816406 182.960938 C 172.457031 164.476562 160.773438 150.671875 149.511719 135.597656 C 148.578125 134.3125 148.527344 133.957031 149.847656 135.082031 Z M 34.835938 110.171875 C 45.910156 104.261719 86.90625 109.453125 94.148438 117.890625 L 94.066406 117.890625 C 75.832031 111.105469 54.589844 108.84375 36.1875 110.378906 C 35.304688 110.414062 34.792969 110.355469 34.835938 110.171875 Z M 112.644531 109.738281 C 113.550781 111.195312 113.144531 111.039062 112.042969 109.96875 C 98.707031 96.640625 84.476562 83.921875 66.347656 78.074219 C 65.574219 77.824219 63.269531 77.003906 63.585938 76.335938 L 63.652344 76.277344 C 82.230469 79.308594 102.277344 94.195312 112.632812 109.746094 Z M 163.691406 10.65625 C 162.191406 11.851562 161.207031 12.125 159.621094 11.339844 C 151.726562 7.769531 152.074219 0 159.660156 2.671875 C 160.871094 3.070312 161.671875 3.554688 162.359375 2.378906 L 162.515625 2.1875 C 164.378906 0.300781 168.03125 1.152344 168.441406 3.878906 C 168.890625 6.800781 165.628906 8.871094 163.699219 10.65625 Z M 254.761719 72.207031 C 254.160156 71.855469 254.183594 71.128906 254.125 70.527344 C 254.277344 68.769531 254.59375 67.191406 255.3125 65.472656 C 256.90625 61.691406 260.066406 59.761719 261.921875 62.699219 C 262.347656 63.484375 262.371094 64.71875 262.179688 66.054688 C 262.15625 66.441406 262.203125 66.757812 262.394531 67 C 263.089844 67.75 265.292969 67.890625 265.933594 68.808594 L 266.085938 69.019531 C 269.339844 75.101562 258.40625 74.660156 254.769531 72.199219 Z M 35.355469 194.6875 C 37.890625 193.734375 41.394531 195.480469 39.992188 191.121094 C 39.878906 190.148438 40.46875 190.421875 41.136719 190.90625 C 45.910156 195.3125 43.464844 188.503906 44.910156 186.457031 L 45 186.375 C 45.242188 186.214844 45.410156 186.417969 45.550781 186.65625 C 45.886719 187.226562 46.085938 188.5625 46.136719 189.738281 C 46.203125 190.9375 46.480469 191.707031 47.078125 191.539062 C 47.980469 191.40625 49.28125 189.644531 50.132812 190.421875 C 50.644531 191.375 48.65625 193.992188 48.488281 194.828125 C 48.363281 195.90625 49.800781 196.15625 50.519531 196.632812 C 52.335938 197.617188 49.492188 198.109375 48.957031 198.867188 C 47.871094 199.9375 51.621094 202.566406 50.976562 203.625 C 49.867188 204.257812 48.507812 202.722656 47.554688 201.9375 C 46.769531 201.1875 46.167969 200.753906 45.726562 201.222656 C 45.007812 201.511719 44.933594 206.011719 44.140625 204.175781 C 43.851562 203.523438 43.632812 202.546875 43.117188 202.003906 C 42.574219 201.371094 41.6875 201.898438 40.855469 202.554688 C 39.519531 203.632812 39.226562 203.214844 39.753906 202.105469 C 40.277344 200.871094 41.296875 199.367188 41.921875 198.265625 C 42.265625 197.632812 42.363281 197.199219 42.046875 196.921875 C 40.59375 195.988281 36.613281 196.546875 34.871094 195.480469 C 34.386719 195.121094 34.945312 194.804688 35.355469 194.679688 Z M 206.632812 121.003906 C 206.503906 121.285156 205.8125 121.402344 204.871094 121.3125 C 193.796875 118.582031 183.019531 114.800781 171.5625 113.960938 C 166.523438 113.109375 161.28125 114.433594 156.230469 113.894531 C 154.738281 113.640625 153.46875 113.066406 153.59375 112.648438 L 153.628906 112.566406 C 169.945312 109.84375 189.355469 113.699219 204.542969 119.402344 C 205.238281 119.683594 206.816406 120.351562 206.632812 120.996094 Z M 380.996094 118.441406 C 379.117188 118.597656 376.890625 116.523438 375.546875 115.652344 C 374.855469 115.488281 374.496094 116.070312 373.519531 116.40625 C 372.390625 116.921875 370.765625 116.839844 369.753906 115.9375 L 369.519531 115.730469 C 365.980469 112.140625 374.042969 107.550781 377.03125 107.558594 C 381.511719 108.808594 385.828125 117.332031 380.996094 118.441406 Z M 26.390625 122.070312 C 26.832031 121.304688 27.710938 120.753906 28.59375 120.644531 C 30.269531 120.410156 31.613281 121.496094 32.617188 121.402344 C 34.253906 121.042969 35.480469 118.523438 37.617188 118.890625 L 37.90625 118.933594 C 43.550781 120.277344 38.28125 128.195312 34.886719 129.191406 C 31.082031 129.925781 24.222656 126.203125 26.390625 122.078125 Z M 48.816406 171.976562 C 47.570312 171.71875 46.828125 171.070312 48.199219 170.46875 C 49.214844 169.976562 50.785156 170.050781 51.652344 169.308594 C 51.996094 168.933594 51.285156 168.421875 50.585938 167.730469 C 49.542969 166.804688 49.507812 166.1875 50.609375 166.226562 C 51.476562 166.160156 52.78125 166.84375 53.5625 166.59375 L 53.648438 166.519531 C 53.882812 165.792969 53.445312 165.109375 53.472656 164.207031 C 53.664062 160.460938 56.027344 165.785156 56.683594 166.59375 C 57.761719 168.230469 59.179688 165.242188 60.125 165.484375 C 60.707031 165.925781 60.242188 167.304688 60.316406 168.015625 C 60.316406 169.300781 61.277344 169.214844 62.878906 168.992188 C 64.589844 168.765625 66.25 168.582031 67.566406 169.222656 C 68.085938 169.457031 68.195312 169.882812 67.75 170.183594 C 67.199219 170.917969 62.792969 170.660156 62.929688 171.828125 C 63.019531 172.746094 66.066406 174.800781 63.511719 174.363281 C 62.027344 174.089844 61.558594 174.691406 61.910156 176.34375 C 62.617188 181.050781 59.015625 174.105469 57.96875 173.949219 C 56.386719 173.582031 55.285156 175.976562 53.847656 176.351562 C 53.371094 176.433594 53.597656 175.550781 53.914062 174.539062 C 55.332031 170.785156 50.710938 172.628906 48.816406 171.988281 Z M 132.039062 91.035156 C 131.613281 92.128906 131.402344 91.976562 131.46875 90.601562 C 133.074219 72.882812 132.386719 54.78125 128.300781 37.457031 L 128.324219 37.371094 C 136.34375 45.917969 135.925781 79.757812 132.039062 91.035156 Z M 161.304688 120.910156 L 161.332031 120.851562 C 177.730469 120.886719 199.511719 127.90625 210.304688 140.132812 C 211.261719 141.324219 210.863281 141.375 209.558594 140.605469 C 194.6875 131.152344 182.335938 125.453125 164.636719 122.164062 C 163.71875 121.953125 161.496094 121.511719 161.304688 120.902344 Z M 386.195312 187.125 C 387.378906 186.757812 386.644531 185.730469 385.792969 184.246094 C 384.992188 183.054688 384.382812 181.699219 384.433594 180.976562 C 384.875 178.953125 387.605469 182.777344 388.148438 183.578125 C 391.960938 188.9375 389.183594 178.8125 393.988281 179.449219 L 394.199219 179.449219 C 397.195312 179.097656 396.101562 180.296875 394.957031 182.785156 C 393.65625 185.480469 392.394531 187.140625 395.769531 187.535156 C 396.945312 187.792969 395.984375 188.195312 394.574219 188.726562 C 392.105469 189.554688 392.53125 190.789062 393.679688 192.433594 C 394.449219 193.84375 396.535156 196.089844 396.117188 197.597656 C 395.375 198 394.523438 196.964844 393.53125 196.0625 C 390.925781 193.015625 391.144531 196.089844 390.351562 197.949219 C 389.324219 199.96875 389.167969 195.613281 389.066406 194.953125 C 388.816406 192.199219 387.648438 195.304688 386.730469 196.214844 C 386.011719 197.039062 385.378906 197.714844 385.226562 197.089844 C 385.109375 195.914062 387.679688 191.890625 387.804688 190.679688 C 387.957031 189.722656 386.980469 189.539062 386.152344 189.394531 C 384.886719 189.09375 382.222656 189.3125 381.429688 188.320312 C 382.179688 187.175781 384.925781 187.492188 386.195312 187.117188 Z M 262.546875 82.070312 L 262.847656 82.136719 C 268.332031 83.671875 266.519531 92.46875 261.363281 93.203125 C 253.582031 94.414062 253.734375 79.917969 262.546875 82.070312 Z M 72.433594 40.769531 C 72.582031 41.636719 74.777344 42.261719 73.792969 43.121094 C 73.277344 43.488281 72.566406 43.832031 72.425781 44.53125 C 72.226562 45.542969 73.777344 47.304688 73.550781 48.011719 C 73.402344 48.261719 73.25 48.355469 72.925781 48.210938 C 71.832031 47.878906 70.222656 45.667969 69.539062 47.261719 C 69.046875 47.785156 68.828125 50.667969 67.828125 49.554688 C 66.632812 47.769531 66.066406 48.128906 64.464844 49.679688 C 63.730469 50.347656 63.101562 50.714844 63.003906 50.332031 C 62.710938 49.296875 65.648438 45.089844 65.566406 44.03125 C 65.53125 43.28125 64.9375 43.148438 64.105469 42.945312 C 63.011719 42.710938 61.601562 42.621094 60.691406 41.910156 C 60.332031 41.570312 60.75 41.269531 61.375 41.027344 C 64.269531 40.308594 62.570312 38.03125 62.035156 36.179688 C 61.476562 34.476562 62.425781 35.292969 63.914062 36.488281 C 65.097656 37.445312 66.207031 38.457031 66.792969 38.246094 L 66.941406 38.179688 C 67.734375 37.539062 67.703125 35.96875 68.195312 35.085938 C 68.503906 34.507812 68.777344 35.167969 69.105469 36.042969 C 69.863281 38.398438 71.78125 36.769531 73.316406 36.304688 C 75.753906 35.929688 71.53125 39.792969 72.425781 40.761719 Z M 65.507812 96.175781 C 64.570312 95.859375 64.0625 95.382812 64.269531 95.03125 L 64.339844 94.941406 C 64.765625 94.472656 66.15625 94.53125 66.949219 94.648438 C 82.023438 96.535156 98.0625 102.757812 109.5625 112.789062 C 110.671875 113.816406 110.296875 113.875 108.980469 113.25 C 97.003906 107.359375 84.902344 99.371094 71.308594 96.984375 C 69.414062 96.59375 67.324219 96.734375 65.507812 96.167969 Z M 234.457031 172.488281 C 233.46875 171.871094 231.585938 171.886719 230.523438 171.285156 C 230.265625 171.125 229.957031 170.976562 230.082031 170.710938 C 231.132812 169.832031 234.203125 171.21875 233.777344 169.582031 C 233.59375 168.441406 229.546875 163.171875 233.238281 166.070312 C 234.304688 166.855469 234.9375 167.898438 235.90625 168.097656 L 236.050781 168.082031 C 237.25 167.269531 237.175781 164.757812 238.050781 163.582031 C 238.226562 163.339844 238.402344 163.097656 238.636719 163.289062 C 239.386719 164.273438 238.445312 166.945312 239.113281 167.878906 C 239.921875 168.546875 244.085938 162.207031 244.261719 164.875 C 244.179688 166.101562 241.992188 168.332031 241.757812 169.597656 C 241.464844 170.566406 242.824219 170.925781 243.144531 171.492188 C 243.050781 171.96875 242.46875 172.160156 242.089844 172.488281 C 241.238281 173.003906 240.957031 173.847656 241.449219 174.789062 C 241.691406 175.523438 242.527344 176.453125 242.101562 177.195312 C 241.875 177.371094 241.316406 177.152344 240.65625 176.761719 C 238.144531 174.992188 237.828125 175.515625 236.691406 178.261719 C 235.105469 181.382812 235.730469 177.476562 233.914062 178.105469 C 233.402344 178.179688 232.851562 178.65625 232.351562 178.496094 C 231.960938 178.21875 234.398438 175.292969 234.847656 173.78125 C 235.015625 173.203125 234.898438 172.789062 234.457031 172.496094 Z M 48.054688 98.070312 L 47.878906 98.234375 C 42.714844 102.390625 34.167969 94.648438 40.578125 89.882812 C 45.402344 85.265625 51.417969 94.046875 48.054688 98.078125 Z M 153.9375 16.867188 C 153.6875 17.558594 150.890625 17.660156 149.972656 18.183594 C 148.710938 19.09375 150.132812 20.113281 151.164062 21.324219 C 152.324219 22.550781 153.453125 23.742188 153.96875 24.988281 C 154.085938 25.328125 153.96875 25.394531 153.726562 25.355469 C 152.820312 25.171875 149.589844 21.625 148.34375 21.0625 C 147.96875 20.90625 147.660156 20.972656 147.410156 21.28125 C 146.882812 21.742188 146.75 23.933594 145.800781 23.269531 C 145.355469 22.800781 144.964844 22.117188 144.289062 21.898438 C 143.0625 21.398438 140.652344 23.566406 140.523438 23.152344 C 140.601562 22.207031 144.082031 19.160156 143.671875 17.96875 C 142.777344 16.910156 140.75 16.992188 139.507812 16.558594 C 136.050781 15.671875 142.488281 16.015625 141.777344 14.238281 C 141.492188 13.144531 139.089844 11.140625 139.664062 9.949219 L 139.75 9.871094 C 141.984375 9.261719 144.3125 16.148438 145.609375 11.507812 C 145.925781 10.640625 146.292969 10.265625 146.625 10.90625 C 147.617188 13.695312 146.660156 15.914062 150.296875 12.625 C 151.550781 11.652344 152.84375 10.457031 152.808594 11.542969 C 152.667969 12.402344 152.007812 13.410156 152.21875 14.320312 C 152.335938 15.414062 153.976562 15.804688 153.910156 16.859375 Z M 109.570312 125.652344 L 109.511719 125.726562 C 95.550781 131.117188 81.386719 137 71.773438 148.800781 C 70.957031 149.371094 70.296875 149.394531 70.078125 149.027344 C 71.382812 141.441406 103.246094 121.761719 109.570312 125.660156 Z M 119.253906 32.765625 C 117.691406 35.117188 113.535156 36.378906 111.324219 34.460938 L 111.164062 34.285156 C 107.257812 30.179688 112.332031 20.273438 117.742188 25.878906 C 119.453125 27.617188 120.804688 30.59375 119.253906 32.765625 Z M 239.578125 219.554688 C 240.390625 218.796875 241.289062 218.246094 240.964844 217.226562 C 241.03125 216.511719 237.675781 213.378906 239.539062 213.746094 C 240.40625 213.941406 241.421875 214.457031 242.367188 214.449219 C 243.132812 214.433594 243.402344 213.773438 243.511719 213.097656 C 243.628906 212.355469 243.734375 211.785156 244.070312 212.152344 C 245.019531 213.265625 245.53125 216.050781 247.28125 215.992188 L 247.449219 215.933594 C 248.84375 215.117188 250.328125 211.726562 251.796875 210.828125 C 253.609375 209.398438 253.066406 211.34375 252.097656 213.339844 C 251.523438 214.597656 250.652344 216.21875 252.257812 216.710938 C 252.539062 216.851562 253.097656 216.917969 253.023438 217.261719 C 251.214844 218.761719 248.433594 218.027344 251.363281 221.234375 C 252.324219 222.410156 253.390625 223.988281 251.765625 223.554688 C 250.953125 223.34375 250.070312 222.703125 249.234375 222.601562 C 248.234375 222.492188 250.019531 226.257812 249.027344 226.148438 C 247.03125 225.433594 247.332031 222.359375 245.019531 225.265625 C 240.429688 230.957031 244.179688 223.671875 244.71875 220.992188 C 245.414062 218.371094 240.429688 221.402344 239.164062 220.859375 C 238.476562 220.683594 238.894531 220.164062 239.5625 219.566406 Z M 119.09375 131.335938 L 119.019531 131.453125 C 118.667969 131.9375 117.347656 132.453125 116.546875 132.703125 C 103.578125 136.800781 93.773438 147.46875 84.242188 156.347656 C 82.75 157.375 81.671875 156.863281 82.707031 155.246094 C 92.4375 144.855469 103.8125 133.707031 118.058594 130.699219 C 118.886719 130.699219 119.3125 130.96875 119.09375 131.335938 Z M 126.210938 183.378906 C 129.96875 169.148438 133.597656 154.492188 133.390625 139.65625 L 133.429688 139.53125 C 138.839844 141.03125 130.960938 179.355469 126.761719 184.195312 C 126.195312 184.871094 126.003906 184.546875 126.222656 183.378906 Z M 125.628906 138.277344 L 125.679688 138.171875 C 130.761719 141.425781 120.171875 178.554688 114.144531 181.742188 C 113.394531 182.125 113.320312 181.667969 113.703125 180.707031 C 120.570312 167.996094 124.277344 152.707031 125.628906 138.269531 Z M 149.246094 204.152344 C 149.03125 202.539062 150.238281 203.222656 150.808594 204.042969 C 151.816406 205.277344 152.367188 207.296875 153.035156 207.765625 L 153.175781 207.847656 C 155.246094 208.464844 158.160156 201.929688 160.671875 201.261719 C 161.039062 202.039062 159.4375 204.167969 158.902344 205.308594 C 158.277344 206.835938 156.339844 208.90625 156.664062 210.417969 C 157.273438 211.378906 162.191406 210.199219 164.125 211.226562 C 164.453125 211.378906 164.871094 211.660156 164.570312 211.988281 C 162.859375 213.230469 157.359375 212.152344 155.839844 213.597656 C 155.40625 214.207031 156.105469 215.34375 155.699219 215.835938 C 155.136719 215.710938 154.402344 214.875 153.738281 214.734375 C 153.136719 214.523438 152.550781 214.808594 152.074219 215.191406 C 150.957031 216.203125 149.339844 218.097656 148.953125 217.671875 C 148.335938 216.445312 151.566406 213.273438 149.746094 212.304688 C 149.011719 211.761719 147.269531 211.753906 146.960938 210.859375 C 147.535156 210.242188 149.253906 210.476562 150.082031 210.101562 C 152.324219 209.15625 149.371094 206.160156 149.253906 204.152344 Z M 355.933594 231.925781 C 355.675781 230.40625 353.65625 229.5625 352.769531 228.417969 C 352.210938 227.792969 351.863281 227.21875 352.652344 227.285156 C 354.414062 227.527344 357.136719 230.472656 358.113281 229.347656 C 359.429688 227.828125 358.65625 224.503906 359.78125 223.0625 L 359.875 223.0625 C 360.332031 223.261719 360.617188 224.003906 361.050781 224.3125 C 361.609375 224.839844 362.445312 224.53125 363.054688 224.054688 C 365.023438 222.601562 363.019531 226.425781 363.613281 227.074219 C 363.960938 227.535156 364.789062 227.199219 365.265625 227.402344 C 365.738281 227.726562 365.28125 228.195312 365.003906 228.585938 C 362.636719 231.214844 359.832031 231.539062 363.21875 234.996094 C 363.5625 235.503906 362.878906 235.347656 361.976562 235.210938 C 358.328125 234.59375 360.273438 240.152344 358.261719 241.53125 C 357.644531 241.273438 357.851562 240.253906 357.777344 239.652344 C 357.8125 237.589844 357.328125 236.589844 356.375 236.222656 C 355.109375 235.78125 353.847656 236.875 352.613281 237.273438 C 352.144531 237.433594 351.835938 237.433594 351.769531 237.273438 C 351.886719 235.570312 355.742188 233.777344 355.925781 231.949219 Z M 87.046875 67.339844 C 96.433594 79.300781 104.515625 93.085938 116.625 102.652344 L 116.640625 102.691406 C 104.941406 97.828125 91.460938 79.132812 86.480469 67.65625 C 85.996094 66.449219 86.195312 66.324219 87.054688 67.332031 Z M 145.757812 89.238281 L 145.699219 89.15625 C 146.875 76.195312 156 59.863281 167.222656 53.421875 C 168.5 52.769531 168.40625 53.363281 167.648438 54.472656 C 158.667969 66.28125 152.917969 70.296875 147.753906 85.585938 C 147.335938 86.820312 146.984375 88.105469 146.308594 89.023438 C 146.082031 89.230469 146.035156 89.40625 145.765625 89.238281 Z M 118.375 97.027344 C 118.507812 98.3125 118.074219 98.527344 117.449219 97.242188 C 112.792969 82.839844 105.699219 67.941406 95.757812 56.5 L 95.757812 56.441406 C 106.667969 61.332031 116.171875 85.632812 118.375 97.027344 Z M 254.609375 107.808594 L 254.726562 107.707031 C 255.394531 106.789062 255.402344 105.511719 255.902344 104.4375 C 257.082031 101.699219 257.40625 104.3125 257.546875 105.589844 C 257.640625 105.972656 257.6875 106.632812 258.199219 106.625 C 258.773438 106.488281 260.175781 105.203125 260.433594 105.746094 C 260.609375 106.457031 260.226562 106.992188 259.96875 107.675781 C 259.46875 108.851562 258.917969 109.542969 259.824219 110.597656 C 260.25 111.070312 261.3125 111.613281 261.410156 112.140625 C 261.511719 112.707031 260.46875 112.808594 260.027344 112.984375 C 259.359375 113.183594 259.074219 113.734375 259.25 114.445312 C 259.332031 115.160156 259.949219 115.945312 259.757812 116.671875 C 259.410156 117.214844 256.761719 115.003906 255.644531 115.410156 C 254.976562 115.546875 254.578125 116.363281 254.160156 117.148438 C 253.71875 118.039062 253.300781 118.40625 253.167969 117.730469 C 252.875 115.953125 253.941406 113.382812 251.019531 115.277344 C 250.269531 115.679688 249.5625 115.871094 249.4375 115.570312 C 249.367188 114.484375 251.0625 113.332031 251.789062 112.550781 C 252.207031 112.125 252.589844 111.65625 252.375 111.089844 C 252.015625 110.1875 249.386719 109.410156 248.402344 108.542969 C 248.074219 108.285156 247.800781 107.910156 248.25 107.675781 C 248.703125 107.457031 249.386719 107.398438 249.851562 107.125 C 250.429688 106.832031 250.527344 106.074219 250.511719 105.488281 C 250.511719 103.300781 253.507812 108.761719 254.609375 107.808594 Z M 299.300781 144.054688 C 286.113281 139.980469 272.863281 133.898438 259.140625 139.136719 C 258.074219 139.398438 257.222656 139.328125 257.78125 138.527344 C 268.613281 130.824219 289.320312 136.242188 299.335938 144.027344 Z M 151.441406 36.078125 C 151.484375 36.136719 151.457031 36.296875 151.359375 36.570312 C 149.773438 40.636719 145.230469 50.089844 143.378906 55.414062 C 141.734375 59.847656 140.859375 76.847656 138.105469 76.945312 L 138.070312 76.847656 C 139.566406 63.367188 141.183594 45.214844 151.441406 36.078125 Z M 146.71875 142.992188 C 153.769531 150.011719 159.761719 172.101562 159.203125 182.917969 C 158.886719 183.738281 158.375 183.335938 158.109375 182.292969 C 156.566406 168.707031 151.058594 155.886719 146.699219 143.050781 L 146.726562 143.003906 Z M 245.53125 72.421875 C 244.21875 71.5625 243.402344 69.753906 242.332031 68.21875 C 240.097656 64.460938 238.613281 67.726562 236.84375 69.484375 C 233.9375 71.832031 237.808594 65.414062 237.433594 64.5625 C 237.125 62.875 234.546875 63.269531 233.246094 62.660156 C 232.269531 62.359375 231.710938 62 232.027344 61.742188 C 233.152344 61.015625 235.480469 61.699219 236.457031 60.796875 L 236.535156 60.664062 C 236.902344 59.636719 233.703125 56.773438 233.480469 54.753906 C 233.386719 54.261719 233.480469 53.613281 234.089844 53.730469 C 236.324219 54.347656 237.617188 59.863281 240.0625 59.804688 C 241.707031 59.230469 242.359375 56.875 243.761719 55.941406 C 244.445312 55.429688 244.988281 55.28125 245.179688 55.882812 C 245.636719 57.042969 242.359375 60.722656 243.527344 61.789062 C 244.09375 62.5 245.746094 62.492188 246.03125 63.359375 C 245.914062 63.828125 245.085938 64.152344 244.601562 64.429688 C 242.582031 65.238281 243.019531 66.472656 244.386719 68.476562 C 245.105469 69.484375 247.097656 72.796875 245.539062 72.398438 Z M 375.957031 139.65625 C 376.789062 138.578125 378.734375 137.878906 378.824219 136.449219 C 378.585938 134.855469 375.921875 132.863281 375.753906 131.886719 C 375.722656 131.191406 376.816406 131.835938 378.007812 132.4375 C 379.25 133.121094 380.328125 133.761719 380.6875 133.363281 C 381.464844 132.136719 380.570312 128.972656 381.210938 127.855469 L 381.289062 127.871094 C 381.53125 128.023438 382.039062 128.941406 382.554688 129.199219 C 383.347656 129.632812 384.449219 128.941406 384.953125 129.898438 C 387.9375 133.996094 382.082031 134.371094 384.828125 138.628906 C 385.152344 139.296875 385.3125 139.898438 384.292969 139.65625 C 383.707031 139.554688 383.039062 139.5625 382.824219 140.140625 C 382.722656 140.433594 382.671875 140.800781 382.648438 141.109375 C 382.664062 142.441406 382.371094 144.371094 381.914062 144.761719 C 381.222656 145.4375 381.210938 141.890625 380.902344 141.5 C 380.753906 141.257812 380.519531 141.375 380.238281 141.726562 C 379.871094 142.191406 379.417969 142.820312 378.953125 143.210938 C 377.28125 144.722656 377.582031 142.234375 377.917969 141.25 C 378.308594 139.847656 377.183594 140.464844 376.3125 140.847656 C 374.5625 141.589844 375.195312 140.375 375.957031 139.65625 Z M 287.484375 208.464844 C 282.074219 199.519531 298.367188 178.53125 306.8125 174.039062 C 307.703125 173.597656 307.769531 173.839844 307.027344 174.671875 C 297.664062 183.996094 289.160156 195.136719 287.542969 208.40625 L 287.476562 208.464844 Z M 75.671875 127.953125 C 74.726562 128.082031 72.558594 127.546875 72.84375 126.5625 L 72.910156 126.445312 C 73.226562 125.953125 74.394531 125.875 75.105469 125.851562 C 86.09375 125.210938 97.003906 123.191406 107.578125 120.144531 C 108.304688 119.925781 109.921875 119.476562 110.28125 119.992188 C 110.214844 120.804688 109.171875 121.152344 108.488281 121.519531 C 98.1875 125.96875 86.671875 126.929688 75.664062 127.964844 Z M 124.84375 191.816406 C 127.507812 192.660156 128.324219 197.296875 126.605469 199.191406 L 126.429688 199.351562 C 124.917969 200.402344 122.675781 201.097656 120.988281 200.4375 C 118.058594 199.402344 116.855469 195.269531 118.984375 192.976562 C 120.386719 191.515625 122.816406 191.296875 124.851562 191.816406 Z M 336.019531 118.449219 C 330.039062 125.007812 327.140625 133.648438 323.796875 141.640625 C 323.503906 142.359375 323.144531 143.078125 322.660156 143.5625 C 322.425781 143.71875 322.359375 143.886719 322.109375 143.6875 L 322.058594 143.59375 C 321.867188 143.167969 322.132812 142.066406 322.367188 141.441406 C 326.058594 130.726562 331.824219 113.984375 343.132812 110.53125 C 343.414062 110.761719 343.046875 111.5625 342.332031 112.449219 C 340.535156 114.652344 337.925781 116.355469 336.03125 118.449219 Z M 315.933594 183.011719 C 316.324219 181.910156 316.574219 181.910156 316.617188 183.09375 C 316.617188 194.5625 316.285156 207.523438 321.339844 218.222656 C 321.917969 219.140625 322.308594 221.023438 320.691406 220.199219 L 320.515625 220.082031 C 320.105469 219.78125 319.746094 219.28125 319.480469 218.6875 C 315.382812 207.871094 312.21875 194.21875 315.925781 183.011719 Z M 278.042969 197.214844 C 279.472656 186.140625 287.5 171.761719 298.191406 167.578125 C 299.34375 167.28125 299.585938 167.898438 298.625 168.773438 C 288.644531 174.855469 283.410156 187.101562 278.078125 197.222656 L 278.035156 197.222656 Z M 327.632812 151.816406 C 330.371094 145.179688 354.421875 134.40625 360.734375 138.378906 C 360.734375 138.894531 359.105469 139.0625 358.4375 139.214844 C 345.8125 140.964844 339.085938 145.472656 327.742188 151.796875 Z M 309.375 145.347656 C 308.921875 145.546875 308.398438 144.328125 308.113281 143.828125 C 303.441406 134.164062 295.5625 124.71875 286.933594 118 L 286.90625 117.921875 C 294.132812 118.273438 311.386719 138.554688 309.382812 145.347656 Z M 186.199219 195.988281 L 186.5 196.097656 C 191.660156 198.292969 188.746094 206.171875 182.914062 204.21875 C 176.503906 202.339844 180.515625 194.070312 186.199219 195.988281 Z M 87.070312 168.347656 L 87.355469 168.429688 C 91.613281 170.140625 89.96875 177.253906 85.234375 176.84375 C 78.140625 176.601562 79.976562 166.136719 87.070312 168.347656 Z M 364.078125 183.804688 C 361.824219 182.820312 359.914062 180.792969 357.738281 179.714844 C 351.535156 176.527344 343.984375 174.617188 336.796875 174.046875 C 336.046875 173.949219 333.199219 173.855469 333.660156 172.835938 L 333.769531 172.753906 C 344.359375 171.660156 357.679688 175.339844 365.414062 182.667969 C 366.347656 183.871094 365.449219 184.347656 364.078125 183.796875 Z M 183.738281 165.078125 C 184.339844 166.8125 183.128906 166.269531 182.011719 165.066406 C 179.316406 162.15625 176.636719 156.332031 173.75 153.441406 C 170.761719 150.269531 161.789062 141.691406 157.816406 137.167969 L 157.890625 137.203125 C 167.613281 142.917969 178.914062 154.792969 183.738281 165.085938 Z M 198.226562 26.214844 L 198.503906 26.230469 C 201.457031 26.882812 202.007812 31.328125 200.320312 33.507812 C 193.027344 40.992188 189.65625 26.238281 198.226562 26.207031 Z M 361.585938 131.910156 L 361.367188 132.109375 C 358.304688 134.90625 352.402344 132.972656 354.046875 128.289062 C 356.644531 121.144531 366.839844 127.179688 361.585938 131.910156 Z M 220.96875 118.15625 L 221.1875 118.222656 C 224.492188 119.710938 223.929688 124.910156 220.335938 125.828125 C 212.539062 128.496094 212.324219 115.96875 220.96875 118.148438 Z M 289.203125 224.128906 C 284.769531 223.4375 284.136719 214.15625 289.527344 215.074219 L 289.8125 215.132812 C 295.335938 216.335938 294.792969 224.972656 289.203125 224.128906 Z M 332.492188 183.511719 C 331.53125 181.625 332.03125 181.582031 333.375 182.925781 C 340.496094 189.863281 351.253906 197.625 353.171875 207.398438 L 353.121094 207.503906 C 352.964844 207.765625 352.527344 207.582031 351.960938 206.996094 C 350.25 205.167969 349.15625 202.40625 347.597656 200.394531 C 343.039062 194.175781 335.621094 189.753906 332.492188 183.511719 Z M 198.804688 150.628906 C 198.109375 150.570312 197.101562 149.453125 196.53125 148.734375 C 189.621094 139.671875 178.039062 136.5 171.488281 128.253906 L 171.4375 128.15625 C 173.339844 126.894531 204.609375 150.011719 198.8125 150.628906 Z M 60.933594 117.457031 L 61.199219 117.515625 C 65.507812 118.558594 65.957031 126.011719 60.683594 125.910156 C 54.648438 126.328125 55.050781 116.386719 60.933594 117.464844 Z M 364.003906 169.648438 C 362.136719 168.78125 359.914062 167.003906 357.828125 166.277344 C 351.542969 163.792969 341.203125 164.007812 334.277344 164.058594 C 333.667969 164.082031 332.199219 163.664062 332.707031 163.03125 L 332.816406 162.929688 C 333.242188 162.574219 334.234375 162.464844 334.917969 162.480469 C 345.183594 162.507812 356.410156 161.238281 365.246094 167.714844 C 366.398438 169.007812 365.664062 170.425781 363.996094 169.65625 Z M 208.835938 155.585938 L 209.09375 155.671875 C 212.613281 157.273438 211.320312 163.597656 207.414062 163.933594 C 201.214844 164.675781 202.15625 153.308594 208.835938 155.585938 Z M 255.621094 180.375 L 255.828125 180.433594 C 260.085938 182.261719 258.539062 190.246094 253.191406 188.710938 C 247.589844 187.652344 251.539062 179.679688 255.628906 180.382812 Z M 268.40625 163.574219 C 268.246094 162.890625 268.5625 162.691406 269.015625 162.246094 C 273.980469 158.683594 282.886719 157.832031 289.085938 158.214844 C 290.539062 158.476562 296.164062 156.253906 295.886719 158.625 L 295.789062 158.75 C 295.394531 159.152344 294.5 159.269531 293.867188 159.335938 C 286.054688 160.167969 278.292969 159.867188 270.984375 163.464844 C 270.257812 163.832031 268.765625 164.300781 268.40625 163.566406 Z M 267.328125 149.679688 L 267.34375 149.59375 C 272.570312 143.578125 286.757812 147.785156 294.425781 150.570312 C 295.488281 151.046875 294.578125 151.324219 293.941406 151.371094 C 290.105469 151.757812 284.789062 148.953125 280.371094 148.644531 C 276.792969 148.578125 271.777344 149.511719 268.496094 149.761719 C 267.722656 149.855469 267.3125 149.871094 267.320312 149.679688 Z M 336.121094 209.699219 C 330.328125 206.886719 320.597656 189.597656 322.066406 183.8125 L 322.191406 183.71875 C 323.144531 183.1875 324.035156 184.554688 324.046875 185.566406 C 324.804688 193.894531 330.855469 201.496094 335.878906 208.273438 C 336.1875 208.699219 337.257812 210.132812 336.121094 209.699219 Z M 365.296875 148.285156 C 360.65625 147.308594 363.695312 139.855469 367.441406 140.113281 L 367.691406 140.140625 C 373.167969 141.148438 370.386719 149.535156 365.304688 148.285156 Z M 76.546875 195.253906 L 76.789062 195.320312 C 80.796875 196.78125 77.824219 205.011719 72.601562 202.816406 C 68.234375 200.863281 72.726562 194.035156 76.546875 195.253906 Z M 50.300781 76.578125 C 46.960938 79.441406 40.820312 74.394531 44.007812 70.953125 L 44.199219 70.738281 C 47.6875 66.738281 53.070312 72.191406 50.300781 76.585938 Z M 64.855469 151.765625 C 65.347656 153.433594 63.9375 155.445312 62.460938 156.230469 C 58.828125 158.109375 54.582031 153.140625 57.386719 150.179688 L 57.554688 150.011719 C 59.496094 148.328125 64.011719 149.179688 64.863281 151.765625 Z M 206.289062 73.257812 C 207.355469 73.601562 207.222656 74.382812 206.070312 74.636719 C 197.585938 74.652344 188.371094 76.394531 180.71875 80.460938 C 180.25 80.683594 179.507812 81.128906 179.132812 81.121094 L 179.058594 81.09375 C 182.035156 74.859375 199.386719 72.03125 206.289062 73.25 Z M 218.789062 139.386719 C 218.757812 137.886719 222.585938 134.632812 225.117188 136.316406 C 229.816406 140.171875 224.414062 146.066406 220.351562 142.792969 L 220.210938 142.636719 C 219.707031 141.882812 219.117188 140.316406 218.789062 139.386719 Z M 312.277344 140.625 C 309.949219 131.460938 309.566406 121.621094 305.199219 113.132812 L 305.21875 113.023438 C 311.675781 113.808594 312.621094 134.140625 312.660156 140.5 C 312.652344 141.214844 312.5625 141.523438 312.277344 140.617188 Z M 329.195312 217.210938 L 329.46875 217.269531 C 334.792969 218.445312 332.691406 226.515625 326.976562 224.671875 C 322.800781 223.3125 325.230469 216.445312 329.203125 217.210938 Z M 306.527344 94.679688 C 304.441406 94.699219 305.351562 95.574219 306.21875 96.71875 C 306.871094 97.617188 307.488281 99.347656 305.902344 98.804688 C 305.257812 98.5625 304.726562 98.167969 304.097656 98.371094 C 303.523438 98.777344 303.148438 98.929688 302.464844 98.496094 C 301.613281 97.996094 300.695312 99.128906 300.042969 99.480469 C 299.449219 99.855469 299.402344 99.289062 299.484375 98.878906 C 299.632812 97.742188 300.945312 96.390625 301.054688 95.375 C 301.085938 94.773438 300.484375 94.378906 300.035156 93.8125 C 299.492188 93.011719 298.890625 90.84375 300.550781 91.109375 C 301.128906 91.175781 301.78125 91.425781 302.0625 91.269531 L 302.195312 91.167969 C 302.613281 90.832031 302.054688 87.828125 302.949219 89.539062 C 303.28125 90.183594 303.617188 91 304.066406 91.125 C 305.09375 91.507812 307.363281 88.839844 306.5625 91.820312 C 306.417969 92.585938 306.71875 93.304688 307.128906 93.921875 C 307.429688 94.390625 307.21875 94.664062 306.519531 94.679688 Z M 271.785156 176.726562 L 271.710938 176.625 C 274.082031 169.28125 288.152344 165.492188 295.019531 165.628906 C 295.121094 165.835938 294.351562 166.261719 294.085938 166.421875 C 289.277344 169.015625 282.308594 169.023438 277.683594 172.679688 C 275.90625 173.78125 273.996094 177.210938 271.785156 176.734375 Z M 126.113281 74.902344 C 125.042969 72.289062 123.550781 65.636719 122.332031 61.632812 C 121.207031 57.125 119.027344 50.457031 118.308594 46.617188 C 122.773438 50.484375 128.125 69.910156 126.144531 74.867188 Z M 318.527344 138.546875 C 318.253906 140.023438 318.855469 142.835938 317.300781 143.511719 L 317.203125 143.46875 C 317.042969 143.359375 316.960938 143.042969 316.941406 142.601562 C 316.992188 135.015625 318.136719 124.390625 324.019531 119.402344 C 324.429688 119.050781 325.164062 118.566406 325.597656 118.832031 C 326.082031 119.117188 325.640625 120.019531 325.449219 120.445312 C 321.140625 126.136719 319.480469 131.484375 318.527344 138.539062 Z M 111.105469 139.570312 C 108.011719 147.03125 98.972656 152.53125 95.699219 159.992188 C 95.375 160.738281 94.28125 162.054688 93.605469 161.4375 L 93.523438 161.3125 C 93.3125 160.96875 93.546875 160.253906 93.738281 159.835938 C 97.3125 152.316406 104.679688 145.046875 111.097656 139.582031 Z M 154.363281 150.011719 C 161.75 153.476562 165.035156 169.289062 166.304688 177.261719 C 166.078125 177.980469 165.503906 177.585938 165.210938 176.761719 C 162.867188 167.222656 159.246094 158.515625 154.328125 150.070312 Z M 253.566406 123.765625 C 256.136719 124.039062 258.015625 128.738281 256.085938 130.601562 L 255.871094 130.792969 C 250.363281 135.558594 246.707031 124.109375 253.566406 123.757812 Z M 184.875 16.882812 C 178.730469 17.21875 181.050781 8.011719 186.894531 9.871094 L 187.175781 9.957031 C 190.882812 11.433594 188.277344 16.941406 184.882812 16.882812 Z M 136.652344 30.378906 L 136.921875 30.460938 C 140.25 31.78125 138.964844 37.164062 135.710938 37.847656 C 130.078125 39.292969 130.878906 28.640625 136.660156 30.378906 Z M 278.585938 112.265625 C 273.570312 111.003906 275.097656 104.695312 279.65625 103.988281 L 279.90625 104.027344 C 283.535156 106.023438 283 112.105469 278.585938 112.265625 Z M 179.207031 108.292969 L 178.957031 108.25 C 172.949219 107.910156 166.230469 107.84375 160.296875 108.636719 C 159.960938 108.617188 159.636719 108.519531 159.429688 108.359375 C 158.910156 108.015625 159.269531 107.417969 159.988281 107.332031 C 163.441406 106.875 167.664062 106.082031 171.671875 105.824219 C 175.777344 105.5625 179.875 105.964844 182.804688 108.058594 C 184.589844 109.902344 179.851562 108.425781 179.207031 108.292969 Z M 185.691406 61.398438 C 181.726562 63.433594 177.328125 66.148438 174.777344 68.925781 C 172.28125 71.253906 169.617188 74.015625 166.496094 75.511719 L 166.414062 75.511719 C 169.394531 70.035156 178.457031 61.171875 185.234375 59.953125 C 186.277344 59.878906 186.601562 60.664062 185.691406 61.398438 Z M 209.300781 97.511719 C 207.640625 97.402344 200.054688 95.75 196.78125 95.414062 C 194.921875 95.464844 189.0625 96.191406 187.585938 96.050781 L 187.585938 96 C 189.980469 92.828125 209.953125 92.570312 209.292969 97.511719 Z M 315.367188 224.949219 L 315.566406 225.148438 C 318.152344 227.695312 314.898438 233.234375 311.433594 231.515625 C 307.246094 229.222656 311.675781 221.316406 315.359375 224.9375 Z M 244.769531 151.128906 L 244.59375 151.296875 C 241.742188 153.992188 238.203125 149.3125 239.453125 146.367188 C 239.855469 144.980469 242.125 143.753906 243.667969 144.347656 C 246.082031 145.3125 246.28125 149.417969 244.769531 151.128906 Z M 301.363281 199.644531 C 299.324219 195.027344 307.769531 181.214844 312.6875 179.582031 L 312.738281 179.597656 C 312.109375 180.941406 307.761719 186.398438 307.027344 187.703125 C 305.652344 190.871094 302.738281 198.109375 301.921875 199.917969 C 301.703125 200.277344 301.546875 200.027344 301.371094 199.652344 Z M 351.460938 107.433594 C 348.089844 110.738281 342.929688 104.019531 346.761719 101.425781 C 350 99.222656 354.082031 104.511719 351.652344 107.242188 L 351.46875 107.433594 Z M 206.613281 50.65625 C 202.773438 49.589844 204.726562 43.605469 208.226562 43.890625 L 208.492188 43.921875 C 213.300781 44.507812 211.996094 52.328125 206.613281 50.667969 Z M 373.066406 198.800781 L 373.316406 198.875 C 378.042969 200.902344 373.234375 207.113281 369.378906 204.492188 C 368.8125 204.285156 367.917969 203.339844 367.910156 202.457031 C 367.449219 199.652344 370.730469 198.074219 373.066406 198.800781 Z M 40.078125 145.421875 C 35.261719 144.730469 36.332031 136.960938 41.238281 137.910156 L 41.460938 137.988281 C 44.492188 139.222656 43.125 145.105469 40.078125 145.421875 Z M 101.851562 75.601562 L 101.902344 75.578125 C 103.328125 75.328125 111.917969 92.652344 113.144531 95.382812 C 109.503906 92.902344 101.550781 78.859375 101.851562 75.601562 Z M 339.894531 132.828125 C 338.925781 133.929688 337.355469 134.398438 336.230469 135.339844 C 332.601562 138.269531 329.828125 142.519531 326.367188 145.53125 L 326.273438 145.53125 C 326.140625 141.222656 336.148438 131.316406 339.859375 131.285156 C 340.613281 131.394531 340.402344 132.1875 339.894531 132.828125 Z M 218.449219 75.328125 C 213.773438 74.710938 214.066406 67.214844 219.507812 68.609375 L 219.765625 68.683594 C 223.113281 69.777344 221.445312 75.101562 218.457031 75.320312 Z M 318.921875 109.535156 C 316.382812 112.171875 310.683594 107.976562 313.847656 105.15625 C 314.53125 104.628906 315.234375 104.246094 316.351562 104.042969 C 319.699219 103.445312 321 107.324219 319.105469 109.359375 Z M 333.410156 158.257812 C 335.394531 156.039062 338.777344 154.621094 342.03125 153.550781 C 343.265625 153.050781 355.851562 150.164062 351.679688 153.808594 C 351.027344 154.152344 350.117188 154.195312 349.332031 154.210938 C 343.566406 154.011719 338.882812 157.664062 333.449219 158.324219 L 333.410156 158.265625 Z M 168.417969 33.582031 C 163.585938 31.761719 166.171875 26.03125 170.644531 27.574219 L 170.929688 27.664062 C 174.507812 28.992188 171.597656 34.59375 168.425781 33.582031 Z M 296.027344 136.734375 C 291.589844 134.121094 289.226562 129.40625 283.703125 127.472656 C 282.953125 127.195312 281.917969 126.910156 282.335938 125.945312 L 282.449219 125.84375 C 287.792969 126.09375 295.488281 131.511719 297.121094 136.449219 C 297.414062 137.425781 296.480469 137.011719 296.019531 136.742188 Z M 79.367188 91.292969 L 79.34375 91.191406 C 79.335938 91.074219 79.417969 91.042969 79.570312 91.058594 C 82.523438 91.683594 96.984375 100.015625 98.464844 103.050781 C 98.304688 103.242188 97.46875 102.59375 97.128906 102.402344 C 91.402344 98.601562 82.847656 96.742188 79.359375 91.292969 Z M 340.394531 201.523438 C 338.933594 199.492188 329.027344 186.523438 328.460938 185.246094 L 328.558594 185.246094 C 334.550781 186.714844 338.660156 195.90625 340.394531 201.523438 Z M 218.632812 98.730469 L 218.464844 98.894531 C 215.503906 101.457031 210.179688 96.875 214.023438 93.996094 C 216.996094 91.335938 221.175781 96.015625 218.632812 98.730469 Z M 109.90625 204.449219 L 110.097656 204.527344 C 113.367188 206.085938 110.363281 211.921875 107.152344 210.617188 C 103.929688 208.964844 104.890625 202.664062 109.90625 204.449219 Z M 111.851562 168.363281 L 111.800781 168.257812 C 112.074219 161.996094 114.003906 154.269531 118.125 149.363281 C 116.347656 153.667969 114.886719 167.996094 111.851562 168.363281 Z M 99.757812 112.640625 C 99.90625 113.023438 99.691406 113.082031 99.28125 112.957031 C 95.359375 111.097656 83.890625 110.21875 82.808594 106.800781 L 82.832031 106.722656 C 85.117188 106.25 98.445312 109.753906 99.757812 112.640625 Z M 310.933594 189.703125 C 312.402344 192.824219 309.964844 197.859375 309.933594 201.394531 C 309.441406 202.671875 310.992188 209.691406 308.765625 208.867188 L 308.664062 208.742188 C 308.421875 203.675781 307.929688 194.429688 310.441406 190.0625 C 310.617188 189.804688 310.785156 189.671875 310.925781 189.710938 Z M 348.339844 147.84375 C 344.292969 148.234375 340.796875 150.648438 336.890625 151.238281 L 336.824219 151.1875 C 338.917969 148.101562 345.367188 145.882812 349.574219 145.65625 C 351.203125 145.4375 355.867188 146.265625 352.710938 147.609375 C 351.308594 148.027344 349.773438 147.675781 348.339844 147.84375 Z M 99.246094 218.589844 L 99.457031 218.648438 C 102.644531 219.625 101.359375 225.207031 98.214844 225.023438 C 96.6875 224.773438 95.082031 222.945312 95.316406 221.367188 C 95.535156 219.632812 97.605469 218.230469 99.246094 218.589844 Z M 360.449219 117.332031 L 360.296875 117.15625 C 359.429688 114.292969 361.148438 110.386719 364.453125 112.105469 C 367.527344 115.320312 364.128906 119.132812 360.449219 117.332031 Z M 296.261719 149.628906 C 291.890625 145.988281 285.273438 146.75 280.957031 143.621094 L 280.980469 143.542969 C 286.171875 143.011719 293.109375 144.671875 296.980469 148.367188 C 297.414062 148.9375 297.148438 149.960938 296.269531 149.628906 Z M 277.484375 128.5625 C 274.921875 133.414062 270.140625 129.625 272.519531 125.359375 L 272.679688 125.234375 C 274.988281 124.734375 278.921875 125.433594 277.476562 128.554688 Z M 289.511719 187.441406 L 289.4375 187.34375 C 290.054688 184.871094 291.824219 181.710938 293.46875 178.621094 C 294.945312 176.152344 296.972656 173.246094 299.652344 172.605469 C 300.183594 172.539062 300.058594 172.871094 299.757812 173.28125 C 296.605469 177.269531 292.78125 182.535156 290.460938 187.226562 C 290.136719 187.417969 289.988281 187.667969 289.511719 187.441406 Z M 325.964844 209.308594 L 325.804688 209.222656 C 324.664062 205.703125 321.875 201.003906 320.925781 197.015625 C 320.691406 195.804688 320.664062 193.402344 321.734375 193.109375 C 322.382812 193.683594 323.226562 197.097656 324.164062 200.570312 C 324.914062 203.472656 325.714844 206.386719 326.824219 208.890625 C 326.824219 209.207031 326.339844 209.464844 325.957031 209.308594 Z M 48.992188 48.097656 L 49.097656 48.097656 C 49.523438 48.605469 51.503906 50.667969 51.695312 51.285156 C 51.496094 51.84375 51.351562 51.96875 51.101562 52.34375 C 47.480469 56.808594 42.816406 49.070312 48.980469 48.097656 Z M 352.421875 188.59375 C 349.941406 186.757812 346.554688 185.664062 344.667969 183.292969 L 344.691406 183.226562 C 349.007812 184.003906 355.742188 187.191406 357.371094 191.046875 C 357.59375 191.941406 356.558594 191.839844 355.84375 191.515625 C 354.472656 190.871094 353.648438 189.453125 352.421875 188.601562 Z M 275.957031 166.835938 L 275.957031 166.769531 C 278.605469 163.839844 286.132812 161.179688 289.761719 162.664062 C 290.113281 162.824219 290.269531 162.988281 289.871094 163.15625 C 286.882812 164 278.914062 166.738281 275.957031 166.835938 Z M 119.011719 13.621094 C 114.988281 16.007812 113.226562 6.625 119.109375 8.429688 L 119.285156 8.496094 C 121.105469 9.371094 120.578125 12.636719 119.003906 13.621094 Z M 84.152344 56.300781 L 83.984375 56.464844 C 80.226562 59.496094 78.351562 51.835938 82.164062 50.882812 C 84.902344 50.648438 85.785156 54.648438 84.160156 56.300781 Z M 359.515625 160.253906 C 359.496094 160.378906 359.371094 160.417969 359.15625 160.386719 C 354.691406 158.660156 348.546875 160.761719 345.359375 157.765625 L 345.375 157.671875 C 348.847656 157.074219 357.738281 155.746094 359.515625 160.246094 Z M 373.984375 168.347656 C 369.019531 169.046875 369.460938 162.28125 373.75 163.398438 L 373.992188 163.472656 C 376.113281 164.132812 376.773438 168.097656 373.992188 168.347656 Z M 308.03125 132.042969 C 303.714844 129.964844 301.730469 123.558594 297.957031 120.226562 L 297.957031 120.160156 C 301.914062 120.695312 306.570312 128.070312 308.507812 131.742188 C 308.699219 132.210938 308.4375 132.226562 308.03125 132.042969 Z M 282.527344 87.027344 C 280.964844 86.917969 279.578125 83.324219 280.875 82.414062 C 281.96875 81.652344 283.851562 81.886719 285.046875 82.0625 L 285.222656 82.203125 C 286.363281 84.097656 284.988281 87.4375 282.535156 87.027344 Z M 318.296875 115.503906 C 316.777344 118.742188 317.078125 127.480469 314.496094 127.953125 C 314.304688 128.003906 314.1875 127.980469 314.148438 127.878906 C 314.707031 124.417969 315.632812 118.105469 316.449219 114.542969 L 316.558594 114.542969 C 317.027344 114.652344 318.828125 114.578125 318.285156 115.503906 Z M 291.15625 155.835938 C 287.785156 154.621094 282.667969 155.511719 280.304688 152.875 L 280.289062 152.785156 C 281.816406 152.289062 284.828125 152.792969 287.867188 153.152344 C 289.746094 153.574219 293.015625 153.769531 293.726562 155.1875 C 293.417969 156.347656 292.140625 156.222656 291.148438 155.835938 Z M 274.011719 185.304688 L 274.253906 185.371094 C 276.882812 186.199219 276.410156 190.980469 273.519531 190.988281 C 269.984375 191.023438 270.601562 184.546875 274.011719 185.304688 Z M 233.246094 85.644531 C 235.171875 86.578125 233.863281 90.207031 232.042969 90.507812 C 228.320312 91.292969 227.703125 85.066406 231.859375 85.351562 C 232.300781 85.390625 232.445312 85.402344 233.054688 85.566406 Z M 128.632812 78.523438 C 128.964844 82.621094 127.699219 86.960938 128.074219 91.160156 C 128.15625 92.300781 127.265625 91.761719 126.820312 91.125 L 126.738281 90.976562 C 126.554688 89.039062 125.175781 77.480469 128.625 78.523438 Z M 147.894531 168.625 C 147.917969 168.949219 147.84375 169.058594 147.585938 169.074219 C 145.382812 168.421875 144.964844 158.765625 144.398438 155.652344 L 144.472656 155.605469 C 148.460938 156.863281 146.859375 165.203125 147.894531 168.625 Z M 194.78125 57.21875 L 194.996094 57.277344 C 197.160156 58.410156 196.308594 62.925781 193.402344 62.175781 C 189.273438 61.355469 191.523438 56.28125 194.78125 57.210938 Z M 343.539062 207.457031 C 346.179688 206.480469 347.339844 210.085938 346.738281 212.019531 L 346.59375 212.179688 C 343.191406 213.664062 340.109375 209.640625 343.539062 207.457031 Z M 99.382812 134.648438 C 98.078125 135.367188 96.394531 136.507812 94.949219 136.433594 L 94.898438 136.359375 C 97.238281 133.230469 101.835938 131.035156 105.742188 130.816406 C 105.992188 130.84375 106.167969 130.96875 106.207031 131.167969 C 106.292969 132.335938 104.804688 132.914062 103.820312 133.128906 C 102.21875 133.4375 100.699219 133.804688 99.375 134.648438 Z M 278.121094 181.316406 C 279.003906 178.570312 281.398438 175.773438 283.460938 173.699219 C 284.796875 172.246094 287.660156 170.527344 286.5 173.414062 C 283.269531 175.800781 280.796875 179.398438 278.21875 182.375 L 278.121094 182.394531 C 277.96875 182.34375 277.984375 181.800781 278.121094 181.316406 Z M 350.117188 169.199219 C 355.507812 172.652344 349.566406 170.492188 347.636719 169.816406 C 346.136719 169.25 344.640625 169.03125 343.015625 169.074219 C 341.796875 169.15625 340.09375 168.515625 340.3125 167.105469 L 340.410156 166.960938 C 343.472656 166.8125 347.28125 167.695312 350.117188 169.199219 Z M 295.980469 112.355469 L 295.835938 112.230469 C 295.585938 111.714844 295.261719 110.730469 295.179688 110.121094 C 295.070312 109.359375 295.503906 108.636719 296.136719 108.140625 C 297.914062 106.671875 299.550781 107.941406 299.84375 109.511719 C 300.351562 111.765625 297.882812 112.847656 295.980469 112.367188 Z M 262.355469 166.246094 L 262.539062 166.421875 C 264.976562 168.765625 261.121094 173.070312 259.089844 170.082031 C 258.824219 169.507812 258.339844 168.882812 258.464844 168.046875 C 259.03125 166.671875 260.910156 164.867188 262.355469 166.238281 Z M 70.3125 64.226562 L 70.503906 64.285156 C 72.351562 65.144531 71.691406 69.445312 69.671875 69.804688 C 66.015625 69.617188 66.925781 63.585938 70.304688 64.226562 Z M 256.429688 152.667969 L 256.238281 152.472656 C 254.242188 150.523438 256.179688 147.816406 258.5 148.476562 C 262.203125 149.84375 259.808594 155.113281 256.429688 152.667969 Z M 218.214844 41.085938 C 216.996094 41.285156 215.492188 40.058594 215.308594 38.824219 C 215.285156 38.222656 215.675781 37.398438 215.902344 36.90625 L 216.042969 36.777344 C 216.972656 36.480469 219.015625 36.628906 219.660156 37.363281 C 220.917969 38.589844 219.816406 40.851562 218.214844 41.085938 Z M 304.464844 183.789062 C 303.238281 185.230469 301.953125 186.851562 300.769531 188.078125 L 300.746094 188.035156 C 301.402344 184.980469 303.855469 179.023438 307.753906 178.9375 C 307.65625 180.207031 305.867188 181.902344 304.476562 183.789062 Z M 374.101562 187.058594 C 374.109375 187.542969 373.910156 188.328125 373.695312 188.628906 C 373.484375 188.9375 373.101562 188.695312 372.398438 188.609375 C 371.546875 188.4375 370.15625 188.277344 369.496094 188.078125 L 369.445312 187.984375 C 368.636719 183.695312 373.820312 183.246094 374.109375 187.066406 Z M 329.042969 108.183594 C 326.457031 107.050781 327.59375 102.984375 330.589844 103.960938 L 330.8125 104.027344 C 331.382812 104.226562 332.582031 105.253906 332.582031 106.082031 C 332.125 107.308594 330.15625 108.585938 329.042969 108.183594 Z M 329.027344 136.375 C 328.617188 134.082031 332.492188 126.503906 335.429688 126.636719 C 334.042969 128.765625 330.53125 134.363281 329.054688 136.433594 L 329.027344 136.367188 Z M 358.335938 195.929688 L 358.480469 195.972656 C 359.816406 196.464844 359.972656 198.652344 358.988281 199.628906 C 358.371094 200.335938 357.234375 200.320312 356.375 200.101562 C 354.03125 199.101562 355.25 194.886719 358.335938 195.929688 Z M 347.171875 133.613281 C 347.304688 133.605469 347.578125 133.589844 347.714844 133.578125 C 348.316406 133.539062 348.539062 134.53125 348.003906 134.90625 C 345.042969 135.957031 342.621094 138.6875 339.820312 139.957031 L 339.742188 139.914062 C 340.445312 136.917969 344.058594 134.128906 347.171875 133.621094 Z M 152.867188 186.339844 C 153.144531 186.832031 153.160156 187.59375 153.085938 188.195312 C 153.035156 190.214844 150.898438 190.105469 149.464844 189.539062 L 149.355469 189.429688 C 149.203125 188.484375 149.128906 187.226562 149.570312 186.398438 C 150.296875 184.871094 152.140625 184.871094 152.867188 186.339844 Z M 328.742188 188.988281 C 331.238281 191.28125 332.289062 195.597656 333.292969 198.757812 L 333.242188 198.800781 C 330.738281 196.914062 329.011719 193.191406 328.445312 190.019531 C 328.359375 189.378906 328.160156 188.675781 328.742188 188.988281 Z M 219.066406 185.863281 C 218.664062 185.832031 217.789062 185.441406 217.480469 185.257812 L 217.339844 185.097656 C 216.753906 184.3125 216.335938 183.21875 217.113281 182.453125 C 217.605469 181.910156 218.449219 181.527344 219.148438 181.199219 C 219.441406 181.023438 219.75 180.957031 220.007812 181.175781 C 221.667969 182.644531 220.785156 185.128906 219.066406 185.863281 Z M 371.925781 131.71875 C 371.964844 132.292969 371.664062 133.003906 371.566406 133.539062 L 371.464844 133.648438 C 370.523438 133.730469 369.203125 133.730469 368.519531 133.039062 C 367.335938 131.96875 368.085938 129.648438 369.539062 129.375 C 370.6875 129.183594 371.800781 130.609375 371.933594 131.71875 Z M 229.964844 199.476562 L 229.992188 199.492188 C 230.066406 199.984375 230.25 201.097656 230.339844 201.664062 C 230.414062 202.3125 230.558594 202.265625 230.164062 202.429688 C 229.464844 202.757812 227.59375 203.714844 227.554688 203.675781 C 227.292969 203.082031 226.925781 201.789062 226.695312 201.136719 C 226.558594 200.660156 226.433594 200.535156 226.601562 200.503906 C 227.011719 200.378906 229.171875 199.710938 229.964844 199.46875 Z M 178.566406 28.300781 C 175.695312 28.066406 177.203125 23.933594 179.273438 23.984375 L 179.433594 24.019531 C 181.976562 24.835938 181.59375 28.984375 178.566406 28.300781 Z M 336.3125 178.796875 C 337.597656 176.835938 340.59375 177.429688 342.714844 177.542969 C 343.964844 177.753906 344.960938 176.984375 344.757812 178.570312 C 344.691406 179.03125 344.960938 179.757812 344.457031 179.613281 C 342.28125 179.398438 338.324219 179.171875 336.261719 178.886719 L 336.304688 178.796875 Z M 222.914062 160.460938 C 221.910156 155.796875 228.773438 155.453125 226.410156 160.394531 C 226.394531 160.527344 223.5625 160.476562 222.9375 160.527344 L 222.90625 160.460938 Z M 351.210938 215.71875 L 351.386719 215.757812 C 352.855469 216.175781 354.082031 219.382812 352.054688 219.972656 C 348.789062 221.042969 348.1875 215.417969 351.21875 215.726562 Z M 257.988281 201.53125 C 259.175781 203.214844 256.511719 205.484375 254.933594 204.390625 L 254.785156 204.25 C 253.089844 202.089844 255.628906 198.710938 257.988281 201.53125 Z M 132.980469 23.359375 C 132.679688 23.367188 132.1875 23.335938 132.03125 23.269531 C 131.753906 23.050781 131.996094 20.171875 131.921875 19.738281 L 131.953125 19.71875 C 132.4375 19.789062 133.933594 19.679688 134.398438 19.878906 C 136.570312 21.382812 135.324219 23.375 132.988281 23.359375 Z M 300.117188 135.082031 C 300.4375 135.5 302.339844 138.371094 303.054688 139.53125 C 303.097656 139.671875 303.625 142.761719 303.582031 142.867188 L 303.507812 142.84375 C 301.503906 141.140625 299.867188 137.703125 300.117188 135.089844 Z M 344.652344 188.734375 C 344.652344 188.929688 344.46875 188.644531 344.148438 188.34375 C 342.738281 186.890625 340.246094 184.511719 339 183.136719 L 339.09375 183.121094 C 341.828125 183.0625 344.285156 186.242188 344.652344 188.726562 Z M 363.546875 157.949219 C 360.816406 156.414062 363.652344 154 365.78125 154.828125 L 365.933594 154.917969 C 366.976562 156.488281 365.554688 159.34375 363.546875 157.949219 Z M 303.140625 212.855469 L 303.339844 212.914062 C 304.648438 213.449219 304.683594 215.976562 303.222656 216.433594 C 299.925781 217.304688 300.175781 212.027344 303.140625 212.855469 Z M 300.859375 228.445312 L 300.769531 228.378906 C 300.769531 228.160156 300.675781 227.652344 300.511719 227.316406 C 298.015625 221.058594 308.003906 226.449219 300.859375 228.4375 Z M 346.246094 124.464844 C 346.246094 124.851562 346.246094 126.894531 346.246094 127.613281 C 346.246094 127.945312 346.285156 127.90625 345.917969 127.90625 C 345.386719 127.90625 344 127.90625 343.441406 127.90625 L 343.40625 127.796875 C 343.265625 126.554688 343.265625 124.648438 344.851562 124.375 C 345.234375 124.28125 346.210938 124.265625 346.253906 124.476562 Z M 276.101562 207.554688 C 275.53125 207.621094 274.414062 207.3125 273.90625 207.246094 L 273.878906 207.164062 C 273.839844 206.296875 274.03125 205.234375 274.613281 204.742188 C 275.507812 203.925781 277.066406 204.519531 277.300781 205.628906 C 277.484375 206.386719 276.777344 207.195312 276.109375 207.554688 Z M 240.746094 99.695312 L 240.613281 99.570312 C 240.496094 98.417969 240.449219 96.625 241.816406 96.207031 C 242.273438 96.132812 242.960938 95.925781 243.351562 96.234375 C 243.71875 96.949219 243.511719 98.210938 243.183594 98.863281 C 242.785156 99.707031 241.53125 99.820312 240.738281 99.695312 Z M 240.128906 188.183594 C 240.371094 187.960938 241.066406 188.988281 241.238281 189.085938 C 241.382812 189.226562 241.339844 189.261719 241.257812 189.546875 C 241.132812 189.996094 240.765625 191.230469 240.648438 191.664062 L 240.539062 191.699219 C 239.121094 191.957031 237.945312 190.230469 238.636719 189.09375 C 238.921875 188.929688 239.847656 188.359375 240.128906 188.195312 Z M 240.128906 188.183594 "/></g></g></svg>