<svg xmlns="http://www.w3.org/2000/svg" xmlns:xlink="http://www.w3.org/1999/xlink" width="563" zoomAndPan="magnify" viewBox="0 0 422.25 287.25" height="383" preserveAspectRatio="xMidYMid meet" version="1.2"><defs><clipPath id="e06e8344bd"><path d="M 25 1 L 396 1 L 396 285.753906 L 25 285.753906 Z M 25 1 "/></clipPath></defs><g id="67beaf63ab"><g style="fill:#3e473a;fill-opacity:1;"><g transform="translate(209.157277, 106.044533)"><path style="stroke:none" d="M 1.34375 -1.390625 C 1.664062 -1.390625 1.78125 -1.234375 1.6875 -0.921875 C 1.644531 -0.804688 1.597656 -0.691406 1.546875 -0.578125 C 1.492188 -0.484375 1.421875 -0.421875 1.328125 -0.390625 C 1.234375 -0.367188 1.132812 -0.378906 1.03125 -0.421875 C 0.945312 -0.453125 0.898438 -0.515625 0.890625 -0.609375 C 0.878906 -0.742188 0.882812 -0.878906 0.90625 -1.015625 C 0.925781 -1.273438 1.070312 -1.398438 1.34375 -1.390625 Z M 1.34375 -1.390625 "/></g></g><g clip-rule="nonzero" clip-path="url(#e06e8344bd)"><path style=" stroke:none;fill-rule:nonzero;fill:#3e473a;fill-opacity:1;" d="M 224.304688 182.359375 L 224.304688 182.425781 C 208.753906 210.441406 200.84375 242.992188 198.664062 274.878906 C 198.574219 275.90625 198.472656 276.480469 198.363281 276.382812 C 195.203125 254.53125 208.53125 196.554688 224.304688 182.359375 Z M 147.832031 215.742188 C 165 233.660156 165.882812 264.847656 170.917969 285.769531 L 170.941406 285.746094 C 170.355469 260.859375 165.660156 233.417969 148.859375 214.324219 C 147.023438 212.78125 146.480469 213.964844 147.839844 215.742188 Z M 196.804688 111.722656 C 213.527344 106.582031 232.238281 102.953125 249.992188 103.117188 C 253.78125 103.144531 258.785156 105.15625 262.324219 105.164062 C 263.71875 105.136719 264.511719 104.636719 264.363281 104.144531 L 264.328125 104.042969 C 250.015625 97.976562 204.890625 102.375 194.316406 112.125 C 194.425781 112.480469 196.152344 111.90625 196.804688 111.722656 Z M 332.519531 33.300781 C 343.671875 33.808594 340.164062 16.617188 330.007812 20.480469 L 329.742188 20.605469 C 324.785156 24.085938 325.203125 33.339844 332.511719 33.300781 Z M 269.769531 123.722656 C 247.730469 131.125 231.539062 153.277344 222.523438 173.90625 C 221.925781 175.933594 223.175781 175.851562 224.167969 174.199219 C 233.082031 153.242188 250.25 135.640625 269.785156 123.75 L 269.785156 123.722656 Z M 221.046875 45.148438 C 241.109375 53.210938 257.410156 67.464844 269.820312 85.277344 L 269.871094 85.292969 C 264.152344 68.265625 237.816406 47.019531 220.113281 43.574219 C 218.996094 43.832031 219.9375 44.574219 221.046875 45.148438 Z M 87.902344 237.574219 C 86.949219 237.625 85.714844 238.183594 84.90625 237.917969 C 84.320312 237.714844 83.945312 237.050781 83.519531 236.597656 L 83.355469 236.441406 C 80.40625 234.679688 76.027344 234.804688 77.085938 239.394531 C 77.972656 242.859375 80.816406 247.730469 84.988281 246.796875 C 92.402344 245.527344 95.4375 236.566406 87.894531 237.582031 Z M 245.324219 38.816406 C 265.371094 50.359375 271.773438 70.6875 282.589844 88.957031 L 282.628906 88.957031 C 277.640625 68.632812 263.628906 46.859375 245.300781 36.9375 C 242.945312 35.894531 243.589844 37.496094 245.324219 38.816406 Z M 201.945312 82.238281 C 201.902344 82.648438 203.082031 83.179688 204.5 83.382812 C 207.402344 83.765625 210.734375 83.0625 213.605469 83.148438 C 229.511719 83.574219 245.710938 91.453125 260.664062 96.625 L 260.679688 96.59375 C 245.367188 85.199219 223.21875 80.527344 204.222656 81.519531 C 203.546875 81.5625 201.988281 81.695312 201.945312 82.238281 Z M 297.894531 94.546875 C 303.394531 68.632812 309.796875 54.363281 326.277344 34.074219 L 326.277344 34.015625 C 307.433594 47.042969 299.414062 73.457031 296.609375 95.683594 C 296.851562 97.035156 297.46875 96 297.894531 94.546875 Z M 218.585938 65.421875 C 237.5625 69.058594 252.929688 83.78125 266.324219 96.007812 L 266.339844 95.972656 C 256.285156 79.699219 237.6875 68.199219 219.335938 63.703125 C 218.628906 63.527344 217.085938 63.25 216.832031 63.769531 C 216.632812 64.144531 217.394531 64.886719 218.585938 65.421875 Z M 294.304688 213.546875 C 287.789062 212.753906 285.761719 229.957031 294.097656 224.882812 L 294.289062 224.679688 C 294.980469 223.605469 295.347656 221.792969 296.851562 221.769531 C 297.753906 221.710938 298.804688 222.070312 300.03125 221.566406 C 301.359375 221.042969 302.601562 219.589844 302.507812 218.238281 C 302.433594 215.175781 297.359375 213.804688 294.296875 213.554688 Z M 146.445312 241.371094 C 144.59375 241.554688 142.28125 242.488281 140.414062 242.648438 C 139.246094 242.523438 140.429688 241.238281 141.03125 240.152344 C 141.632812 239.210938 142.117188 238.242188 142.074219 237.882812 C 141.890625 237.359375 141.128906 238.152344 140.753906 238.425781 C 139.71875 239.09375 138.300781 241.582031 137.15625 241.363281 L 137.058594 241.28125 C 136.398438 240.285156 136.308594 236.933594 135.296875 235.996094 C 133.601562 234.195312 134.261719 238.207031 133.960938 239.019531 C 133.71875 239.761719 133.160156 239.335938 132.324219 238.703125 C 131.550781 238.09375 130.722656 237.582031 130.304688 237.839844 C 128.519531 239.886719 134.871094 242.992188 132.660156 244.894531 C 131.550781 245.820312 128.226562 247.414062 131.832031 247.421875 C 132.433594 247.480469 133.320312 247.265625 133.621094 247.863281 C 133.667969 248.964844 131.550781 251.527344 131.609375 252.730469 C 131.550781 253.148438 131.589844 253.640625 132.066406 253.566406 C 133.878906 252.855469 136.15625 246.039062 137.175781 251.660156 C 137.316406 252.355469 138.058594 256.152344 138.695312 255.132812 C 139.136719 254.347656 138.160156 249.59375 138.742188 248.839844 C 138.976562 248.582031 139.285156 248.714844 139.621094 248.847656 C 140.421875 249.234375 141.3125 249.894531 142.132812 250.425781 C 142.734375 250.742188 144 251.863281 144.320312 251.410156 C 143.777344 249.167969 138.609375 245.785156 141.507812 244.46875 C 143.199219 243.25 146.539062 243.117188 147.773438 241.613281 C 147.699219 241.28125 147.238281 241.339844 146.457031 241.378906 Z M 299.90625 136.425781 C 311.863281 151.464844 318.191406 169.492188 320.210938 188.351562 C 320.3125 189.203125 320.46875 190.148438 320.828125 190.824219 C 321.035156 191.097656 321.078125 191.296875 321.394531 191.132812 L 321.472656 191.054688 C 322.011719 172.09375 314.785156 148.445312 300.199219 135.890625 C 298.847656 134.789062 298.945312 135.191406 299.90625 136.425781 Z M 281.539062 140.75 L 281.511719 140.671875 C 274.425781 150.714844 279.382812 186.148438 283.082031 199.191406 C 283.5 200.503906 283.632812 200.179688 283.546875 198.757812 C 281.960938 180.191406 278.339844 159.886719 281.527344 140.75 Z M 271.472656 135.082031 C 257.316406 147.976562 243.648438 166.953125 240.769531 186.023438 L 240.828125 186.050781 C 241.429688 185.941406 242.164062 183.820312 242.503906 182.960938 C 248.863281 164.476562 260.546875 150.671875 271.804688 135.597656 C 272.742188 134.3125 272.789062 133.957031 271.472656 135.082031 Z M 386.484375 110.171875 C 375.410156 104.261719 334.414062 109.453125 327.171875 117.890625 L 327.253906 117.890625 C 345.488281 111.105469 366.730469 108.84375 385.132812 110.378906 C 386.015625 110.414062 386.523438 110.355469 386.484375 110.171875 Z M 308.675781 109.738281 C 307.765625 111.195312 308.175781 111.039062 309.277344 109.96875 C 322.613281 96.640625 336.84375 83.921875 354.96875 78.074219 C 355.746094 77.824219 358.050781 77.003906 357.734375 76.335938 L 357.664062 76.277344 C 339.089844 79.308594 319.042969 94.195312 308.683594 109.746094 Z M 257.628906 10.65625 C 259.128906 11.851562 260.113281 12.125 261.699219 11.339844 C 269.59375 7.769531 269.242188 0 261.65625 2.671875 C 260.449219 3.070312 259.648438 3.554688 258.960938 2.378906 L 258.804688 2.1875 C 256.941406 0.300781 253.289062 1.152344 252.878906 3.878906 C 252.425781 6.800781 255.691406 8.871094 257.617188 10.65625 Z M 166.558594 72.207031 C 167.160156 71.855469 167.136719 71.128906 167.195312 70.527344 C 167.042969 68.769531 166.726562 67.191406 166.007812 65.472656 C 164.414062 61.691406 161.25 59.761719 159.398438 62.699219 C 158.972656 63.484375 158.949219 64.71875 159.140625 66.054688 C 159.164062 66.441406 159.117188 66.757812 158.921875 67 C 158.230469 67.75 156.027344 67.890625 155.386719 68.808594 L 155.234375 69.019531 C 151.980469 75.101562 162.914062 74.660156 166.550781 72.199219 Z M 385.964844 194.6875 C 383.429688 193.734375 379.921875 195.480469 381.324219 191.121094 C 381.441406 190.148438 380.851562 190.421875 380.183594 190.90625 C 375.410156 195.3125 377.855469 188.503906 376.410156 186.457031 L 376.320312 186.375 C 376.078125 186.214844 375.910156 186.417969 375.765625 186.65625 C 375.433594 187.226562 375.234375 188.5625 375.183594 189.738281 C 375.117188 190.9375 374.839844 191.707031 374.242188 191.539062 C 373.339844 191.40625 372.035156 189.644531 371.1875 190.421875 C 370.675781 191.375 372.664062 193.992188 372.828125 194.828125 C 372.957031 195.90625 371.519531 196.15625 370.800781 196.632812 C 368.984375 197.617188 371.828125 198.109375 372.363281 198.867188 C 373.449219 199.9375 369.699219 202.566406 370.34375 203.625 C 371.453125 204.257812 372.8125 202.722656 373.765625 201.9375 C 374.550781 201.1875 375.148438 200.753906 375.59375 201.222656 C 376.308594 201.511719 376.386719 206.011719 377.179688 204.175781 C 377.46875 203.523438 377.6875 202.546875 378.203125 202.003906 C 378.746094 201.371094 379.632812 201.898438 380.464844 202.554688 C 381.800781 203.632812 382.09375 203.214844 381.566406 202.105469 C 381.042969 200.871094 380.023438 199.367188 379.398438 198.265625 C 379.054688 197.632812 378.957031 197.199219 379.273438 196.921875 C 380.726562 195.988281 384.707031 196.546875 386.449219 195.480469 C 386.933594 195.121094 386.375 194.804688 385.964844 194.679688 Z M 214.6875 121.003906 C 214.8125 121.285156 215.507812 121.402344 216.449219 121.3125 C 227.523438 118.582031 238.296875 114.800781 249.757812 113.960938 C 254.796875 113.109375 260.039062 114.433594 265.089844 113.894531 C 266.582031 113.640625 267.851562 113.066406 267.726562 112.648438 L 267.691406 112.566406 C 251.375 109.84375 231.964844 113.699219 216.773438 119.402344 C 216.082031 119.683594 214.503906 120.351562 214.6875 120.996094 Z M 40.324219 118.441406 C 42.203125 118.597656 44.429688 116.523438 45.773438 115.652344 C 46.464844 115.488281 46.824219 116.070312 47.800781 116.40625 C 48.929688 116.921875 50.554688 116.839844 51.566406 115.9375 L 51.800781 115.730469 C 55.335938 112.140625 47.277344 107.550781 44.289062 107.558594 C 39.804688 108.808594 35.492188 117.332031 40.324219 118.441406 Z M 394.929688 122.070312 C 394.488281 121.304688 393.609375 120.753906 392.726562 120.644531 C 391.046875 120.410156 389.703125 121.496094 388.703125 121.402344 C 387.066406 121.042969 385.839844 118.523438 383.703125 118.890625 L 383.414062 118.933594 C 377.769531 120.277344 383.035156 128.195312 386.433594 129.191406 C 390.238281 129.925781 397.097656 126.203125 394.929688 122.078125 Z M 372.503906 171.976562 C 373.746094 171.71875 374.492188 171.070312 373.121094 170.46875 C 372.105469 169.976562 370.535156 170.050781 369.667969 169.308594 C 369.324219 168.933594 370.035156 168.421875 370.734375 167.730469 C 371.777344 166.804688 371.8125 166.1875 370.710938 166.226562 C 369.84375 166.160156 368.539062 166.84375 367.753906 166.59375 L 367.671875 166.519531 C 367.4375 165.792969 367.871094 165.109375 367.847656 164.207031 C 367.65625 160.460938 365.292969 165.785156 364.632812 166.59375 C 363.558594 168.230469 362.140625 165.242188 361.195312 165.484375 C 360.613281 165.925781 361.078125 167.304688 361.003906 168.015625 C 361.003906 169.300781 360.042969 169.214844 358.441406 168.992188 C 356.730469 168.765625 355.070312 168.582031 353.75 169.222656 C 353.234375 169.457031 353.125 169.882812 353.566406 170.183594 C 354.117188 170.917969 358.527344 170.660156 358.390625 171.828125 C 358.300781 172.746094 355.253906 174.800781 357.808594 174.363281 C 359.292969 174.089844 359.761719 174.691406 359.410156 176.34375 C 358.699219 181.050781 362.304688 174.105469 363.347656 173.949219 C 364.933594 173.582031 366.035156 175.976562 367.472656 176.351562 C 367.949219 176.433594 367.722656 175.550781 367.40625 174.539062 C 365.988281 170.785156 370.609375 172.628906 372.503906 171.988281 Z M 289.28125 91.035156 C 289.707031 92.128906 289.917969 91.976562 289.847656 90.601562 C 288.246094 72.882812 288.929688 54.78125 293.019531 37.457031 L 292.996094 37.371094 C 284.976562 45.917969 285.394531 79.757812 289.28125 91.035156 Z M 260.015625 120.910156 L 259.988281 120.851562 C 243.589844 120.886719 221.808594 127.90625 211.015625 140.132812 C 210.058594 141.324219 210.457031 141.375 211.757812 140.605469 C 226.632812 131.152344 238.984375 125.453125 256.683594 122.164062 C 257.601562 121.953125 259.820312 121.511719 260.015625 120.902344 Z M 35.125 187.125 C 33.941406 186.757812 34.675781 185.730469 35.523438 184.246094 C 36.328125 183.054688 36.9375 181.699219 36.886719 180.976562 C 36.441406 178.953125 33.714844 182.777344 33.171875 183.578125 C 29.359375 188.9375 32.136719 178.8125 27.328125 179.449219 L 27.121094 179.449219 C 24.125 179.097656 25.21875 180.296875 26.363281 182.785156 C 27.664062 185.480469 28.921875 187.140625 25.550781 187.535156 C 24.375 187.792969 25.335938 188.195312 26.746094 188.726562 C 29.214844 189.554688 28.789062 190.789062 27.636719 192.433594 C 26.871094 193.84375 24.785156 196.089844 25.203125 197.597656 C 25.945312 198 26.796875 196.964844 27.789062 196.0625 C 30.394531 193.015625 30.175781 196.089844 30.96875 197.949219 C 31.996094 199.96875 32.152344 195.613281 32.253906 194.953125 C 32.503906 192.199219 33.671875 195.304688 34.589844 196.214844 C 35.308594 197.039062 35.941406 197.714844 36.09375 197.089844 C 36.210938 195.914062 33.640625 191.890625 33.515625 190.679688 C 33.363281 189.722656 34.339844 189.539062 35.167969 189.394531 C 36.433594 189.09375 39.097656 189.3125 39.890625 188.320312 C 39.140625 187.175781 36.394531 187.492188 35.125 187.117188 Z M 158.773438 82.070312 L 158.472656 82.136719 C 152.988281 83.671875 154.800781 92.46875 159.957031 93.203125 C 167.738281 94.414062 167.585938 79.917969 158.773438 82.070312 Z M 348.886719 40.769531 C 348.734375 41.636719 346.542969 42.261719 347.527344 43.121094 C 348.042969 43.488281 348.753906 43.832031 348.894531 44.53125 C 349.09375 45.542969 347.542969 47.304688 347.769531 48.011719 C 347.917969 48.261719 348.070312 48.355469 348.394531 48.210938 C 349.488281 47.878906 351.097656 45.667969 351.78125 47.261719 C 352.273438 47.785156 352.492188 50.667969 353.492188 49.554688 C 354.6875 47.769531 355.253906 48.128906 356.855469 49.679688 C 357.589844 50.347656 358.214844 50.714844 358.316406 50.332031 C 358.609375 49.296875 355.671875 45.089844 355.753906 44.03125 C 355.789062 43.28125 356.378906 43.148438 357.214844 42.945312 C 358.308594 42.710938 359.71875 42.621094 360.628906 41.910156 C 360.988281 41.570312 360.570312 41.269531 359.945312 41.027344 C 357.046875 40.308594 358.75 38.03125 359.285156 36.179688 C 359.84375 34.476562 358.894531 35.292969 357.40625 36.488281 C 356.222656 37.445312 355.113281 38.457031 354.527344 38.246094 L 354.378906 38.179688 C 353.585938 37.539062 353.617188 35.96875 353.125 35.085938 C 352.816406 34.507812 352.542969 35.167969 352.214844 36.042969 C 351.457031 38.398438 349.539062 36.769531 348 36.304688 C 345.566406 35.929688 349.789062 39.792969 348.894531 40.761719 Z M 355.8125 96.175781 C 356.746094 95.859375 357.257812 95.382812 357.046875 95.03125 L 356.980469 94.941406 C 356.554688 94.472656 355.164062 94.53125 354.371094 94.648438 C 339.296875 96.535156 323.257812 102.757812 311.757812 112.789062 C 310.648438 113.816406 311.023438 113.875 312.339844 113.25 C 324.316406 107.359375 336.417969 99.371094 350.011719 96.984375 C 351.90625 96.59375 353.992188 96.734375 355.8125 96.167969 Z M 186.863281 172.488281 C 187.847656 171.871094 189.734375 171.886719 190.796875 171.285156 C 191.054688 171.125 191.363281 170.976562 191.238281 170.710938 C 190.1875 169.832031 187.113281 171.21875 187.539062 169.582031 C 187.722656 168.441406 191.773438 163.171875 188.082031 166.070312 C 187.015625 166.855469 186.378906 167.898438 185.414062 168.097656 L 185.269531 168.082031 C 184.070312 167.269531 184.144531 164.757812 183.269531 163.582031 C 183.09375 163.339844 182.917969 163.097656 182.683594 163.289062 C 181.933594 164.273438 182.875 166.945312 182.207031 167.878906 C 181.398438 168.546875 177.234375 162.207031 177.058594 164.875 C 177.140625 166.101562 179.328125 168.332031 179.5625 169.597656 C 179.855469 170.566406 178.492188 170.925781 178.175781 171.492188 C 178.269531 171.96875 178.851562 172.160156 179.226562 172.488281 C 180.078125 173.003906 180.363281 173.847656 179.871094 174.789062 C 179.628906 175.523438 178.792969 176.453125 179.21875 177.195312 C 179.445312 177.371094 180.003906 177.152344 180.664062 176.761719 C 183.175781 174.992188 183.492188 175.515625 184.628906 178.261719 C 186.214844 181.382812 185.585938 177.476562 187.40625 178.105469 C 187.917969 178.179688 188.46875 178.65625 188.96875 178.496094 C 189.359375 178.21875 186.921875 175.292969 186.472656 173.78125 C 186.304688 173.203125 186.421875 172.789062 186.863281 172.496094 Z M 373.265625 98.070312 L 373.4375 98.234375 C 378.605469 102.390625 387.152344 94.648438 380.742188 89.882812 C 375.917969 85.265625 369.902344 94.046875 373.265625 98.078125 Z M 267.382812 16.867188 C 267.632812 17.558594 270.429688 17.660156 271.347656 18.183594 C 272.605469 19.09375 271.1875 20.113281 270.152344 21.324219 C 268.992188 22.550781 267.867188 23.742188 267.351562 24.988281 C 267.234375 25.328125 267.351562 25.394531 267.589844 25.355469 C 268.5 25.171875 271.730469 21.625 272.976562 21.0625 C 273.351562 20.90625 273.660156 20.972656 273.910156 21.28125 C 274.433594 21.742188 274.570312 23.933594 275.519531 23.269531 C 275.960938 22.800781 276.355469 22.117188 277.03125 21.898438 C 278.257812 21.398438 280.667969 23.566406 280.792969 23.152344 C 280.71875 22.207031 277.238281 19.160156 277.648438 17.96875 C 278.542969 16.910156 280.570312 16.992188 281.8125 16.558594 C 285.269531 15.671875 278.832031 16.015625 279.542969 14.238281 C 279.828125 13.144531 282.230469 11.140625 281.652344 9.949219 L 281.570312 9.871094 C 279.335938 9.261719 277.003906 16.148438 275.710938 11.507812 C 275.394531 10.640625 275.027344 10.265625 274.695312 10.90625 C 273.699219 13.695312 274.660156 15.914062 271.023438 12.625 C 269.769531 11.652344 268.476562 10.457031 268.507812 11.542969 C 268.652344 12.402344 269.3125 13.410156 269.101562 14.320312 C 268.984375 15.414062 267.339844 15.804688 267.40625 16.859375 Z M 311.75 125.652344 L 311.808594 125.726562 C 325.769531 131.117188 339.929688 137 349.546875 148.800781 C 350.363281 149.371094 351.023438 149.394531 351.238281 149.027344 C 349.9375 141.441406 318.074219 121.761719 311.75 125.660156 Z M 302.066406 32.765625 C 303.628906 35.117188 307.785156 36.378906 309.996094 34.460938 L 310.15625 34.285156 C 314.058594 30.179688 308.984375 20.273438 303.578125 25.878906 C 301.867188 27.617188 300.515625 30.59375 302.066406 32.765625 Z M 181.742188 219.554688 C 180.929688 218.796875 180.03125 218.246094 180.355469 217.226562 C 180.289062 216.511719 183.644531 213.378906 181.78125 213.746094 C 180.914062 213.941406 179.894531 214.457031 178.953125 214.449219 C 178.183594 214.433594 177.917969 213.773438 177.808594 213.097656 C 177.691406 212.355469 177.585938 211.785156 177.25 212.152344 C 176.300781 213.265625 175.789062 216.050781 174.039062 215.992188 L 173.871094 215.933594 C 172.476562 215.117188 170.992188 211.726562 169.523438 210.828125 C 167.710938 209.398438 168.253906 211.34375 169.222656 213.339844 C 169.796875 214.597656 170.664062 216.21875 169.0625 216.710938 C 168.78125 216.851562 168.21875 216.917969 168.296875 217.261719 C 170.105469 218.761719 172.886719 218.027344 169.957031 221.234375 C 168.996094 222.410156 167.929688 223.988281 169.554688 223.554688 C 170.367188 223.34375 171.25 222.703125 172.085938 222.601562 C 173.085938 222.492188 171.300781 226.257812 172.292969 226.148438 C 174.289062 225.433594 173.988281 222.359375 176.300781 225.265625 C 180.890625 230.957031 177.140625 223.671875 176.597656 220.992188 C 175.90625 218.371094 180.890625 221.402344 182.15625 220.859375 C 182.84375 220.683594 182.425781 220.164062 181.757812 219.566406 Z M 302.226562 131.335938 L 302.300781 131.453125 C 302.652344 131.9375 303.96875 132.453125 304.769531 132.703125 C 317.742188 136.800781 327.546875 147.46875 337.078125 156.347656 C 338.570312 157.375 339.648438 156.863281 338.613281 155.246094 C 328.882812 144.855469 317.507812 133.707031 303.261719 130.699219 C 302.433594 130.699219 302.007812 130.96875 302.226562 131.335938 Z M 295.105469 183.378906 C 291.351562 169.148438 287.722656 154.492188 287.929688 139.65625 L 287.886719 139.53125 C 282.480469 141.03125 290.359375 179.355469 294.554688 184.195312 C 295.125 184.871094 295.316406 184.546875 295.097656 183.378906 Z M 295.691406 138.277344 L 295.640625 138.171875 C 290.558594 141.425781 301.148438 178.554688 307.175781 181.742188 C 307.925781 182.125 308 181.667969 307.617188 180.707031 C 300.75 167.996094 297.042969 152.707031 295.691406 138.269531 Z M 272.074219 204.152344 C 272.289062 202.539062 271.082031 203.222656 270.511719 204.042969 C 269.503906 205.277344 268.953125 207.296875 268.285156 207.765625 L 268.140625 207.847656 C 266.074219 208.464844 263.160156 201.929688 260.648438 201.261719 C 260.28125 202.039062 261.882812 204.167969 262.417969 205.308594 C 263.042969 206.835938 264.980469 208.90625 264.652344 210.417969 C 264.042969 211.378906 259.128906 210.199219 257.191406 211.226562 C 256.867188 211.378906 256.449219 211.660156 256.75 211.988281 C 258.460938 213.230469 263.960938 212.152344 265.480469 213.597656 C 265.914062 214.207031 265.214844 215.34375 265.621094 215.835938 C 266.179688 215.710938 266.914062 214.875 267.582031 214.734375 C 268.183594 214.523438 268.769531 214.808594 269.242188 215.191406 C 270.363281 216.203125 271.980469 218.097656 272.367188 217.671875 C 272.984375 216.445312 269.753906 213.273438 271.574219 212.304688 C 272.308594 211.761719 274.050781 211.753906 274.359375 210.859375 C 273.785156 210.242188 272.066406 210.476562 271.238281 210.101562 C 268.992188 209.15625 271.949219 206.160156 272.066406 204.152344 Z M 65.386719 231.925781 C 65.644531 230.40625 67.664062 229.5625 68.546875 228.417969 C 69.109375 227.792969 69.457031 227.21875 68.664062 227.285156 C 66.90625 227.527344 64.183594 230.472656 63.207031 229.347656 C 61.890625 227.828125 62.664062 224.503906 61.539062 223.0625 L 61.445312 223.0625 C 60.988281 223.261719 60.703125 224.003906 60.269531 224.3125 C 59.710938 224.839844 58.875 224.53125 58.265625 224.054688 C 56.296875 222.601562 58.300781 226.425781 57.707031 227.074219 C 57.355469 227.535156 56.53125 227.199219 56.054688 227.402344 C 55.578125 227.726562 56.039062 228.195312 56.3125 228.585938 C 58.683594 231.214844 61.488281 231.539062 58.101562 234.996094 C 57.757812 235.503906 58.441406 235.347656 59.34375 235.210938 C 62.992188 234.59375 61.046875 240.152344 63.058594 241.53125 C 63.675781 241.273438 63.464844 240.253906 63.542969 239.652344 C 63.507812 237.589844 63.992188 236.589844 64.945312 236.222656 C 66.210938 235.78125 67.472656 236.875 68.707031 237.273438 C 69.175781 237.433594 69.484375 237.433594 69.550781 237.273438 C 69.433594 235.570312 65.578125 233.777344 65.394531 231.949219 Z M 334.273438 67.339844 C 324.882812 79.300781 316.804688 93.085938 304.695312 102.652344 L 304.679688 102.691406 C 316.378906 97.828125 329.859375 79.132812 334.839844 67.65625 C 335.324219 66.449219 335.125 66.324219 334.265625 67.332031 Z M 275.5625 89.238281 L 275.621094 89.15625 C 274.445312 76.195312 265.320312 59.863281 254.097656 53.421875 C 252.820312 52.769531 252.910156 53.363281 253.671875 54.472656 C 262.652344 66.28125 268.402344 70.296875 273.566406 85.585938 C 273.984375 86.820312 274.335938 88.105469 275.011719 89.023438 C 275.234375 89.230469 275.285156 89.40625 275.554688 89.238281 Z M 302.945312 97.027344 C 302.808594 98.3125 303.246094 98.527344 303.871094 97.242188 C 308.527344 82.839844 315.621094 67.941406 325.558594 56.5 L 325.558594 56.441406 C 314.652344 61.332031 305.148438 85.632812 302.945312 97.027344 Z M 166.710938 107.808594 L 166.59375 107.707031 C 165.925781 106.789062 165.917969 105.511719 165.417969 104.4375 C 164.238281 101.699219 163.914062 104.3125 163.773438 105.589844 C 163.679688 105.972656 163.628906 106.632812 163.121094 106.625 C 162.546875 106.488281 161.144531 105.203125 160.882812 105.746094 C 160.710938 106.457031 161.09375 106.992188 161.351562 107.675781 C 161.851562 108.851562 162.402344 109.542969 161.492188 110.597656 C 161.066406 111.070312 160.007812 111.613281 159.910156 112.140625 C 159.808594 112.707031 160.851562 112.808594 161.292969 112.984375 C 161.960938 113.183594 162.246094 113.734375 162.070312 114.445312 C 161.984375 115.160156 161.367188 115.945312 161.5625 116.671875 C 161.910156 117.214844 164.558594 115.003906 165.675781 115.410156 C 166.34375 115.546875 166.742188 116.363281 167.160156 117.148438 C 167.601562 118.039062 168.019531 118.40625 168.152344 117.730469 C 168.445312 115.953125 167.378906 113.382812 170.296875 115.277344 C 171.050781 115.679688 171.757812 115.871094 171.882812 115.570312 C 171.949219 114.484375 170.257812 113.332031 169.53125 112.550781 C 169.113281 112.125 168.730469 111.65625 168.945312 111.089844 C 169.304688 110.1875 171.933594 109.410156 172.917969 108.542969 C 173.246094 108.285156 173.519531 107.910156 173.070312 107.675781 C 172.617188 107.457031 171.933594 107.398438 171.46875 107.125 C 170.890625 106.832031 170.789062 106.074219 170.808594 105.488281 C 170.808594 103.300781 167.8125 108.761719 166.710938 107.808594 Z M 122.019531 144.054688 C 135.207031 139.980469 148.457031 133.898438 162.179688 139.136719 C 163.246094 139.398438 164.097656 139.328125 163.539062 138.527344 C 152.707031 130.824219 132 136.242188 121.984375 144.027344 Z M 269.878906 36.078125 C 269.835938 36.136719 269.863281 36.296875 269.960938 36.570312 C 271.546875 40.636719 276.085938 50.089844 277.941406 55.414062 C 279.585938 59.847656 280.460938 76.847656 283.214844 76.945312 L 283.25 76.847656 C 281.753906 63.367188 280.136719 45.214844 269.878906 36.078125 Z M 274.601562 142.992188 C 267.550781 150.011719 261.558594 172.101562 262.117188 182.917969 C 262.433594 183.738281 262.941406 183.335938 263.210938 182.292969 C 264.753906 168.707031 270.261719 155.886719 274.617188 143.050781 L 274.59375 143.003906 Z M 175.789062 72.421875 C 177.101562 71.5625 177.917969 69.753906 178.984375 68.21875 C 181.222656 64.460938 182.707031 67.726562 184.476562 69.484375 C 187.382812 71.832031 183.507812 65.414062 183.886719 64.5625 C 184.195312 62.875 186.773438 63.269531 188.074219 62.660156 C 189.050781 62.359375 189.609375 62 189.292969 61.742188 C 188.167969 61.015625 185.839844 61.699219 184.863281 60.796875 L 184.785156 60.664062 C 184.417969 59.636719 187.617188 56.773438 187.839844 54.753906 C 187.933594 54.261719 187.839844 53.613281 187.230469 53.730469 C 184.996094 54.347656 183.703125 59.863281 181.257812 59.804688 C 179.613281 59.230469 178.960938 56.875 177.558594 55.941406 C 176.875 55.429688 176.332031 55.28125 176.140625 55.882812 C 175.679688 57.042969 178.960938 60.722656 177.792969 61.789062 C 177.226562 62.5 175.574219 62.492188 175.289062 63.359375 C 175.40625 63.828125 176.230469 64.152344 176.714844 64.429688 C 178.734375 65.238281 178.300781 66.472656 176.933594 68.476562 C 176.214844 69.484375 174.222656 72.796875 175.78125 72.398438 Z M 45.363281 139.65625 C 44.53125 138.578125 42.585938 137.878906 42.492188 136.449219 C 42.734375 134.855469 45.398438 132.863281 45.566406 131.886719 C 45.597656 131.191406 44.503906 131.835938 43.3125 132.4375 C 42.066406 133.121094 40.992188 133.761719 40.632812 133.363281 C 39.855469 132.136719 40.75 128.972656 40.105469 127.855469 L 40.03125 127.871094 C 39.789062 128.023438 39.28125 128.941406 38.761719 129.199219 C 37.96875 129.632812 36.867188 128.941406 36.367188 129.898438 C 33.378906 133.996094 39.238281 134.371094 36.492188 138.628906 C 36.167969 139.296875 36.007812 139.898438 37.027344 139.65625 C 37.613281 139.554688 38.277344 139.5625 38.496094 140.140625 C 38.597656 140.433594 38.644531 140.800781 38.671875 141.109375 C 38.65625 142.441406 38.945312 144.371094 39.40625 144.761719 C 40.097656 145.4375 40.105469 141.890625 40.414062 141.5 C 40.566406 141.257812 40.800781 141.375 41.082031 141.726562 C 41.449219 142.191406 41.902344 142.820312 42.367188 143.210938 C 44.039062 144.722656 43.738281 142.234375 43.402344 141.25 C 43.011719 139.847656 44.136719 140.464844 45.003906 140.847656 C 46.757812 141.589844 46.125 140.375 45.363281 139.65625 Z M 133.835938 208.464844 C 139.246094 199.519531 122.953125 178.53125 114.507812 174.039062 C 113.613281 173.597656 113.546875 173.839844 114.292969 174.671875 C 123.65625 183.996094 132.160156 195.136719 133.777344 208.40625 L 133.84375 208.464844 Z M 345.648438 127.953125 C 346.589844 128.082031 348.761719 127.546875 348.476562 126.5625 L 348.410156 126.445312 C 348.09375 125.953125 346.925781 125.875 346.214844 125.851562 C 335.222656 125.210938 324.316406 123.191406 313.742188 120.144531 C 313.015625 119.925781 311.398438 119.476562 311.039062 119.992188 C 311.105469 120.804688 312.148438 121.152344 312.832031 121.519531 C 323.132812 125.96875 334.648438 126.929688 345.65625 127.964844 Z M 296.476562 191.816406 C 293.8125 192.660156 292.996094 197.296875 294.714844 199.191406 L 294.890625 199.351562 C 296.402344 200.402344 298.644531 201.097656 300.332031 200.4375 C 303.261719 199.402344 304.460938 195.269531 302.335938 192.976562 C 300.933594 191.515625 298.503906 191.296875 296.46875 191.816406 Z M 85.296875 118.449219 C 91.28125 125.007812 94.179688 133.648438 97.523438 141.640625 C 97.816406 142.359375 98.175781 143.078125 98.660156 143.5625 C 98.894531 143.71875 98.960938 143.886719 99.210938 143.6875 L 99.261719 143.59375 C 99.453125 143.167969 99.183594 142.066406 98.953125 141.441406 C 95.261719 130.726562 89.496094 113.984375 78.1875 110.53125 C 77.902344 110.761719 78.269531 111.5625 78.988281 112.449219 C 80.785156 114.652344 83.394531 116.355469 85.289062 118.449219 Z M 105.386719 183.011719 C 104.992188 181.910156 104.742188 181.910156 104.703125 183.09375 C 104.703125 194.5625 105.035156 207.523438 99.976562 218.222656 C 99.402344 219.140625 99.011719 221.023438 100.628906 220.199219 L 100.804688 220.082031 C 101.214844 219.78125 101.574219 219.28125 101.839844 218.6875 C 105.9375 207.871094 109.101562 194.21875 105.394531 183.011719 Z M 143.273438 197.214844 C 141.847656 186.140625 133.820312 171.761719 123.128906 167.578125 C 121.976562 167.28125 121.734375 167.898438 122.695312 168.773438 C 132.675781 174.855469 137.910156 187.101562 143.242188 197.222656 L 143.285156 197.222656 Z M 93.6875 151.816406 C 90.949219 145.179688 66.894531 134.40625 60.585938 138.378906 C 60.585938 138.894531 62.214844 139.0625 62.882812 139.214844 C 75.507812 140.964844 82.234375 145.472656 93.578125 151.796875 Z M 111.945312 145.347656 C 112.398438 145.546875 112.921875 144.328125 113.207031 143.828125 C 117.878906 134.164062 125.757812 124.71875 134.386719 118 L 134.414062 117.921875 C 127.183594 118.273438 109.933594 138.554688 111.9375 145.347656 Z M 235.117188 195.988281 L 234.820312 196.097656 C 229.660156 198.292969 232.574219 206.171875 238.40625 204.21875 C 244.816406 202.339844 240.800781 194.070312 235.117188 195.988281 Z M 334.25 168.347656 L 333.964844 168.429688 C 329.707031 170.140625 331.351562 177.253906 336.085938 176.84375 C 343.179688 176.601562 341.34375 166.136719 334.25 168.347656 Z M 57.242188 183.804688 C 59.492188 182.820312 61.40625 180.792969 63.582031 179.714844 C 69.785156 176.527344 77.335938 174.617188 84.523438 174.046875 C 85.273438 173.949219 88.121094 173.855469 87.660156 172.835938 L 87.550781 172.753906 C 76.960938 171.660156 63.640625 175.339844 55.90625 182.667969 C 54.96875 183.871094 55.871094 184.347656 57.242188 183.796875 Z M 237.582031 165.078125 C 236.980469 166.8125 238.191406 166.269531 239.308594 165.066406 C 242.003906 162.15625 244.683594 156.332031 247.570312 153.441406 C 250.558594 150.269531 259.53125 141.691406 263.503906 137.167969 L 263.425781 137.203125 C 253.703125 142.917969 242.40625 154.792969 237.582031 165.085938 Z M 223.09375 26.214844 L 222.816406 26.230469 C 219.863281 26.882812 219.3125 31.328125 221 33.507812 C 228.292969 40.992188 231.664062 26.238281 223.09375 26.207031 Z M 59.734375 131.910156 L 59.953125 132.109375 C 63.015625 134.90625 68.914062 132.972656 67.273438 128.289062 C 64.675781 121.144531 54.476562 127.179688 59.734375 131.910156 Z M 200.351562 118.15625 L 200.132812 118.222656 C 196.828125 119.710938 197.386719 124.910156 200.984375 125.828125 C 208.78125 128.496094 208.996094 115.96875 200.351562 118.148438 Z M 132.117188 224.128906 C 136.546875 223.4375 137.183594 214.15625 131.792969 215.074219 L 131.507812 215.132812 C 125.984375 216.335938 126.527344 224.972656 132.117188 224.128906 Z M 88.828125 183.511719 C 89.789062 181.625 89.289062 181.582031 87.945312 182.925781 C 80.824219 189.863281 70.066406 197.625 68.148438 207.398438 L 68.199219 207.503906 C 68.355469 207.765625 68.789062 207.582031 69.359375 206.996094 C 71.070312 205.167969 72.164062 202.40625 73.722656 200.394531 C 78.28125 194.175781 85.699219 189.753906 88.828125 183.511719 Z M 222.515625 150.628906 C 223.210938 150.570312 224.21875 149.453125 224.785156 148.734375 C 231.695312 139.671875 243.28125 136.5 249.832031 128.253906 L 249.882812 128.15625 C 247.980469 126.894531 216.707031 150.011719 222.507812 150.628906 Z M 360.386719 117.457031 L 360.121094 117.515625 C 355.8125 118.558594 355.363281 126.011719 360.636719 125.910156 C 366.671875 126.328125 366.269531 116.386719 360.386719 117.464844 Z M 57.316406 169.648438 C 59.183594 168.78125 61.40625 167.003906 63.492188 166.277344 C 69.777344 163.792969 80.117188 164.007812 87.042969 164.058594 C 87.652344 164.082031 89.121094 163.664062 88.613281 163.03125 L 88.503906 162.929688 C 88.078125 162.574219 87.085938 162.464844 86.398438 162.480469 C 76.136719 162.507812 64.910156 161.238281 56.070312 167.714844 C 54.921875 169.007812 55.65625 170.425781 57.324219 169.65625 Z M 212.484375 155.585938 L 212.226562 155.671875 C 208.703125 157.273438 210 163.597656 213.90625 163.933594 C 220.105469 164.675781 219.160156 153.308594 212.484375 155.585938 Z M 165.699219 180.375 L 165.492188 180.433594 C 161.234375 182.261719 162.777344 190.246094 168.128906 188.710938 C 173.730469 187.652344 169.78125 179.679688 165.691406 180.382812 Z M 152.914062 163.574219 C 153.074219 162.890625 152.757812 162.691406 152.304688 162.246094 C 147.339844 158.683594 138.433594 157.832031 132.234375 158.214844 C 130.78125 158.476562 125.15625 156.253906 125.433594 158.625 L 125.53125 158.75 C 125.925781 159.152344 126.816406 159.269531 127.453125 159.335938 C 135.261719 160.167969 143.023438 159.867188 150.335938 163.464844 C 151.0625 163.832031 152.554688 164.300781 152.914062 163.566406 Z M 153.992188 149.679688 L 153.972656 149.59375 C 148.75 143.578125 134.5625 147.785156 126.894531 150.570312 C 125.832031 151.046875 126.742188 151.324219 127.378906 151.371094 C 131.214844 151.757812 136.53125 148.953125 140.945312 148.644531 C 144.527344 148.578125 149.542969 149.511719 152.824219 149.761719 C 153.597656 149.855469 154.007812 149.871094 154 149.679688 Z M 85.199219 209.699219 C 90.988281 206.886719 100.722656 189.597656 99.253906 183.8125 L 99.128906 183.71875 C 98.175781 183.1875 97.28125 184.554688 97.273438 185.566406 C 96.515625 193.894531 90.464844 201.496094 85.441406 208.273438 C 85.132812 208.699219 84.0625 210.132812 85.199219 209.699219 Z M 56.023438 148.285156 C 60.664062 147.308594 57.625 139.855469 53.878906 140.113281 L 53.625 140.140625 C 48.152344 141.148438 50.929688 149.535156 56.011719 148.285156 Z M 344.773438 195.253906 L 344.53125 195.320312 C 340.523438 196.78125 343.496094 205.011719 348.71875 202.816406 C 353.085938 200.863281 348.59375 194.035156 344.773438 195.253906 Z M 371.019531 76.578125 C 374.355469 79.441406 380.5 74.394531 377.3125 70.953125 L 377.121094 70.738281 C 373.632812 66.738281 368.25 72.191406 371.019531 76.585938 Z M 356.464844 151.765625 C 355.972656 153.433594 357.382812 155.445312 358.859375 156.230469 C 362.488281 158.109375 366.738281 153.140625 363.933594 150.179688 L 363.765625 150.011719 C 361.820312 148.328125 357.308594 149.179688 356.457031 151.765625 Z M 215.03125 73.257812 C 213.960938 73.601562 214.097656 74.382812 215.246094 74.636719 C 223.734375 74.652344 232.949219 76.394531 240.601562 80.460938 C 241.070312 80.683594 241.8125 81.128906 242.1875 81.121094 L 242.261719 81.09375 C 239.285156 74.859375 221.933594 72.03125 215.03125 73.25 Z M 202.527344 139.386719 C 202.5625 137.886719 198.730469 134.632812 196.203125 136.316406 C 191.503906 140.171875 196.90625 146.066406 200.96875 142.792969 L 201.109375 142.636719 C 201.609375 141.882812 202.203125 140.316406 202.527344 139.386719 Z M 109.042969 140.625 C 111.371094 131.460938 111.753906 121.621094 116.117188 113.132812 L 116.101562 113.023438 C 109.640625 113.808594 108.699219 134.140625 108.65625 140.5 C 108.667969 141.214844 108.757812 141.523438 109.042969 140.617188 Z M 92.125 217.210938 L 91.851562 217.269531 C 86.523438 218.445312 88.628906 226.515625 94.34375 224.671875 C 98.519531 223.3125 96.089844 216.445312 92.117188 217.210938 Z M 114.792969 94.679688 C 116.878906 94.699219 115.96875 95.574219 115.101562 96.71875 C 114.449219 97.617188 113.832031 99.347656 115.417969 98.804688 C 116.058594 98.5625 116.59375 98.167969 117.21875 98.371094 C 117.796875 98.777344 118.171875 98.929688 118.855469 98.496094 C 119.707031 97.996094 120.625 99.128906 121.277344 99.480469 C 121.867188 99.855469 121.917969 99.289062 121.835938 98.878906 C 121.683594 97.742188 120.375 96.390625 120.265625 95.375 C 120.234375 94.773438 120.835938 94.378906 121.285156 93.8125 C 121.828125 93.011719 122.429688 90.84375 120.765625 91.109375 C 120.191406 91.175781 119.539062 91.425781 119.257812 91.269531 L 119.125 91.167969 C 118.707031 90.832031 119.265625 87.828125 118.371094 89.539062 C 118.039062 90.183594 117.703125 91 117.253906 91.125 C 116.226562 91.507812 113.957031 88.839844 114.757812 91.820312 C 114.898438 92.585938 114.601562 93.304688 114.191406 93.921875 C 113.890625 94.390625 114.097656 94.664062 114.800781 94.679688 Z M 149.535156 176.726562 L 149.609375 176.625 C 147.238281 169.28125 133.167969 165.492188 126.300781 165.628906 C 126.199219 165.835938 126.96875 166.261719 127.234375 166.421875 C 132.042969 169.015625 139.011719 169.023438 143.632812 172.679688 C 145.410156 173.78125 147.324219 177.210938 149.535156 176.734375 Z M 295.207031 74.902344 C 296.277344 72.289062 297.769531 65.636719 298.988281 61.632812 C 300.113281 57.125 302.292969 50.457031 303.011719 46.617188 C 298.546875 50.484375 293.195312 69.910156 295.175781 74.867188 Z M 102.789062 138.546875 C 103.066406 140.023438 102.464844 142.835938 104.019531 143.511719 L 104.117188 143.46875 C 104.277344 143.359375 104.359375 143.042969 104.375 142.601562 C 104.328125 135.015625 103.183594 124.390625 97.300781 119.402344 C 96.890625 119.050781 96.15625 118.566406 95.722656 118.832031 C 95.238281 119.117188 95.679688 120.019531 95.871094 120.445312 C 100.179688 126.136719 101.839844 131.484375 102.789062 138.539062 Z M 310.210938 139.570312 C 313.308594 147.03125 322.347656 152.53125 325.617188 159.992188 C 325.945312 160.738281 327.039062 162.054688 327.714844 161.4375 L 327.796875 161.3125 C 328.003906 160.96875 327.773438 160.253906 327.578125 159.835938 C 324.007812 152.316406 316.640625 145.046875 310.222656 139.582031 Z M 266.957031 150.011719 C 259.570312 153.476562 256.285156 169.289062 255.015625 177.261719 C 255.238281 177.980469 255.816406 177.585938 256.109375 176.761719 C 258.453125 167.222656 262.074219 158.515625 266.992188 150.070312 Z M 167.753906 123.765625 C 165.183594 124.039062 163.304688 128.738281 165.234375 130.601562 L 165.449219 130.792969 C 170.957031 135.558594 174.613281 124.109375 167.753906 123.757812 Z M 236.445312 16.882812 C 242.589844 17.21875 240.269531 8.011719 234.425781 9.871094 L 234.140625 9.957031 C 230.4375 11.433594 233.039062 16.941406 236.4375 16.882812 Z M 284.667969 30.378906 L 284.398438 30.460938 C 281.070312 31.78125 282.355469 37.164062 285.609375 37.847656 C 291.242188 39.292969 290.441406 28.640625 284.660156 30.378906 Z M 142.734375 112.265625 C 147.75 111.003906 146.222656 104.695312 141.664062 103.988281 L 141.414062 104.027344 C 137.785156 106.023438 138.316406 112.105469 142.734375 112.265625 Z M 242.113281 108.292969 L 242.363281 108.25 C 248.371094 107.910156 255.089844 107.84375 261.023438 108.636719 C 261.359375 108.617188 261.683594 108.519531 261.890625 108.359375 C 262.410156 108.015625 262.050781 107.417969 261.332031 107.332031 C 257.878906 106.875 253.65625 106.082031 249.648438 105.824219 C 245.542969 105.5625 241.445312 105.964844 238.515625 108.058594 C 236.730469 109.902344 241.46875 108.425781 242.113281 108.292969 Z M 235.628906 61.398438 C 239.59375 63.433594 243.992188 66.148438 246.542969 68.925781 C 249.039062 71.253906 251.703125 74.015625 254.824219 75.511719 L 254.90625 75.511719 C 251.925781 70.035156 242.863281 61.171875 236.085938 59.953125 C 235.042969 59.878906 234.71875 60.664062 235.628906 61.398438 Z M 212.019531 97.511719 C 213.679688 97.402344 221.265625 95.75 224.535156 95.414062 C 226.398438 95.464844 232.257812 96.191406 233.734375 96.050781 L 233.734375 96 C 231.339844 92.828125 211.367188 92.570312 212.027344 97.511719 Z M 105.953125 224.949219 L 105.753906 225.148438 C 103.167969 227.695312 106.421875 233.234375 109.882812 231.515625 C 114.074219 229.222656 109.640625 221.316406 105.960938 224.9375 Z M 176.550781 151.128906 L 176.726562 151.296875 C 179.578125 153.992188 183.117188 149.3125 181.867188 146.367188 C 181.464844 144.980469 179.195312 143.753906 177.652344 144.347656 C 175.238281 145.3125 175.039062 149.417969 176.550781 151.128906 Z M 119.957031 199.644531 C 121.992188 195.027344 113.546875 181.214844 108.632812 179.582031 L 108.582031 179.597656 C 109.207031 180.941406 113.558594 186.398438 114.292969 187.703125 C 115.667969 190.871094 118.582031 198.109375 119.398438 199.917969 C 119.617188 200.277344 119.773438 200.027344 119.949219 199.652344 Z M 69.859375 107.433594 C 73.230469 110.738281 78.386719 104.019531 74.558594 101.425781 C 71.320312 99.222656 67.238281 104.511719 69.667969 107.242188 L 69.851562 107.433594 Z M 214.707031 50.65625 C 218.542969 49.589844 216.589844 43.605469 213.09375 43.890625 L 212.828125 43.921875 C 208.019531 44.507812 209.324219 52.328125 214.707031 50.667969 Z M 48.253906 198.800781 L 48 198.875 C 43.277344 200.902344 48.085938 207.113281 51.941406 204.492188 C 52.507812 204.285156 53.402344 203.339844 53.410156 202.457031 C 53.867188 199.652344 50.589844 198.074219 48.253906 198.800781 Z M 381.242188 145.421875 C 386.058594 144.730469 384.988281 136.960938 380.082031 137.910156 L 379.855469 137.988281 C 376.828125 139.222656 378.195312 145.105469 381.242188 145.421875 Z M 319.46875 75.601562 L 319.417969 75.578125 C 317.992188 75.328125 309.402344 92.652344 308.175781 95.382812 C 311.816406 92.902344 319.769531 78.859375 319.46875 75.601562 Z M 81.425781 132.828125 C 82.394531 133.929688 83.964844 134.398438 85.089844 135.339844 C 88.71875 138.269531 91.492188 142.519531 94.953125 145.53125 L 95.046875 145.53125 C 95.179688 141.222656 85.171875 131.316406 81.460938 131.285156 C 80.707031 131.394531 80.917969 132.1875 81.425781 132.828125 Z M 202.871094 75.328125 C 207.546875 74.710938 207.253906 67.214844 201.8125 68.609375 L 201.554688 68.683594 C 198.207031 69.777344 199.875 75.101562 202.863281 75.320312 Z M 102.398438 109.535156 C 104.9375 112.171875 110.636719 107.976562 107.472656 105.15625 C 106.789062 104.628906 106.085938 104.246094 104.96875 104.042969 C 101.621094 103.445312 100.320312 107.324219 102.214844 109.359375 Z M 87.910156 158.257812 C 85.925781 156.039062 82.542969 154.621094 79.289062 153.550781 C 78.054688 153.050781 65.46875 150.164062 69.640625 153.808594 C 70.292969 154.152344 71.203125 154.195312 71.988281 154.210938 C 77.753906 154.011719 82.4375 157.664062 87.867188 158.324219 L 87.910156 158.265625 Z M 252.902344 33.582031 C 257.734375 31.761719 255.148438 26.03125 250.675781 27.574219 L 250.390625 27.664062 C 246.8125 28.992188 249.722656 34.59375 252.894531 33.582031 Z M 125.289062 136.734375 C 129.730469 134.121094 132.09375 129.40625 137.617188 127.472656 C 138.367188 127.195312 139.402344 126.910156 138.984375 125.945312 L 138.867188 125.84375 C 133.527344 126.09375 125.832031 131.511719 124.199219 136.449219 C 123.90625 137.425781 124.839844 137.011719 125.300781 136.742188 Z M 341.949219 91.292969 L 341.976562 91.191406 C 341.984375 91.074219 341.902344 91.042969 341.75 91.058594 C 338.796875 91.683594 324.332031 100.015625 322.855469 103.050781 C 323.015625 103.242188 323.847656 102.59375 324.191406 102.402344 C 329.917969 98.601562 338.472656 96.742188 341.960938 91.292969 Z M 80.925781 201.523438 C 82.386719 199.492188 92.292969 186.523438 92.859375 185.246094 L 92.757812 185.246094 C 86.765625 186.714844 82.660156 195.90625 80.925781 201.523438 Z M 202.6875 98.730469 L 202.855469 98.894531 C 205.816406 101.457031 211.140625 96.875 207.292969 93.996094 C 204.324219 91.335938 200.140625 96.015625 202.6875 98.730469 Z M 311.414062 204.449219 L 311.222656 204.527344 C 307.949219 206.085938 310.957031 211.921875 314.167969 210.617188 C 317.390625 208.964844 316.429688 202.664062 311.414062 204.449219 Z M 309.46875 168.363281 L 309.519531 168.257812 C 309.246094 161.996094 307.316406 154.269531 303.195312 149.363281 C 304.972656 153.667969 306.433594 167.996094 309.46875 168.363281 Z M 321.5625 112.640625 C 321.414062 113.023438 321.628906 113.082031 322.039062 112.957031 C 325.960938 111.097656 337.429688 110.21875 338.511719 106.800781 L 338.488281 106.722656 C 336.199219 106.25 322.875 109.753906 321.5625 112.640625 Z M 110.386719 189.703125 C 108.917969 192.824219 111.351562 197.859375 111.386719 201.394531 C 111.878906 202.671875 110.328125 209.691406 112.554688 208.867188 L 112.65625 208.742188 C 112.898438 203.675781 113.390625 194.429688 110.878906 190.0625 C 110.703125 189.804688 110.535156 189.671875 110.394531 189.710938 Z M 72.980469 147.84375 C 77.027344 148.234375 80.523438 150.648438 84.429688 151.238281 L 84.496094 151.1875 C 82.402344 148.101562 75.953125 145.882812 71.746094 145.65625 C 70.117188 145.4375 65.453125 146.265625 68.605469 147.609375 C 70.007812 148.027344 71.542969 147.675781 72.980469 147.84375 Z M 322.070312 218.589844 L 321.863281 218.648438 C 318.675781 219.625 319.960938 225.207031 323.105469 225.023438 C 324.632812 224.773438 326.234375 222.945312 326.003906 221.367188 C 325.785156 219.632812 323.714844 218.230469 322.070312 218.589844 Z M 60.871094 117.332031 L 61.019531 117.15625 C 61.890625 114.292969 60.167969 110.386719 56.863281 112.105469 C 53.792969 115.320312 57.191406 119.132812 60.871094 117.332031 Z M 125.058594 149.628906 C 129.429688 145.988281 136.046875 146.75 140.363281 143.621094 L 140.335938 143.542969 C 135.148438 143.011719 128.210938 144.671875 124.339844 148.367188 C 123.90625 148.9375 124.171875 149.960938 125.046875 149.628906 Z M 143.835938 128.5625 C 146.398438 133.414062 151.179688 129.625 148.800781 125.359375 L 148.640625 125.234375 C 146.328125 124.734375 142.398438 125.433594 143.84375 128.554688 Z M 131.808594 187.441406 L 131.882812 187.34375 C 131.265625 184.871094 129.496094 181.710938 127.851562 178.621094 C 126.375 176.152344 124.347656 173.246094 121.667969 172.605469 C 121.132812 172.539062 121.257812 172.871094 121.558594 173.28125 C 124.714844 177.269531 128.535156 182.535156 130.855469 187.226562 C 131.183594 187.417969 131.332031 187.667969 131.808594 187.441406 Z M 95.355469 209.308594 L 95.511719 209.222656 C 96.65625 205.703125 99.445312 201.003906 100.394531 197.015625 C 100.628906 195.804688 100.65625 193.402344 99.585938 193.109375 C 98.933594 193.683594 98.09375 197.097656 97.15625 200.570312 C 96.40625 203.472656 95.605469 206.386719 94.496094 208.890625 C 94.496094 209.207031 94.980469 209.464844 95.363281 209.308594 Z M 372.328125 48.097656 L 372.21875 48.097656 C 371.796875 48.605469 369.816406 50.667969 369.625 51.285156 C 369.824219 51.84375 369.96875 51.96875 370.21875 52.34375 C 373.839844 56.808594 378.503906 49.070312 372.335938 48.097656 Z M 68.898438 188.59375 C 71.378906 186.757812 74.765625 185.664062 76.652344 183.292969 L 76.628906 183.226562 C 72.3125 184.003906 65.578125 187.191406 63.949219 191.046875 C 63.726562 191.941406 64.761719 191.839844 65.476562 191.515625 C 66.847656 190.871094 67.671875 189.453125 68.898438 188.601562 Z M 145.363281 166.835938 L 145.363281 166.769531 C 142.714844 163.839844 135.1875 161.179688 131.558594 162.664062 C 131.207031 162.824219 131.050781 162.988281 131.449219 163.15625 C 134.4375 164 142.40625 166.738281 145.363281 166.835938 Z M 302.308594 13.621094 C 306.332031 16.007812 308.09375 6.625 302.210938 8.429688 L 302.035156 8.496094 C 300.214844 9.371094 300.742188 12.636719 302.316406 13.621094 Z M 337.167969 56.300781 L 337.335938 56.464844 C 341.089844 59.496094 342.96875 51.835938 339.15625 50.882812 C 336.417969 50.648438 335.535156 54.648438 337.160156 56.300781 Z M 61.804688 160.253906 C 61.820312 160.378906 61.949219 160.417969 62.164062 160.386719 C 66.628906 158.660156 72.773438 160.761719 75.960938 157.765625 L 75.941406 157.671875 C 72.472656 157.074219 63.582031 155.746094 61.804688 160.246094 Z M 47.335938 168.347656 C 52.300781 169.046875 51.859375 162.28125 47.566406 163.398438 L 47.324219 163.472656 C 45.207031 164.132812 44.546875 168.097656 47.324219 168.347656 Z M 113.289062 132.042969 C 117.605469 129.964844 119.589844 123.558594 123.363281 120.226562 L 123.363281 120.160156 C 119.40625 120.695312 114.75 128.070312 112.8125 131.742188 C 112.621094 132.210938 112.878906 132.226562 113.289062 132.042969 Z M 138.792969 87.027344 C 140.355469 86.917969 141.738281 83.324219 140.445312 82.414062 C 139.351562 81.652344 137.46875 81.886719 136.273438 82.0625 L 136.097656 82.203125 C 134.953125 84.097656 136.332031 87.4375 138.785156 87.027344 Z M 103.023438 115.503906 C 104.542969 118.742188 104.242188 127.480469 106.820312 127.953125 C 107.015625 128.003906 107.128906 127.980469 107.171875 127.878906 C 106.613281 124.417969 105.6875 118.105469 104.867188 114.542969 L 104.761719 114.542969 C 104.292969 114.652344 102.492188 114.578125 103.03125 115.503906 Z M 130.164062 155.835938 C 133.535156 154.621094 138.652344 155.511719 141.015625 152.875 L 141.03125 152.785156 C 139.503906 152.289062 136.492188 152.792969 133.453125 153.152344 C 131.574219 153.574219 128.304688 153.769531 127.59375 155.1875 C 127.902344 156.347656 129.179688 156.222656 130.171875 155.835938 Z M 147.304688 185.304688 L 147.0625 185.371094 C 144.433594 186.199219 144.910156 190.980469 147.796875 190.988281 C 151.335938 191.023438 150.71875 184.546875 147.304688 185.304688 Z M 188.074219 85.644531 C 186.148438 86.578125 187.457031 90.207031 189.277344 90.507812 C 193 91.292969 193.617188 85.066406 189.460938 85.351562 C 189.019531 85.390625 188.875 85.402344 188.265625 85.566406 Z M 292.6875 78.523438 C 292.351562 82.621094 293.621094 86.960938 293.246094 91.160156 C 293.164062 92.300781 294.054688 91.761719 294.496094 91.125 L 294.582031 90.976562 C 294.765625 89.039062 296.140625 77.480469 292.695312 78.523438 Z M 273.425781 168.625 C 273.398438 168.949219 273.476562 169.058594 273.734375 169.074219 C 275.9375 168.421875 276.355469 158.765625 276.921875 155.652344 L 276.847656 155.605469 C 272.859375 156.863281 274.460938 165.203125 273.425781 168.625 Z M 226.539062 57.21875 L 226.324219 57.277344 C 224.160156 58.410156 225.011719 62.925781 227.917969 62.175781 C 232.046875 61.355469 229.792969 56.28125 226.539062 57.210938 Z M 77.777344 207.457031 C 75.140625 206.480469 73.980469 210.085938 74.582031 212.019531 L 74.722656 212.179688 C 78.128906 213.664062 81.210938 209.640625 77.777344 207.457031 Z M 321.9375 134.648438 C 323.242188 135.367188 324.925781 136.507812 326.371094 136.433594 L 326.417969 136.359375 C 324.082031 133.230469 319.484375 131.035156 315.578125 130.816406 C 315.328125 130.84375 315.152344 130.96875 315.113281 131.167969 C 315.027344 132.335938 316.515625 132.914062 317.5 133.128906 C 319.101562 133.4375 320.621094 133.804688 321.945312 134.648438 Z M 143.199219 181.316406 C 142.316406 178.570312 139.921875 175.773438 137.859375 173.699219 C 136.523438 172.246094 133.660156 170.527344 134.820312 173.414062 C 138.050781 175.800781 140.519531 179.398438 143.101562 182.375 L 143.199219 182.394531 C 143.351562 182.34375 143.332031 181.800781 143.199219 181.316406 Z M 71.203125 169.199219 C 65.8125 172.652344 71.753906 170.492188 73.679688 169.816406 C 75.183594 169.25 76.675781 169.03125 78.304688 169.074219 C 79.523438 169.15625 81.226562 168.515625 81.007812 167.105469 L 80.910156 166.960938 C 77.847656 166.8125 74.039062 167.695312 71.203125 169.199219 Z M 125.339844 112.355469 L 125.484375 112.230469 C 125.734375 111.714844 126.058594 110.730469 126.140625 110.121094 C 126.25 109.359375 125.816406 108.636719 125.183594 108.140625 C 123.40625 106.671875 121.769531 107.941406 121.476562 109.511719 C 120.96875 111.765625 123.4375 112.847656 125.339844 112.367188 Z M 158.964844 166.246094 L 158.78125 166.421875 C 156.34375 168.765625 160.199219 173.070312 162.226562 170.082031 C 162.496094 169.507812 162.980469 168.882812 162.855469 168.046875 C 162.285156 166.671875 160.410156 164.867188 158.964844 166.238281 Z M 351.007812 64.226562 L 350.8125 64.285156 C 348.96875 65.144531 349.628906 69.445312 351.648438 69.804688 C 355.304688 69.617188 354.394531 63.585938 351.015625 64.226562 Z M 164.890625 152.667969 L 165.082031 152.472656 C 167.078125 150.523438 165.140625 147.816406 162.820312 148.476562 C 159.117188 149.84375 161.511719 155.113281 164.890625 152.667969 Z M 203.105469 41.085938 C 204.324219 41.285156 205.824219 40.058594 206.007812 38.824219 C 206.035156 38.222656 205.640625 37.398438 205.417969 36.90625 L 205.273438 36.777344 C 204.347656 36.480469 202.304688 36.628906 201.660156 37.363281 C 200.402344 38.589844 201.503906 40.851562 203.105469 41.085938 Z M 116.851562 183.789062 C 118.078125 185.230469 119.363281 186.851562 120.550781 188.078125 L 120.574219 188.035156 C 119.914062 184.980469 117.460938 179.023438 113.566406 178.9375 C 113.664062 180.207031 115.449219 181.902344 116.84375 183.789062 Z M 47.21875 187.058594 C 47.210938 187.542969 47.410156 188.328125 47.625 188.628906 C 47.835938 188.9375 48.21875 188.695312 48.917969 188.609375 C 49.769531 188.4375 51.164062 188.277344 51.824219 188.078125 L 51.875 187.984375 C 52.683594 183.695312 47.5 183.246094 47.210938 187.066406 Z M 92.273438 108.183594 C 94.863281 107.050781 93.726562 102.984375 90.730469 103.960938 L 90.507812 104.027344 C 89.9375 104.226562 88.738281 105.253906 88.738281 106.082031 C 89.195312 107.308594 91.164062 108.585938 92.273438 108.183594 Z M 92.292969 136.375 C 92.699219 134.082031 88.828125 126.503906 85.890625 126.636719 C 87.277344 128.765625 90.789062 134.363281 92.265625 136.433594 L 92.292969 136.367188 Z M 62.980469 195.929688 L 62.839844 195.972656 C 61.503906 196.464844 61.347656 198.652344 62.332031 199.628906 C 62.949219 200.335938 64.082031 200.320312 64.945312 200.101562 C 67.289062 199.101562 66.070312 194.886719 62.980469 195.929688 Z M 74.148438 133.613281 C 74.015625 133.605469 73.738281 133.589844 73.605469 133.578125 C 73.003906 133.539062 72.78125 134.53125 73.3125 134.90625 C 76.277344 135.957031 78.695312 138.6875 81.5 139.957031 L 81.578125 139.914062 C 80.875 136.917969 77.261719 134.128906 74.148438 133.621094 Z M 268.453125 186.339844 C 268.175781 186.832031 268.160156 187.59375 268.234375 188.195312 C 268.285156 190.214844 270.421875 190.105469 271.855469 189.539062 L 271.964844 189.429688 C 272.113281 188.484375 272.191406 187.226562 271.746094 186.398438 C 271.023438 184.871094 269.175781 184.871094 268.453125 186.339844 Z M 92.574219 188.988281 C 90.082031 191.28125 89.027344 195.597656 88.027344 198.757812 L 88.078125 198.800781 C 90.582031 196.914062 92.308594 193.191406 92.875 190.019531 C 92.960938 189.378906 93.160156 188.675781 92.574219 188.988281 Z M 202.253906 185.863281 C 202.65625 185.832031 203.53125 185.441406 203.839844 185.257812 L 203.980469 185.097656 C 204.566406 184.3125 204.984375 183.21875 204.207031 182.453125 C 203.714844 181.910156 202.871094 181.527344 202.171875 181.199219 C 201.878906 181.023438 201.570312 180.957031 201.3125 181.175781 C 199.648438 182.644531 200.535156 185.128906 202.253906 185.863281 Z M 49.394531 131.71875 C 49.355469 132.292969 49.652344 133.003906 49.753906 133.539062 L 49.855469 133.648438 C 50.796875 133.730469 52.117188 133.730469 52.800781 133.039062 C 53.984375 131.96875 53.234375 129.648438 51.78125 129.375 C 50.628906 129.183594 49.519531 130.609375 49.386719 131.71875 Z M 191.355469 199.476562 L 191.328125 199.492188 C 191.253906 199.984375 191.070312 201.097656 190.980469 201.664062 C 190.902344 202.3125 190.761719 202.265625 191.152344 202.429688 C 191.855469 202.757812 193.726562 203.714844 193.765625 203.675781 C 194.023438 203.082031 194.390625 201.789062 194.625 201.136719 C 194.757812 200.660156 194.882812 200.535156 194.71875 200.503906 C 194.308594 200.378906 192.148438 199.710938 191.355469 199.46875 Z M 242.753906 28.300781 C 245.625 28.066406 244.117188 23.933594 242.046875 23.984375 L 241.886719 24.019531 C 239.339844 24.835938 239.726562 28.984375 242.753906 28.300781 Z M 85.007812 178.796875 C 83.722656 176.835938 80.726562 177.429688 78.605469 177.542969 C 77.351562 177.753906 76.359375 176.984375 76.558594 178.570312 C 76.628906 179.03125 76.359375 179.757812 76.859375 179.613281 C 79.039062 179.398438 82.996094 179.171875 85.054688 178.886719 L 85.015625 178.796875 Z M 198.40625 160.460938 C 199.40625 155.796875 192.546875 155.453125 194.910156 160.394531 C 194.925781 160.527344 197.753906 160.476562 198.382812 160.527344 L 198.414062 160.460938 Z M 70.109375 215.71875 L 69.933594 215.757812 C 68.464844 216.175781 67.238281 219.382812 69.265625 219.972656 C 72.53125 221.042969 73.128906 215.417969 70.101562 215.726562 Z M 163.328125 201.53125 C 162.144531 203.214844 164.808594 205.484375 166.382812 204.390625 L 166.535156 204.25 C 168.230469 202.089844 165.691406 198.710938 163.328125 201.53125 Z M 288.339844 23.359375 C 288.640625 23.367188 289.132812 23.335938 289.289062 23.269531 C 289.566406 23.050781 289.324219 20.171875 289.398438 19.738281 L 289.367188 19.71875 C 288.882812 19.789062 287.386719 19.679688 286.921875 19.878906 C 284.75 21.382812 285.992188 23.375 288.332031 23.359375 Z M 121.203125 135.082031 C 120.882812 135.5 118.980469 138.371094 118.261719 139.53125 C 118.222656 139.671875 117.695312 142.761719 117.738281 142.867188 L 117.8125 142.84375 C 119.816406 141.140625 121.453125 137.703125 121.203125 135.089844 Z M 76.667969 188.734375 C 76.667969 188.929688 76.851562 188.644531 77.167969 188.34375 C 78.582031 186.890625 81.074219 184.511719 82.320312 183.136719 L 82.226562 183.121094 C 79.488281 183.0625 77.035156 186.242188 76.667969 188.726562 Z M 57.773438 157.949219 C 60.503906 156.414062 57.667969 154 55.539062 154.828125 L 55.386719 154.917969 C 54.34375 156.488281 55.761719 159.34375 57.773438 157.949219 Z M 118.179688 212.855469 L 117.980469 212.914062 C 116.667969 213.449219 116.636719 215.976562 118.097656 216.433594 C 121.394531 217.304688 121.144531 212.027344 118.179688 212.855469 Z M 120.457031 228.445312 L 120.550781 228.378906 C 120.550781 228.160156 120.640625 227.652344 120.808594 227.316406 C 123.304688 221.058594 113.316406 226.449219 120.457031 228.4375 Z M 75.074219 124.464844 C 75.074219 124.851562 75.074219 126.894531 75.074219 127.613281 C 75.074219 127.945312 75.035156 127.90625 75.402344 127.90625 C 75.933594 127.90625 77.320312 127.90625 77.878906 127.90625 L 77.914062 127.796875 C 78.054688 126.554688 78.054688 124.648438 76.46875 124.375 C 76.085938 124.28125 75.109375 124.265625 75.066406 124.476562 Z M 145.21875 207.554688 C 145.789062 207.621094 146.90625 207.3125 147.414062 207.246094 L 147.441406 207.164062 C 147.480469 206.296875 147.289062 205.234375 146.707031 204.742188 C 145.8125 203.925781 144.25 204.519531 144.019531 205.628906 C 143.835938 206.386719 144.542969 207.195312 145.210938 207.554688 Z M 180.570312 99.695312 L 180.707031 99.570312 C 180.824219 98.417969 180.871094 96.625 179.503906 96.207031 C 179.042969 96.132812 178.359375 95.925781 177.96875 96.234375 C 177.601562 96.949219 177.808594 98.210938 178.136719 98.863281 C 178.535156 99.707031 179.789062 99.820312 180.582031 99.695312 Z M 181.191406 188.183594 C 180.949219 187.960938 180.253906 188.988281 180.078125 189.085938 C 179.9375 189.226562 179.980469 189.261719 180.0625 189.546875 C 180.1875 189.996094 180.554688 191.230469 180.671875 191.664062 L 180.78125 191.699219 C 182.199219 191.957031 183.375 190.230469 182.683594 189.09375 C 182.398438 188.929688 181.472656 188.359375 181.191406 188.195312 Z M 181.191406 188.183594 "/></g></g></svg>