<svg xmlns="http://www.w3.org/2000/svg" xmlns:xlink="http://www.w3.org/1999/xlink" width="308" zoomAndPan="magnify" viewBox="0 0 230.87999 153.750002" height="205" preserveAspectRatio="xMidYMid meet" version="1.2"><defs><clipPath id="aeafa534f5"><path d="M 0.128906 106 L 230.003906 106 L 230.003906 153.5 L 0.128906 153.5 Z M 0.128906 106 "/></clipPath></defs><g id="9995bf6b87"><g style="fill:#000000;fill-opacity:1;"><g transform="translate(46.540887, 133.455649)"><path style="stroke:none" d="M 2.140625 -0.59375 L 1.4375 0.09375 L 0.75 -0.59375 L 1.4375 -1.296875 Z M 2.140625 -0.59375 "/></g></g><g clip-rule="nonzero" clip-path="url(#aeafa534f5)"><path style=" stroke:none;fill-rule:nonzero;fill:#faf2ec;fill-opacity:1;" d="M 0.128906 106.511719 L 4.929688 107.53125 C 9.757812 108.554688 19.359375 110.597656 28.9375 110.777344 C 38.515625 110.929688 48.070312 109.246094 57.648438 108.171875 C 67.226562 107.097656 76.828125 106.691406 86.40625 109.191406 C 95.984375 111.695312 105.539062 117.164062 115.117188 116.777344 C 124.695312 116.394531 134.296875 110.164062 143.875 110.648438 C 153.453125 111.109375 163.007812 118.261719 172.585938 120.484375 C 182.164062 122.679688 191.769531 119.972656 201.347656 118.132812 C 210.925781 116.292969 220.476562 115.375 225.226562 114.890625 L 230.003906 114.429688 L 230.003906 153.507812 L 225.226562 153.507812 C 220.476562 153.507812 210.925781 153.507812 201.347656 153.507812 C 191.769531 153.507812 182.164062 153.507812 172.585938 153.507812 C 163.007812 153.507812 153.453125 153.507812 143.875 153.507812 C 134.296875 153.507812 124.695312 153.507812 115.117188 153.507812 C 105.539062 153.507812 95.984375 153.507812 86.40625 153.507812 C 76.828125 153.507812 67.226562 153.507812 57.648438 153.507812 C 48.070312 153.507812 38.515625 153.507812 28.9375 153.507812 C 19.359375 153.507812 9.757812 153.507812 4.929688 153.507812 L 0.128906 153.507812 Z M 0.128906 106.511719 "/></g></g></svg>