<svg id="visual" viewBox="0 0 900 600" width="900" height="600" xmlns="http://www.w3.org/2000/svg" xmlns:xlink="http://www.w3.org/1999/xlink" version="1.1"><path d="M0 417L18.8 421C37.7 425 75.3 433 112.8 433.7C150.3 434.3 187.7 427.7 225.2 423.5C262.7 419.3 300.3 417.7 337.8 427.5C375.3 437.3 412.7 458.7 450.2 457.2C487.7 455.7 525.3 431.3 562.8 433.2C600.3 435 637.7 463 675.2 471.7C712.7 480.3 750.3 469.7 787.8 462.5C825.3 455.3 862.7 451.7 881.3 449.8L900 448L900 601L881.3 601C862.7 601 825.3 601 787.8 601C750.3 601 712.7 601 675.2 601C637.7 601 600.3 601 562.8 601C525.3 601 487.7 601 450.2 601C412.7 601 375.3 601 337.8 601C300.3 601 262.7 601 225.2 601C187.7 601 150.3 601 112.8 601C75.3 601 37.7 601 18.8 601L0 601Z" fill="#fffcf7" stroke-linecap="round" stroke-linejoin="miter"></path></svg>