<svg xmlns="http://www.w3.org/2000/svg" xmlns:xlink="http://www.w3.org/1999/xlink" width="319" zoomAndPan="magnify" viewBox="0 0 239.25 239.249995" height="319" preserveAspectRatio="xMidYMid meet" version="1.2"><defs><clipPath id="73bdad4e9f"><path d="M 41 206 L 58 206 L 58 224 L 41 224 Z M 41 206 "/></clipPath><clipPath id="68e3e38f5f"><path d="M 40.777344 207.152344 L 57.488281 206.234375 L 58.40625 222.941406 L 41.695312 223.859375 Z M 40.777344 207.152344 "/></clipPath><clipPath id="73a3ff62da"><path d="M 49.132812 206.691406 C 44.519531 206.945312 40.984375 210.890625 41.238281 215.507812 C 41.492188 220.121094 45.4375 223.65625 50.050781 223.402344 C 54.664062 223.148438 58.199219 219.203125 57.945312 214.585938 C 57.691406 209.972656 53.746094 206.4375 49.132812 206.691406 Z M 49.132812 206.691406 "/></clipPath><clipPath id="ee134d53ba"><path d="M 47 201 L 67 201 L 67 222 L 47 222 Z M 47 201 "/></clipPath><clipPath id="df26b83544"><path d="M 46.476562 202.21875 L 66.140625 201.136719 L 67.21875 220.796875 L 47.558594 221.878906 Z M 46.476562 202.21875 "/></clipPath><clipPath id="2db295652a"><path d="M 56.308594 201.675781 C 50.878906 201.976562 46.71875 206.617188 47.019531 212.046875 C 47.316406 217.476562 51.960938 221.636719 57.390625 221.339844 C 62.816406 221.039062 66.976562 216.398438 66.679688 210.96875 C 66.382812 205.539062 61.738281 201.378906 56.308594 201.675781 Z M 56.308594 201.675781 "/></clipPath><clipPath id="3640eec558"><path d="M 32 189 L 50 189 L 50 206 L 32 206 Z M 32 189 "/></clipPath><clipPath id="373db68c7c"><path d="M 31.964844 189.523438 L 48.675781 188.605469 L 49.59375 205.316406 L 32.882812 206.234375 Z M 31.964844 189.523438 "/></clipPath><clipPath id="11ea3c9c5b"><path d="M 40.320312 189.066406 C 35.707031 189.320312 32.171875 193.265625 32.425781 197.878906 C 32.675781 202.492188 36.625 206.027344 41.238281 205.773438 C 45.851562 205.519531 49.386719 201.574219 49.132812 196.960938 C 48.878906 192.347656 44.933594 188.8125 40.320312 189.066406 Z M 40.320312 189.066406 "/></clipPath><clipPath id="2de6a0929f"><path d="M 6 6 L 232 6 L 232 232 L 6 232 Z M 6 6 "/></clipPath><clipPath id="c22ea60c23"><path d="M 0 12.390625 L 225.558594 0 L 237.949219 225.554688 L 12.394531 237.949219 Z M 0 12.390625 "/></clipPath><clipPath id="ef7d7ce1ba"><path d="M 112.777344 6.195312 C 50.492188 9.617188 2.773438 62.886719 6.195312 125.171875 C 9.617188 187.457031 62.886719 235.175781 125.171875 231.753906 C 187.457031 228.332031 235.175781 175.0625 231.753906 112.777344 C 228.332031 50.492188 175.0625 2.773438 112.777344 6.195312 Z M 112.777344 6.195312 "/></clipPath><clipPath id="cdfc581f67"><path d="M 27 201 L 52 201 L 52 226 L 27 226 Z M 27 201 "/></clipPath><clipPath id="31fb4ee9c4"><path d="M 26.675781 202.007812 L 50.675781 200.691406 L 51.992188 224.6875 L 27.996094 226.007812 Z M 26.675781 202.007812 "/></clipPath><clipPath id="a4665e4b32"><path d="M 38.675781 201.351562 C 32.050781 201.714844 26.972656 207.382812 27.335938 214.007812 C 27.699219 220.636719 33.367188 225.710938 39.996094 225.347656 C 46.621094 224.984375 51.699219 219.316406 51.335938 212.691406 C 50.96875 206.0625 45.304688 200.988281 38.675781 201.351562 Z M 38.675781 201.351562 "/></clipPath><clipPath id="be38dec51f"><path d="M 22 213 L 38 213 L 38 229 L 22 229 Z M 22 213 "/></clipPath><clipPath id="754687a4f8"><path d="M 21.929688 214.164062 L 36.785156 213.347656 L 37.601562 228.207031 L 22.746094 229.023438 Z M 21.929688 214.164062 "/></clipPath><clipPath id="4caa918e90"><path d="M 29.359375 213.757812 C 25.253906 213.984375 22.113281 217.492188 22.335938 221.59375 C 22.5625 225.699219 26.070312 228.839844 30.175781 228.617188 C 34.277344 228.390625 37.421875 224.882812 37.195312 220.777344 C 36.96875 216.675781 33.460938 213.53125 29.359375 213.757812 Z M 29.359375 213.757812 "/></clipPath><clipPath id="361f8b9d96"><path d="M 4.132812 4.277344 L 233.664062 4.277344 L 233.664062 233.808594 L 4.132812 233.808594 Z M 4.132812 4.277344 "/></clipPath></defs><g id="3d854249b8"><g clip-rule="nonzero" clip-path="url(#73bdad4e9f)"><g clip-rule="nonzero" clip-path="url(#68e3e38f5f)"><g clip-rule="nonzero" clip-path="url(#73a3ff62da)"><path style=" stroke:none;fill-rule:nonzero;fill:#faf2ec;fill-opacity:1;" d="M 40.777344 207.152344 L 57.488281 206.234375 L 58.40625 222.941406 L 41.695312 223.859375 Z M 40.777344 207.152344 "/></g></g></g><g clip-rule="nonzero" clip-path="url(#ee134d53ba)"><g clip-rule="nonzero" clip-path="url(#df26b83544)"><g clip-rule="nonzero" clip-path="url(#2db295652a)"><path style=" stroke:none;fill-rule:nonzero;fill:#faf2ec;fill-opacity:1;" d="M 46.476562 202.21875 L 66.140625 201.136719 L 67.21875 220.796875 L 47.558594 221.878906 Z M 46.476562 202.21875 "/></g></g></g><g clip-rule="nonzero" clip-path="url(#3640eec558)"><g clip-rule="nonzero" clip-path="url(#373db68c7c)"><g clip-rule="nonzero" clip-path="url(#11ea3c9c5b)"><path style=" stroke:none;fill-rule:nonzero;fill:#faf2ec;fill-opacity:1;" d="M 31.964844 189.523438 L 48.675781 188.605469 L 49.59375 205.316406 L 32.882812 206.234375 Z M 31.964844 189.523438 "/></g></g></g><g clip-rule="nonzero" clip-path="url(#2de6a0929f)"><g clip-rule="nonzero" clip-path="url(#c22ea60c23)"><g clip-rule="nonzero" clip-path="url(#ef7d7ce1ba)"><path style=" stroke:none;fill-rule:nonzero;fill:#faf2ec;fill-opacity:1;" d="M 0 12.390625 L 225.558594 0 L 237.949219 225.554688 L 12.394531 237.949219 Z M 0 12.390625 "/></g></g></g><g clip-rule="nonzero" clip-path="url(#cdfc581f67)"><g clip-rule="nonzero" clip-path="url(#31fb4ee9c4)"><g clip-rule="nonzero" clip-path="url(#a4665e4b32)"><path style=" stroke:none;fill-rule:nonzero;fill:#faf2ec;fill-opacity:1;" d="M 26.675781 202.007812 L 50.675781 200.691406 L 51.992188 224.6875 L 27.996094 226.007812 Z M 26.675781 202.007812 "/></g></g></g><g clip-rule="nonzero" clip-path="url(#be38dec51f)"><g clip-rule="nonzero" clip-path="url(#754687a4f8)"><g clip-rule="nonzero" clip-path="url(#4caa918e90)"><path style=" stroke:none;fill-rule:nonzero;fill:#faf2ec;fill-opacity:1;" d="M 21.929688 214.164062 L 36.785156 213.347656 L 37.601562 228.207031 L 22.746094 229.023438 Z M 21.929688 214.164062 "/></g></g></g><g clip-rule="nonzero" clip-path="url(#361f8b9d96)"><path style=" stroke:none;fill-rule:nonzero;fill:#3e473a;fill-opacity:1;" d="M 118.984375 233.476562 C 118.089844 233.476562 117.191406 233.464844 116.296875 233.445312 C 99.699219 233.070312 83.753906 229.222656 68.910156 222.007812 C 67.992188 221.5625 67.023438 221.285156 66.007812 221.179688 C 64.992188 221.078125 63.988281 221.148438 63 221.402344 L 29.976562 229.808594 C 29.246094 229.992188 28.503906 230.070312 27.75 230.039062 C 26.992188 230.007812 26.257812 229.871094 25.546875 229.621094 C 24.832031 229.375 24.167969 229.03125 23.554688 228.589844 C 22.941406 228.148438 22.40625 227.628906 21.945312 227.03125 C 21.484375 226.429688 21.121094 225.777344 20.851562 225.074219 C 20.582031 224.367188 20.421875 223.636719 20.363281 222.886719 C 20.308594 222.132812 20.363281 221.386719 20.527344 220.648438 C 20.691406 219.910156 20.957031 219.214844 21.324219 218.554688 L 31.074219 201.082031 C 31.5 200.332031 31.800781 199.53125 31.984375 198.6875 C 32.167969 197.839844 32.222656 196.988281 32.148438 196.125 C 32.074219 195.265625 31.871094 194.433594 31.546875 193.632812 C 31.21875 192.832031 30.78125 192.097656 30.230469 191.429688 C 26.148438 186.453125 22.515625 181.171875 19.328125 175.582031 C 16.140625 169.992188 13.445312 164.171875 11.242188 158.128906 C 9.039062 152.082031 7.363281 145.894531 6.207031 139.5625 C 5.050781 133.230469 4.433594 126.851562 4.359375 120.414062 C 4.152344 104.789062 7.015625 89.617188 12.863281 75.328125 C 14.269531 71.898438 15.835938 68.542969 17.566406 65.265625 C 19.296875 61.992188 21.183594 58.804688 23.222656 55.710938 C 25.265625 52.617188 27.449219 49.628906 29.78125 46.746094 C 32.109375 43.867188 34.574219 41.105469 37.171875 38.460938 C 39.773438 35.820312 42.492188 33.308594 45.335938 30.933594 C 48.175781 28.554688 51.128906 26.320312 54.1875 24.226562 C 57.246094 22.136719 60.402344 20.199219 63.648438 18.414062 C 66.894531 16.628906 70.222656 15.003906 73.628906 13.542969 C 87.8125 7.464844 102.921875 4.355469 118.539062 4.300781 C 118.671875 4.300781 118.808594 4.300781 118.941406 4.300781 C 120.820312 4.300781 122.699219 4.34375 124.574219 4.4375 C 126.453125 4.527344 128.324219 4.664062 130.195312 4.847656 C 132.066406 5.03125 133.933594 5.261719 135.792969 5.535156 C 137.648438 5.8125 139.5 6.132812 141.34375 6.496094 C 143.1875 6.863281 145.023438 7.277344 146.84375 7.730469 C 148.667969 8.1875 150.480469 8.691406 152.277344 9.234375 C 154.074219 9.78125 155.859375 10.371094 157.628906 11.003906 C 159.398438 11.640625 161.152344 12.316406 162.886719 13.035156 C 164.625 13.753906 166.339844 14.519531 168.039062 15.324219 C 169.738281 16.125 171.417969 16.972656 173.074219 17.859375 C 174.730469 18.746094 176.363281 19.675781 177.976562 20.640625 C 179.585938 21.609375 181.171875 22.617188 182.734375 23.664062 C 184.296875 24.707031 185.832031 25.792969 187.339844 26.914062 C 188.847656 28.035156 190.328125 29.191406 191.78125 30.386719 C 193.230469 31.582031 194.652344 32.808594 196.042969 34.074219 C 197.433594 35.339844 198.792969 36.636719 200.117188 37.96875 C 201.445312 39.296875 202.738281 40.660156 204 42.054688 C 205.257812 43.449219 206.484375 44.875 207.671875 46.332031 C 208.863281 47.785156 210.015625 49.269531 211.132812 50.78125 C 212.25 52.292969 213.328125 53.832031 214.367188 55.398438 C 215.410156 56.960938 216.410156 58.550781 217.371094 60.167969 C 218.335938 61.78125 219.257812 63.417969 220.136719 65.078125 C 221.019531 66.738281 221.859375 68.417969 222.660156 70.117188 C 223.460938 71.820312 224.214844 73.539062 224.929688 75.277344 C 225.644531 77.015625 226.316406 78.773438 226.945312 80.542969 C 227.570312 82.316406 228.15625 84.101562 228.695312 85.902344 C 229.234375 87.703125 229.730469 89.515625 230.179688 91.339844 C 230.632812 93.164062 231.039062 94.996094 231.398438 96.84375 C 231.757812 98.6875 232.074219 100.539062 232.34375 102.398438 C 232.613281 104.257812 232.835938 106.125 233.011719 107.996094 C 233.1875 109.867188 233.320312 111.742188 233.40625 113.621094 C 233.492188 115.496094 233.527344 117.375 233.523438 119.253906 C 233.472656 134.957031 230.324219 150.144531 224.167969 164.402344 C 223.066406 166.953125 221.875 169.457031 220.589844 171.921875 C 219.308594 174.382812 217.9375 176.796875 216.476562 179.160156 C 215.019531 181.523438 213.476562 183.828125 211.847656 186.082031 C 210.222656 188.332031 208.515625 190.519531 206.730469 192.644531 C 204.945312 194.773438 203.082031 196.832031 201.148438 198.820312 C 199.210938 200.8125 197.207031 202.730469 195.128906 204.574219 C 193.054688 206.421875 190.914062 208.1875 188.710938 209.875 C 186.503906 211.566406 184.242188 213.171875 181.921875 214.695312 C 179.601562 216.222656 177.226562 217.660156 174.800781 219.011719 C 172.375 220.363281 169.902344 221.625 167.386719 222.792969 C 164.867188 223.964844 162.3125 225.042969 159.714844 226.03125 C 157.117188 227.015625 154.488281 227.90625 151.828125 228.699219 C 149.167969 229.492188 146.480469 230.191406 143.769531 230.789062 C 141.058594 231.386719 138.328125 231.886719 135.578125 232.285156 C 132.832031 232.683594 130.074219 232.984375 127.304688 233.183594 C 124.53125 233.382812 121.761719 233.480469 118.984375 233.476562 Z M 65.121094 218.320312 C 66.882812 218.320312 68.558594 218.703125 70.144531 219.472656 C 84.621094 226.511719 100.167969 230.261719 116.359375 230.628906 C 146.699219 231.316406 175.335938 220.066406 196.996094 198.957031 C 218.636719 177.863281 230.609375 149.554688 230.703125 119.246094 C 230.796875 89.25 219.167969 61.050781 197.957031 39.847656 C 176.839844 18.734375 148.789062 7.121094 118.9375 7.121094 C 118.808594 7.121094 118.679688 7.121094 118.550781 7.121094 L 118.546875 5.710938 L 118.550781 7.121094 C 88.402344 7.222656 60.222656 19.050781 39.191406 40.425781 C 18.152344 61.816406 6.78125 90.210938 7.175781 120.378906 C 7.507812 145.9375 16.234375 169.890625 32.410156 189.644531 C 33.140625 190.53125 33.722656 191.507812 34.15625 192.566406 C 34.589844 193.628906 34.859375 194.734375 34.957031 195.875 C 35.058594 197.019531 34.988281 198.152344 34.742188 199.273438 C 34.5 200.394531 34.097656 201.457031 33.53125 202.457031 L 23.785156 219.925781 C 23.550781 220.347656 23.382812 220.789062 23.277344 221.257812 C 23.175781 221.726562 23.140625 222.199219 23.175781 222.679688 C 23.210938 223.15625 23.3125 223.621094 23.484375 224.070312 C 23.65625 224.519531 23.886719 224.933594 24.179688 225.3125 C 24.472656 225.691406 24.8125 226.023438 25.203125 226.304688 C 25.589844 226.585938 26.011719 226.804688 26.464844 226.960938 C 26.921875 227.117188 27.386719 227.203125 27.867188 227.226562 C 28.34375 227.246094 28.816406 227.195312 29.28125 227.078125 L 62.304688 218.671875 C 63.226562 218.433594 64.167969 218.316406 65.121094 218.320312 Z M 118.933594 219.53125 C 117.289062 219.53125 115.644531 219.492188 114 219.410156 C 112.355469 219.332031 110.714844 219.210938 109.074219 219.050781 C 107.4375 218.890625 105.804688 218.691406 104.175781 218.449219 C 102.546875 218.210938 100.925781 217.929688 99.3125 217.609375 C 97.695312 217.289062 96.089844 216.929688 94.492188 216.53125 C 92.898438 216.132812 91.308594 215.695312 89.734375 215.21875 C 88.160156 214.742188 86.597656 214.230469 85.046875 213.675781 C 83.496094 213.121094 81.960938 212.53125 80.4375 211.902344 C 78.917969 211.273438 77.410156 210.609375 75.921875 209.90625 C 74.433594 209.203125 72.964844 208.464844 71.511719 207.691406 C 70.058594 206.917969 68.625 206.109375 67.210938 205.265625 C 65.800781 204.417969 64.410156 203.539062 63.039062 202.628906 C 61.667969 201.714844 60.324219 200.769531 59 199.789062 C 57.675781 198.8125 56.375 197.800781 55.101562 196.757812 C 53.828125 195.714844 52.582031 194.640625 51.359375 193.539062 C 50.140625 192.433594 48.945312 191.300781 47.78125 190.140625 C 46.613281 188.976562 45.476562 187.785156 44.371094 186.570312 C 43.265625 185.351562 42.1875 184.105469 41.140625 182.835938 C 40.09375 181.566406 39.082031 180.269531 38.097656 178.949219 C 37.113281 177.628906 36.164062 176.285156 35.25 174.917969 C 34.332031 173.550781 33.449219 172.160156 32.601562 170.75 C 31.75 169.339844 30.9375 167.910156 30.160156 166.460938 C 29.378906 165.007812 28.636719 163.539062 27.933594 162.054688 C 27.226562 160.566406 26.554688 159.0625 25.921875 157.542969 C 25.289062 156.023438 24.695312 154.492188 24.136719 152.941406 C 23.578125 151.394531 23.0625 149.832031 22.578125 148.257812 C 22.097656 146.683594 21.65625 145.097656 21.253906 143.5 C 20.851562 141.90625 20.484375 140.300781 20.160156 138.6875 C 19.835938 137.074219 19.550781 135.453125 19.308594 133.824219 C 19.0625 132.195312 18.855469 130.5625 18.691406 128.925781 C 18.527344 127.289062 18.402344 125.648438 18.316406 124.003906 C 18.234375 122.359375 18.1875 120.714844 18.1875 119.070312 C 18.183594 117.421875 18.21875 115.777344 18.296875 114.132812 C 18.371094 112.488281 18.488281 110.847656 18.644531 109.210938 C 18.804688 107.570312 19 105.9375 19.238281 104.308594 C 19.476562 102.679688 19.753906 101.058594 20.070312 99.441406 C 20.386719 97.828125 20.742188 96.21875 21.140625 94.621094 C 21.535156 93.023438 21.96875 91.4375 22.445312 89.859375 C 22.917969 88.285156 23.429688 86.71875 23.980469 85.167969 C 24.53125 83.617188 25.117188 82.082031 25.742188 80.558594 C 26.371094 79.035156 27.03125 77.53125 27.730469 76.039062 C 28.429688 74.550781 29.167969 73.078125 29.9375 71.625 C 30.710938 70.167969 31.515625 68.734375 32.359375 67.320312 C 33.203125 65.90625 34.078125 64.515625 34.988281 63.140625 C 35.898438 61.769531 36.84375 60.421875 37.820312 59.097656 C 38.796875 57.773438 39.804688 56.472656 40.84375 55.195312 C 41.882812 53.921875 42.957031 52.671875 44.058594 51.449219 C 45.160156 50.226562 46.289062 49.03125 47.449219 47.863281 C 48.609375 46.695312 49.796875 45.554688 51.015625 44.445312 C 52.230469 43.335938 53.472656 42.257812 54.742188 41.210938 C 56.011719 40.160156 57.304688 39.144531 58.621094 38.160156 C 59.941406 37.175781 61.285156 36.222656 62.648438 35.304688 C 64.015625 34.382812 65.402344 33.5 66.8125 32.648438 C 68.21875 31.796875 69.648438 30.980469 71.097656 30.199219 C 72.546875 29.417969 74.015625 28.671875 75.5 27.964844 C 76.984375 27.253906 78.488281 26.582031 80.003906 25.945312 C 81.523438 25.3125 83.058594 24.714844 84.605469 24.152344 C 86.152344 23.59375 87.714844 23.070312 89.285156 22.585938 C 90.859375 22.101562 92.445312 21.65625 94.039062 21.25 C 95.636719 20.84375 97.238281 20.480469 98.851562 20.152344 C 100.464844 19.824219 102.085938 19.535156 103.710938 19.289062 C 105.339844 19.039062 106.972656 18.832031 108.609375 18.664062 C 110.246094 18.496094 111.886719 18.371094 113.53125 18.28125 C 115.175781 18.195312 116.820312 18.148438 118.464844 18.140625 C 120.113281 18.132812 121.757812 18.167969 123.402344 18.242188 C 125.046875 18.316406 126.6875 18.429688 128.328125 18.582031 C 129.964844 18.738281 131.601562 18.933594 133.230469 19.167969 C 134.859375 19.402344 136.480469 19.675781 138.097656 19.988281 C 139.714844 20.304688 141.320312 20.65625 142.917969 21.050781 C 144.515625 21.445312 146.105469 21.875 147.683594 22.347656 C 149.257812 22.816406 150.824219 23.328125 152.375 23.875 C 153.929688 24.421875 155.46875 25.007812 156.992188 25.628906 C 158.515625 26.253906 160.023438 26.914062 161.511719 27.609375 C 163.003906 28.308594 164.476562 29.039062 165.933594 29.808594 C 167.386719 30.578125 168.824219 31.382812 170.238281 32.222656 C 171.65625 33.0625 173.050781 33.933594 174.421875 34.84375 C 175.796875 35.75 177.144531 36.691406 178.472656 37.667969 C 179.800781 38.640625 181.101562 39.648438 182.378906 40.683594 C 183.65625 41.722656 184.910156 42.792969 186.132812 43.890625 C 187.359375 44.992188 188.554688 46.117188 189.726562 47.277344 C 190.894531 48.433594 192.035156 49.621094 193.148438 50.835938 C 194.257812 52.050781 195.339844 53.289062 196.390625 54.558594 C 197.441406 55.824219 198.460938 57.117188 199.449219 58.433594 C 200.4375 59.75 201.390625 61.089844 202.3125 62.453125 C 203.234375 63.820312 204.121094 65.203125 204.976562 66.613281 C 205.828125 68.019531 206.648438 69.445312 207.429688 70.894531 C 208.214844 72.339844 208.960938 73.808594 209.675781 75.292969 C 210.386719 76.777344 211.0625 78.277344 211.699219 79.792969 C 212.335938 81.3125 212.9375 82.84375 213.5 84.390625 C 214.066406 85.9375 214.589844 87.496094 215.074219 89.070312 C 215.5625 90.640625 216.011719 92.226562 216.417969 93.820312 C 216.828125 95.414062 217.199219 97.019531 217.527344 98.628906 C 217.859375 100.242188 218.148438 101.863281 218.398438 103.488281 C 218.652344 105.117188 218.863281 106.75 219.03125 108.386719 C 219.203125 110.023438 219.332031 111.664062 219.425781 113.308594 C 219.515625 114.949219 219.5625 116.59375 219.574219 118.242188 C 219.625 124.976562 218.996094 131.648438 217.683594 138.257812 C 216.375 144.863281 214.410156 151.273438 211.792969 157.480469 C 210.527344 160.476562 209.121094 163.410156 207.574219 166.273438 C 206.03125 169.136719 204.351562 171.921875 202.535156 174.621094 C 200.722656 177.324219 198.785156 179.9375 196.722656 182.453125 C 194.660156 184.96875 192.480469 187.382812 190.1875 189.691406 C 187.894531 192 185.492188 194.195312 182.988281 196.273438 C 180.484375 198.351562 177.886719 200.308594 175.195312 202.136719 C 172.503906 203.96875 169.734375 205.664062 166.878906 207.230469 C 164.027344 208.796875 161.105469 210.21875 158.113281 211.503906 C 151.925781 214.160156 145.53125 216.164062 138.933594 217.515625 C 132.335938 218.867188 125.667969 219.539062 118.933594 219.53125 Z M 118.933594 21.066406 C 64.996094 21.066406 21.113281 64.949219 21.113281 118.890625 C 21.109375 120.492188 21.148438 122.089844 21.222656 123.691406 C 21.300781 125.289062 21.417969 126.886719 21.574219 128.480469 C 21.730469 130.074219 21.921875 131.664062 22.15625 133.246094 C 22.390625 134.832031 22.664062 136.410156 22.976562 137.980469 C 23.285156 139.550781 23.636719 141.113281 24.023438 142.667969 C 24.410156 144.222656 24.835938 145.765625 25.300781 147.296875 C 25.765625 148.828125 26.265625 150.351562 26.804688 151.859375 C 27.34375 153.367188 27.917969 154.859375 28.53125 156.339844 C 29.144531 157.820312 29.792969 159.285156 30.476562 160.730469 C 31.160156 162.179688 31.878906 163.609375 32.632812 165.023438 C 33.386719 166.433594 34.175781 167.828125 35 169.203125 C 35.820312 170.574219 36.679688 171.929688 37.566406 173.261719 C 38.457031 174.59375 39.378906 175.902344 40.332031 177.1875 C 41.285156 178.472656 42.269531 179.734375 43.285156 180.972656 C 44.300781 182.210938 45.347656 183.425781 46.421875 184.609375 C 47.5 185.796875 48.601562 186.957031 49.734375 188.089844 C 50.867188 189.222656 52.027344 190.324219 53.214844 191.402344 C 54.398438 192.476562 55.613281 193.523438 56.851562 194.539062 C 58.089844 195.554688 59.351562 196.539062 60.636719 197.492188 C 61.921875 198.445312 63.230469 199.367188 64.5625 200.257812 C 65.894531 201.144531 67.25 202.003906 68.621094 202.824219 C 69.996094 203.648438 71.390625 204.4375 72.800781 205.191406 C 74.214844 205.945312 75.644531 206.664062 77.09375 207.347656 C 78.539062 208.03125 80.003906 208.679688 81.484375 209.292969 C 82.964844 209.90625 84.457031 210.480469 85.964844 211.019531 C 87.472656 211.558594 88.996094 212.058594 90.527344 212.523438 C 92.058594 212.988281 93.601562 213.414062 95.15625 213.800781 C 96.710938 214.1875 98.273438 214.539062 99.84375 214.847656 C 101.414062 215.160156 102.992188 215.433594 104.578125 215.667969 C 106.160156 215.898438 107.75 216.09375 109.34375 216.25 C 110.9375 216.40625 112.535156 216.523438 114.132812 216.597656 C 115.734375 216.675781 117.332031 216.714844 118.933594 216.710938 C 145.007812 216.710938 169.601562 206.414062 188.183594 187.710938 C 206.773438 169.003906 216.921875 144.339844 216.757812 118.257812 C 216.417969 64.667969 172.535156 21.066406 118.933594 21.066406 Z M 118.933594 21.066406 "/></g><path style=" stroke:none;fill-rule:nonzero;fill:#3e473a;fill-opacity:1;" d="M 157.039062 175.648438 C 155.800781 175.648438 154.582031 175.492188 153.382812 175.179688 C 145.53125 173.148438 137.894531 170.484375 130.480469 167.191406 C 120.277344 162.65625 111.070312 157.121094 103.113281 150.742188 C 93.195312 142.792969 85.191406 133.492188 79.316406 123.097656 C 72.394531 110.855469 68.339844 96.910156 67.265625 81.65625 C 67.214844 80.949219 67.214844 80.242188 67.265625 79.535156 C 67.320312 78.828125 67.421875 78.128906 67.578125 77.4375 C 67.734375 76.746094 67.9375 76.070312 68.191406 75.40625 C 68.445312 74.746094 68.746094 74.105469 69.09375 73.488281 C 69.441406 72.871094 69.832031 72.28125 70.265625 71.71875 C 70.703125 71.160156 71.171875 70.632812 71.683594 70.140625 C 72.195312 69.648438 72.738281 69.199219 73.316406 68.785156 C 73.894531 68.375 74.496094 68.003906 75.128906 67.683594 L 82.855469 63.710938 C 83.707031 63.277344 84.589844 62.929688 85.507812 62.667969 C 86.425781 62.402344 87.363281 62.234375 88.316406 62.15625 C 89.265625 62.078125 90.21875 62.09375 91.167969 62.203125 C 92.117188 62.3125 93.042969 62.511719 93.953125 62.804688 C 94.863281 63.097656 95.734375 63.476562 96.570312 63.9375 C 97.40625 64.402344 98.1875 64.941406 98.917969 65.558594 C 99.648438 66.175781 100.308594 66.859375 100.902344 67.605469 C 101.5 68.355469 102.015625 69.152344 102.453125 70 L 102.503906 70.105469 L 108.421875 81.839844 C 108.773438 82.539062 109.066406 83.261719 109.304688 84.007812 C 109.539062 84.753906 109.714844 85.515625 109.828125 86.289062 C 109.941406 87.066406 109.992188 87.84375 109.976562 88.625 C 109.964844 89.410156 109.890625 90.183594 109.753906 90.957031 C 109.613281 91.726562 109.414062 92.480469 109.15625 93.21875 C 108.894531 93.957031 108.578125 94.667969 108.203125 95.355469 C 107.832031 96.042969 107.402344 96.695312 106.921875 97.316406 C 106.441406 97.933594 105.917969 98.507812 105.34375 99.042969 C 104.886719 99.472656 104.464844 99.933594 104.082031 100.429688 C 103.699219 100.925781 103.355469 101.445312 103.054688 101.996094 C 102.753906 102.546875 102.5 103.117188 102.289062 103.707031 C 102.082031 104.300781 101.917969 104.902344 101.804688 105.519531 C 101.691406 106.136719 101.628906 106.757812 101.617188 107.386719 C 101.601562 108.011719 101.636719 108.636719 101.722656 109.257812 C 101.808594 109.878906 101.945312 110.488281 102.128906 111.085938 C 102.3125 111.6875 102.539062 112.265625 102.816406 112.832031 C 106.257812 119.738281 112.292969 129.4375 121.507812 136.394531 C 122.445312 137.113281 123.46875 137.679688 124.578125 138.085938 C 125.6875 138.496094 126.832031 138.730469 128.011719 138.792969 C 129.191406 138.855469 130.355469 138.738281 131.5 138.449219 C 132.648438 138.160156 133.722656 137.707031 134.730469 137.089844 L 138.542969 134.773438 C 139.488281 134.191406 140.484375 133.726562 141.535156 133.378906 C 142.589844 133.027344 143.667969 132.804688 144.769531 132.703125 C 145.875 132.601562 146.976562 132.625 148.074219 132.777344 C 149.171875 132.925781 150.238281 133.203125 151.273438 133.597656 L 166.421875 139.359375 C 167.304688 139.695312 168.148438 140.113281 168.949219 140.613281 C 169.75 141.113281 170.492188 141.6875 171.183594 142.332031 C 171.871094 142.976562 172.492188 143.683594 173.046875 144.449219 C 173.597656 145.214844 174.070312 146.023438 174.464844 146.882812 C 174.859375 147.738281 175.167969 148.628906 175.390625 149.546875 C 175.613281 150.464844 175.746094 151.394531 175.785156 152.335938 C 175.828125 153.28125 175.777344 154.21875 175.636719 155.152344 C 175.496094 156.085938 175.265625 156.996094 174.945312 157.886719 L 174.945312 157.894531 L 174.859375 158.117188 C 174.859375 158.125 174.855469 158.128906 174.855469 158.132812 L 174.742188 158.421875 C 174.574219 158.832031 174.386719 159.238281 174.183594 159.632812 L 169.984375 167.769531 C 169.371094 168.957031 168.609375 170.042969 167.699219 171.019531 C 166.789062 171.996094 165.761719 172.832031 164.621094 173.527344 C 163.476562 174.222656 162.261719 174.75 160.976562 175.109375 C 159.6875 175.46875 158.375 175.648438 157.039062 175.648438 Z M 89.488281 64.921875 C 87.601562 64.921875 85.820312 65.351562 84.144531 66.21875 L 76.414062 70.1875 C 75.390625 70.710938 74.46875 71.375 73.636719 72.171875 C 72.808594 72.96875 72.113281 73.867188 71.550781 74.871094 C 70.988281 75.871094 70.578125 76.933594 70.328125 78.054688 C 70.078125 79.175781 69.992188 80.3125 70.074219 81.457031 C 74.570312 145.128906 130.328125 166.304688 154.089844 172.453125 C 154.730469 172.625 155.382812 172.738281 156.039062 172.796875 C 156.699219 172.855469 157.359375 172.859375 158.019531 172.804688 C 158.679688 172.753906 159.332031 172.644531 159.972656 172.480469 C 160.613281 172.316406 161.238281 172.097656 161.839844 171.828125 C 162.445312 171.558594 163.023438 171.242188 163.574219 170.871094 C 164.125 170.503906 164.640625 170.09375 165.121094 169.636719 C 165.601562 169.179688 166.039062 168.6875 166.433594 168.15625 C 166.832031 167.628906 167.179688 167.066406 167.480469 166.476562 L 171.679688 158.339844 C 171.84375 158.023438 171.992188 157.695312 172.128906 157.367188 L 172.128906 157.050781 L 172.320312 156.855469 C 172.574219 156.140625 172.753906 155.40625 172.863281 154.65625 C 172.972656 153.90625 173.007812 153.152344 172.972656 152.398438 C 172.9375 151.640625 172.828125 150.890625 172.648438 150.15625 C 172.464844 149.421875 172.214844 148.707031 171.894531 148.019531 C 171.578125 147.332031 171.195312 146.683594 170.75 146.070312 C 170.304688 145.453125 169.804688 144.890625 169.25 144.375 C 168.695312 143.855469 168.09375 143.398438 167.449219 142.996094 C 166.808594 142.597656 166.128906 142.261719 165.421875 141.992188 L 150.273438 136.230469 C 149.4375 135.910156 148.578125 135.691406 147.691406 135.570312 C 146.804688 135.445312 145.917969 135.425781 145.027344 135.507812 C 144.136719 135.589844 143.269531 135.773438 142.421875 136.054688 C 141.574219 136.335938 140.769531 136.710938 140.003906 137.179688 L 136.195312 139.496094 C 135.570312 139.875 134.925781 140.203125 134.253906 140.484375 C 133.582031 140.765625 132.894531 140.992188 132.1875 141.171875 C 131.484375 141.347656 130.769531 141.472656 130.042969 141.542969 C 129.320312 141.613281 128.59375 141.628906 127.867188 141.59375 C 127.140625 141.554688 126.421875 141.464844 125.707031 141.316406 C 124.996094 141.171875 124.296875 140.972656 123.613281 140.722656 C 122.929688 140.472656 122.269531 140.175781 121.632812 139.824219 C 120.992188 139.476562 120.382812 139.082031 119.804688 138.640625 C 110.160156 131.355469 103.871094 121.265625 100.292969 114.085938 C 99.949219 113.386719 99.660156 112.667969 99.429688 111.921875 C 99.199219 111.179688 99.03125 110.421875 98.921875 109.652344 C 98.8125 108.878906 98.765625 108.105469 98.785156 107.328125 C 98.800781 106.550781 98.878906 105.777344 99.019531 105.011719 C 99.15625 104.246094 99.359375 103.496094 99.617188 102.761719 C 99.878906 102.027344 100.199219 101.320312 100.570312 100.640625 C 100.945312 99.957031 101.371094 99.308594 101.851562 98.695312 C 102.332031 98.082031 102.855469 97.507812 103.425781 96.980469 C 103.886719 96.546875 104.308594 96.082031 104.691406 95.582031 C 105.078125 95.085938 105.421875 94.558594 105.722656 94.003906 C 106.023438 93.449219 106.277344 92.875 106.484375 92.277344 C 106.695312 91.683594 106.855469 91.074219 106.964844 90.457031 C 107.074219 89.835938 107.136719 89.207031 107.148438 88.578125 C 107.160156 87.949219 107.117188 87.320312 107.027344 86.695312 C 106.9375 86.070312 106.800781 85.460938 106.609375 84.855469 C 106.421875 84.253906 106.1875 83.671875 105.90625 83.109375 L 99.941406 71.28125 C 99.449219 70.324219 98.832031 69.449219 98.097656 68.660156 C 97.359375 67.871094 96.53125 67.195312 95.609375 66.632812 C 94.6875 66.074219 93.707031 65.648438 92.667969 65.355469 C 91.628906 65.066406 90.570312 64.921875 89.488281 64.921875 Z M 89.488281 64.921875 "/></g></svg>